<svg width="1000" height="1000" viewBox="0 0 1000 1000" fill="none" xmlns="http://www.w3.org/2000/svg">
<rect width="1000" height="1000" rx="150" fill="white"/>
<path d="M372.625 565.179L353.968 512.304C352.6 508.425 352.051 504.305 352.357 500.203C352.662 496.101 353.815 492.107 355.743 488.474L484.378 246.065C485.936 243.129 488.115 240.885 490.623 239.324H509.376C511.884 240.885 514.064 243.129 515.622 246.065L564.695 338.541L572.139 402.252L404.514 579.538L372.625 565.179Z" fill="url(#paint0_linear_388_2993)"/>
<path d="M564.695 338.543L372.625 565.18L445.203 770.884H554.797L646.031 512.305C647.4 508.427 647.949 504.306 647.643 500.204C647.337 496.103 646.184 492.109 644.256 488.476L564.695 338.543Z" fill="url(#paint1_linear_388_2993)"/>
<path d="M440.442 783.943H559.558V866.615C559.557 868.838 558.674 870.97 557.102 872.542C555.53 874.115 553.398 874.998 551.175 875H448.825C446.602 874.998 444.471 874.115 442.899 872.543C441.327 870.971 440.444 868.84 440.442 866.617V783.943Z" fill="url(#paint2_linear_388_2993)"/>
<path fill-rule="evenodd" clip-rule="evenodd" d="M400.32 812.868H466.466H466.466H599.68C611.813 812.868 621.649 803.034 621.649 790.9V763.146C621.649 751.014 611.813 741.178 599.68 741.178H527.222H527.222H400.32C388.187 741.178 378.352 751.014 378.352 763.146V790.9C378.352 803.034 388.187 812.868 400.32 812.868Z" fill="url(#paint3_linear_388_2993)"/>
<path d="M746.609 256.532C708.417 218.339 662.906 190.119 613.252 173.135H762.803V154.385H237.197V173.135H386.748C337.092 190.119 291.583 218.338 253.389 256.532C187.516 322.407 151.234 409.985 151.234 503.141C151.234 512.907 151.641 522.61 152.438 532.235H171.266C170.406 522.641 169.984 512.938 169.984 503.141C169.984 321.172 318.031 173.141 500 173.141C681.969 173.141 830.016 321.172 830.016 503.141C830.016 512.938 829.594 522.641 828.734 532.235H847.563C848.359 522.61 848.766 512.907 848.766 503.141C848.766 409.985 812.484 322.407 746.609 256.532Z" fill="url(#paint4_linear_388_2993)"/>
<path d="M509.376 239.324L509.375 443.749H490.625L490.623 239.324C496.311 235.777 503.689 235.777 509.376 239.324Z" fill="url(#paint5_linear_388_2993)"/>
<path d="M500 474.402C521.406 474.402 538.759 457.048 538.759 435.642C538.759 414.236 521.406 396.883 500 396.883C478.593 396.883 461.24 414.236 461.24 435.642C461.24 457.048 478.593 474.402 500 474.402Z" fill="url(#paint6_linear_388_2993)"/>
<path d="M500 202.519C521.406 202.519 538.759 185.166 538.759 163.759C538.759 142.353 521.406 125 500 125C478.593 125 461.24 142.353 461.24 163.759C461.24 185.166 478.593 202.519 500 202.519Z" fill="url(#paint7_linear_388_2993)"/>
<path d="M778.835 202.519C800.241 202.519 817.594 185.166 817.594 163.759C817.594 142.353 800.241 125 778.835 125C757.428 125 740.075 142.353 740.075 163.759C740.075 185.166 757.428 202.519 778.835 202.519Z" fill="url(#paint8_linear_388_2993)"/>
<path d="M221.166 202.519C242.572 202.519 259.925 185.166 259.925 163.759C259.925 142.353 242.572 125 221.166 125C199.759 125 182.406 142.353 182.406 163.759C182.406 185.166 199.759 202.519 221.166 202.519Z" fill="url(#paint9_linear_388_2993)"/>
<path d="M163.759 564.292C185.166 564.292 202.519 546.939 202.519 525.533C202.519 504.127 185.166 486.773 163.759 486.773C142.353 486.773 125 504.127 125 525.533C125 546.939 142.353 564.292 163.759 564.292Z" fill="url(#paint10_linear_388_2993)"/>
<path d="M836.241 564.292C857.647 564.292 875 546.939 875 525.533C875 504.127 857.647 486.773 836.241 486.773C814.835 486.773 797.481 504.127 797.481 525.533C797.481 546.939 814.835 564.292 836.241 564.292Z" fill="url(#paint11_linear_388_2993)"/>
<defs>
<linearGradient id="paint0_linear_388_2993" x1="462.206" y1="778.782" x2="462.206" y2="300.29" gradientUnits="userSpaceOnUse">
<stop offset="0.000999987" stop-color="#7B00EE"/>
<stop offset="1" stop-color="#F3009A"/>
</linearGradient>
<linearGradient id="paint1_linear_388_2993" x1="510.175" y1="804.96" x2="510.175" y2="-25.3742" gradientUnits="userSpaceOnUse">
<stop offset="0.001" stop-color="#7B00EE"/>
<stop offset="0.564" stop-color="#F3009A"/>
</linearGradient>
<linearGradient id="paint2_linear_388_2993" x1="500" y1="870.328" x2="500" y2="762.426" gradientUnits="userSpaceOnUse">
<stop offset="0.001" stop-color="#F3009A"/>
<stop offset="0.999" stop-color="#7B00EE"/>
</linearGradient>
<linearGradient id="paint3_linear_388_2993" x1="198.822" y1="846.932" x2="756.253" y2="740.365" gradientUnits="userSpaceOnUse">
<stop stop-color="#7B00EE"/>
<stop offset="0.999" stop-color="#F3009A"/>
</linearGradient>
<linearGradient id="paint4_linear_388_2993" x1="500" y1="499.06" x2="500" y2="183.577" gradientUnits="userSpaceOnUse">
<stop offset="0.001" stop-color="#F3009A"/>
<stop offset="1" stop-color="#7B00EE"/>
</linearGradient>
<linearGradient id="paint5_linear_388_2993" x1="500" y1="283.899" x2="500" y2="138.16" gradientUnits="userSpaceOnUse">
<stop offset="0.001" stop-color="#E9E4EB"/>
<stop offset="1" stop-color="#FCFFFB"/>
</linearGradient>
<linearGradient id="paint6_linear_388_2993" x1="500" y1="444.747" x2="500" y2="407.823" gradientUnits="userSpaceOnUse">
<stop offset="0.001" stop-color="#E9E4EB"/>
<stop offset="1" stop-color="#FCFFFB"/>
</linearGradient>
<linearGradient id="paint7_linear_388_2993" x1="500" y1="246.156" x2="500" y2="95.4406" gradientUnits="userSpaceOnUse">
<stop stop-color="#7B00EE"/>
<stop offset="0.999" stop-color="#F3009A"/>
</linearGradient>
<linearGradient id="paint8_linear_388_2993" x1="778.835" y1="246.156" x2="778.835" y2="95.4406" gradientUnits="userSpaceOnUse">
<stop stop-color="#7B00EE"/>
<stop offset="0.999" stop-color="#F3009A"/>
</linearGradient>
<linearGradient id="paint9_linear_388_2993" x1="221.166" y1="246.156" x2="221.166" y2="95.4406" gradientUnits="userSpaceOnUse">
<stop stop-color="#7B00EE"/>
<stop offset="0.999" stop-color="#F3009A"/>
</linearGradient>
<linearGradient id="paint10_linear_388_2993" x1="163.759" y1="607.928" x2="163.759" y2="457.212" gradientUnits="userSpaceOnUse">
<stop stop-color="#F3009A"/>
<stop offset="0.999" stop-color="#7B00EE"/>
</linearGradient>
<linearGradient id="paint11_linear_388_2993" x1="836.241" y1="607.928" x2="836.241" y2="457.212" gradientUnits="userSpaceOnUse">
<stop stop-color="#F3009A"/>
<stop offset="0.999" stop-color="#7B00EE"/>
</linearGradient>
</defs>
</svg>
