<svg width="46" height="46" viewBox="0 0 46 46" fill="none" xmlns="http://www.w3.org/2000/svg">
<path d="M7.27142 42.9986V14.1136H4V42.9986H7.27142ZM17.9318 25.6603V25.6034L16.2396 22.6456L15.6192 21.5649L11.2761 13.943C10.9377 13.4311 10.43 13.1467 9.8096 13.1467H7.21502H4V9.84766H7.21502H9.8096C11.6709 9.84766 13.1938 10.7009 14.0963 12.2935L15.3936 14.5118L20.8084 23.9539C21.0904 24.5227 21.598 24.8071 22.2184 24.8071H22.8389H23.5157H24.1362C24.7566 24.8071 25.2643 24.5227 25.5463 23.9539L30.961 14.5118L32.2583 12.2935C33.1608 10.7009 34.6837 9.84766 36.4886 9.84766H39.0832H42.3546V13.1467V15.7632L40.7189 16.5712L39.0832 15.7632V13.1467H36.4886C35.9246 13.1467 35.3605 13.4311 35.0785 13.943L31.0739 20.9392L29.0433 24.5227L28.4229 25.6034L28.3665 25.6603C27.464 27.196 25.9411 28.1061 24.1362 28.1061H23.5157H22.8389H22.2184C20.4135 28.1061 18.8342 27.196 17.9318 25.6603Z" fill="white"/>
<path d="M42.3552 42.969V16.6992L40.6429 17.3841L38.9307 16.6992V42.969H42.3552Z" fill="white"/>
<path d="M38.4507 22.9992C38.4507 33.9577 29.4099 42.9984 18.4515 42.9984H11.3285H4V39.026H11.3285H18.4515C27.2182 39.026 34.4782 31.766 34.4782 22.9992C34.4782 14.1639 27.2182 6.90396 18.4515 6.90396H11.3285H4V3H11.3285H19.5473C30.0264 3.54792 38.4507 12.3147 38.4507 22.9992Z" fill="white"/>
<path d="M24.6731 36.6096C24.6859 36.6192 24.6923 36.6328 24.6923 36.6504C24.6923 36.6696 24.6851 36.6935 24.6707 36.7223C24.658 36.7495 24.634 36.787 24.5988 36.835C24.5653 36.8813 24.5213 36.9045 24.467 36.9045C24.4526 36.9045 24.4374 36.9005 24.4214 36.8925C24.4055 36.8829 24.3975 36.8677 24.3975 36.847C24.3975 36.823 24.4039 36.7982 24.4166 36.7726C24.4294 36.7471 24.4566 36.7119 24.4981 36.6672C24.5413 36.6208 24.5876 36.5977 24.6372 36.5977C24.65 36.5977 24.6619 36.6017 24.6731 36.6096Z" fill="white"/>
<path d="M23.9222 36.6096C23.9349 36.6192 23.9413 36.6328 23.9413 36.6504C23.9413 36.6696 23.9341 36.6935 23.9198 36.7223C23.907 36.7495 23.883 36.787 23.8478 36.835C23.8143 36.8813 23.7703 36.9045 23.716 36.9045C23.7016 36.9045 23.6864 36.9005 23.6705 36.8925C23.6545 36.8829 23.6465 36.8677 23.6465 36.847C23.6465 36.823 23.6529 36.7982 23.6657 36.7726C23.6784 36.7471 23.7056 36.7119 23.7472 36.6672C23.7903 36.6208 23.8367 36.5977 23.8862 36.5977C23.899 36.5977 23.911 36.6017 23.9222 36.6096Z" fill="white"/>
<path d="M23.1712 36.6096C23.184 36.6192 23.1904 36.6328 23.1904 36.6504C23.1904 36.6696 23.1832 36.6935 23.1688 36.7223C23.156 36.7495 23.132 36.787 23.0969 36.835C23.0633 36.8813 23.0194 36.9045 22.965 36.9045C22.9506 36.9045 22.9355 36.9005 22.9195 36.8925C22.9035 36.8829 22.8955 36.8677 22.8955 36.847C22.8955 36.823 22.9019 36.7982 22.9147 36.7726C22.9275 36.7471 22.9546 36.7119 22.9962 36.6672C23.0393 36.6208 23.0857 36.5977 23.1352 36.5977C23.148 36.5977 23.16 36.6017 23.1712 36.6096Z" fill="white"/>
<path d="M22.713 35.555C22.7338 35.5677 22.7442 35.5901 22.7442 35.6221C22.7442 35.6429 22.7394 35.6644 22.7298 35.6868C22.7218 35.7092 22.7098 35.7339 22.6938 35.7611C22.6779 35.7867 22.6547 35.8115 22.6243 35.8354C22.5956 35.8578 22.5676 35.869 22.5404 35.869C22.5292 35.869 22.5141 35.8642 22.4949 35.8546C22.4757 35.8434 22.4661 35.8194 22.4661 35.7827C22.4661 35.7619 22.4701 35.7403 22.4781 35.718C22.4861 35.6956 22.4973 35.6724 22.5117 35.6484C22.5276 35.6229 22.5508 35.5989 22.5812 35.5765C22.6131 35.5542 22.6435 35.543 22.6723 35.543C22.6867 35.543 22.7002 35.547 22.713 35.555ZM22.6938 36.5546C22.6091 36.6425 22.5189 36.7304 22.423 36.8183C22.3287 36.9062 22.2536 36.9501 22.1976 36.9501C22.1912 36.9501 22.1681 36.9405 22.1281 36.9213C22.0882 36.9022 22.053 36.8614 22.0226 36.7991C21.9939 36.7352 21.9795 36.6569 21.9795 36.5642C21.9795 36.489 22.033 36.3732 22.1401 36.2166C22.2488 36.0584 22.3191 35.9769 22.3511 35.9721C22.383 35.9673 22.4038 35.9649 22.4134 35.9649C22.4246 35.9633 22.4366 35.9625 22.4493 35.9625C22.4765 35.9625 22.4949 35.9665 22.5045 35.9745C22.5157 35.9824 22.5228 35.9936 22.526 36.008C22.5372 36.0544 22.5149 36.1223 22.4589 36.2118C22.403 36.2997 22.3511 36.3612 22.3031 36.3964C22.2568 36.4315 22.2288 36.4627 22.2192 36.4898C22.2096 36.517 22.2048 36.5466 22.2048 36.5785C22.2048 36.6153 22.2112 36.6473 22.224 36.6744C22.2384 36.7 22.26 36.7136 22.2887 36.7152C22.3574 36.7152 22.427 36.688 22.4973 36.6337C22.5692 36.5793 22.6347 36.5242 22.6938 36.4683V36.5546Z" fill="white"/>
<path d="M22.0058 36.5585C21.9179 36.6352 21.8212 36.7111 21.7157 36.7862C21.6102 36.8614 21.5135 36.8989 21.4256 36.8989C21.3889 36.8989 21.3601 36.8885 21.3393 36.8678C21.3186 36.847 21.3082 36.8134 21.3082 36.7671C21.3082 36.7319 21.3114 36.6992 21.3178 36.6688C21.3242 36.6384 21.3298 36.6137 21.3346 36.5945C21.3266 36.5897 21.273 36.6416 21.1739 36.7503C21.0765 36.8574 21.0085 36.9109 20.9702 36.9109C20.935 36.9109 20.8951 36.8686 20.8503 36.7839C20.8056 36.6976 20.7832 36.6192 20.7832 36.5489C20.7832 36.4323 20.8415 36.326 20.9582 36.2301C21.0749 36.1326 21.2035 36.0535 21.3441 35.9928C21.4864 35.9321 21.5743 35.9033 21.6078 35.9065C21.627 35.9097 21.6486 35.9281 21.6726 35.9616C21.6965 35.9952 21.7061 36.0208 21.7013 36.0383C21.6981 36.0511 21.6909 36.0655 21.6797 36.0815C21.6686 36.0975 21.663 36.1087 21.663 36.115C21.663 36.1198 21.6646 36.1334 21.6678 36.1558C21.671 36.1782 21.6726 36.1965 21.6726 36.2109C21.6726 36.2509 21.647 36.3124 21.5958 36.3955C21.5447 36.4786 21.5191 36.5353 21.5191 36.5657C21.5191 36.5881 21.5247 36.6057 21.5359 36.6184C21.5487 36.6296 21.5655 36.6352 21.5863 36.6352C21.639 36.6352 21.7045 36.6176 21.7828 36.5825C21.8611 36.5457 21.9354 36.509 22.0058 36.4722V36.5585ZM21.4952 36.1798C21.4872 36.1718 21.4408 36.187 21.3561 36.2253C21.2714 36.2637 21.2019 36.3004 21.1476 36.3356C21.0948 36.3707 21.0493 36.4147 21.0109 36.4674C20.9726 36.5202 20.9534 36.5665 20.9534 36.6065C20.9534 36.6256 20.9582 36.6416 20.9678 36.6544C20.979 36.6672 20.991 36.6736 21.0037 36.6736C21.0341 36.6736 21.0749 36.6504 21.126 36.6041C21.1771 36.5561 21.2275 36.509 21.277 36.4626C21.3266 36.4147 21.3785 36.3588 21.4328 36.2948C21.4888 36.2293 21.5095 36.191 21.4952 36.1798Z" fill="white"/>
<path d="M20.7932 36.5547C20.6909 36.6362 20.5783 36.7177 20.4552 36.7992C20.3338 36.8791 20.2243 36.9191 20.1268 36.9191C20.0501 36.9191 19.9718 36.8823 19.8919 36.8088C19.8136 36.7337 19.7744 36.649 19.7744 36.5547C19.7744 36.5467 19.8535 36.4724 20.0117 36.3318C20.1715 36.1896 20.2626 36.0953 20.285 36.0489C20.3074 36.0026 20.3266 35.9698 20.3425 35.9506C20.3601 35.9315 20.3913 35.9219 20.436 35.9219C20.4744 35.9219 20.4984 35.9458 20.5079 35.9938C20.5175 36.0401 20.5263 36.0905 20.5343 36.1448C20.5423 36.1975 20.5463 36.2335 20.5463 36.2527C20.5463 36.3006 20.5391 36.3486 20.5247 36.3965C20.5103 36.4445 20.4848 36.49 20.448 36.5332C20.4113 36.5763 20.3641 36.6202 20.3066 36.665C20.2874 36.6826 20.269 36.7002 20.2514 36.7177C20.2658 36.7273 20.2834 36.7321 20.3042 36.7321C20.3713 36.7321 20.4696 36.6898 20.599 36.6051C20.7285 36.5188 20.7932 36.4732 20.7932 36.4684V36.5547ZM20.2802 36.5332C20.2882 36.5172 20.2946 36.4924 20.2994 36.4588C20.3042 36.4253 20.3066 36.3933 20.3066 36.363C20.3066 36.3182 20.3034 36.2838 20.297 36.2599C20.2922 36.2343 20.2834 36.2215 20.2706 36.2215C20.2499 36.2215 20.1963 36.2631 20.11 36.3462C20.0237 36.4293 19.9806 36.4812 19.9806 36.502C19.9806 36.5228 20.0053 36.5555 20.0549 36.6003C20.106 36.6434 20.1372 36.6634 20.1484 36.6602C20.1691 36.6538 20.1931 36.637 20.2203 36.6099C20.2491 36.5827 20.269 36.5571 20.2802 36.5332Z" fill="white"/>
<path d="M19.8591 36.5559C19.8591 36.5719 19.7744 36.6334 19.605 36.7405C19.4372 36.8475 19.3021 36.9011 19.1999 36.9011C19.1152 36.9011 19.0512 36.8619 19.0081 36.7836C18.9649 36.7037 18.9434 36.6238 18.9434 36.5439C18.9434 36.3601 19.0257 36.2083 19.1903 36.0884C19.3565 35.967 19.4931 35.9062 19.6002 35.9062C19.6529 35.9062 19.6889 35.9166 19.7081 35.9374C19.7272 35.9582 19.7368 35.9814 19.7368 36.0069C19.7368 36.1012 19.6865 36.1915 19.5858 36.2778C19.3557 36.4136 19.2302 36.488 19.2094 36.5007C19.1903 36.5135 19.1807 36.5303 19.1807 36.5511C19.1807 36.583 19.1959 36.6134 19.2262 36.6422C19.2566 36.6709 19.2997 36.6853 19.3557 36.6853C19.4196 36.6853 19.5195 36.6502 19.6553 36.5799C19.7912 36.5095 19.8591 36.4728 19.8591 36.4696V36.5559ZM19.545 36.0501C19.5387 36.0421 19.5139 36.0501 19.4707 36.0741C19.4276 36.098 19.3884 36.126 19.3533 36.158C19.3181 36.1899 19.2862 36.2291 19.2574 36.2754C19.2286 36.3218 19.2198 36.3505 19.231 36.3617C19.2406 36.3713 19.2694 36.3609 19.3173 36.3305C19.3653 36.2986 19.4076 36.265 19.4444 36.2299C19.4811 36.1947 19.5099 36.1596 19.5307 36.1244C19.5514 36.0876 19.5562 36.0629 19.545 36.0501Z" fill="white"/>
<path d="M18.9622 35.8369C18.9622 36.0414 18.8823 36.226 18.7225 36.3906C18.5627 36.5536 18.3749 36.6799 18.1591 36.7694C17.9434 36.8589 17.7564 36.9036 17.5982 36.9036C17.5167 36.9036 17.4512 36.8956 17.4016 36.8796C17.3537 36.8636 17.3273 36.8397 17.3225 36.8077C17.3193 36.7758 17.3177 36.7534 17.3177 36.7406C17.3177 36.6671 17.3449 36.5784 17.3992 36.4745C17.4552 36.3706 17.5159 36.2716 17.5814 36.1773C17.6486 36.083 17.6981 36.0151 17.7301 35.9735C17.7636 35.9304 17.8219 35.8576 17.905 35.7554C17.9881 35.6515 18.0297 35.5908 18.0297 35.5732C18.0297 35.5668 18.0257 35.5612 18.0177 35.5564C17.981 35.5388 17.8875 35.554 17.7372 35.6019C17.7085 35.6291 17.6797 35.6555 17.6509 35.681C17.6078 35.7034 17.5646 35.725 17.5215 35.7458C17.424 35.7793 17.3521 35.7961 17.3058 35.7961C17.2898 35.7961 17.2778 35.7929 17.2698 35.7865C17.2618 35.7801 17.2578 35.7626 17.2578 35.7338C17.2578 35.6842 17.265 35.6283 17.2794 35.566C17.2954 35.5037 17.3217 35.4549 17.3585 35.4198C17.3968 35.3846 17.4911 35.3391 17.6414 35.2831C17.7916 35.2272 17.9786 35.1992 18.2023 35.1992C18.4324 35.1992 18.6162 35.2512 18.7536 35.355C18.8927 35.4573 18.9622 35.6179 18.9622 35.8369ZM18.8112 35.8824C18.8112 35.7657 18.7465 35.6795 18.617 35.6235C18.4892 35.5676 18.3645 35.5396 18.243 35.5396C18.1967 35.5396 18.1703 35.5532 18.1639 35.5804C18.1591 35.6075 18.1264 35.6627 18.0657 35.7458C18.0065 35.8273 17.9442 35.9144 17.8787 36.0071C17.8148 36.0998 17.7444 36.2044 17.6677 36.3211C17.591 36.4378 17.5527 36.5201 17.5527 36.568C17.5527 36.5904 17.5639 36.6088 17.5862 36.6231C17.6102 36.6375 17.6565 36.6447 17.7253 36.6447C17.9458 36.6447 18.1815 36.5744 18.4324 36.4338C18.6849 36.2931 18.8112 36.1093 18.8112 35.8824Z" fill="white"/>
<path d="M16.4512 36.5543C16.4512 36.567 16.3641 36.6382 16.1899 36.7676C16.0157 36.8971 15.8966 36.9618 15.8327 36.9618C15.7831 36.9618 15.732 36.9338 15.6793 36.8779C15.6265 36.8108 15.5746 36.7428 15.5235 36.6741C15.5123 36.6677 15.4739 36.7069 15.4084 36.7916C15.3429 36.8763 15.2965 36.9162 15.2694 36.9114C15.2566 36.9114 15.243 36.8755 15.2286 36.8036C15.2142 36.7301 15.207 36.6605 15.207 36.595C15.207 36.579 15.207 36.563 15.207 36.5471C15.2102 36.5343 15.2166 36.4943 15.2262 36.4272C15.2374 36.3601 15.3149 36.2242 15.4587 36.0197C15.6042 35.8135 15.7568 35.629 15.9166 35.4659C16.078 35.3013 16.1763 35.223 16.2114 35.231C16.2322 35.2374 16.2426 35.2534 16.2426 35.279C16.2426 35.3493 16.1867 35.462 16.0748 35.617C15.9645 35.7704 15.8159 35.9646 15.6289 36.1995C15.4436 36.4344 15.3557 36.5567 15.3652 36.5662C15.3748 36.5758 15.434 36.5239 15.5426 36.4104C15.6529 36.297 15.7576 36.1987 15.8567 36.1156C15.9557 36.0309 16.0404 35.9885 16.1108 35.9885C16.1379 35.9885 16.1619 36.0125 16.1827 36.0604C16.2051 36.1068 16.2162 36.1563 16.2162 36.2091C16.2162 36.2618 16.1467 36.3433 16.0077 36.4536C15.8686 36.5638 15.7991 36.6318 15.7991 36.6573C15.7991 36.6797 15.8183 36.6997 15.8567 36.7173C15.9062 36.7348 15.939 36.7468 15.9549 36.7532C15.9805 36.7644 16.0444 36.7372 16.1467 36.6717C16.2506 36.6062 16.3521 36.5383 16.4512 36.468V36.5543ZM15.9885 36.2211C15.9837 36.2163 15.9765 36.2139 15.9669 36.2139C15.9462 36.2139 15.9182 36.2266 15.883 36.2522C15.8495 36.2778 15.8167 36.3066 15.7847 36.3385C15.7544 36.3689 15.7224 36.4016 15.6889 36.4368C15.6553 36.472 15.6385 36.5015 15.6385 36.5255C15.6385 36.5335 15.6417 36.5423 15.6481 36.5519C15.6545 36.5599 15.6633 36.5638 15.6745 36.5638C15.6969 36.5638 15.7264 36.5479 15.7632 36.5159C15.8015 36.4839 15.8383 36.452 15.8734 36.42C15.9102 36.3881 15.9406 36.3569 15.9645 36.3265C15.9885 36.2946 16.0005 36.269 16.0005 36.2498C16.0005 36.237 15.9965 36.2274 15.9885 36.2211Z" fill="white"/>
<path d="M15.2255 36.5525C15.2255 36.5717 15.1408 36.6468 14.9714 36.7778C14.802 36.9089 14.6885 36.9744 14.631 36.9744C14.5814 36.9744 14.5455 36.9568 14.5231 36.9217C14.5007 36.8881 14.4896 36.8434 14.4896 36.7874C14.4896 36.7395 14.5159 36.6692 14.5687 36.5765C14.6214 36.4822 14.6446 36.4318 14.6382 36.4255C14.6302 36.4159 14.5974 36.4414 14.5399 36.5022C14.484 36.5629 14.4456 36.6044 14.4248 36.6268C14.4041 36.6476 14.3609 36.6995 14.2954 36.7826C14.2315 36.8641 14.1771 36.9017 14.1324 36.8953C14.0988 36.8921 14.0732 36.8585 14.0557 36.7946C14.0381 36.7291 14.0293 36.6588 14.0293 36.5837C14.0293 36.483 14.07 36.3751 14.1516 36.26C14.2347 36.145 14.2914 36.0827 14.3218 36.0731C14.3521 36.0619 14.3849 36.0563 14.42 36.0563C14.4456 36.0563 14.464 36.0579 14.4752 36.0611C14.488 36.0627 14.4991 36.0675 14.5087 36.0755C14.5183 36.0819 14.5231 36.0906 14.5231 36.1018C14.5231 36.1338 14.476 36.2049 14.3817 36.3152C14.289 36.4239 14.2426 36.4926 14.2426 36.5213C14.2426 36.5309 14.2458 36.5381 14.2522 36.5429C14.265 36.5525 14.309 36.5165 14.3841 36.435C14.4608 36.3519 14.5263 36.2856 14.5806 36.2361C14.6366 36.1849 14.7101 36.1306 14.8012 36.0731C14.8923 36.0139 14.9562 35.9844 14.993 35.9844C15.0089 35.9844 15.0249 35.9996 15.0409 36.0299C15.0569 36.0603 15.0649 36.093 15.0649 36.1282C15.0649 36.149 15.0609 36.1666 15.0529 36.1809C15.0465 36.1953 15.0105 36.2441 14.945 36.3272C14.8795 36.4087 14.8371 36.4678 14.818 36.5046C14.8004 36.5397 14.7884 36.5669 14.782 36.5861C14.7772 36.6036 14.7748 36.6212 14.7748 36.6388C14.7748 36.6708 14.7884 36.6867 14.8156 36.6867C14.8603 36.6867 14.9218 36.6628 15.0001 36.6148C15.0785 36.5653 15.1536 36.5157 15.2255 36.4662V36.5525Z" fill="white"/>
<path d="M14.0507 36.5585C13.9628 36.6352 13.8661 36.7111 13.7606 36.7862C13.6551 36.8614 13.5585 36.8989 13.4706 36.8989C13.4338 36.8989 13.405 36.8885 13.3843 36.8678C13.3635 36.847 13.3531 36.8134 13.3531 36.7671C13.3531 36.7319 13.3563 36.6992 13.3627 36.6688C13.3691 36.6384 13.3747 36.6137 13.3795 36.5945C13.3715 36.5897 13.3179 36.6416 13.2189 36.7503C13.1214 36.8574 13.0535 36.9109 13.0151 36.9109C12.9799 36.9109 12.94 36.8686 12.8952 36.7839C12.8505 36.6976 12.8281 36.6192 12.8281 36.5489C12.8281 36.4323 12.8865 36.326 13.0031 36.2301C13.1198 36.1326 13.2484 36.0535 13.3891 35.9928C13.5313 35.9321 13.6192 35.9033 13.6527 35.9065C13.6719 35.9097 13.6935 35.9281 13.7175 35.9616C13.7414 35.9952 13.751 36.0208 13.7462 36.0383C13.743 36.0511 13.7359 36.0655 13.7247 36.0815C13.7135 36.0975 13.7079 36.1087 13.7079 36.115C13.7079 36.1198 13.7095 36.1334 13.7127 36.1558C13.7159 36.1782 13.7175 36.1965 13.7175 36.2109C13.7175 36.2509 13.6919 36.3124 13.6408 36.3955C13.5896 36.4786 13.5641 36.5353 13.5641 36.5657C13.5641 36.5881 13.5696 36.6057 13.5808 36.6184C13.5936 36.6296 13.6104 36.6352 13.6312 36.6352C13.6839 36.6352 13.7494 36.6176 13.8277 36.5825C13.906 36.5457 13.9804 36.509 14.0507 36.4722V36.5585ZM13.5401 36.1798C13.5321 36.1718 13.4857 36.187 13.401 36.2253C13.3163 36.2637 13.2468 36.3004 13.1925 36.3356C13.1398 36.3707 13.0942 36.4147 13.0559 36.4674C13.0175 36.5202 12.9983 36.5665 12.9983 36.6065C12.9983 36.6256 13.0031 36.6416 13.0127 36.6544C13.0239 36.6672 13.0359 36.6736 13.0487 36.6736C13.079 36.6736 13.1198 36.6504 13.1709 36.6041C13.2221 36.5561 13.2724 36.509 13.3219 36.4626C13.3715 36.4147 13.4234 36.3588 13.4778 36.2948C13.5337 36.2293 13.5545 36.191 13.5401 36.1798Z" fill="white"/>
<path d="M12.8385 36.558C12.7474 36.6268 12.6499 36.7027 12.546 36.7858C12.4437 36.8689 12.3622 36.9424 12.3015 37.0063C12.2408 37.0718 12.1681 37.1597 12.0834 37.27C11.9987 37.3803 11.9491 37.4314 11.9347 37.4234C11.8996 37.4074 11.8796 37.3683 11.8748 37.306C11.8684 37.2628 11.882 37.2093 11.9156 37.1453C11.9507 37.083 12.0083 36.9847 12.0882 36.8505C12.1697 36.7147 12.2056 36.6435 12.196 36.6372C12.1896 36.6324 12.1369 36.6675 12.0378 36.7426C11.9387 36.8161 11.8724 36.8473 11.8389 36.8361C11.8037 36.8217 11.7725 36.7882 11.7454 36.7354C11.7198 36.6811 11.7022 36.622 11.6926 36.558C11.6783 36.4813 11.7342 36.3695 11.8604 36.2224C11.9867 36.0738 12.0722 35.9939 12.1169 35.9827C12.1473 35.9763 12.1753 35.9835 12.2008 36.0043C12.228 36.0235 12.2416 36.0459 12.2416 36.0714C12.2416 36.105 12.204 36.1617 12.1289 36.2416C12.0554 36.3215 12.0003 36.3727 11.9635 36.395C11.9284 36.4174 11.9012 36.4462 11.882 36.4813C11.8628 36.5149 11.8532 36.5469 11.8532 36.5772C11.8532 36.5948 11.8564 36.6076 11.8628 36.6156C11.8724 36.6268 11.9172 36.606 11.9971 36.5532C12.0786 36.4989 12.1625 36.4342 12.2488 36.3591C12.3367 36.284 12.4142 36.2129 12.4813 36.1457C12.55 36.0786 12.5916 36.0419 12.606 36.0355C12.6251 36.0259 12.6427 36.0363 12.6587 36.0666C12.6747 36.0954 12.6787 36.121 12.6707 36.1433C12.6595 36.1785 12.6211 36.2496 12.5556 36.3567C12.4901 36.4622 12.427 36.5644 12.3662 36.6635C12.3055 36.761 12.2775 36.8129 12.2823 36.8193C12.2919 36.8321 12.3399 36.8121 12.4262 36.7594C12.5125 36.7051 12.5908 36.6523 12.6611 36.6012C12.733 36.5485 12.7921 36.5053 12.8385 36.4717V36.558Z" fill="white"/>
<path d="M11.7079 36.5585C11.62 36.6352 11.5233 36.7111 11.4178 36.7862C11.3124 36.8614 11.2157 36.8989 11.1278 36.8989C11.091 36.8989 11.0623 36.8885 11.0415 36.8678C11.0207 36.847 11.0103 36.8134 11.0103 36.7671C11.0103 36.7319 11.0135 36.6992 11.0199 36.6688C11.0263 36.6384 11.0319 36.6137 11.0367 36.5945C11.0287 36.5897 10.9752 36.6416 10.8761 36.7503C10.7786 36.8574 10.7107 36.9109 10.6723 36.9109C10.6372 36.9109 10.5972 36.8686 10.5525 36.7839C10.5077 36.6976 10.4854 36.6192 10.4854 36.5489C10.4854 36.4323 10.5437 36.326 10.6603 36.2301C10.777 36.1326 10.9057 36.0535 11.0463 35.9928C11.1885 35.9321 11.2764 35.9033 11.31 35.9065C11.3292 35.9097 11.3507 35.9281 11.3747 35.9616C11.3987 35.9952 11.4083 36.0208 11.4035 36.0383C11.4003 36.0511 11.3931 36.0655 11.3819 36.0815C11.3707 36.0975 11.3651 36.1087 11.3651 36.115C11.3651 36.1198 11.3667 36.1334 11.3699 36.1558C11.3731 36.1782 11.3747 36.1965 11.3747 36.2109C11.3747 36.2509 11.3491 36.3124 11.298 36.3955C11.2469 36.4786 11.2213 36.5353 11.2213 36.5657C11.2213 36.5881 11.2269 36.6057 11.2381 36.6184C11.2508 36.6296 11.2676 36.6352 11.2884 36.6352C11.3411 36.6352 11.4067 36.6176 11.485 36.5825C11.5633 36.5457 11.6376 36.509 11.7079 36.4722V36.5585ZM11.1973 36.1798C11.1893 36.1718 11.143 36.187 11.0583 36.2253C10.9736 36.2637 10.9041 36.3004 10.8497 36.3356C10.797 36.3707 10.7514 36.4147 10.7131 36.4674C10.6747 36.5202 10.6556 36.5665 10.6556 36.6065C10.6556 36.6256 10.6603 36.6416 10.6699 36.6544C10.6811 36.6672 10.6931 36.6736 10.7059 36.6736C10.7363 36.6736 10.777 36.6504 10.8281 36.6041C10.8793 36.5561 10.9296 36.509 10.9792 36.4626C11.0287 36.4147 11.0806 36.3588 11.135 36.2948C11.1909 36.2293 11.2117 36.191 11.1973 36.1798Z" fill="white"/>
<path d="M10.612 35.5006C10.6072 35.5262 10.5497 35.6045 10.4394 35.7356C10.3307 35.8666 10.2413 35.9849 10.1709 36.0903C10.1006 36.1958 10.0391 36.3069 9.98635 36.4235C9.93522 36.5386 9.90965 36.6297 9.90965 36.6968C9.90965 36.7464 9.91843 36.7759 9.93601 36.7855C9.95519 36.7935 9.97197 36.7975 9.98635 36.7975C10.0407 36.7975 10.1158 36.7639 10.2117 36.6968C10.3092 36.6281 10.3899 36.5722 10.4538 36.529C10.3755 36.6169 10.2972 36.7048 10.2189 36.7927C10.0239 36.9445 9.87449 37.0204 9.77061 37.0204C9.73865 37.0204 9.70908 37.0077 9.68191 36.9821C9.65634 36.9581 9.63557 36.9254 9.61959 36.8838C9.60361 36.8407 9.59562 36.7951 9.59562 36.7472C9.59562 36.6417 9.62758 36.5306 9.6915 36.414C9.75543 36.2957 9.82734 36.183 9.90725 36.076C9.98715 35.9689 10.0255 35.913 10.0223 35.9082C10.0079 35.8954 9.97117 35.9161 9.91204 35.9705C9.85451 36.0248 9.7818 36.0999 9.6939 36.1958C9.606 36.2901 9.53329 36.3692 9.47576 36.4331C9.41823 36.4955 9.33353 36.5969 9.22166 36.7376C9.10979 36.8782 9.03228 36.9485 8.98913 36.9485C8.97795 36.9485 8.96676 36.9429 8.95557 36.9317C8.94439 36.9206 8.934 36.8974 8.92441 36.8622C8.91642 36.8255 8.91242 36.7863 8.91242 36.7448C8.91242 36.6904 8.91882 36.6521 8.9316 36.6297C8.94439 36.6073 9.01071 36.5098 9.13057 36.3373C9.25202 36.1631 9.35111 36.0136 9.42782 35.889C9.50612 35.7643 9.54528 35.6788 9.54528 35.6325C9.54528 35.6197 9.54128 35.6109 9.53329 35.6061C9.49494 35.5901 9.41104 35.6517 9.28159 35.7907C9.15374 35.9281 9.05066 36.0504 8.97235 36.1575C8.89405 36.2645 8.81174 36.3828 8.72545 36.5122C8.63915 36.6401 8.57283 36.7336 8.52648 36.7927C8.48173 36.8502 8.44418 36.883 8.41381 36.891C8.38505 36.899 8.35788 36.879 8.33231 36.8311C8.30834 36.7831 8.29635 36.7192 8.29635 36.6393C8.29476 36.6217 8.36028 36.5162 8.49292 36.3229C8.62716 36.1295 8.73503 35.9673 8.81654 35.8362C8.89804 35.7036 8.93879 35.6037 8.93879 35.5366C8.93879 35.519 8.9348 35.5054 8.92681 35.4958C8.91882 35.4847 8.90523 35.4791 8.88606 35.4791C8.84291 35.4791 8.77019 35.5078 8.66791 35.5654C8.56723 35.6229 8.46575 35.6812 8.36347 35.7404C8.26279 35.7979 8.19407 35.8267 8.15732 35.8267C8.13654 35.8267 8.12296 35.8187 8.11657 35.8027C8.11177 35.7851 8.10938 35.7651 8.10938 35.7428C8.10938 35.6261 8.1701 35.5078 8.29156 35.388C8.32512 35.372 8.35868 35.3552 8.39224 35.3376C8.39384 35.3456 8.38984 35.3592 8.38025 35.3784C8.37226 35.396 8.36987 35.4064 8.37306 35.4095C8.37626 35.4111 8.45057 35.3752 8.596 35.3017C8.74143 35.2282 8.85329 35.1914 8.9316 35.1914C8.97475 35.1914 9.00991 35.2026 9.03708 35.225C9.06584 35.2473 9.08662 35.2769 9.0994 35.3137C9.11379 35.3488 9.12098 35.3888 9.12098 35.4335C9.12098 35.5006 9.10739 35.5742 9.08023 35.6541C9.05306 35.734 9.02749 35.8107 9.00352 35.8842C9.01311 35.8858 9.07463 35.8259 9.1881 35.7044C9.30316 35.5829 9.40944 35.4783 9.50692 35.3904C9.606 35.3025 9.68351 35.2585 9.73945 35.2585C9.75383 35.2585 9.77061 35.2641 9.78979 35.2753C9.80896 35.2849 9.82495 35.3025 9.83773 35.328C9.85052 35.3536 9.85691 35.384 9.85691 35.4191C9.85691 35.5086 9.80657 35.6405 9.70589 35.8147C9.66753 35.893 9.62918 35.9713 9.59082 36.0496C9.59562 36.0512 9.67313 35.9785 9.82335 35.8314C9.97517 35.6828 10.111 35.5566 10.2309 35.4527C10.3523 35.3472 10.4386 35.2945 10.4898 35.2945C10.5041 35.2945 10.5289 35.324 10.5641 35.3832C10.5992 35.4407 10.6152 35.4799 10.612 35.5006Z" fill="white"/>
</svg>
