<svg width="116" height="116" viewBox="0 0 116 116" fill="none" xmlns="http://www.w3.org/2000/svg">
<rect width="116" height="116" fill="white"/>
<g clip-path="url(#clip0_127_1630)">
<path d="M108 84.4805H8V84.5305H108V84.4805Z" fill="#EBEBEB"/>
<path d="M97.98 87.6973H91.356V87.7473H97.98V87.6973Z" fill="#EBEBEB"/>
<path d="M74.2439 88.2422H72.5059V88.2922H74.2439V88.2422Z" fill="#EBEBEB"/>
<path d="M91.1559 85.8418H87.3179V85.8918H91.1559V85.8418Z" fill="#EBEBEB"/>
<path d="M27.1299 86.1777H18.4919V86.2277H27.1299V86.1777Z" fill="#EBEBEB"/>
<path d="M30.1781 86.1777H28.9121V86.2277H30.1781V86.1777Z" fill="#EBEBEB"/>
<path d="M53.0299 87.0215H34.2939V87.0715H53.0299V87.0215Z" fill="#EBEBEB"/>
<path d="M55.4001 75.56H16.7821C16.4796 75.5595 16.1896 75.4389 15.9759 75.2248C15.7621 75.0107 15.6421 74.7205 15.6421 74.418V20.132C15.6447 19.8312 15.7659 19.5436 15.9794 19.3316C16.1928 19.1197 16.4813 19.0005 16.7821 19H55.4001C55.703 19 55.9934 19.1203 56.2076 19.3345C56.4218 19.5487 56.5421 19.8391 56.5421 20.142V74.418C56.5421 74.7209 56.4218 75.0114 56.2076 75.2255C55.9934 75.4397 55.703 75.56 55.4001 75.56ZM16.7821 19.04C16.4928 19.0405 16.2156 19.1558 16.0112 19.3605C15.8069 19.5653 15.6921 19.8427 15.6921 20.132V74.418C15.6921 74.7073 15.8069 74.9847 16.0112 75.1895C16.2156 75.3942 16.4928 75.5095 16.7821 75.51H55.4001C55.6895 75.5095 55.967 75.3943 56.1717 75.1896C56.3763 74.9849 56.4916 74.7075 56.4921 74.418V20.132C56.4916 19.8425 56.3763 19.5651 56.1717 19.3604C55.967 19.1557 55.6895 19.0405 55.4001 19.04H16.7821Z" fill="#EBEBEB"/>
<path d="M98.6619 75.56H60.0419C59.7392 75.5595 59.449 75.439 59.235 75.2249C59.0209 75.0109 58.9004 74.7207 58.8999 74.418V20.132C58.9031 19.831 59.0247 19.5434 59.2385 19.3315C59.4522 19.1196 59.7409 19.0005 60.0419 19H98.6619C98.9624 19.001 99.2503 19.1204 99.4633 19.3323C99.6763 19.5442 99.7973 19.8316 99.7999 20.132V74.418C99.7999 74.7202 99.6801 75.0101 99.4668 75.2241C99.2535 75.4382 98.9641 75.5589 98.6619 75.56ZM60.0419 19.04C59.7524 19.0405 59.475 19.1557 59.2703 19.3604C59.0656 19.5651 58.9504 19.8425 58.9499 20.132V74.418C58.9504 74.7075 59.0656 74.9849 59.2703 75.1896C59.475 75.3943 59.7524 75.5095 60.0419 75.51H98.6619C98.9514 75.5095 99.2288 75.3943 99.4335 75.1896C99.6382 74.9849 99.7534 74.7075 99.7539 74.418V20.132C99.7534 19.8425 99.6382 19.5651 99.4335 19.3604C99.2288 19.1557 98.9514 19.0405 98.6619 19.04H60.0419Z" fill="#EBEBEB"/>
<path d="M63.5841 54.2148L96.5481 54.2148V24.6948L63.5841 24.6948L63.5841 54.2148Z" fill="#E6E6E6"/>
<path d="M62.194 54.2148L95.8979 54.2148V24.6948L62.194 24.6948L62.194 54.2148Z" fill="#F0F0F0"/>
<path d="M63.5841 55.2148L96.5481 55.2148V54.2148L63.5841 54.2148V55.2148Z" fill="#E6E6E6"/>
<path d="M59.8819 55.2148L93.5859 55.2148V54.2148L59.8819 54.2148V55.2148Z" fill="#F0F0F0"/>
<path d="M93.9561 52.2707V26.6387L64.1381 26.6387V52.2707H93.9561Z" fill="#FAFAFA"/>
<path d="M87.964 52.2727L76.558 26.6387H64.886L76.292 52.2727H87.964Z" fill="white"/>
<path d="M93.056 47.9876C93.0926 47.9876 93.1277 47.9731 93.1536 47.9472C93.1794 47.9213 93.194 47.8862 93.194 47.8496V27.9036C93.194 27.867 93.1794 27.8319 93.1536 27.806C93.1277 27.7802 93.0926 27.7656 93.056 27.7656C93.0194 27.7656 92.9843 27.7802 92.9584 27.806C92.9325 27.8319 92.918 27.867 92.918 27.9036V47.8496C92.918 47.8862 92.9325 47.9213 92.9584 47.9472C92.9843 47.9731 93.0194 47.9876 93.056 47.9876Z" fill="#F0F0F0"/>
<path d="M71.904 52.2727L60.498 26.6387H56.46L67.866 52.2727H71.904Z" fill="white"/>
<path d="M64.384 52.2707V26.6387H64.138V52.2707H64.384Z" fill="#E6E6E6"/>
<g opacity="0.5">
<path d="M61.7341 29.3085H94.7001L94.8781 27.3945H61.9141L61.7341 29.3085Z" fill="#E6E6E6"/>
<path d="M61.7341 32.4687H94.7001L94.8781 30.5547H61.9141L61.7341 32.4687Z" fill="#E6E6E6"/>
<path d="M61.7341 35.6288H94.7001L94.8781 33.7148H61.9141L61.7341 35.6288Z" fill="#E6E6E6"/>
<path d="M61.7341 38.789H94.7001L94.8781 36.875H61.9141L61.7341 38.789Z" fill="#E6E6E6"/>
<path d="M61.7341 41.9511H94.7001L94.8781 40.0371H61.9141L61.7341 41.9511Z" fill="#E6E6E6"/>
<path d="M61.7341 45.1113H94.7001L94.8781 43.1973H61.9141L61.7341 45.1113Z" fill="#E6E6E6"/>
</g>
<path d="M23.5721 84.4805H49.8401L49.8401 24.6965H23.5721L23.5721 84.4805Z" fill="#F0F0F0"/>
<path d="M23.572 84.4805H49.322L49.322 24.6965H23.572L23.572 84.4805Z" fill="#F5F5F5"/>
<path d="M47.9661 84.4807L47.9661 26.0527H24.9281L24.9281 84.4807H47.9661Z" fill="#EBEBEB"/>
<path d="M31.182 52.8008C29.876 52.4408 28.57 53.6008 27.264 53.2408C27.1201 53.1804 26.9964 53.0802 26.9075 52.9519C26.8185 52.8237 26.7681 52.6727 26.762 52.5168C26.762 52.2408 26.988 52.1608 27.264 52.2348C28.57 52.5948 29.876 51.4348 31.182 51.7948C31.3262 51.8543 31.4504 51.954 31.5397 52.082C31.629 52.21 31.6798 52.3609 31.686 52.5168C31.686 52.8008 31.458 52.8788 31.182 52.8008Z" fill="white"/>
<path d="M25.282 84.4807L25.282 26.0527H24.93L24.93 84.4807H25.282Z" fill="#E0E0E0"/>
<path d="M91.0981 83.1621H95.8101V62.7301H91.0981V83.1621Z" fill="#F0F0F0"/>
<path d="M71.672 84.4551H94.906V83.1611H71.672V84.4551Z" fill="#F0F0F0"/>
<path d="M91.1001 62.7285H70.7681V83.1605H91.1001V62.7285Z" fill="#F5F5F5"/>
<path d="M89.2461 65.2441H72.6201V71.9441H89.2461V65.2441Z" fill="#F0F0F0"/>
<path d="M89.2461 73.9434H72.6201V80.6434H89.2461V73.9434Z" fill="#F0F0F0"/>
<path d="M79.068 65.8086H82.8C83.0541 65.8086 83.26 65.6031 83.26 65.3496C83.26 65.0961 83.0541 64.8906 82.8 64.8906H79.068C78.814 64.8906 78.608 65.0961 78.608 65.3496C78.608 65.6031 78.814 65.8086 79.068 65.8086Z" fill="#F5F5F5"/>
<path d="M79.0659 74.5096H82.7999C82.9217 74.5091 83.0384 74.4605 83.1246 74.3743C83.2107 74.2881 83.2594 74.1714 83.2599 74.0496C83.2568 73.9295 83.207 73.8154 83.1211 73.7314C83.0353 73.6473 82.92 73.6001 82.7999 73.5996H79.0659C78.9443 73.6001 78.8278 73.6488 78.7419 73.735C78.6561 73.8213 78.6079 73.938 78.6079 74.0596C78.6105 74.1795 78.6599 74.2937 78.7454 74.3777C78.831 74.4618 78.946 74.5091 79.0659 74.5096Z" fill="#F5F5F5"/>
<path d="M86.7179 62.3257C86.6254 62.3257 86.5367 62.2891 86.4711 62.2239C86.4056 62.1587 86.3684 62.0702 86.3679 61.9777V51.3617C86.3684 51.2691 86.4055 51.1803 86.471 51.1148C86.5365 51.0493 86.6253 51.0122 86.7179 51.0117C86.8102 51.0128 86.8984 51.05 86.9635 51.1155C87.0286 51.181 87.0654 51.2694 87.0659 51.3617V61.9777C87.0654 62.0699 87.0286 62.1581 86.9634 62.2232C86.8983 62.2884 86.8101 62.3252 86.7179 62.3257Z" fill="#EBEBEB"/>
<path d="M89.986 61.9141H83.448V62.7381H89.986V61.9141Z" fill="#F0F0F0"/>
<path d="M88.528 57.3709C88.4819 57.3709 88.4376 57.3526 88.405 57.3199C88.3723 57.2873 88.354 57.243 88.354 57.1969V51.8889C88.354 51.8426 88.3723 51.7981 88.4048 51.7651C88.4374 51.7322 88.4817 51.7134 88.528 51.7129C88.5743 51.7134 88.6186 51.7322 88.6512 51.7651C88.6837 51.7981 88.702 51.8426 88.702 51.8889V57.2009C88.701 57.2463 88.6822 57.2896 88.6497 57.3214C88.6171 57.3531 88.5735 57.3709 88.528 57.3709Z" fill="#E0E0E0"/>
<path d="M81.634 53.7243C81.634 53.7243 81.764 49.8203 86.718 49.8203C91.672 49.8203 91.8 53.7243 91.8 53.7243H81.634Z" fill="#E6E6E6"/>
<path d="M57.9997 93.5124C79.4162 93.5124 96.7777 92.4987 96.7777 91.2484C96.7777 89.998 79.4162 88.9844 57.9997 88.9844C36.5832 88.9844 19.2217 89.998 19.2217 91.2484C19.2217 92.4987 36.5832 93.5124 57.9997 93.5124Z" fill="#F5F5F5"/>
<path d="M54.7319 36.8108C54.7419 36.3868 55.1319 35.8328 56.7039 35.7328C58.2759 35.6328 58.8599 35.7048 59.5039 36.9328C60.2039 38.2548 61.0039 39.7328 60.4819 41.0868C59.9599 42.4408 58.3139 43.2388 57.1359 43.9548C55.9579 44.6708 54.2039 47.0768 54.2039 47.0768C54.2039 47.0768 50.9339 37.9988 54.7319 36.8108Z" fill="#263238"/>
<path d="M55.45 54.9242C55.45 54.9242 57.832 67.1522 58.678 72.1242C59.556 77.2942 60.296 88.4182 60.296 88.4182H61.62C61.62 88.4182 63.306 78.8182 61.62 71.6882C61.734 65.9962 60.62 54.1582 60.62 54.1582L55.45 54.9242Z" fill="#FF8B7B"/>
<path d="M57.186 54.6674C57.186 54.6674 62.41 67.4554 64.23 72.1574C66.782 75.5774 73.196 82.8314 73.548 82.9774L74.012 81.9314C74.012 81.9314 70.092 74.2654 66.932 70.4774C66.092 64.8474 62.09 53.9414 62.09 53.9414L57.186 54.6674Z" fill="#FF8B7B"/>
<path d="M54.726 46.9702C54.35 47.4102 53.964 47.8302 53.578 48.2582C53.192 48.6862 52.794 49.0982 52.396 49.5142C51.998 49.9302 51.596 50.3442 51.18 50.7462C50.764 51.1482 50.346 51.5462 49.908 51.9462L49.974 51.8762C49.8802 51.9842 49.771 52.0778 49.65 52.1542C49.551 52.2139 49.4465 52.2642 49.338 52.3042C49.1637 52.367 48.9824 52.408 48.798 52.4262C48.4941 52.4561 48.1879 52.4561 47.884 52.4262C47.3364 52.3737 46.7935 52.2801 46.26 52.1462C45.74 52.0182 45.232 51.8682 44.728 51.7062C44.224 51.5442 43.728 51.3642 43.242 51.1562C43.1394 51.1129 43.0581 51.0307 43.0161 50.9276C42.9741 50.8244 42.9748 50.7088 43.018 50.6062C43.0552 50.5161 43.1228 50.4419 43.2091 50.3966C43.2953 50.3513 43.3947 50.3377 43.49 50.3582C43.984 50.4622 44.49 50.5682 44.99 50.6582C45.49 50.7482 45.99 50.8362 46.488 50.8982C46.9691 50.9668 47.4541 51.0049 47.94 51.0122C48.1538 51.0164 48.3675 50.9997 48.578 50.9622C48.6506 50.9488 48.7217 50.9281 48.79 50.9002C48.8029 50.8956 48.8145 50.8881 48.824 50.8782C48.824 50.8782 48.81 50.8782 48.792 50.9022L48.858 50.8322C49.258 50.4322 49.638 50.0322 50.022 49.6222L51.17 48.3722L53.45 45.8502C53.5977 45.6818 53.8063 45.5789 54.0299 45.5643C54.2534 45.5497 54.4736 45.6244 54.642 45.7722C54.8104 45.9199 54.9133 46.1285 54.9279 46.352C54.9425 46.5756 54.8677 46.7958 54.72 46.9642L54.726 46.9702Z" fill="#FF8B7B"/>
<path d="M43.8259 50.4733L42.9999 49.0273L42.4199 50.5993C42.4199 50.5993 43.1219 51.3993 43.7899 51.2413L43.8259 50.4733Z" fill="#FF8B7B"/>
<path d="M41.952 49.068L41.752 49.742C41.7292 49.8175 41.7292 49.8979 41.7519 49.9734C41.7747 50.0488 41.8192 50.1158 41.88 50.166L42.422 50.606L42.994 49.026L42.486 48.826C42.4352 48.8048 42.3806 48.7942 42.3256 48.795C42.2706 48.7957 42.2163 48.8079 42.1662 48.8306C42.1161 48.8533 42.0712 48.8861 42.0343 48.927C41.9975 48.9678 41.9694 49.0158 41.952 49.068Z" fill="#FF8B7B"/>
<path d="M54.7419 44.9526C53.5659 44.7526 53.0459 45.5726 52.4839 46.1906C52.6179 47.2826 54.5439 49.5226 54.5439 49.5226C54.5439 49.5226 56.8799 45.3006 54.7419 44.9526Z" fill="#32C075"/>
<path d="M53.178 46.2923C53.328 47.4823 53.896 50.8223 55.488 55.8223L62.43 54.7983C61.95 52.2823 61.288 49.9043 61.594 44.8943C61.6024 44.7561 61.5825 44.6177 61.5353 44.4875C61.4881 44.3573 61.4147 44.2382 61.3197 44.1376C61.2247 44.0369 61.11 43.9568 60.9827 43.9022C60.8555 43.8477 60.7184 43.8198 60.58 43.8203C60.11 43.8203 59.53 43.8403 58.926 43.9003C57.9114 43.9778 56.9035 44.1268 55.91 44.3463C55.27 44.5023 54.592 44.7103 54.076 44.8783C53.7858 44.9737 53.5377 45.1668 53.3739 45.4246C53.2102 45.6825 53.1409 45.9891 53.178 46.2923Z" fill="#32C075"/>
<path d="M55.9101 44.3425L58.9261 43.8965C58.9261 43.8965 58.7881 45.0545 56.8881 46.5765C55.4441 45.2365 55.9101 44.3425 55.9101 44.3425Z" fill="white"/>
<path d="M58.1259 40.5449C58.0779 41.5449 58.1519 43.3449 58.9259 43.8969C58.4387 44.6864 57.7719 45.3497 56.9799 45.8329C56.6809 45.7083 56.4224 45.5029 56.2335 45.2398C56.0445 44.9766 55.9325 44.6661 55.9099 44.3429C56.9539 43.9249 56.8079 43.1269 56.5099 42.4009L58.1259 40.5449Z" fill="#FF8B7B"/>
<path opacity="0.2" d="M57.4661 41.3027L56.5081 42.3987C56.5809 42.5672 56.6385 42.7419 56.6801 42.9207C57.0801 42.8007 57.5861 42.2627 57.5661 41.8227C57.5648 41.6447 57.5309 41.4685 57.4661 41.3027Z" fill="black"/>
<path d="M58.886 38.6143C58.738 40.2483 58.71 40.9423 57.86 41.7583C56.58 42.9883 54.606 42.4503 54.26 40.8043C53.95 39.3243 54.242 36.9003 55.86 36.2943C56.2171 36.1576 56.6033 36.1148 56.9817 36.1697C57.3601 36.2247 57.718 36.3758 58.0215 36.6084C58.3249 36.8411 58.5637 37.1476 58.7151 37.4987C58.8664 37.8499 58.9252 38.2339 58.886 38.6143Z" fill="#FF8B7B"/>
<path d="M57.632 37.3438C57.488 38.3217 58.066 39.5198 58.566 39.5318C59.066 39.5438 59.442 37.6557 59.442 37.6557L57.632 37.3438Z" fill="#263238"/>
<path d="M54.854 36.8423C55.92 37.5983 59.088 38.7323 59.154 37.7543C59.22 36.7763 57.898 35.9863 56.92 35.9863C55.942 35.9863 55.154 36.3763 54.854 36.8423Z" fill="#263238"/>
<path opacity="0.2" d="M58.42 70.6482L61.62 69.3902C61.604 68.6282 61.578 67.8202 61.54 66.9902L58 68.2742C58.146 69.1222 58.292 69.9262 58.42 70.6482Z" fill="black"/>
<path opacity="0.2" d="M65.8001 65.4297L62.1001 66.7777C62.3921 67.5017 62.6741 68.2057 62.9381 68.8697L66.3381 67.5277C66.1741 66.8497 66.0001 66.1457 65.8001 65.4297Z" fill="black"/>
<path d="M56.49 39.0449C56.49 39.1789 56.414 39.2849 56.326 39.2809C56.238 39.2769 56.172 39.1689 56.176 39.0369C56.18 38.9049 56.252 38.7969 56.34 38.7989C56.428 38.8009 56.494 38.9109 56.49 39.0449Z" fill="#263238"/>
<path d="M54.9834 39.0015C54.9872 38.8679 54.9196 38.7575 54.8323 38.7551C54.7451 38.7526 54.6713 38.8589 54.6675 38.9925C54.6637 39.1261 54.7314 39.2364 54.8186 39.2389C54.9058 39.2414 54.9796 39.1351 54.9834 39.0015Z" fill="#263238"/>
<path d="M54.872 38.7641L54.554 38.6621C54.554 38.6621 54.712 38.9181 54.872 38.7641Z" fill="#263238"/>
<path d="M55.376 39.2422C55.2487 39.5426 55.0804 39.8239 54.876 40.0782C54.9427 40.129 55.0196 40.1646 55.1015 40.1825C55.1834 40.2005 55.2682 40.2004 55.35 40.1822L55.376 39.2422Z" fill="#FF5652"/>
<path d="M55.8221 40.6798C55.7479 40.6907 55.673 40.6954 55.5981 40.6938C55.588 40.6928 55.5786 40.6882 55.5716 40.6809C55.5646 40.6735 55.5605 40.6639 55.5601 40.6538C55.5601 40.6486 55.5611 40.6435 55.5631 40.6388C55.5652 40.634 55.5681 40.6297 55.5719 40.6262C55.5756 40.6226 55.5801 40.6199 55.5849 40.6181C55.5897 40.6163 55.5949 40.6155 55.6001 40.6158C55.7657 40.6241 55.9309 40.5933 56.0824 40.5259C56.2339 40.4585 56.3674 40.3564 56.4721 40.2278C56.4749 40.2236 56.4786 40.22 56.4829 40.2172C56.4872 40.2144 56.492 40.2125 56.497 40.2116C56.502 40.2107 56.5071 40.2107 56.5121 40.2118C56.5171 40.2128 56.5219 40.2149 56.5261 40.2178C56.5303 40.2207 56.5339 40.2243 56.5366 40.2286C56.5394 40.2329 56.5413 40.2377 56.5422 40.2427C56.5432 40.2477 56.5431 40.2529 56.542 40.2578C56.541 40.2628 56.5389 40.2676 56.5361 40.2718C56.3606 40.4959 56.1043 40.6424 55.8221 40.6798Z" fill="#263238"/>
<path d="M59.2379 39.4803C59.1998 39.6329 59.1317 39.7764 59.0376 39.9024C58.9435 40.0284 58.8253 40.1344 58.6899 40.2143C58.3279 40.4263 58.0399 40.1283 58.0519 39.7303C58.0619 39.3723 58.2639 38.8303 58.6719 38.7803C58.7609 38.7709 58.8508 38.7839 58.9336 38.8181C59.0163 38.8523 59.0891 38.9067 59.1454 38.9763C59.2016 39.0459 59.2396 39.1285 59.2557 39.2166C59.2719 39.3046 59.2658 39.3953 59.2379 39.4803Z" fill="#FF8B7B"/>
<path d="M57.0499 38.3574C57.0394 38.3586 57.0287 38.3575 57.0186 38.3541C57.0086 38.3506 56.9994 38.3449 56.9919 38.3374C56.922 38.268 56.8365 38.2162 56.7426 38.1863C56.6488 38.1564 56.5491 38.1492 56.4519 38.1654C56.4329 38.1668 56.4139 38.1614 56.3985 38.1502C56.383 38.1389 56.3722 38.1224 56.3678 38.1038C56.3635 38.0852 56.3659 38.0656 56.3748 38.0487C56.3836 38.0317 56.3982 38.0185 56.4159 38.0114C56.5383 37.9903 56.6638 37.9986 56.7824 38.0354C56.9009 38.0723 57.0091 38.1367 57.0979 38.2234C57.1054 38.2305 57.1113 38.239 57.1153 38.2484C57.1194 38.2579 57.1215 38.2681 57.1215 38.2784C57.1215 38.2886 57.1194 38.2988 57.1153 38.3083C57.1113 38.3177 57.1054 38.3263 57.0979 38.3334C57.0919 38.3403 57.0845 38.346 57.0763 38.3501C57.0681 38.3543 57.0591 38.3567 57.0499 38.3574Z" fill="#263238"/>
<path d="M54.5999 38.2304C54.5902 38.2286 54.5809 38.2249 54.5726 38.2194C54.5643 38.2139 54.5573 38.2067 54.5519 38.1984C54.5459 38.1901 54.5417 38.1806 54.5394 38.1706C54.5372 38.1606 54.537 38.1502 54.5389 38.1401C54.5407 38.13 54.5446 38.1204 54.5503 38.1119C54.556 38.1033 54.5634 38.096 54.5719 38.0904C54.6724 38.0172 54.7889 37.9691 54.9118 37.9503C55.0346 37.9315 55.1602 37.9425 55.2779 37.9824C55.297 37.9903 55.3122 38.0056 55.3201 38.0247C55.3279 38.0438 55.3279 38.0653 55.3199 38.0844C55.3162 38.094 55.3106 38.1028 55.3034 38.1102C55.2962 38.1177 55.2876 38.1236 55.2781 38.1277C55.2687 38.1318 55.2584 38.134 55.2481 38.1341C55.2378 38.1342 55.2275 38.1323 55.2179 38.1284C55.1245 38.0976 55.0251 38.0897 54.928 38.1054C54.8309 38.121 54.7389 38.1598 54.6599 38.2184C54.6423 38.2302 54.6207 38.2345 54.5999 38.2304Z" fill="#263238"/>
<path d="M56.3781 38.7992L56.0601 38.6992C56.0601 38.6992 56.2181 38.9612 56.3781 38.7992Z" fill="#263238"/>
<path d="M55.488 55.8228L57.81 69.5548L66.504 66.9768C65.8 59.7188 64 56.1248 62.43 54.7988L55.488 55.8228Z" fill="#263238"/>
<path opacity="0.2" d="M59.01 63.5379L60.748 60.6819L60.45 58.6719L59.01 63.5379Z" fill="black"/>
<path d="M61.5061 44.506C61.6541 44.638 61.8361 44.79 62.0041 44.93C62.1721 45.07 62.3541 45.214 62.5341 45.35C62.8921 45.62 63.2521 45.886 63.6261 46.126C64.3373 46.6075 65.1157 46.9815 65.9361 47.236C65.9841 47.252 66.0341 47.26 66.0821 47.272L66.1541 47.29H66.1261C66.0461 47.29 66.0161 47.326 66.0381 47.318C66.1529 47.2405 66.2514 47.1413 66.3281 47.026C66.572 46.6759 66.7822 46.3036 66.9561 45.914C67.1561 45.514 67.3321 45.084 67.4981 44.652C67.6641 44.22 67.8341 43.782 67.9901 43.35C68.0245 43.2513 68.0945 43.1689 68.1865 43.1191C68.2784 43.0693 68.3856 43.0555 68.4871 43.0805C68.5886 43.1056 68.6771 43.1675 68.7354 43.2543C68.7936 43.3411 68.8174 43.4465 68.8021 43.55C68.6657 44.5164 68.4462 45.4693 68.1461 46.398C67.9873 46.8947 67.7755 47.3728 67.5141 47.824C67.3473 48.1157 67.1227 48.3702 66.8541 48.572C66.6339 48.7275 66.3717 48.8126 66.1021 48.816C66.0628 48.819 66.0234 48.819 65.9841 48.816L65.8901 48.804L65.7881 48.786C65.7221 48.774 65.6521 48.766 65.5881 48.75C65.0722 48.6409 64.5694 48.4773 64.0881 48.262C63.6233 48.058 63.1735 47.8214 62.7421 47.554C62.315 47.2957 61.9018 47.0154 61.5041 46.714C61.3054 46.5646 61.1114 46.4106 60.9221 46.252C60.7221 46.09 60.5501 45.936 60.3501 45.746C60.1973 45.5913 60.11 45.3839 60.1061 45.1665C60.1022 44.9492 60.1821 44.7388 60.3292 44.5788C60.4764 44.4188 60.6794 44.3216 60.8963 44.3073C61.1132 44.293 61.3272 44.3627 61.4941 44.502L61.5061 44.506Z" fill="#FF8B7B"/>
<path d="M60.504 43.8159C61.704 43.7459 62.16 44.3699 62.654 45.0419C62.41 46.1139 61.11 47.9479 61.11 47.9479C61.11 47.9479 58.342 43.9439 60.504 43.8159Z" fill="#32C075"/>
<path d="M67.928 43.4495L68.228 41.6875L69.314 42.9715C69.314 42.9715 68.934 43.9715 68.252 44.0495L67.928 43.4495Z" fill="#FF8B7B"/>
<path d="M69.22 41.2094L69.872 41.7814C69.9294 41.832 69.9662 41.9019 69.9754 41.9778C69.9846 42.0538 69.9656 42.1305 69.922 42.1934L69.2 43.2154L68.23 41.6874L68.83 41.2034C68.8857 41.1592 68.955 41.1357 69.026 41.1368C69.0971 41.1378 69.1657 41.1635 69.22 41.2094Z" fill="#FF8B7B"/>
<path d="M57.7839 90.92C57.9867 90.7723 58.2124 90.6588 58.4519 90.584C58.4519 90.584 59.6359 89.914 60.2519 87.904L61.6219 87.562C61.6559 87.5536 61.6914 87.5524 61.7259 87.5586C61.7604 87.5649 61.7932 87.5784 61.8221 87.5982C61.851 87.6181 61.8754 87.6438 61.8936 87.6738C61.9119 87.7037 61.9235 87.7372 61.9279 87.772C61.9399 87.88 61.9479 88.004 61.9619 88.104C61.9769 88.3218 61.9769 88.5403 61.9619 88.758C61.9499 89.436 61.8739 90.958 61.8739 90.958H61.7159C61.7148 90.4948 61.6868 90.032 61.6319 89.572C61.5519 89.124 61.2319 89.654 61.0599 90.16C60.8879 90.666 60.1699 91.208 59.1339 91.232C57.9239 91.268 57.4319 91.214 57.7839 90.92Z" fill="#263238"/>
<path d="M73.0561 86.1984C73.095 85.9506 73.174 85.7108 73.2901 85.4884C73.2901 85.4884 73.6521 84.1764 72.6641 82.3204L73.3881 81.1104C73.4057 81.0801 73.4297 81.0539 73.4584 81.0336C73.487 81.0133 73.5197 80.9993 73.5542 80.9927C73.5886 80.9861 73.6241 80.9869 73.6583 80.9951C73.6924 81.0034 73.7244 81.0188 73.7521 81.0404C73.8381 81.1084 73.9321 81.1904 74.0121 81.2404C74.1765 81.3843 74.3315 81.5386 74.4761 81.7024C74.9481 82.1904 75.9761 83.3224 75.9761 83.3224L75.8641 83.4364C75.5356 83.1091 75.1876 82.8018 74.8221 82.5164C74.4501 82.2564 74.6021 82.8544 74.8361 83.3364C75.0701 83.8184 74.9481 84.7064 74.2361 85.4564C73.4001 86.3484 73.0161 86.6584 73.0561 86.1984Z" fill="#263238"/>
<path opacity="0.9" d="M67.7838 28.6884L46.6958 26.6664C46.1767 26.619 45.6599 26.7786 45.2579 27.1105C44.856 27.4424 44.6014 27.9197 44.5498 28.4384L41.5278 60.0004C41.4787 60.5195 41.6375 61.0369 41.9693 61.4392C42.3011 61.8415 42.7788 62.0958 43.2978 62.1464L64.3838 64.1684C64.903 64.2163 65.4201 64.0569 65.8222 63.7249C66.2242 63.3929 66.4786 62.9153 66.5298 62.3964L69.5538 30.8444C69.5792 30.5866 69.5536 30.3263 69.4783 30.0784C69.4031 29.8306 69.2798 29.5999 69.1155 29.3997C68.9511 29.1995 68.7489 29.0336 68.5204 28.9116C68.2919 28.7895 68.0416 28.7137 67.7838 28.6884ZM63.2698 40.7724C63.1238 42.2794 62.5095 43.7028 61.513 44.8427C60.5165 45.9826 59.188 46.7817 57.7141 47.1279C56.2402 47.474 54.6948 47.3498 53.2951 46.7726C51.8954 46.1954 50.7117 45.1942 49.9102 43.9097C49.1087 42.6252 48.7296 41.122 48.8263 39.611C48.923 38.1001 49.4906 36.6574 50.4493 35.4855C51.408 34.3137 52.7097 33.4716 54.1716 33.0775C55.6334 32.6835 57.182 32.7572 58.5998 33.2884C59.1665 33.5004 59.7041 33.7833 60.1998 34.1304C61.2558 34.8647 62.0971 35.8671 62.637 37.0346C63.177 38.202 63.3961 39.4922 63.2718 40.7724H63.2698Z" fill="white"/>
<path d="M57.1257 20.9616L59.4097 21.3996C59.6901 21.4587 59.9389 21.6191 60.1086 21.85C60.2783 22.081 60.357 22.3663 60.3297 22.6516L59.8877 26.6756C59.8819 26.7283 59.8719 26.7805 59.8577 26.8316C59.7964 27.0703 59.6459 27.2764 59.4371 27.4074C59.2284 27.5384 58.9773 27.5843 58.7357 27.5356L56.4517 27.1056C56.196 27.0512 55.9658 26.9127 55.798 26.7123C55.6301 26.5118 55.5343 26.2609 55.5257 25.9996C55.5207 25.9464 55.5207 25.8928 55.5257 25.8396L55.9677 21.8156C55.9806 21.6804 56.0218 21.5495 56.0887 21.4314C56.1556 21.3132 56.2467 21.2105 56.356 21.13C56.4652 21.0494 56.5902 20.9927 56.7229 20.9637C56.8555 20.9347 56.9928 20.934 57.1257 20.9616ZM58.0797 22.8816C57.9739 22.8604 57.8649 22.8616 57.7597 22.8854C57.6545 22.9091 57.5555 22.9547 57.4691 23.0192C57.3827 23.0837 57.3108 23.1657 57.2582 23.2599C57.2056 23.354 57.1734 23.4582 57.1637 23.5656C57.1401 23.7933 57.2019 24.0217 57.3372 24.2065C57.4724 24.3913 57.6715 24.5192 57.8957 24.5656C58.0015 24.5871 58.1106 24.5861 58.2159 24.5625C58.3212 24.5389 58.4204 24.4933 58.5069 24.4288C58.5934 24.3642 58.6652 24.282 58.7178 24.1877C58.7703 24.0934 58.8023 23.9891 58.8117 23.8816C58.8348 23.6539 58.7728 23.4257 58.6376 23.2411C58.5025 23.0564 58.3037 22.9284 58.0797 22.8816Z" fill="#263238"/>
<path d="M64.1638 29.485C64.1173 29.485 64.0718 29.4718 64.0325 29.447C63.9933 29.4223 63.9618 29.3869 63.9418 29.345L63.0598 27.523C63.0002 27.3989 62.9096 27.2923 62.7968 27.2135C62.684 27.1346 62.5527 27.0862 62.4158 27.073L52.2718 26.101C52.1348 26.0878 51.9968 26.1101 51.8711 26.1658C51.7453 26.2215 51.636 26.3087 51.5538 26.419L50.3418 28.043C50.3225 28.0692 50.2982 28.0914 50.2703 28.1083C50.2424 28.1252 50.2115 28.1364 50.1792 28.1413C50.147 28.1462 50.1141 28.1448 50.0825 28.137C50.0508 28.1292 50.021 28.1153 49.9948 28.096C49.9685 28.0767 49.9463 28.0524 49.9294 28.0245C49.9125 27.9966 49.9013 27.9657 49.8964 27.9334C49.8915 27.9012 49.893 27.8683 49.9007 27.8367C49.9085 27.805 49.9225 27.7752 49.9418 27.749L51.1538 26.125C51.2872 25.9475 51.4639 25.8071 51.6669 25.7171C51.87 25.6271 52.0926 25.5906 52.3138 25.611L62.4558 26.583C62.6769 26.6053 62.8886 26.6837 63.071 26.8108C63.2533 26.9378 63.4002 27.1093 63.4978 27.309L64.3778 29.131C64.3961 29.1684 64.4045 29.2098 64.4024 29.2514C64.4003 29.293 64.3877 29.3334 64.3657 29.3688C64.3437 29.4042 64.3131 29.4334 64.2767 29.4537C64.2403 29.474 64.1994 29.4848 64.1578 29.485H64.1638Z" fill="#32C075"/>
<path d="M43.3998 35.1082L43.2378 35.0922L43.3498 33.9182L43.5138 33.9342L43.3998 35.1082ZM43.5998 32.8362L43.4378 32.8202L43.6918 30.1602L43.8558 30.1762L43.5998 32.8362Z" fill="#32C075"/>
<path d="M64.5737 64.2472C64.5069 64.2479 64.4401 64.2446 64.3737 64.2372L43.2877 62.2172C42.747 62.1645 42.2492 61.8995 41.9035 61.4804C41.5578 61.0612 41.3925 60.5221 41.4437 59.9812L44.4657 28.4292C44.5189 27.8886 44.784 27.3911 45.203 27.0455C45.6221 26.7 46.1609 26.5344 46.7017 26.5852L67.7997 28.5992C68.3406 28.6518 68.8386 28.9167 69.1846 29.3358C69.5306 29.7549 69.6964 30.2941 69.6457 30.8352L66.6117 62.3992C66.5617 62.9056 66.3257 63.3755 65.9492 63.718C65.5728 64.0605 65.0827 64.2512 64.5737 64.2532V64.2472ZM46.5077 26.7392C46.0392 26.7404 45.5878 26.9156 45.2412 27.2309C44.8945 27.5461 44.6773 27.9788 44.6317 28.4452L41.5997 59.9992C41.5545 60.4967 41.7075 60.992 42.0255 61.3774C42.3434 61.7627 42.8007 62.007 43.2977 62.0572L64.3997 64.0752C64.8973 64.1214 65.3929 63.9687 65.7782 63.6505C66.1635 63.3323 66.4071 62.8745 66.4557 62.3772L69.4797 30.8252C69.5255 30.3278 69.373 29.8325 69.0553 29.4471C68.7377 29.0616 68.2807 28.8173 67.7837 28.7672L46.6877 26.7472C46.6277 26.7412 46.5677 26.7392 46.5077 26.7392ZM56.0637 47.4152C55.8277 47.4152 55.5897 47.4032 55.3517 47.3812C54.3127 47.2809 53.3071 46.96 52.402 46.4398C51.497 45.9197 50.7134 45.2124 50.1036 44.3652C49.4939 43.5179 49.072 42.5503 48.8662 41.5269C48.6604 40.5036 48.6755 39.4481 48.9103 38.431C49.1452 37.4139 49.5945 36.4587 50.2281 35.6292C50.8617 34.7996 51.6651 34.1149 52.5846 33.6208C53.5041 33.1267 54.5185 32.8345 55.56 32.7639C56.6014 32.6933 57.6459 32.8457 58.6237 33.2112C59.1979 33.4248 59.7424 33.7111 60.2437 34.0632C61.3114 34.8058 62.1621 35.8194 62.7084 36.9997C63.2546 38.1801 63.4767 39.4846 63.3517 40.7792C63.1783 42.593 62.3359 44.2773 60.9887 45.504C59.6414 46.7307 57.8858 47.412 56.0637 47.4152ZM56.0457 32.9092C54.657 32.9101 53.2984 33.3143 52.135 34.0726C50.9716 34.831 50.0535 35.9109 49.4922 37.1811C48.9309 38.4514 48.7506 39.8573 48.9731 41.2281C49.1956 42.5988 49.8114 43.8755 50.7457 44.903C51.68 45.9304 52.8926 46.6644 54.2362 47.0158C55.5797 47.3672 56.9964 47.3209 58.3141 46.8824C59.6318 46.444 60.7938 45.6323 61.659 44.546C62.5242 43.4597 63.0553 42.1456 63.1877 40.7632C63.3096 39.4979 63.0924 38.2229 62.5585 37.0693C62.0246 35.9158 61.1932 34.9251 60.1497 34.1992C59.6599 33.8545 59.1275 33.5749 58.5657 33.3672C57.9772 33.1457 57.3618 33.0038 56.7357 32.9452C56.5037 32.9212 56.2737 32.9092 56.0457 32.9092Z" fill="#32C075"/>
<path opacity="0.8" d="M58.5997 33.2884C57.2619 32.7883 55.8062 32.6942 54.4151 33.0179C53.024 33.3417 51.7595 34.0689 50.78 35.1084C49.8005 36.1479 49.1497 37.4534 48.9091 38.8613C48.6686 40.2691 48.849 41.7166 49.4277 43.0224L42.6277 48.6384L44.5637 28.4384C44.6153 27.9197 44.8699 27.4424 45.2718 27.1105C45.6738 26.7786 46.1906 26.619 46.7097 26.6664L53.6977 27.3364L55.9337 30.0484L58.5997 33.2884Z" fill="#32C075"/>
<path opacity="0.5" d="M69.5537 30.8336L68.1997 44.9316L63.1997 38.8736C63.0388 37.9236 62.6907 37.015 62.1757 36.2006C61.6607 35.3862 60.989 34.6822 60.1997 34.1296L66.8957 28.5996L67.7837 28.6856C68.3029 28.7367 68.7806 28.9915 69.1123 29.3941C69.4441 29.7966 69.6028 30.3143 69.5537 30.8336Z" fill="#32C075"/>
<path d="M66.8956 28.5999L60.1996 34.1299C59.7039 33.7829 59.1663 33.4999 58.5996 33.2879L55.9256 30.0479L53.6836 27.3359L66.8956 28.5999Z" fill="#32C075"/>
<path opacity="0.5" d="M61.3809 50.393L48.8661 49.1946C48.6561 49.1745 48.4695 49.3285 48.4494 49.5385L48.3869 50.1915C48.3668 50.4015 48.5207 50.588 48.7307 50.6082L61.2455 51.8066C61.4555 51.8267 61.6421 51.6727 61.6622 51.4627L61.7247 50.8097C61.7448 50.5997 61.5909 50.4131 61.3809 50.393Z" fill="#32C075"/>
<path opacity="0.5" d="M60.1579 52.8441L49.6022 51.8333C49.3922 51.8132 49.2056 51.9671 49.1855 52.1771L49.123 52.8301C49.1029 53.0402 49.2568 53.2267 49.4668 53.2468L60.0225 54.2576C60.2325 54.2778 60.4191 54.1238 60.4392 53.9138L60.5017 53.2608C60.5219 53.0508 60.3679 52.8642 60.1579 52.8441Z" fill="#32C075"/>
<path opacity="0.5" d="M47.8967 58.1833L44.759 57.8828L44.7098 58.3965L47.8475 58.6969L47.8967 58.1833Z" fill="#32C075"/>
<path opacity="0.5" d="M51.1335 58.4943L48.603 58.252L48.5538 58.7656L51.0843 59.0079L51.1335 58.4943Z" fill="#32C075"/>
<path opacity="0.5" d="M51.9212 59.7355L44.6484 59.0391L44.5993 59.5527L51.872 60.2492L51.9212 59.7355Z" fill="#32C075"/>
<path opacity="0.5" d="M53.3759 57.98L44.8059 57.123L44.7543 57.639L53.3243 58.496L53.3759 57.98Z" fill="#32C075"/>
<path d="M59.1999 21.3056L56.8799 20.8836C56.7417 20.8591 56.6001 20.8621 56.4631 20.8924C56.3261 20.9226 56.1964 20.9796 56.0814 21.06C55.9665 21.1405 55.8685 21.2428 55.7931 21.3611C55.7176 21.4794 55.6663 21.6114 55.6419 21.7496L54.9179 25.7796C54.9073 25.8322 54.9027 25.8859 54.9039 25.9396C54.8957 26.1954 54.9793 26.4457 55.1396 26.6453C55.2999 26.8448 55.5263 26.9804 55.7779 27.0276L58.0919 27.4496C58.3438 27.495 58.6037 27.4483 58.824 27.318C59.0444 27.1876 59.2104 26.9823 59.2919 26.7396C59.311 26.6891 59.3251 26.6368 59.3339 26.5836L60.0559 22.5536C60.1062 22.2747 60.0446 21.9873 59.8843 21.7536C59.7241 21.52 59.4781 21.359 59.1999 21.3056ZM57.7299 22.7996C57.8968 22.8281 58.0514 22.9056 58.1742 23.0223C58.2969 23.1389 58.3822 23.2894 58.4193 23.4546C58.4563 23.6199 58.4433 23.7924 58.3821 23.9502C58.3208 24.1081 58.214 24.2442 58.0753 24.3412C57.9365 24.4383 57.772 24.4918 57.6027 24.4952C57.4334 24.4985 57.2669 24.4514 57.1245 24.3599C56.982 24.2684 56.8699 24.1366 56.8025 23.9813C56.7351 23.826 56.7154 23.6541 56.7459 23.4876C56.7868 23.2667 56.9129 23.0708 57.097 22.9421C57.2811 22.8134 57.5084 22.7622 57.7299 22.7996Z" fill="#263238"/>
<path opacity="0.2" d="M59.1999 21.3056L56.8799 20.8836C56.7417 20.8591 56.6001 20.8621 56.4631 20.8924C56.3261 20.9226 56.1964 20.9796 56.0814 21.06C55.9665 21.1405 55.8685 21.2428 55.7931 21.3611C55.7176 21.4794 55.6663 21.6114 55.6419 21.7496L54.9179 25.7796C54.9073 25.8322 54.9027 25.8859 54.9039 25.9396C54.8957 26.1954 54.9793 26.4457 55.1396 26.6453C55.2999 26.8448 55.5263 26.9804 55.7779 27.0276L58.0919 27.4496C58.3438 27.495 58.6037 27.4483 58.824 27.318C59.0444 27.1876 59.2104 26.9823 59.2919 26.7396C59.311 26.6891 59.3251 26.6368 59.3339 26.5836L60.0559 22.5536C60.1062 22.2747 60.0446 21.9873 59.8843 21.7536C59.7241 21.52 59.4781 21.359 59.1999 21.3056ZM57.7299 22.7996C57.8968 22.8281 58.0514 22.9056 58.1742 23.0223C58.2969 23.1389 58.3822 23.2894 58.4193 23.4546C58.4563 23.6199 58.4433 23.7924 58.3821 23.9502C58.3208 24.1081 58.214 24.2442 58.0753 24.3412C57.9365 24.4383 57.772 24.4918 57.6027 24.4952C57.4334 24.4985 57.2669 24.4514 57.1245 24.3599C56.982 24.2684 56.8699 24.1366 56.8025 23.9813C56.7351 23.826 56.7154 23.6541 56.7459 23.4876C56.7868 23.2667 56.9129 23.0708 57.097 22.9421C57.2811 22.8134 57.5084 22.7622 57.7299 22.7996Z" fill="white"/>
<path opacity="0.2" d="M63.514 60.945C64.118 60.4466 64.2036 59.5528 63.7052 58.9488C63.2067 58.3448 62.313 58.2592 61.7089 58.7576C61.1049 59.2561 61.0193 60.1498 61.5178 60.7538C62.0162 61.3579 62.91 61.4435 63.514 60.945Z" fill="#32C075"/>
<path opacity="0.8" d="M59.7594 60.5856C60.3634 60.0872 60.449 59.1934 59.9505 58.5894C59.4521 57.9854 58.5583 57.8998 57.9543 58.3982C57.3503 58.8967 57.2647 59.7904 57.7631 60.3945C58.2616 60.9985 59.1553 61.0841 59.7594 60.5856Z" fill="#32C075"/>
</g>
<defs>
<clipPath id="clip0_127_1630">
<rect width="100" height="100" fill="white" transform="translate(8 8)"/>
</clipPath>
</defs>
</svg>
