<svg width="116" height="116" viewBox="0 0 116 116" fill="none" xmlns="http://www.w3.org/2000/svg">
<rect width="116" height="116" fill="white"/>
<path d="M25.572 59.0035L12.3203 61.1309L14.0209 71.7246L27.2726 69.5972L25.572 59.0035Z" fill="#F5F5F5"/>
<path d="M25.5721 59L25.5081 59.012L25.3228 59.044L24.6041 59.1627L21.8921 59.608L12.3268 61.164L12.3561 61.124C12.8628 64.2773 13.4454 67.892 14.0601 71.716L14.0161 71.684L27.2681 69.5627L27.2414 69.6C26.7361 66.4093 26.3174 63.764 26.0241 61.9133C25.8801 60.988 25.7654 60.2627 25.6881 59.7653C25.6499 59.5173 25.6205 59.328 25.6001 59.1973C25.5814 59.064 25.5721 59.0013 25.5721 59.0013C25.5721 59.0013 25.5854 59.064 25.6068 59.1893C25.6281 59.3147 25.6601 59.5053 25.7001 59.7493C25.7814 60.2453 25.9001 60.968 26.0521 61.8893C26.3534 63.7427 26.7854 66.392 27.3054 69.5893V69.6213H27.2734L14.0228 71.7547H13.9854V71.7173C13.3721 67.892 12.7934 64.2773 12.2881 61.124V61.0893H12.3228L21.9161 59.5667L24.6228 59.1413L25.3361 59.0307L25.5188 59.0027L25.5721 59Z" fill="#E0E0E0"/>
<path d="M25.2042 59.7467L12.8833 61.7246L14.3698 70.9847L26.6908 69.0068L25.2042 59.7467Z" fill="#EBEBEB"/>
<path d="M14.3721 70.9851L17.7507 64.5371L20.9947 67.7104L22.4934 65.4958L26.6921 69.0064L14.3721 70.9851Z" fill="#E0E0E0"/>
<path d="M21.4346 63.2222C21.4657 63.4141 21.4391 63.6109 21.3583 63.7877C21.2774 63.9646 21.146 64.1134 20.9805 64.2155C20.815 64.3176 20.623 64.3683 20.4287 64.3612C20.2344 64.3541 20.0466 64.2895 19.889 64.1756C19.7314 64.0617 19.6112 63.9036 19.5434 63.7214C19.4757 63.5391 19.4636 63.3409 19.5086 63.1517C19.5536 62.9626 19.6537 62.791 19.7962 62.6588C19.9388 62.5265 20.1173 62.4396 20.3093 62.4088C20.5664 62.3677 20.8292 62.4302 21.0402 62.5827C21.2512 62.7352 21.3931 62.9652 21.4346 63.2222Z" fill="#E0E0E0"/>
<path d="M87.8027 74.0556C87.2 73.6775 86.5185 73.443 85.8107 73.3703C85.4854 73.3369 85.1307 73.3463 84.8694 73.5436C84.8391 73.5608 84.814 73.5858 84.7969 73.6161C84.7797 73.6464 84.7711 73.6808 84.772 73.7156C84.7877 73.7645 84.8203 73.8061 84.864 73.8329C85.6747 74.4516 86.9 74.5289 87.7974 74.0556" fill="#E0E0E0"/>
<path d="M87.752 73.9996C87.2906 73.6609 86.8601 73.2821 86.4653 72.8676C86.072 72.4494 85.796 71.9347 85.6653 71.3756C85.6393 71.2928 85.6315 71.2054 85.6426 71.1193C85.6536 71.0332 85.6832 70.9505 85.7293 70.877C86.7547 71.677 87.56 72.713 87.7587 73.9996" fill="#E0E0E0"/>
<path d="M87.7921 74.0475C87.6966 73.4877 87.7048 72.9151 87.8161 72.3582C87.9314 71.7976 88.2525 71.3005 88.7161 70.9648C88.8934 71.3795 88.8174 71.8568 88.6921 72.2888C88.4982 72.9592 88.197 73.5936 87.8001 74.1675" fill="#E0E0E0"/>
<path d="M88.8 75.8496C88.1893 75.9243 87.6586 76.2496 87.2 76.6576C86.7417 77.0746 86.4228 77.6225 86.2866 78.2269C86.8853 78.1896 87.3933 77.7669 87.7613 77.2936C88.1293 76.8203 88.3839 76.3016 88.7893 75.8589" fill="#E0E0E0"/>
<path d="M89.0162 76.1368C88.7754 75.5272 88.6905 74.8671 88.7692 74.2164C88.8479 73.5656 89.0877 72.9448 89.4669 72.4102C89.8149 73.6475 89.6869 75.0435 89.0122 76.1368" fill="#E0E0E0"/>
<path d="M90.3441 77.7182C89.7864 77.684 89.2309 77.8144 88.7466 78.0931C88.2623 78.3719 87.8706 78.7868 87.6201 79.2862C87.5868 79.3542 87.5561 79.4396 87.6014 79.4996C87.6251 79.5225 87.6539 79.5394 87.6855 79.5487C87.7171 79.558 87.7505 79.5594 87.7828 79.5529C88.3161 79.5182 88.7948 79.1956 89.1881 78.8276C89.5814 78.4596 89.9228 78.0356 90.3561 77.7169" fill="#E0E0E0"/>
<path d="M90.3014 77.6335C90.0162 76.7125 89.9986 75.7294 90.2507 74.7988C90.3507 74.4348 90.5174 74.0508 90.856 73.8788C90.8684 73.8686 90.8831 73.8618 90.8989 73.8589C90.9146 73.8561 90.9308 73.8573 90.946 73.8625C90.9611 73.8678 90.9746 73.8768 90.9853 73.8887C90.9959 73.9007 91.0033 73.9152 91.0067 73.9308C91.1198 74.1863 91.1688 74.4655 91.1494 74.7442C91.1276 75.0216 91.083 75.2967 91.016 75.5668C90.9107 76.0695 90.8534 76.6108 90.5774 77.0442C90.5126 77.1485 90.4543 77.2567 90.4027 77.3682C90.3507 77.4788 90.3494 77.5175 90.3027 77.6055" fill="#E0E0E0"/>
<path d="M93.8176 78.1572C93.5509 77.1652 93.8336 75.9652 94.4576 75.1518C94.5042 75.0918 94.5642 75.0278 94.6402 75.0358C94.7549 75.0465 94.7842 75.1998 94.7802 75.3145C94.7322 76.3336 94.3987 77.3186 93.8176 78.1572Z" fill="#E0E0E0"/>
<path d="M94.1333 78.3744C95.3333 78.6877 96.7173 78.3837 97.7186 77.6451C97.1197 77.3417 96.4341 77.2555 95.7786 77.4011C95.1306 77.5504 94.5373 77.8397 94.1346 78.3691" fill="#E0E0E0"/>
<path d="M94.4001 77.7134C95.0748 76.6147 96.3668 75.8974 97.6548 75.832C97.5068 76.356 97.0761 76.7654 96.5881 77.008C96.1001 77.2507 95.5601 77.3614 95.0255 77.4654C94.8175 77.5054 94.5321 77.5507 94.3975 77.7134" fill="#E0E0E0"/>
<path d="M93.8842 74.5114C94.0886 73.8924 94.228 73.2539 94.3002 72.606C94.3509 71.9567 94.2589 71.2727 93.9215 70.7207C93.2909 71.9394 93.2282 73.3634 93.8655 74.5767" fill="#E0E0E0"/>
<path d="M96 73.4421C96.7373 72.1088 98.24 71.0341 99.76 70.8848C99.1733 72.3448 97.5733 73.4728 96 73.4421Z" fill="#E0E0E0"/>
<path d="M95.5415 73.7023C96.6402 73.8703 97.5748 74.5716 98.6082 74.997C98.8234 75.1007 99.0618 75.1466 99.3002 75.1303C99.4111 75.1295 99.5192 75.0945 99.6095 75.0301C99.6999 74.9657 99.7682 74.875 99.8053 74.7704C99.8423 74.6658 99.8461 74.5523 99.8164 74.4454C99.7866 74.3385 99.7246 74.2434 99.6388 74.1729C99.4939 74.0386 99.3234 73.9348 99.1375 73.8676C98.0188 73.4023 96.8202 73.3903 95.6428 73.6729" fill="#E0E0E0"/>
<path d="M94.9053 74.4744C95.1546 74.5451 95.2386 74.6744 95.4386 74.8424C96.1103 75.4132 96.9047 75.8212 97.7599 76.0344C97.8479 76.0557 97.9639 76.0651 98.0079 75.9851C98.0519 75.9051 97.9986 75.8304 97.9479 75.7677C97.5754 75.33 97.0911 75.0014 96.5466 74.8171C96.0133 74.6171 95.5479 74.3771 94.9079 74.4291" fill="#E0E0E0"/>
<path d="M94.188 69.8223C94.6387 70.2371 95.1711 70.5533 95.7511 70.7505C96.331 70.9477 96.9458 71.0217 97.556 70.9676C97.6119 70.968 97.6663 70.9487 97.7093 70.913C97.7933 70.821 97.692 70.6783 97.5933 70.601C96.6027 69.829 95.404 69.509 94.188 69.8223Z" fill="#E0E0E0"/>
<path d="M95.0386 69.509C95.6346 69.0703 96.3259 68.7788 97.0561 68.6583C97.7862 68.5378 98.5346 68.5917 99.2399 68.8157C98.691 69.3254 97.9865 69.6354 97.2399 69.6957C96.5013 69.7625 95.7567 69.6993 95.0399 69.509" fill="#E0E0E0"/>
<path d="M94.7017 67.372C94.6043 66.384 94.667 65.604 94.599 64.6106C94.599 64.532 94.5763 64.436 94.5017 64.408C94.399 64.368 94.3123 64.4946 94.279 64.6C94.1347 65.0602 94.0977 65.5474 94.1707 66.0241C94.2438 66.5009 94.4249 66.9547 94.7003 67.3506" fill="#E0E0E0"/>
<path d="M94.6294 67.4817C95.2747 67.0645 95.8311 66.5239 96.2667 65.891C96.5894 65.4483 96.8627 64.9177 96.7894 64.375C96.5617 64.381 96.338 64.4366 96.134 64.538C95.93 64.6393 95.7505 64.7839 95.6081 64.9617C95.3262 65.3194 95.1215 65.7316 95.0067 66.1723C94.8734 66.607 94.7841 67.0537 94.6294 67.4817Z" fill="#E0E0E0"/>
<path d="M96.2375 67.0359C97.7114 66.4901 99.0759 65.6855 100.267 64.6599C99.7855 64.4666 99.2349 64.5826 98.7535 64.7759C97.6535 65.2199 96.7535 65.9692 96.2202 67.0252" fill="#E0E0E0"/>
<path d="M95.0815 68.0224C95.8255 68.1037 96.5815 68.1557 97.3189 68.0331C98.0562 67.9104 98.7295 67.6251 99.4069 67.3397C99.4661 67.3225 99.5169 67.2841 99.5495 67.2317C99.56 67.2002 99.5606 67.1662 99.5513 67.1343C99.542 67.1024 99.5233 67.0741 99.4975 67.0531C99.4458 67.0119 99.385 66.9836 99.3202 66.9704C98.5829 66.7637 97.7882 66.8597 97.0629 67.1037C96.3724 67.3399 95.7084 67.6473 95.0815 68.0211" fill="#E0E0E0"/>
<path d="M90.8359 69.8547C90.3279 68.8307 90.3612 67.6361 90.7999 66.5801C91.1079 67.0507 91.1452 67.6467 91.0892 68.2081C91.0332 68.7694 90.8626 69.3441 90.8519 69.9054" fill="#E0E0E0"/>
<path d="M88.8092 68.8324C88.1739 68.8242 87.5438 68.9486 86.9593 69.1977C86.3748 69.4468 85.8487 69.8151 85.4146 70.2791C86.0548 70.3556 86.7032 70.2351 87.2732 69.9337C87.8414 69.6335 88.3775 69.2761 88.8732 68.8671" fill="#E0E0E0"/>
<path d="M87.4467 68.3769C86.8267 68.3263 86.2307 68.2436 85.6347 68.4316C85.3339 68.516 85.0548 68.6643 84.8164 68.8663C84.5781 69.0683 84.386 69.3193 84.2534 69.6023C84.8381 69.6495 85.4247 69.5389 85.9521 69.2823C86.4761 69.0253 86.9763 68.7223 87.4467 68.3769Z" fill="#E0E0E0"/>
<path d="M89.4668 68.3978C88.9095 68.0325 88.3375 67.6605 87.6882 67.5098C87.0388 67.3592 86.2868 67.4698 85.8335 67.9592C86.3588 68.2672 86.9962 68.3045 87.6055 68.3032C88.2148 68.3018 88.9615 68.3032 89.5362 68.4992" fill="#E0E0E0"/>
<path d="M89.4668 68.4272C88.5148 67.4939 88.1535 65.8112 88.5335 64.5312C89.2871 65.6823 89.617 67.0596 89.4668 68.4272Z" fill="#E0E0E0"/>
<path d="M92.0879 65.7772C92.2679 65.3585 92.3932 64.9198 92.5546 64.4945C92.7019 64.0629 92.928 63.6624 93.2212 63.3132C93.5194 62.9628 93.943 62.7431 94.4012 62.7012C94.2549 63.3461 93.9756 63.9534 93.5812 64.4842C93.1868 65.015 92.6859 65.4577 92.1106 65.7838" fill="#E0E0E0"/>
<path d="M91.6133 66.3339C91.3159 65.9245 90.972 65.3685 90.5693 65.0632C90.1666 64.7579 89.6359 64.5725 89.1479 64.6899C89.4031 65.1364 89.7587 65.5175 90.1866 65.8028C90.6145 66.0882 91.1029 66.27 91.6133 66.3339Z" fill="#E0E0E0"/>
<path d="M91.7079 65.8104C91.4945 65.3222 91.3371 64.8113 91.2386 64.2877C91.1399 63.758 91.2235 63.2105 91.4759 62.7344C91.9999 63.7237 92.1679 64.785 91.7346 65.817" fill="#E0E0E0"/>
<path d="M92.0923 62.7335C92.3896 61.7535 93.2923 61.0322 94.2563 60.7002C94.3761 60.6512 94.5061 60.632 94.635 60.6442C94.6993 60.651 94.7602 60.6766 94.81 60.7179C94.8599 60.7591 94.8964 60.8142 94.9149 60.8762C94.9496 61.0442 94.8123 61.1935 94.683 61.3042C93.9252 61.9513 93.0438 62.4376 92.0923 62.7335Z" fill="#E0E0E0"/>
<path d="M92.1039 61.9339C92.1412 61.3019 92.1799 60.6605 92.3866 60.0672C92.5932 59.4739 92.9879 58.9059 93.5639 58.6445C93.6626 59.2819 93.3799 59.9179 93.0412 60.4672C92.7026 61.0165 92.2919 61.5339 92.0879 62.1472" fill="#E0E0E0"/>
<path d="M92.0879 62.3715C91.8426 61.6569 91.8212 60.7502 91.3892 60.1275C91.0906 59.6929 90.6119 59.3955 90.3546 58.9355C90.1987 59.3774 90.2202 59.8625 90.4146 60.2889C90.6092 60.7103 90.8769 61.094 91.2052 61.4222C91.5226 61.7595 91.7932 62.0142 92.0879 62.3715Z" fill="#E0E0E0"/>
<path d="M92.0922 83.4124C92.0736 83.4124 92.0576 78.6457 92.0562 72.7684C92.0549 66.891 92.0696 62.123 92.0882 62.123C92.1069 62.123 92.1242 66.8884 92.1256 72.7684C92.1269 78.6484 92.1122 83.4124 92.0922 83.4124Z" fill="#E0E0E0"/>
<path d="M96.2574 69.1328C96.1999 69.1602 96.1401 69.1825 96.0788 69.1995L95.5854 69.3661C95.1694 69.5075 94.5988 69.7128 93.9854 69.9661C93.3721 70.2195 92.7854 70.4435 92.4628 70.7301C92.3312 70.8382 92.2263 70.9751 92.1561 71.1301C92.1094 71.2421 92.1014 71.3101 92.0948 71.3088C92.0881 71.3075 92.0948 71.2915 92.0948 71.2595C92.1027 71.214 92.1147 71.1694 92.1308 71.1261C92.193 70.9596 92.2956 70.8112 92.4294 70.6941C92.6302 70.5255 92.8549 70.3876 93.0961 70.2848C93.3628 70.1608 93.6534 70.0328 93.9641 69.9048C94.5854 69.6501 95.1641 69.4515 95.5828 69.3208C95.7921 69.2555 95.9641 69.2075 96.0828 69.1755C96.1393 69.1551 96.1979 69.1408 96.2574 69.1328Z" fill="#E0E0E0"/>
<path d="M97.6229 65.7832C97.608 65.8028 97.591 65.8207 97.5723 65.8365L97.4203 65.9805C97.2776 66.1139 97.0843 66.2845 96.8483 66.4992L94.9483 68.1912C94.2069 68.8512 93.5656 69.4819 93.1216 69.9565C92.8989 70.1939 92.7216 70.3912 92.6043 70.5272L92.4709 70.6859C92.4559 70.7053 92.4384 70.7228 92.4189 70.7379C92.4293 70.7156 92.4428 70.695 92.4589 70.6765C92.4883 70.6379 92.5309 70.5819 92.5923 70.5112C92.7056 70.3672 92.8749 70.1659 93.0936 69.9245C93.667 69.2973 94.2736 68.7014 94.9109 68.1392C95.6549 67.4805 96.3323 66.8885 96.8243 66.4619C97.0669 66.2552 97.2643 66.0845 97.4096 65.9592L97.5709 65.8259C97.5867 65.8098 97.6041 65.7955 97.6229 65.7832Z" fill="#E0E0E0"/>
<path d="M94.1482 68.8662C94.1282 68.8582 94.2816 68.4995 94.4376 68.0475C94.5936 67.5955 94.6669 67.2128 94.6869 67.2168C94.6699 67.5086 94.6078 67.796 94.5029 68.0688C94.4372 68.2642 94.3602 68.4557 94.2722 68.6422C94.2414 68.7222 94.1997 68.7975 94.1482 68.8662Z" fill="#E0E0E0"/>
<path d="M92.0976 71.7476C92.0548 71.7073 92.0164 71.6626 91.983 71.6142L91.6896 71.2396C91.4443 70.9209 91.1043 70.4822 90.723 70.0022C90.3416 69.5222 89.991 69.0902 89.7376 68.7796C89.6176 68.6302 89.5176 68.5129 89.4376 68.4089C89.3987 68.3654 89.3643 68.3181 89.335 68.2676C89.3809 68.304 89.4225 68.3456 89.459 68.3916C89.535 68.4742 89.643 68.5956 89.775 68.7476C90.0416 69.0516 90.395 69.4782 90.7763 69.9596C91.1576 70.4409 91.4923 70.8836 91.7296 71.2102C91.847 71.3729 91.9416 71.5049 92.0043 71.5982C92.0406 71.6446 92.0719 71.6946 92.0976 71.7476Z" fill="#E0E0E0"/>
<path d="M91.1841 70.5741C90.9994 70.3707 90.8679 70.1247 90.8014 69.8581C90.7291 69.6249 90.6998 69.3805 90.7147 69.1368H90.7454C90.7307 69.1928 90.7214 69.2221 90.7161 69.2208C90.7107 69.2195 90.7161 69.1888 90.7161 69.1328H90.7467C90.7617 69.3703 90.8024 69.6054 90.8681 69.8341C90.9545 70.0885 91.0601 70.3359 91.1841 70.5741Z" fill="#E0E0E0"/>
<path d="M90.0002 69.0917C89.918 69.0293 89.8285 68.9773 89.7335 68.937C89.4933 68.8656 89.2408 68.8452 88.9922 68.877C88.7404 68.8971 88.4907 68.9377 88.2455 68.9984C88.1447 69.0301 88.0418 69.0546 87.9375 69.0717C88.0292 69.0172 88.1285 68.9768 88.2322 68.9517C88.4775 68.8758 88.7307 68.8279 88.9868 68.809C89.2449 68.7748 89.5074 68.8031 89.7522 68.8917C89.855 68.9285 89.9424 68.999 90.0002 69.0917Z" fill="#E0E0E0"/>
<path d="M89.7253 68.7332C89.7253 68.7439 89.5693 68.6706 89.316 68.5839C88.6531 68.3563 87.943 68.3022 87.2533 68.4266C86.9867 68.4732 86.8307 68.5226 86.8267 68.5119C86.8595 68.4911 86.8955 68.4757 86.9333 68.4666C87.0347 68.4317 87.1379 68.4027 87.2427 68.3799C87.9399 68.227 88.6665 68.2812 89.3333 68.5359C89.4332 68.5746 89.5307 68.6192 89.6253 68.6692C89.692 68.7052 89.7333 68.7332 89.7253 68.7332Z" fill="#E0E0E0"/>
<path d="M92.0883 67.2118C91.9669 66.8726 91.8672 66.5262 91.7896 66.1744C91.6899 65.8286 91.6124 65.4768 91.5576 65.1211C91.6793 65.4596 91.7791 65.8057 91.8563 66.1571C91.9562 66.5033 92.0337 66.8556 92.0883 67.2118Z" fill="#E0E0E0"/>
<path d="M92.1069 67.2119C92.0115 66.9972 91.901 66.7896 91.7762 66.5906C91.636 66.403 91.4724 66.2341 91.2896 66.0879C91.3588 66.1055 91.4232 66.1388 91.4776 66.1852C91.6157 66.2859 91.7357 66.4095 91.8322 66.5506C91.9809 66.7427 92.0757 66.971 92.1069 67.2119Z" fill="#E0E0E0"/>
<path d="M92.0919 80.8662C92.0852 80.8662 92.0706 80.7528 92.0172 80.5502C91.9381 80.2653 91.8314 79.9889 91.6986 79.7248C91.3692 79.0515 90.7652 78.1982 90.0092 77.3435C89.6319 76.9128 89.2652 76.5062 88.9546 76.1168C88.6759 75.7745 88.424 75.4112 88.2012 75.0302C88.0518 74.7726 87.9247 74.5027 87.8212 74.2235C87.7866 74.1235 87.7599 74.0462 87.7466 73.9928C87.737 73.9661 87.7303 73.9383 87.7266 73.9102C87.7266 73.9102 87.7679 74.0195 87.8466 74.2142C87.9594 74.488 88.0931 74.7528 88.2466 75.0062C88.4741 75.3797 88.7286 75.7362 89.0079 76.0728C89.3186 76.4582 89.6852 76.8635 90.0639 77.2942C90.8266 78.1515 91.4252 79.0155 91.7452 79.6942C91.876 79.9624 91.977 80.244 92.0466 80.5342C92.0679 80.6368 92.0826 80.7182 92.0879 80.7728C92.0932 80.8036 92.0946 80.835 92.0919 80.8662Z" fill="#E0E0E0"/>
<path d="M95.8558 76.6211C95.7927 76.6625 95.7268 76.6995 95.6585 76.7318C95.4807 76.8328 95.3101 76.9459 95.1478 77.0704C94.9097 77.2569 94.6868 77.462 94.4812 77.6838C94.2452 77.9318 94.0025 78.2171 93.7545 78.5318C93.2585 79.1531 92.7945 79.7038 92.5172 80.1438C92.3758 80.3611 92.2732 80.5438 92.2065 80.6771C92.1749 80.7455 92.1384 80.8114 92.0972 80.8744C92.1017 80.8557 92.108 80.8374 92.1158 80.8198C92.1305 80.7838 92.1505 80.7304 92.1825 80.6651C92.2686 80.4773 92.3666 80.2951 92.4758 80.1198C92.7425 79.6704 93.2052 79.1118 93.6998 78.4918C93.9492 78.1811 94.1945 77.8904 94.4345 77.6424C94.6464 77.4203 94.877 77.2169 95.1238 77.0344C95.2915 76.911 95.47 76.803 95.6572 76.7118C95.7225 76.6784 95.7758 76.6584 95.8105 76.6424C95.825 76.6341 95.8402 76.627 95.8558 76.6211Z" fill="#E0E0E0"/>
<path d="M95.9296 78.0008C95.7925 78.0307 95.6535 78.0508 95.5136 78.0608C95.1785 78.0953 94.8474 78.1605 94.5242 78.2555C94.2052 78.3594 93.9059 78.5162 93.6389 78.7195C93.4349 78.8782 93.3389 79.0088 93.3296 79.0008C93.3202 78.9928 93.3456 78.9622 93.3909 78.9048C93.456 78.8238 93.5288 78.7492 93.6082 78.6822C93.8721 78.4623 94.1759 78.2953 94.5029 78.1902C94.83 78.0924 95.1674 78.0329 95.5082 78.0128C95.648 77.9957 95.789 77.9917 95.9296 78.0008Z" fill="#E0E0E0"/>
<path d="M93.4509 78.8476C93.4296 78.8356 93.6175 78.5489 93.7629 78.1622C93.9082 77.7756 93.9322 77.4316 93.9562 77.4356C93.9688 77.5097 93.9688 77.5855 93.9562 77.6596C93.9357 77.8391 93.895 78.0158 93.8349 78.1862C93.7713 78.3553 93.6899 78.517 93.5922 78.6689C93.5109 78.7862 93.4589 78.8529 93.4509 78.8476Z" fill="#E0E0E0"/>
<path d="M97.0747 72.9199C97.0537 72.9337 97.0314 72.9453 97.0081 72.9546L96.8121 73.0439C96.7267 73.0813 96.6227 73.1266 96.5054 73.1893C96.3881 73.2519 96.2494 73.3119 96.1054 73.3986L95.8774 73.5319C95.7987 73.5773 95.7214 73.6306 95.6387 73.6826C95.4707 73.7853 95.3027 73.9093 95.1227 74.0373C94.355 74.6093 93.6854 75.3023 93.1401 76.0893C93.0187 76.2733 92.8987 76.4453 92.8027 76.6226C92.7534 76.7066 92.7027 76.7866 92.6601 76.8666L92.5387 77.0986C92.4574 77.2453 92.4054 77.3839 92.3427 77.4986C92.2801 77.6133 92.2427 77.7239 92.2094 77.8106L92.1281 78.0093C92.1192 78.033 92.1081 78.0557 92.0947 78.0773C92.0978 78.0524 92.1046 78.0281 92.1147 78.0053L92.1841 77.8013C92.2147 77.7119 92.2547 77.6053 92.3094 77.4826C92.3641 77.3599 92.4174 77.2159 92.4961 77.0719L92.6147 76.8359C92.6561 76.7546 92.7067 76.6733 92.7481 76.5879C92.8427 76.4146 92.9614 76.2399 93.0827 76.0546C93.6279 75.2577 94.3041 74.5589 95.0827 73.9879C95.2641 73.8613 95.4347 73.7359 95.6054 73.6359C95.6894 73.5853 95.7681 73.5319 95.8481 73.4879L96.0801 73.3613C96.2254 73.2773 96.3641 73.2173 96.4801 73.1599C96.5961 73.1026 96.7067 73.0573 96.7934 73.0266C96.8801 72.9959 96.9427 72.9706 96.9947 72.9493C97.0199 72.9358 97.0468 72.9259 97.0747 72.9199Z" fill="#E0E0E0"/>
<path d="M94.0962 74.9134C94.1252 74.8175 94.1824 74.7325 94.2602 74.6694C94.444 74.5107 94.6774 74.4211 94.9202 74.416C95.1582 74.4146 95.3943 74.4599 95.6149 74.5494C95.7098 74.5806 95.7996 74.6255 95.8815 74.6827C95.7854 74.6638 95.6913 74.6361 95.6002 74.6C95.3825 74.5257 95.1542 74.4875 94.9242 74.4867C94.6957 74.491 94.4746 74.5686 94.2935 74.708C94.2233 74.772 94.1573 74.8406 94.0962 74.9134Z" fill="#E0E0E0"/>
<path d="M93.6509 75.3736C93.7394 75.1794 93.8026 74.9746 93.8389 74.7643C93.8528 74.5509 93.8384 74.3366 93.7962 74.127C93.8366 74.1787 93.8636 74.2396 93.8749 74.3043C93.9544 74.6118 93.9164 74.938 93.7682 75.219C93.7095 75.3243 93.6575 75.3776 93.6509 75.3736Z" fill="#E0E0E0"/>
<path d="M88.8003 81.5547C88.903 83.376 89.451 85.228 90.2963 87.1014H93.967C94.767 85.2467 95.283 83.3974 95.3736 81.5547H88.8003Z" fill="#E0E0E0"/>
<path d="M94.7799 84.5015C94.7799 84.5201 93.5705 84.5361 92.0799 84.5361C90.5892 84.5361 89.3799 84.5201 89.3799 84.5015C89.3799 84.4828 90.5892 84.4668 92.0799 84.4668C93.5705 84.4668 94.7799 84.4828 94.7799 84.5015Z" fill="#FAFAFA"/>
<path d="M94.6975 85.1616C94.6975 85.1803 93.5642 85.1963 92.1642 85.1963C90.7642 85.1963 89.6309 85.1803 89.6309 85.1616C89.6309 85.143 90.7642 85.127 92.1642 85.127C93.5642 85.127 94.6975 85.143 94.6975 85.1616Z" fill="#FAFAFA"/>
<path d="M90.356 82.752C90.4022 83.3146 90.4022 83.88 90.356 84.4426C90.3097 83.88 90.3097 83.3146 90.356 82.752Z" fill="#FAFAFA"/>
<path d="M92.3228 82.752C92.369 83.3346 92.369 83.92 92.3228 84.5026C92.2765 83.92 92.2765 83.3346 92.3228 82.752Z" fill="#FAFAFA"/>
<path d="M94.1694 82.7344C94.2157 83.329 94.2157 83.9264 94.1694 84.521C94.1232 83.9264 94.1232 83.329 94.1694 82.7344Z" fill="#FAFAFA"/>
<path d="M95.2586 82.7515C95.2586 82.7701 93.84 82.7848 92.092 82.7848C90.344 82.7848 88.9253 82.7701 88.9253 82.7515C88.9253 82.7328 90.3426 82.7168 92.092 82.7168C93.8413 82.7168 95.2586 82.7341 95.2586 82.7515Z" fill="#FAFAFA"/>
<path d="M103.716 50.13C103.778 50.1439 103.836 50.1698 103.888 50.2062C103.94 50.2427 103.984 50.289 104.017 50.3425C104.051 50.396 104.074 50.4557 104.085 50.518C104.096 50.5804 104.094 50.6443 104.08 50.706L103.991 51.106L103.167 54.706C103.148 54.7883 103.098 54.86 103.027 54.9052C102.955 54.9505 102.869 54.9656 102.787 54.9473L94.552 53.0607C94.4731 53.0424 94.4042 52.9947 94.3593 52.9273C94.3144 52.8599 94.297 52.7778 94.3107 52.698L95.0867 48.0127C95.0926 47.9691 95.1076 47.9273 95.1305 47.8898C95.1535 47.8523 95.184 47.82 95.2201 47.795C95.2562 47.7699 95.2971 47.7526 95.3403 47.7442C95.3834 47.7357 95.4278 47.7364 95.4707 47.746L97.3374 48.1727C97.5135 48.2127 97.6696 48.3144 97.7774 48.4593L98.0867 48.874L103.716 50.13Z" fill="#E0E0E0"/>
<path d="M104.22 50.7541L95.2227 48.6934L93.979 54.1234L102.977 56.1842L104.22 50.7541Z" fill="#F5F5F5"/>
<path d="M94.4003 49.017L93.7896 54.837C93.7847 54.8867 93.7979 54.9365 93.8268 54.9771C93.8557 55.0178 93.8984 55.0467 93.9469 55.0583L102.715 57.0663C102.765 57.0776 102.818 57.0695 102.862 57.0435C102.907 57.0175 102.94 56.9757 102.955 56.9263L104.688 51.365C104.698 51.3378 104.701 51.3089 104.699 51.2802C104.697 51.2515 104.688 51.2236 104.674 51.1984C104.66 51.1732 104.641 51.1513 104.618 51.134C104.595 51.1168 104.568 51.1046 104.54 51.0983L94.6429 48.8317C94.6146 48.8263 94.5855 48.827 94.5575 48.8337C94.5295 48.8403 94.5032 48.8528 94.4803 48.8703C94.4574 48.8878 94.4385 48.9098 94.4247 48.9351C94.4109 48.9604 94.4026 48.9883 94.4003 49.017Z" fill="#EBEBEB"/>
<path d="M20.6123 44.1323C20.7122 44.1475 20.8021 44.2015 20.8623 44.2827C20.9225 44.3639 20.9481 44.4656 20.9336 44.5657C20.915 44.699 20.8963 44.8323 20.887 44.887L20.459 47.7843C20.4544 47.8171 20.4434 47.8487 20.4265 47.8772C20.4097 47.9058 20.3873 47.9307 20.3608 47.9505C20.3342 47.9703 20.304 47.9847 20.2719 47.9928C20.2398 48.0009 20.2064 48.0026 20.1736 47.9977L13.547 47.0177C13.4844 47.0081 13.4278 46.9754 13.3882 46.926C13.3487 46.8766 13.3292 46.8141 13.3336 46.751L13.6563 42.9977C13.659 42.9632 13.6688 42.9298 13.685 42.8993C13.7012 42.8688 13.7235 42.842 13.7505 42.8205C13.7775 42.799 13.8087 42.7833 13.842 42.7743C13.8753 42.7653 13.9101 42.7633 13.9443 42.7683L15.443 42.9897C15.5849 43.011 15.7148 43.0819 15.8096 43.1897L16.0763 43.4977L20.6123 44.1323Z" fill="#E0E0E0"/>
<path d="M21.0492 44.5962L13.8066 43.5254L13.1604 47.8965L20.403 48.9673L21.0492 44.5962Z" fill="#F5F5F5"/>
<path d="M13.1707 43.8302L13.0494 48.4662C13.0481 48.5052 13.0609 48.5433 13.0854 48.5737C13.1098 48.604 13.1444 48.6246 13.1827 48.6316L20.2414 49.6756C20.2819 49.6816 20.3231 49.672 20.3568 49.6487C20.3905 49.6254 20.414 49.5902 20.4227 49.5502L21.4521 45.0449C21.4573 45.0231 21.458 45.0005 21.454 44.9784C21.45 44.9564 21.4414 44.9354 21.4289 44.9168C21.4163 44.8983 21.4001 44.8825 21.3811 44.8706C21.3621 44.8587 21.3409 44.8508 21.3187 44.8476L13.3507 43.6689C13.3281 43.6665 13.3052 43.6688 13.2835 43.6758C13.2618 43.6828 13.2418 43.6943 13.2248 43.7095C13.2079 43.7247 13.1943 43.7433 13.185 43.7641C13.1756 43.7849 13.1708 43.8074 13.1707 43.8302Z" fill="#EBEBEB"/>
<path d="M100.816 39.0337L95.7803 40.6003C95.6977 40.6261 95.6107 40.6354 95.5245 40.6276C95.4383 40.6198 95.3545 40.595 95.2778 40.5548C95.2011 40.5145 95.1332 40.4596 95.0778 40.393C95.0224 40.3265 94.9807 40.2497 94.955 40.167L92.7816 33.1963C92.7314 33.0291 92.7487 32.8488 92.83 32.6942C92.9113 32.5396 93.05 32.4231 93.2163 32.3697L96.4163 31.375L99.6816 33.1523L101.256 38.2043C101.307 38.3727 101.289 38.5543 101.207 38.7096C101.125 38.8649 100.984 38.9814 100.816 39.0337Z" fill="#EBEBEB"/>
<path d="M96.4097 31.377L97.0203 33.3383C97.07 33.4929 97.1786 33.6217 97.3227 33.6966C97.4668 33.7715 97.6346 33.7865 97.7897 33.7383L99.675 33.1503L96.4097 31.377Z" fill="#E0E0E0"/>
<path d="M96.5735 33.3916C96.5815 33.4169 96.0655 33.5996 95.4229 33.7996C94.7802 33.9996 94.2509 34.1423 94.2442 34.1169C94.2375 34.0916 94.7509 33.9089 95.3949 33.7089C96.0389 33.5089 96.5655 33.3663 96.5735 33.3916Z" fill="#FAFAFA"/>
<path d="M98.4241 34.0311C98.4307 34.0564 97.5787 34.3444 96.5201 34.6737C95.4614 35.0031 94.5974 35.2511 94.5894 35.2257C94.5814 35.2004 95.4334 34.9124 96.4921 34.5831C97.5507 34.2537 98.4161 34.0057 98.4241 34.0311Z" fill="#FAFAFA"/>
<path d="M99.0575 34.8493C99.0655 34.8746 98.1362 35.1866 96.9815 35.5453C95.8268 35.904 94.8855 36.1773 94.8775 36.152C94.8695 36.1266 95.7988 35.8146 96.9535 35.4546C98.1082 35.0946 99.0495 34.824 99.0575 34.8493Z" fill="#FAFAFA"/>
<path d="M99.3335 35.7223C99.3415 35.7477 98.4122 36.0597 97.2588 36.4197C96.1055 36.7797 95.1628 37.0503 95.1548 37.025C95.1468 36.9997 96.0762 36.6877 97.2295 36.3277C98.3828 35.9677 99.3215 35.697 99.3335 35.7223Z" fill="#FAFAFA"/>
<path d="M99.6 36.5998C99.6066 36.6251 98.6773 36.9371 97.524 37.2971C96.3706 37.6571 95.428 37.9278 95.42 37.9025C95.412 37.8771 96.3413 37.5651 97.496 37.2065C98.6506 36.8478 99.6 36.5705 99.6 36.5998Z" fill="#FAFAFA"/>
<path d="M99.8749 37.4704C99.8829 37.4957 98.9535 37.8077 97.7989 38.1664C96.6442 38.5251 95.7029 38.7984 95.6949 38.7731C95.6869 38.7477 96.6162 38.4357 97.7709 38.0757C98.9255 37.7157 99.8669 37.4451 99.8749 37.4704Z" fill="#FAFAFA"/>
<path d="M88.2424 31.4219H25.2837C24.7625 31.4219 24.2626 31.6289 23.894 31.9975C23.5254 32.3661 23.3184 32.866 23.3184 33.3872V77.8565C23.3184 78.3778 23.5254 78.8777 23.894 79.2462C24.2626 79.6148 24.7625 79.8219 25.2837 79.8219H49.4477C49.4477 79.8219 50.9837 84.5752 46.2197 87.0352H68.813C68.813 87.0352 63.4344 85.1899 64.813 79.8219H88.2397C88.7607 79.8215 89.2602 79.6143 89.6285 79.2458C89.9968 78.8772 90.2037 78.3776 90.2037 77.8565V33.3872C90.2037 32.8667 89.9972 32.3674 89.6295 31.9989C89.2618 31.6305 88.7629 31.4229 88.2424 31.4219Z" fill="#455A64"/>
<path d="M57.5996 75.145C58.4556 76.369 57.1156 77.709 55.8916 76.853C55.8508 76.8242 55.8151 76.7886 55.7863 76.7477C54.9316 75.5237 56.2703 74.185 57.4943 75.0397C57.5355 75.0682 57.5711 75.1039 57.5996 75.145Z" fill="#263238"/>
<path d="M25.6959 32.2363H87.8292C88.1723 32.2363 88.5012 32.3726 88.7438 32.6151C88.9863 32.8577 89.1226 33.1867 89.1226 33.5297V71.687H24.3999V33.535C24.3992 33.3645 24.4322 33.1955 24.4971 33.0378C24.5619 32.8801 24.6573 32.7368 24.7778 32.6161C24.8982 32.4954 25.0413 32.3997 25.1989 32.3345C25.3565 32.2693 25.5254 32.236 25.6959 32.2363Z" fill="white"/>
<path d="M25.6226 32.2363H88.1226C88.3885 32.2363 88.6435 32.342 88.8316 32.53C89.0196 32.718 89.1252 32.9731 89.1252 33.239V35.515H24.3999V33.4563C24.3999 33.2959 24.4315 33.137 24.493 32.9888C24.5545 32.8406 24.6446 32.706 24.7582 32.5927C24.8717 32.4794 25.0066 32.3896 25.1549 32.3284C25.3032 32.2673 25.4621 32.236 25.6226 32.2363Z" fill="#EBEBEB"/>
<path d="M26.9186 33.9449C26.9186 34.0348 26.8919 34.1227 26.842 34.1975C26.792 34.2723 26.721 34.3305 26.6379 34.365C26.5549 34.3994 26.4634 34.4084 26.3752 34.3908C26.287 34.3733 26.206 34.33 26.1424 34.2664C26.0789 34.2028 26.0356 34.1218 26.018 34.0336C26.0005 33.9454 26.0095 33.854 26.0439 33.7709C26.0783 33.6878 26.1366 33.6168 26.2113 33.5669C26.2861 33.5169 26.374 33.4902 26.4639 33.4902C26.5845 33.4902 26.7002 33.5381 26.7854 33.6234C26.8707 33.7087 26.9186 33.8243 26.9186 33.9449Z" fill="#263238"/>
<path d="M28.2731 33.9449C28.2731 34.0348 28.2464 34.1227 28.1965 34.1975C28.1465 34.2723 28.0755 34.3305 27.9924 34.365C27.9094 34.3994 27.8179 34.4084 27.7297 34.3908C27.6415 34.3733 27.5605 34.33 27.4969 34.2664C27.4334 34.2028 27.39 34.1218 27.3725 34.0336C27.355 33.9454 27.364 33.854 27.3984 33.7709C27.4328 33.6878 27.4911 33.6168 27.5658 33.5669C27.6406 33.5169 27.7285 33.4902 27.8184 33.4902C27.939 33.4902 28.0547 33.5381 28.1399 33.6234C28.2252 33.7087 28.2731 33.8243 28.2731 33.9449Z" fill="#263238"/>
<path d="M29.5622 33.9449C29.5622 34.0348 29.5355 34.1227 29.4855 34.1975C29.4356 34.2723 29.3646 34.3305 29.2815 34.365C29.1984 34.3994 29.107 34.4084 29.0188 34.3908C28.9306 34.3733 28.8496 34.33 28.786 34.2664C28.7224 34.2028 28.6791 34.1218 28.6616 34.0336C28.644 33.9454 28.653 33.854 28.6874 33.7709C28.7219 33.6878 28.7801 33.6168 28.8549 33.5669C28.9297 33.5169 29.0176 33.4902 29.1075 33.4902C29.2281 33.4902 29.3437 33.5381 29.429 33.6234C29.5143 33.7087 29.5622 33.8243 29.5622 33.9449Z" fill="#263238"/>
<path d="M76.9864 79.8283C76.9864 79.8497 68.0278 79.8657 56.9784 79.8657C45.9291 79.8657 36.9678 79.8497 36.9678 79.8283C36.9678 79.807 45.9251 79.791 56.9784 79.791C68.0318 79.791 76.9864 79.8017 76.9864 79.8283Z" fill="#263238"/>
<path d="M84.9053 48.4521C84.9053 48.4521 84.9053 48.3868 84.9053 48.2614C84.9053 48.1361 84.9053 47.9494 84.9053 47.7068C84.9053 47.2201 84.9053 46.5068 84.8973 45.5908C84.8973 43.7601 84.8893 41.1241 84.8839 37.8921L84.9106 37.9188L67.3293 37.9268L67.3639 37.8921C67.3639 41.6321 67.3639 45.2028 67.3639 48.4521L67.3319 48.4201L79.9826 48.4361L83.6119 48.4441H84.5786H84.8279H84.9146H84.8319H84.5866H83.6253L79.9999 48.4681L67.3333 48.4841H67.3013V48.4521C67.3013 45.2028 67.3013 41.6321 67.3013 37.8921V37.8574H67.3373L84.9186 37.8654H84.9453V37.8921C84.9453 41.1308 84.9346 43.7734 84.9319 45.6081C84.9319 46.5214 84.9319 47.2321 84.9239 47.7174C84.9239 47.9574 84.9239 48.1414 84.9239 48.2668C84.9239 48.3921 84.9053 48.4521 84.9053 48.4521Z" fill="#263238"/>
<path d="M42.4277 71.597C42.4091 71.597 42.3931 63.5196 42.3931 53.557C42.3931 43.5943 42.4091 35.5156 42.4277 35.5156C42.4464 35.5156 42.4637 43.5916 42.4637 53.557C42.4637 63.5223 42.4477 71.597 42.4277 71.597Z" fill="#263238"/>
<path d="M39.8035 41.6309H28.8262V43.4829H39.8035V41.6309Z" fill="#E0E0E0"/>
<path d="M77.725 47.3254L72.245 47.3174C72.1172 47.317 71.9948 47.266 71.9046 47.1755C71.8143 47.0851 71.7637 46.9625 71.7637 46.8347L71.7743 39.452C71.7747 39.3243 71.8257 39.2018 71.9162 39.1116C72.0067 39.0214 72.1292 38.9707 72.257 38.9707H76.089L78.2157 41.0467L78.2077 46.8387C78.2084 46.9025 78.1964 46.9657 78.1724 47.0248C78.1485 47.084 78.113 47.1377 78.0681 47.183C78.0232 47.2283 77.9698 47.2642 77.9109 47.2886C77.8519 47.3131 77.7888 47.3256 77.725 47.3254Z" fill="#32C075"/>
<g opacity="0.3">
<path d="M76.0889 38.957V40.4237C76.0885 40.5099 76.1052 40.5953 76.1379 40.675C76.1707 40.7548 76.2188 40.8273 76.2797 40.8883C76.3405 40.9494 76.4128 40.9979 76.4924 41.0309C76.572 41.064 76.6573 41.081 76.7435 41.081L78.2102 41.0504L76.0889 38.957Z" fill="white"/>
</g>
<path d="M76.905 45.8643C76.9031 45.8412 76.9031 45.818 76.905 45.7949C76.905 45.7469 76.905 45.6816 76.905 45.6003C76.905 45.4256 76.905 45.1789 76.905 44.8669C76.905 44.2349 76.8984 43.3403 76.893 42.2683L76.9237 42.2989H73.1904L73.225 42.2656V42.7536C73.225 42.9149 73.225 43.0749 73.225 43.2336C73.225 43.5496 73.225 43.8603 73.225 44.1669C73.225 44.7709 73.225 45.3416 73.225 45.8656L73.1944 45.8363L75.8944 45.8549L76.657 45.8643H76.861H76.933C76.9113 45.8662 76.8894 45.8662 76.8677 45.8643H76.6704H75.913L73.1944 45.8763H73.165V45.8456C73.165 45.3216 73.165 44.7509 73.165 44.1469V43.2136C73.165 43.0563 73.165 42.8963 73.165 42.7336V42.2469L73.1997 42.2109L76.933 42.2216H76.9624V42.2509C76.9544 43.3309 76.9477 44.2323 76.9437 44.8683C76.9437 45.1776 76.9437 45.4229 76.9344 45.5949C76.9344 45.6749 76.9344 45.7376 76.9344 45.7843C76.928 45.8121 76.9181 45.8389 76.905 45.8643Z" fill="white"/>
<path d="M74.9999 45.9046C74.9812 45.9046 74.9665 45.1046 74.9679 44.1073C74.9692 43.1099 74.9865 42.3086 75.0052 42.3086C75.0239 42.3086 75.0399 43.1086 75.0372 44.1073C75.0345 45.1059 75.0199 45.9046 74.9999 45.9046Z" fill="white"/>
<path d="M76.8917 44.9827C76.8917 45.0027 76.0516 45.0161 75.0156 45.0147C73.9796 45.0134 73.1396 44.9974 73.1396 44.9774C73.1396 44.9574 73.9796 44.9441 75.0156 44.9454C76.0516 44.9467 76.8917 44.9641 76.8917 44.9827Z" fill="white"/>
<path d="M76.9332 44.0689C76.9332 44.0875 76.0932 44.1022 75.0572 44.1009C74.0212 44.0995 73.1812 44.0822 73.1812 44.0635C73.1812 44.0449 74.0212 44.0289 75.0572 44.0315C76.0932 44.0342 76.9332 44.0475 76.9332 44.0689Z" fill="white"/>
<path d="M76.9091 43.1507C76.9091 43.1694 76.0758 43.184 75.0424 43.1827C74.0091 43.1814 73.1758 43.164 73.1758 43.1454C73.1758 43.1267 74.0091 43.112 75.0424 43.1134C76.0758 43.1147 76.9091 43.136 76.9091 43.1507Z" fill="white"/>
<path d="M85.7437 47.32H80.4691C80.2946 47.3183 80.1277 47.2482 80.0043 47.1248C79.8809 47.0014 79.8108 46.8345 79.8091 46.66V39.36C79.8091 39.1844 79.8784 39.0158 80.002 38.891C80.1256 38.7661 80.2934 38.6951 80.4691 38.6934H83.8144L86.4038 41.36V46.6507C86.4045 46.8268 86.3355 46.9961 86.2118 47.1215C86.0881 47.2469 85.9199 47.3183 85.7437 47.32Z" fill="#455A64"/>
<path d="M83.8145 38.7012V40.7558C83.8145 40.9185 83.8791 41.0745 83.9941 41.1895C84.1091 41.3046 84.2651 41.3692 84.4278 41.3692H86.3998L83.8145 38.7012Z" fill="#455A64"/>
<g opacity="0.2">
<path d="M83.8408 40.9355C83.8413 41.0918 83.8953 41.2431 83.9938 41.3644C84.0923 41.4857 84.2294 41.5696 84.3822 41.6022L84.4475 41.6169C84.7048 41.6622 86.4035 41.9649 86.4035 41.9262V41.3742H84.4275C84.4275 41.3742 83.9342 41.3529 83.8408 40.9355Z" fill="black"/>
</g>
<g opacity="0.3">
<path d="M83.8145 38.7012V40.7558C83.8145 40.9185 83.8791 41.0745 83.9941 41.1895C84.1091 41.3046 84.2651 41.3692 84.4278 41.3692H86.3998L83.8145 38.7012Z" fill="white"/>
</g>
<path d="M83.3716 40.671C83.3716 40.6977 82.8263 40.719 82.1516 40.719C81.477 40.719 80.9316 40.6977 80.9316 40.671C80.9316 40.6444 81.4783 40.623 82.1516 40.623C82.825 40.623 83.3716 40.6444 83.3716 40.671Z" fill="#FAFAFA"/>
<path d="M84.9476 41.8318C84.9476 41.8585 84.049 41.8798 82.9396 41.8798C81.8303 41.8798 80.9316 41.8585 80.9316 41.8318C80.9316 41.8052 81.8303 41.7852 82.9396 41.7852C84.049 41.7852 84.9476 41.8012 84.9476 41.8318Z" fill="#FAFAFA"/>
<path d="M85.3103 42.8039C85.3103 42.8305 84.329 42.8519 83.121 42.8519C81.913 42.8519 80.9316 42.8305 80.9316 42.8039C80.9316 42.7772 81.9116 42.7559 83.121 42.7559C84.3303 42.7559 85.3103 42.7772 85.3103 42.8039Z" fill="#FAFAFA"/>
<path d="M85.3103 43.7185C85.3103 43.7452 84.329 43.7665 83.121 43.7665C81.913 43.7665 80.9316 43.7452 80.9316 43.7185C80.9316 43.6919 81.9116 43.6719 83.121 43.6719C84.3303 43.6719 85.3103 43.6932 85.3103 43.7185Z" fill="#FAFAFA"/>
<path d="M85.3103 44.6339C85.3103 44.6606 84.329 44.6819 83.121 44.6819C81.913 44.6819 80.9316 44.6606 80.9316 44.6339C80.9316 44.6073 81.9116 44.5859 83.121 44.5859C84.3303 44.5859 85.3103 44.6019 85.3103 44.6339Z" fill="#FAFAFA"/>
<path d="M85.3104 45.548C85.3104 45.5747 84.3291 45.596 83.1211 45.596C81.9131 45.596 80.9331 45.5747 80.9331 45.548C80.9331 45.5213 81.9131 45.5 83.1224 45.5C84.3318 45.5 85.3104 45.5213 85.3104 45.548Z" fill="#FAFAFA"/>
<path d="M62.0422 37.7734H49.1982V48.8321H62.0422V37.7734Z" fill="#F5F5F5"/>
<path d="M62.0436 48.8314C62.0436 48.8314 62.0436 48.7608 62.0436 48.6261C62.0436 48.4914 62.0436 48.2928 62.0436 48.0341C62.0436 47.5154 62.0436 46.7581 62.0356 45.7914C62.0356 43.8594 62.0263 41.0994 62.0209 37.7741L62.0503 37.8034H49.2063L49.2409 37.7688C49.2409 41.7821 49.2409 45.5634 49.2409 48.8261L49.2103 48.7954L58.4956 48.8114L61.1196 48.8194H61.8143H62.0556H61.9969H61.8209H61.1316L58.5156 48.8274L49.1996 48.8688H49.1689V48.8381C49.1689 45.5754 49.1689 41.7941 49.1689 37.7808V37.7461H49.1996H62.0436H62.0729V37.7754C62.0663 41.1088 62.0609 43.8754 62.0569 45.8114C62.0569 46.7741 62.0569 47.5301 62.0503 48.0474C62.0503 48.3034 62.0503 48.4994 62.0503 48.6341C62.0503 48.7688 62.0436 48.8314 62.0436 48.8314Z" fill="#263238"/>
<path d="M49.6465 48.8202C49.6332 48.8055 52.3985 46.3215 55.8212 43.2708C59.2439 40.2202 62.0305 37.7588 62.0439 37.7735C62.0572 37.7882 59.2919 40.2722 55.8665 43.3228C52.4412 46.3735 49.6585 48.8335 49.6465 48.8202Z" fill="#263238"/>
<path d="M62.1518 48.8308C62.1384 48.8455 59.2291 46.3815 55.6531 43.3295C52.0771 40.2775 49.1864 37.7882 49.1998 37.7735C49.2131 37.7588 52.1211 40.2215 55.6998 43.2762C59.2784 46.3308 62.1638 48.8162 62.1518 48.8308Z" fill="#263238"/>
<path d="M84.3718 50.9805H73.4092V60.4191H84.3718V50.9805Z" fill="#EBEBEB"/>
<path d="M84.3717 60.4191C84.3717 60.4191 84.3717 60.3578 84.3717 60.2431C84.3717 60.1284 84.3717 59.9578 84.3717 59.7378C84.3717 59.2938 84.3717 58.6471 84.3637 57.8218C84.3637 56.1738 84.3558 53.8218 84.3491 50.9804L84.3784 51.0098H73.4171L73.4518 50.9751C73.4518 54.4004 73.4518 57.6284 73.4518 60.4138L73.4211 60.3831L81.3451 60.3978L83.5838 60.4058H84.1771H84.3304H84.3838H84.1731H83.5851L81.3531 60.4138L73.4091 60.4298H73.3784V60.3991C73.3784 57.6138 73.3784 54.3858 73.3784 50.9604V50.9258H73.4144H84.3758H84.3998V50.9551C84.3998 53.8004 84.3878 56.1551 84.3851 57.8151C84.3851 58.6364 84.3851 59.2818 84.3771 59.7245C84.3771 59.9418 84.3771 60.1085 84.3771 60.2245C84.3771 60.3405 84.3717 60.4191 84.3717 60.4191Z" fill="#263238"/>
<path d="M73.7906 60.4085C73.7786 60.3952 76.1372 58.2752 79.0586 55.6685C81.9799 53.0619 84.3599 50.9659 84.3719 50.9805C84.3839 50.9952 82.0266 53.1139 79.1039 55.7205C76.1812 58.3272 73.8039 60.4232 73.7906 60.4085Z" fill="#263238"/>
<path d="M84.4639 60.4193C84.4519 60.434 81.9666 58.3326 78.9146 55.726C75.8626 53.1193 73.3972 51.002 73.4092 50.9806C73.4212 50.9593 75.9066 53.0673 78.9599 55.6686C82.0132 58.27 84.4772 60.4046 84.4639 60.4193Z" fill="#263238"/>
<path d="M27.4665 42.5559C27.4668 42.6762 27.4313 42.7939 27.3647 42.894C27.298 42.9942 27.2032 43.0723 27.0921 43.1186C26.981 43.1648 26.8587 43.177 26.7407 43.1537C26.6227 43.1304 26.5142 43.0726 26.429 42.9876C26.3439 42.9026 26.2858 42.7943 26.2623 42.6763C26.2387 42.5583 26.2507 42.436 26.2966 42.3249C26.3426 42.2137 26.4205 42.1186 26.5206 42.0518C26.6206 41.9849 26.7382 41.9492 26.8585 41.9492C27.0195 41.9492 27.174 42.0131 27.2879 42.1268C27.4019 42.2406 27.4661 42.3949 27.4665 42.5559Z" fill="#32C075"/>
<path d="M39.8035 46.0117H28.8262V47.8637H39.8035V46.0117Z" fill="#E0E0E0"/>
<path d="M27.4665 46.9381C27.4665 47.0583 27.4308 47.1759 27.364 47.2759C27.2972 47.3758 27.2023 47.4538 27.0912 47.4998C26.9801 47.5458 26.8578 47.5579 26.7399 47.5344C26.6219 47.5109 26.5136 47.453 26.4286 47.368C26.3435 47.283 26.2856 47.1746 26.2622 47.0567C26.2387 46.9388 26.2508 46.8165 26.2968 46.7054C26.3428 46.5943 26.4207 46.4994 26.5207 46.4325C26.6207 46.3657 26.7382 46.3301 26.8585 46.3301C27.0197 46.3301 27.1744 46.3941 27.2884 46.5082C27.4024 46.6222 27.4665 46.7768 27.4665 46.9381Z" fill="#E0E0E0"/>
<path d="M39.8035 50.3926H28.8262V52.2446H39.8035V50.3926Z" fill="#E0E0E0"/>
<path d="M27.4665 51.3189C27.4665 51.4392 27.4308 51.5567 27.364 51.6567C27.2972 51.7567 27.2023 51.8346 27.0912 51.8807C26.9801 51.9267 26.8578 51.9387 26.7399 51.9153C26.6219 51.8918 26.5136 51.8339 26.4286 51.7489C26.3435 51.6638 26.2856 51.5555 26.2622 51.4376C26.2387 51.3196 26.2508 51.1974 26.2968 51.0863C26.3428 50.9752 26.4207 50.8802 26.5207 50.8134C26.6207 50.7466 26.7382 50.7109 26.8585 50.7109C27.0197 50.7109 27.1744 50.775 27.2884 50.889C27.4024 51.003 27.4665 51.1577 27.4665 51.3189Z" fill="#32C075"/>
<path d="M39.8035 54.7734H28.8262V56.6254H39.8035V54.7734Z" fill="#E0E0E0"/>
<path d="M27.4665 55.6985C27.4668 55.8188 27.4313 55.9365 27.3647 56.0366C27.298 56.1368 27.2032 56.2149 27.0921 56.2611C26.981 56.3074 26.8587 56.3196 26.7407 56.2963C26.6227 56.273 26.5142 56.2152 26.429 56.1302C26.3439 56.0452 26.2858 55.9369 26.2623 55.8189C26.2387 55.7009 26.2507 55.5786 26.2966 55.4674C26.3426 55.3563 26.4205 55.2612 26.5206 55.1944C26.6206 55.1275 26.7382 55.0918 26.8585 55.0918C27.0195 55.0918 27.174 55.1557 27.2879 55.2694C27.4019 55.3831 27.4661 55.5374 27.4665 55.6985Z" fill="#E0E0E0"/>
<path d="M39.8035 59.1543H28.8262V61.0063H39.8035V59.1543Z" fill="#E0E0E0"/>
<path d="M27.4665 60.0807C27.4665 60.2009 27.4308 60.3185 27.364 60.4184C27.2972 60.5184 27.2023 60.5964 27.0912 60.6424C26.9801 60.6884 26.8578 60.7004 26.7399 60.677C26.6219 60.6535 26.5136 60.5956 26.4286 60.5106C26.3435 60.4255 26.2856 60.3172 26.2622 60.1993C26.2387 60.0813 26.2508 59.9591 26.2968 59.848C26.3428 59.7369 26.4207 59.6419 26.5207 59.5751C26.6207 59.5083 26.7382 59.4727 26.8585 59.4727C27.0197 59.4727 27.1744 59.5367 27.2884 59.6507C27.4024 59.7648 27.4665 59.9194 27.4665 60.0807Z" fill="#E0E0E0"/>
<path d="M39.8035 63.5352H28.8262V65.3872H39.8035V63.5352Z" fill="#E0E0E0"/>
<path d="M27.4665 64.4693C27.4665 64.5896 27.4308 64.7071 27.364 64.8071C27.2972 64.9071 27.2023 64.985 27.0912 65.031C26.9801 65.0771 26.8578 65.0891 26.7399 65.0656C26.6219 65.0422 26.5136 64.9843 26.4286 64.8992C26.3435 64.8142 26.2856 64.7059 26.2622 64.5879C26.2387 64.47 26.2508 64.3478 26.2968 64.2367C26.3428 64.1256 26.4207 64.0306 26.5207 63.9638C26.6207 63.897 26.7382 63.8613 26.8585 63.8613C27.0197 63.8613 27.1744 63.9254 27.2884 64.0394C27.4024 64.1534 27.4665 64.3081 27.4665 64.4693Z" fill="#32C075"/>
<path d="M70.7103 60.3856C70.7103 60.3856 70.7103 60.3696 70.7103 60.3402C70.7103 60.3109 70.7103 60.2642 70.7103 60.2069C70.7103 60.0896 70.7103 59.9189 70.7103 59.6989C70.7103 59.2536 70.7103 58.6056 70.7023 57.7829C70.7023 56.1389 70.693 53.8002 70.6877 51.0149L70.7183 51.0456H62.7903L62.825 51.0109C62.825 54.4776 62.825 57.6922 62.8183 60.3802L62.7903 60.3509L68.5357 60.3656L70.145 60.3736H70.5703H70.7183H70.577H70.157L68.557 60.3802L62.793 60.3962H62.7637V60.3669C62.7637 57.6789 62.7637 54.4576 62.7637 50.9976V50.9629H62.7983H70.7263H70.757V50.9936C70.7503 53.7936 70.745 56.1322 70.741 57.7816C70.741 58.6002 70.7343 59.2482 70.733 59.6909C70.733 59.9082 70.733 60.0762 70.733 60.1922C70.733 60.2469 70.733 60.2896 70.733 60.3256C70.733 60.3616 70.7103 60.3856 70.7103 60.3856Z" fill="#263238"/>
<path d="M70.7102 62.4492H62.7822V70.3772H70.7102V62.4492Z" fill="#EBEBEB"/>
<path d="M84.9049 62.8145H72.6636V70.7425H84.9049V62.8145Z" fill="#EBEBEB"/>
<path d="M60.6677 51.0156H48.5063V60.385H60.6677V51.0156Z" fill="#EBEBEB"/>
<path d="M60.3692 70.3764C60.3692 70.3764 60.3692 70.3244 60.3692 70.2244C60.3692 70.1244 60.3692 69.9777 60.3692 69.787C60.3692 69.4017 60.3692 68.839 60.3625 68.119C60.3625 66.679 60.3545 64.6137 60.3479 62.0964L60.3759 62.1244L48.2159 62.131L48.2505 62.0964C48.2505 65.051 48.2505 67.8577 48.2505 70.3764L48.2185 70.3457L56.9785 70.3604L59.4812 70.3697H60.1479H60.3799H60.3239H60.1559H59.4959L56.9999 70.3777L48.2185 70.3937H48.1865V70.3617C48.1865 67.843 48.1865 65.0364 48.1865 62.0817V62.0684H48.2225L60.3825 62.075H60.3999V62.103C60.3932 64.627 60.3892 66.699 60.3852 68.143C60.3852 68.8604 60.3852 69.4204 60.3785 69.8044C60.3785 69.9924 60.3785 70.1377 60.3785 70.2377C60.3785 70.3377 60.3692 70.3764 60.3692 70.3764Z" fill="#263238"/>
<path d="M58.2022 53.0085C58.2612 53.0089 58.3196 53.0208 58.3739 53.0437C58.4283 53.0667 58.4777 53.1 58.5191 53.142C58.5606 53.184 58.5934 53.2337 58.6157 53.2884C58.6379 53.343 58.6492 53.4015 58.6489 53.4605V53.8419L58.6235 57.2792C58.6232 57.3578 58.5917 57.4331 58.536 57.4886C58.4802 57.5441 58.4048 57.5752 58.3262 57.5752L50.4595 57.5179C50.384 57.5169 50.3116 57.4871 50.2574 57.4346C50.2031 57.382 50.1709 57.3107 50.1675 57.2352L49.9302 52.8192C49.9278 52.7789 49.9337 52.7385 49.9475 52.7006C49.9614 52.6627 49.9828 52.6279 50.0105 52.5986C50.0382 52.5692 50.0717 52.5459 50.1088 52.5299C50.1459 52.514 50.1858 52.5058 50.2262 52.5059L52.0062 52.5179C52.1748 52.5194 52.3374 52.5808 52.4649 52.6912L52.8289 53.0059L58.2022 53.0085Z" fill="#32C075"/>
<g opacity="0.3">
<path d="M58.2022 53.0105C58.2612 53.0108 58.3196 53.0228 58.3739 53.0457C58.4283 53.0686 58.4777 53.102 58.5191 53.144C58.5606 53.1859 58.5934 53.2357 58.6157 53.2903C58.6379 53.345 58.6492 53.4035 58.6489 53.4625V53.8438L58.6235 57.2811C58.6232 57.3598 58.5917 57.4351 58.536 57.4905C58.4802 57.546 58.4048 57.5771 58.3262 57.5771L50.4595 57.5198C50.384 57.5189 50.3116 57.4891 50.2574 57.4365C50.2031 57.384 50.1709 57.3126 50.1675 57.2371L49.9302 52.8211C49.9278 52.7808 49.9337 52.7405 49.9475 52.7025C49.9614 52.6646 49.9828 52.6299 50.0105 52.6005C50.0382 52.5712 50.0717 52.5478 50.1088 52.5319C50.1459 52.5159 50.1858 52.5077 50.2262 52.5078L52.0062 52.5198C52.1748 52.5213 52.3374 52.5828 52.4649 52.6931L52.8289 53.0078L58.2022 53.0105Z" fill="black"/>
</g>
<path d="M58.7847 53.4751L50.189 53.4121L50.1509 58.6L58.7467 58.663L58.7847 53.4751Z" fill="#F5F5F5"/>
<path d="M49.5012 53.8742L50.1185 59.2889C50.1234 59.3351 50.1452 59.3779 50.1796 59.4091C50.214 59.4403 50.2587 59.4578 50.3052 59.4582L58.6839 59.5195C58.7317 59.52 58.778 59.5022 58.8132 59.4697C58.8483 59.4373 58.8698 59.3926 58.8732 59.3449L59.3332 53.9355C59.3356 53.9093 59.3325 53.8829 59.3242 53.8579C59.3159 53.8329 59.3024 53.8099 59.2848 53.7903C59.2671 53.7708 59.2456 53.7551 59.2216 53.7443C59.1975 53.7335 59.1715 53.7278 59.1452 53.7275L49.6892 53.6582C49.6621 53.6583 49.6354 53.6643 49.6107 53.6755C49.5861 53.6868 49.5641 53.7033 49.5464 53.7237C49.5286 53.7441 49.5153 53.7681 49.5076 53.7941C49.4998 53.82 49.4976 53.8473 49.5012 53.8742Z" fill="#32C075"/>
<path d="M74.5265 51.9895L74.5171 61.0215L85.8144 61.0333L85.8239 52.0013L74.5265 51.9895Z" fill="#EBEBEB"/>
<path d="M85.8292 52.004H85.7745H85.6158H85.0025H82.6892H74.5318L74.5612 51.9746C74.5612 54.6626 74.5612 57.744 74.5612 61.0053L74.5292 60.972L85.8265 60.9906L85.7985 61.0173C85.8078 58.2986 85.8159 56.044 85.8199 54.4666C85.8199 53.6786 85.8278 53.06 85.8292 52.636C85.8292 52.4266 85.8292 52.264 85.8292 52.1533C85.8292 52.0426 85.8292 51.9853 85.8292 51.9853C85.8292 51.9853 85.8292 52.04 85.8292 52.148C85.8292 52.256 85.8292 52.4146 85.8292 52.6253C85.8292 53.048 85.8292 53.664 85.8292 54.4506C85.8292 56.0306 85.8292 58.2906 85.8359 61.0173V61.0453H85.8092L74.5118 61.0373H74.4785V61.0053C74.4785 57.744 74.4878 54.6626 74.4918 51.9746V51.9453H74.5332L82.7105 51.9693L85.0158 51.98H85.6238H85.8305L85.8292 52.004Z" fill="#263238"/>
<path d="M74.9155 52.5585L74.9072 60.4531L85.4112 60.4641L85.4195 52.5695L74.9155 52.5585Z" fill="#32C075"/>
<path d="M74.9131 60.4548L78.5864 55.5508L80.8557 58.6241L82.3984 56.9841L85.4158 60.4668L74.9131 60.4548Z" fill="#32C075"/>
<path d="M81.8237 54.953C81.8235 55.1165 81.7747 55.2762 81.6837 55.412C81.5926 55.5478 81.4633 55.6536 81.3122 55.7159C81.161 55.7782 80.9948 55.7943 80.8345 55.7622C80.6742 55.73 80.527 55.6511 80.4116 55.5353C80.2962 55.4195 80.2177 55.272 80.186 55.1116C80.1544 54.9512 80.171 54.785 80.2338 54.6341C80.2967 54.4831 80.4028 54.3542 80.5389 54.2636C80.675 54.173 80.8349 54.1247 80.9984 54.125C81.107 54.1252 81.2144 54.1467 81.3147 54.1884C81.4149 54.2301 81.5059 54.2912 81.5826 54.3681C81.6592 54.445 81.7199 54.5362 81.7613 54.6365C81.8027 54.7369 81.8239 54.8444 81.8237 54.953Z" fill="#32C075"/>
<g opacity="0.2">
<path d="M74.9126 60.4548L78.5859 55.5508L80.8553 58.6241L82.3979 56.9841L85.4153 60.4668L74.9126 60.4548Z" fill="black"/>
</g>
<g opacity="0.2">
<path d="M81.8237 54.953C81.8235 55.1165 81.7747 55.2762 81.6837 55.412C81.5926 55.5478 81.4633 55.6536 81.3122 55.7159C81.161 55.7782 80.9948 55.7943 80.8345 55.7622C80.6742 55.73 80.527 55.6511 80.4116 55.5353C80.2962 55.4195 80.2177 55.272 80.186 55.1116C80.1544 54.9512 80.171 54.785 80.2338 54.6341C80.2967 54.4831 80.4028 54.3542 80.5389 54.2636C80.675 54.173 80.8349 54.1247 80.9984 54.125C81.107 54.1252 81.2144 54.1467 81.3147 54.1884C81.4149 54.2301 81.5059 54.2912 81.5826 54.3681C81.6592 54.445 81.7199 54.5362 81.7613 54.6365C81.8027 54.7369 81.8239 54.8444 81.8237 54.953Z" fill="black"/>
</g>
<path d="M47.5718 38.4844L47.5615 48.2871L59.8228 48.2999L59.8331 38.4973L47.5718 38.4844Z" fill="#EBEBEB"/>
<path d="M59.835 38.5003H59.6004H58.9337H56.423H47.571L47.603 38.4683C47.603 41.387 47.603 44.735 47.595 48.2697L47.559 48.2337L59.8257 48.2537L59.7964 48.283C59.8057 45.3323 59.8137 42.8857 59.819 41.1737C59.819 40.319 59.827 39.647 59.8297 39.187C59.8297 38.9585 59.8297 38.7839 59.8297 38.663C59.8297 38.5443 59.8297 38.4817 59.8297 38.4817C59.8297 38.4817 59.8297 38.5403 59.8297 38.6563C59.8297 38.7723 59.8297 38.9497 59.8297 39.175C59.8297 39.6337 59.8297 40.303 59.8297 41.1563C59.8297 42.871 59.8297 45.3243 59.8297 48.283V48.335H59.8004L47.5337 48.327H47.499V48.291C47.499 44.7523 47.5097 41.4083 47.5137 38.4897V38.459H47.5457L56.419 38.4843L58.9217 38.495H59.5817H59.7497L59.835 38.5003Z" fill="#263238"/>
<path d="M47.9938 39.1039L47.9849 47.6719L59.3849 47.6838L59.3938 39.1158L47.9938 39.1039Z" fill="#32C075"/>
<path d="M47.9868 47.6729L51.9748 42.3516L54.4361 45.6862L56.1121 43.9062L59.3855 47.6849L47.9868 47.6729Z" fill="#32C075"/>
<path d="M55.4885 41.7014C55.4882 41.8789 55.4354 42.0523 55.3365 42.1997C55.2377 42.3471 55.0974 42.4619 54.9333 42.5296C54.7693 42.5973 54.5888 42.6148 54.4148 42.5799C54.2408 42.545 54.081 42.4593 53.9557 42.3336C53.8304 42.208 53.7452 42.0479 53.7108 41.8738C53.6765 41.6997 53.6945 41.5193 53.7627 41.3554C53.8308 41.1916 53.946 41.0516 54.0938 40.9532C54.2415 40.8548 54.415 40.8025 54.5925 40.8027C54.7104 40.8029 54.827 40.8263 54.9358 40.8716C55.0446 40.9168 55.1434 40.9831 55.2266 41.0665C55.3098 41.1499 55.3758 41.249 55.4207 41.3579C55.4657 41.4668 55.4887 41.5836 55.4885 41.7014Z" fill="#32C075"/>
<g opacity="0.2">
<path d="M47.9868 47.6729L51.9748 42.3516L54.4361 45.6862L56.1121 43.9062L59.3855 47.6849L47.9868 47.6729Z" fill="black"/>
</g>
<g opacity="0.2">
<path d="M55.4885 41.7014C55.4882 41.8789 55.4354 42.0523 55.3365 42.1997C55.2377 42.3471 55.0974 42.4619 54.9333 42.5296C54.7693 42.5973 54.5888 42.6148 54.4148 42.5799C54.2408 42.545 54.081 42.4593 53.9557 42.3336C53.8304 42.208 53.7452 42.0479 53.7108 41.8738C53.6765 41.6997 53.6945 41.5193 53.7627 41.3554C53.8308 41.1916 53.946 41.0516 54.0938 40.9532C54.2415 40.8548 54.415 40.8025 54.5925 40.8027C54.7104 40.8029 54.827 40.8263 54.9358 40.8716C55.0446 40.9168 55.1434 40.9831 55.2266 41.0665C55.3098 41.1499 55.3758 41.249 55.4207 41.3579C55.4657 41.4668 55.4887 41.5836 55.4885 41.7014Z" fill="black"/>
</g>
<path d="M58.9415 48.3353H59.6895L59.7588 47.3233L59.8775 46.4326L59.8481 45.002L60.5681 45.774C60.6334 45.8705 60.6733 45.9819 60.6841 46.098L60.8081 48.8326L60.8415 50.002L59.5281 50.8566V49.4646L59.2201 49.1353C59.0287 48.9139 58.929 48.6277 58.9415 48.3353Z" fill="#BD8C83"/>
<path d="M60.5498 47.3223C60.3718 47.0217 60.167 46.7379 59.9378 46.4743C59.8678 46.3841 59.7797 46.3096 59.6791 46.2556C59.6282 46.2297 59.5711 46.2187 59.5142 46.2239C59.4574 46.2291 59.4031 46.2503 59.3578 46.285C59.3139 46.3329 59.2858 46.393 59.2772 46.4574C59.2686 46.5218 59.28 46.5873 59.3098 46.645C59.3721 46.7588 59.4522 46.8619 59.5471 46.9503C59.6425 47.0395 59.7081 47.1559 59.7351 47.2836C59.7363 47.4058 59.716 47.5272 59.6751 47.6423C59.6321 47.8372 59.6394 48.0398 59.6964 48.2311C59.7533 48.4223 59.8579 48.596 60.0005 48.7356" fill="#BD8C83"/>
<path d="M60.0003 48.7348C60.0003 48.7348 59.959 48.6868 59.895 48.6015C59.8046 48.473 59.7402 48.3281 59.7057 48.1748C59.6805 48.0702 59.6706 47.9624 59.6763 47.8548C59.6861 47.7311 59.7103 47.609 59.7483 47.4908C59.7677 47.421 59.7736 47.3482 59.7657 47.2762C59.7534 47.2008 59.7242 47.1293 59.6803 47.0668C59.5963 46.9402 59.4763 46.8455 59.3923 46.7242C59.3499 46.6674 59.3224 46.601 59.3123 46.5308C59.3025 46.4832 59.3077 46.4336 59.3272 46.389C59.3466 46.3444 59.3794 46.3068 59.421 46.2816C59.4626 46.2563 59.5111 46.2445 59.5596 46.2479C59.6082 46.2512 59.6545 46.2695 59.6923 46.3002C59.7947 46.3665 59.8849 46.45 59.959 46.5468C60.0363 46.6362 60.1057 46.7215 60.167 46.8002C60.291 46.9588 60.383 47.0922 60.447 47.1855C60.4768 47.2354 60.5107 47.2826 60.5483 47.3268C60.5277 47.272 60.5009 47.2196 60.4683 47.1708C60.3864 47.033 60.2974 46.8995 60.2017 46.7708C60.1417 46.6895 60.0683 46.6015 59.9977 46.5042C59.9208 46.399 59.8255 46.3086 59.7163 46.2375C59.6514 46.2009 59.5774 46.1838 59.503 46.1882C59.4626 46.1896 59.4231 46.2 59.3871 46.2184C59.3512 46.2368 59.3197 46.2629 59.295 46.2948C59.2535 46.3657 59.2349 46.4476 59.2416 46.5294C59.2482 46.6112 59.2799 46.689 59.3323 46.7522C59.4243 46.8855 59.5443 46.9788 59.6217 47.0948C59.6603 47.1488 59.6863 47.2108 59.6977 47.2762C59.7054 47.3401 59.7004 47.4049 59.683 47.4668C59.6457 47.5895 59.6234 47.7162 59.6163 47.8442C59.6074 48.1204 59.6972 48.3908 59.8697 48.6068C59.8969 48.6411 59.9268 48.6732 59.959 48.7028C59.9843 48.7268 60.0003 48.7348 60.0003 48.7348Z" fill="#896360"/>
<path d="M65.3776 82.1627L65.9216 84.8293C65.9216 84.8293 63.3962 86.2773 63.4496 86.78L68.6496 85.9093L67.9722 81.7227L65.3776 82.1627Z" fill="#32C075"/>
<g opacity="0.3">
<path d="M65.3776 82.1627L65.9216 84.8293C65.9216 84.8293 63.3962 86.2773 63.4496 86.78L68.6496 85.9093L67.9722 81.7227L65.3776 82.1627Z" fill="black"/>
</g>
<path d="M67.4937 84.3354C67.5463 84.342 67.5947 84.3678 67.6294 84.4079C67.6641 84.4481 67.6828 84.4997 67.6817 84.5527C67.6757 84.6047 67.6502 84.6524 67.6103 84.6863C67.5705 84.7202 67.5193 84.7377 67.467 84.7354C67.4111 84.7284 67.3598 84.7007 67.3232 84.6578C67.2867 84.6148 67.2676 84.5597 67.2697 84.5034C67.2807 84.4488 67.3124 84.4006 67.3581 84.3688C67.4038 84.337 67.46 84.324 67.515 84.3327" fill="#E0E0E0"/>
<path d="M68.6539 85.9069L68.5699 85.4883L63.6113 86.4789C63.6113 86.4789 63.3966 86.6189 63.4499 86.7776L68.6539 85.9069Z" fill="#263238"/>
<path d="M65.8339 84.815C65.8339 84.8404 65.9673 84.8297 66.1006 84.891C66.2339 84.9524 66.3246 85.047 66.3459 85.0337C66.3673 85.0204 66.3059 84.879 66.1366 84.8084C65.9673 84.7377 65.8246 84.7924 65.8339 84.815Z" fill="#263238"/>
<path d="M65.3258 85.1342C65.3258 85.1608 65.4404 85.1848 65.5458 85.2781C65.6511 85.3715 65.6938 85.4808 65.7191 85.4755C65.7444 85.4702 65.7364 85.3235 65.6044 85.2088C65.4724 85.0942 65.3218 85.1062 65.3258 85.1342Z" fill="#263238"/>
<path d="M65.1243 85.8358C65.1483 85.8358 65.163 85.7025 65.0736 85.5772C64.9843 85.4518 64.8576 85.4132 64.8496 85.4358C64.8416 85.4585 64.9296 85.5212 65.0003 85.6278C65.071 85.7345 65.099 85.8385 65.1243 85.8358Z" fill="#263238"/>
<path d="M65.7765 84.1931C65.7912 84.2145 65.9019 84.1598 66.0432 84.1451C66.1845 84.1305 66.3099 84.1571 66.3179 84.1331C66.3259 84.1091 66.2045 84.0371 66.0339 84.0558C65.8632 84.0745 65.7605 84.1745 65.7765 84.1931Z" fill="#263238"/>
<path d="M67.0922 82.7722L67.1855 85.4909C67.1855 85.4909 64.4549 86.4989 64.4229 87.0029L69.7002 87.0109L69.7282 82.7695L67.0922 82.7722Z" fill="#32C075"/>
<path d="M68.8178 85.2677C68.8689 85.283 68.9125 85.3167 68.9401 85.3623C68.9677 85.4079 68.9773 85.4621 68.9671 85.5144C68.9536 85.5657 68.9208 85.6098 68.8757 85.6376C68.8305 85.6654 68.7764 85.6747 68.7245 85.6637C68.6696 85.6473 68.623 85.6106 68.594 85.5611C68.5651 85.5116 68.5559 85.453 68.5685 85.3971C68.587 85.3446 68.6251 85.3014 68.6749 85.2766C68.7246 85.2517 68.7821 85.2471 68.8351 85.2637" fill="#E0E0E0"/>
<path d="M69.7003 87.01L69.687 86.582L64.6323 86.734C64.6323 86.734 64.3963 86.8354 64.423 87.0007L69.7003 87.01Z" fill="#263238"/>
<path d="M67.1002 85.4645C67.1002 85.4898 67.2336 85.5018 67.3562 85.5845C67.4789 85.6671 67.5509 85.7765 67.5749 85.7658C67.5989 85.7551 67.5602 85.6071 67.4056 85.5098C67.2509 85.4125 67.0949 85.4405 67.1002 85.4645Z" fill="#263238"/>
<path d="M66.5472 85.6916C66.5405 85.7169 66.6525 85.7609 66.7405 85.8689C66.8285 85.9769 66.8525 86.0942 66.8738 86.0929C66.8952 86.0916 66.9165 85.9462 66.8058 85.8129C66.6952 85.6796 66.5472 85.6676 66.5472 85.6916Z" fill="#263238"/>
<path d="M66.2311 86.3534C66.2551 86.3601 66.2911 86.2308 66.2311 86.0868C66.1711 85.9428 66.0444 85.8894 66.0338 85.9108C66.0231 85.9321 66.0964 86.0081 66.1484 86.1241C66.2004 86.2401 66.2058 86.3508 66.2311 86.3534Z" fill="#263238"/>
<path d="M67.1485 84.8421C67.1592 84.8661 67.2818 84.8301 67.4232 84.8421C67.5645 84.8541 67.6818 84.8981 67.6898 84.8767C67.6978 84.8554 67.5938 84.7621 67.4232 84.7527C67.2525 84.7434 67.1352 84.8221 67.1485 84.8421Z" fill="#263238"/>
<path d="M70.4576 61.5977L70.4323 64.2883L69.7789 72.6537C69.7789 72.6537 70.1003 76.7177 70.3003 79.011C70.4736 81.0017 70.1336 84.4683 70.1336 84.4683L66.7749 84.4377L65.6736 72.8683L64.9949 65.6523L63.7949 61.8937L70.4576 61.5977Z" fill="#263238"/>
<path d="M62.1698 62.348L62.1431 73.2746C62.1411 73.8316 62.241 74.3842 62.4378 74.9053L65.4578 82.892L65.6098 83.4253L67.6204 82.9573L66.2804 61.668L62.1698 62.348Z" fill="#263238"/>
<path d="M65.0162 64.2305C65.0148 64.2482 65.0148 64.2661 65.0162 64.2838C65.0162 64.3211 65.0162 64.3718 65.0162 64.4371C65.0162 64.5705 65.0229 64.7745 65.0269 65.0291C65.0362 65.5425 65.0629 66.2851 65.1029 67.2038C65.1882 69.0385 65.3536 71.5718 65.6229 74.3598C65.8922 77.1478 66.1856 79.6678 66.4002 81.4905C66.5109 82.3985 66.6002 83.1345 66.6669 83.6465C66.6989 83.8985 66.7242 84.0945 66.7416 84.2331C66.7496 84.2971 66.7576 84.3478 66.7616 84.3851C66.7656 84.4225 66.7709 84.4371 66.7709 84.4371C66.7724 84.4194 66.7724 84.4015 66.7709 84.3838C66.7709 84.3465 66.7629 84.2958 66.7562 84.2305C66.7416 84.0971 66.7202 83.8958 66.6936 83.6438C66.6362 83.1305 66.5536 82.3931 66.4509 81.4838C66.2442 79.6598 65.9536 77.1425 65.6896 74.3531C65.4256 71.5638 65.2469 69.0345 65.1562 67.2011C65.1096 66.2838 65.0762 65.5411 65.0602 65.0278C65.0496 64.7745 65.0416 64.5758 65.0362 64.4371C65.0362 64.3718 65.0362 64.3211 65.0282 64.2825C65.026 64.2648 65.022 64.2473 65.0162 64.2305Z" fill="#455A64"/>
<path d="M67.915 62.3342C67.913 62.376 67.9175 62.4179 67.9284 62.4582C67.9488 62.5693 67.9796 62.6782 68.0204 62.7836C68.1534 63.1362 68.377 63.4476 68.6687 63.6864C68.9603 63.9251 69.3097 64.0828 69.6817 64.1436C69.7931 64.1625 69.9061 64.171 70.019 64.1689C70.0603 64.1719 70.1018 64.1678 70.1417 64.1569C70.1417 64.1462 69.9657 64.1569 69.6897 64.0996C69.3294 64.029 68.9921 63.8703 68.708 63.6376C68.424 63.405 68.2019 63.1056 68.0617 62.7662C67.9524 62.5022 67.927 62.3262 67.915 62.3342Z" fill="#455A64"/>
<path d="M64.8164 62.8107C64.8161 62.845 64.8261 62.8785 64.8449 62.9072C64.8637 62.9358 64.8906 62.9583 64.9222 62.9716C64.9538 62.985 64.9886 62.9887 65.0223 62.9823C65.0559 62.9758 65.0869 62.9596 65.1114 62.9355C65.1358 62.9115 65.1525 62.8807 65.1595 62.8471C65.1664 62.8136 65.1633 62.7787 65.1504 62.7469C65.1375 62.7151 65.1155 62.6879 65.0871 62.6686C65.0588 62.6494 65.0254 62.6389 64.9911 62.6387C64.9683 62.6385 64.9457 62.6428 64.9246 62.6514C64.9035 62.6599 64.8843 62.6725 64.8681 62.6885C64.8519 62.7045 64.839 62.7235 64.8301 62.7444C64.8212 62.7654 64.8166 62.7879 64.8164 62.8107Z" fill="#455A64"/>
<path d="M62.1136 64.148C62.2035 64.0868 62.284 64.0127 62.3523 63.928C62.5272 63.7314 62.6719 63.5099 62.7816 63.2707C62.891 63.0316 62.9646 62.7778 63.0003 62.5174C63.02 62.4105 63.0236 62.3013 63.011 62.1934C63.0003 62.1934 62.9923 62.316 62.9563 62.5107C62.8625 63.0191 62.6434 63.4962 62.319 63.8987C62.195 64.0534 62.107 64.14 62.1136 64.148Z" fill="#455A64"/>
<path d="M64.1336 48.5293C64.1336 48.5293 63.2003 49.28 62.839 50.1186C62.5215 50.8015 62.1622 51.4641 61.763 52.1026L61.0416 49.66L59.2163 50.568C59.2163 50.568 59.847 54.4013 59.991 54.8493C60.1883 55.4693 60.6456 56.0213 61.3456 55.944C62.0456 55.8666 62.455 55.544 62.9043 54.8773L63.507 53.7453L64.1336 48.5293Z" fill="#32C075"/>
<path d="M68.6804 46.8477C68.6804 46.8477 71.331 48.101 71.8937 48.861C72.5764 49.7837 70.7804 52.797 70.6524 53.5397C70.5897 53.8957 70.195 56.5743 70.4377 58.677C70.5958 60.0758 70.672 61.4826 70.6657 62.8903L62.1697 62.349C62.1444 60.869 62.5084 59.721 62.731 57.8383L63.2644 51.697L64.1337 48.5303L65.435 47.9543L68.6804 46.8477Z" fill="#32C075"/>
<path d="M63.403 50.6582C63.3953 50.6787 63.3908 50.7003 63.3897 50.7222C63.3817 50.7729 63.3737 50.8355 63.363 50.9102C63.3403 51.0729 63.3123 51.3102 63.279 51.6022C63.2123 52.1862 63.1283 52.9955 63.0497 53.8902C62.971 54.7849 62.9163 55.5955 62.8763 56.1822C62.8577 56.4755 62.8457 56.7155 62.839 56.8782C62.839 56.9542 62.839 57.0115 62.8323 57.0675C62.83 57.0897 62.83 57.112 62.8323 57.1342C62.8395 57.1131 62.8436 57.0911 62.8443 57.0689C62.8443 57.0182 62.855 56.9555 62.863 56.8795C62.8777 56.7062 62.8977 56.4715 62.9217 56.1862C62.9723 55.5902 63.0403 54.7862 63.115 53.8955C63.1897 53.0049 63.2697 52.2022 63.3243 51.6075C63.3497 51.3209 63.371 51.0862 63.387 50.9129C63.387 50.8369 63.3977 50.7795 63.4017 50.7235C63.4056 50.702 63.4061 50.6799 63.403 50.6582Z" fill="#263238"/>
<path d="M69.8046 51.1758C69.8166 51.1758 69.8046 50.9998 69.8552 50.7238C69.92 50.3652 70.0721 50.0281 70.2981 49.7423C70.5242 49.4565 70.8172 49.2308 71.1512 49.0852C71.4072 48.9732 71.5819 48.9438 71.5792 48.9318C71.5378 48.9306 71.4965 48.9356 71.4566 48.9465C71.3462 48.9684 71.2382 49.0005 71.1339 49.0425C70.7849 49.18 70.4785 49.4073 70.2458 49.7014C70.013 49.9955 69.8622 50.3459 69.8086 50.7172C69.7918 50.8283 69.7856 50.9408 69.7899 51.0532C69.7888 51.0945 69.7937 51.1359 69.8046 51.1758Z" fill="#263238"/>
<path d="M64.2164 58.4023C64.2722 58.3987 64.3275 58.3897 64.3817 58.3756C64.5305 58.345 64.6774 58.3058 64.8217 58.2583C65.0369 58.188 65.2476 58.1042 65.4524 58.0076C65.7018 57.8874 65.9424 57.7498 66.1724 57.5956C66.4006 57.4382 66.6172 57.2644 66.8204 57.0756C66.9856 56.9215 67.1406 56.7567 67.2844 56.5823C67.3799 56.4646 67.469 56.3418 67.551 56.2143C67.5848 56.1697 67.6134 56.1214 67.6364 56.0703C67.6257 56.0703 67.4937 56.2623 67.243 56.5516C67.0961 56.7207 66.9394 56.881 66.7737 57.0316C66.3689 57.4018 65.9131 57.712 65.4204 57.953C65.2192 58.0532 65.0127 58.1422 64.8017 58.2196C64.4457 58.3356 64.2124 58.3903 64.2164 58.4023Z" fill="#263238"/>
<g opacity="0.3">
<path d="M70.2324 52.9473C70.8337 56.1913 70.6137 59.6326 69.8324 62.8366L69.6151 62.8219C69.3791 59.5353 69.6484 56.1926 70.2324 52.9473Z" fill="black"/>
</g>
<path d="M70.1003 63.4785L70.0496 64.2198C70.0496 64.2198 69.4856 64.5265 69.2856 64.7372C69.0856 64.9478 68.5083 66.0638 68.5083 66.0638C68.5619 66.1138 68.6313 66.1433 68.7044 66.1472C68.7776 66.1511 68.8497 66.1291 68.9083 66.0852C69.0598 65.8977 69.1966 65.6989 69.3176 65.4905C69.3697 65.4793 69.4238 65.4813 69.4749 65.4964C69.5259 65.5114 69.5725 65.539 69.6101 65.5767C69.6478 65.6144 69.6754 65.6609 69.6905 65.712C69.7055 65.7631 69.7075 65.8171 69.6963 65.8692C69.6256 66.2012 69.5443 66.5878 69.543 66.6398C69.5416 66.6918 69.2176 67.0145 68.9723 67.2465C68.9398 67.2777 68.918 67.3184 68.9102 67.3628C68.9023 67.4072 68.9089 67.4529 68.9288 67.4933C68.9487 67.5337 68.981 67.5667 69.0209 67.5876C69.0609 67.6084 69.1064 67.616 69.151 67.6092C69.1696 67.6052 69.1868 67.596 69.2003 67.5825C69.2003 67.5825 69.1776 67.9358 69.6576 67.6465C69.6576 67.6465 70.0883 67.7438 70.295 67.4958C70.295 67.4958 70.8283 67.4132 71.0096 67.2572C71.191 67.1012 71.5883 65.4958 71.5883 65.4958L71.8056 63.7892L70.1003 63.4785Z" fill="#BD8C83"/>
<path d="M70.1871 66.041C70.2009 66.1374 70.2009 66.2353 70.1871 66.3317C70.1734 66.5663 70.1054 66.7945 69.9885 66.9984C69.8527 67.1913 69.6689 67.3452 69.4551 67.445C69.3723 67.4947 69.2824 67.5316 69.1885 67.5543C69.2614 67.4935 69.341 67.4412 69.4258 67.3984C69.6213 67.2896 69.7902 67.1389 69.9205 66.957C70.0314 66.7594 70.1025 66.542 70.1298 66.317C70.1388 66.2232 70.158 66.1307 70.1871 66.041Z" fill="#896360"/>
<path d="M70.5552 66.2305C70.5807 66.3171 70.5849 66.4086 70.5672 66.4971C70.5579 66.5929 70.5414 66.6878 70.5179 66.7811C70.4917 66.8986 70.4423 67.0097 70.3726 67.1078C70.293 67.1964 70.2035 67.2756 70.1059 67.3438L69.8806 67.5091C69.8146 67.5646 69.7403 67.6096 69.6606 67.6425C69.6539 67.6345 69.7259 67.5665 69.8472 67.4625C69.9072 67.4105 69.9806 67.3478 70.0632 67.2825C70.1523 67.2147 70.2345 67.1384 70.3086 67.0545C70.3713 66.9641 70.4166 66.8628 70.4419 66.7558C70.4712 66.6545 70.4912 66.5611 70.5059 66.4825C70.5446 66.3358 70.5446 66.2318 70.5552 66.2305Z" fill="#896360"/>
<path d="M70.9615 66.4824C70.9908 66.4824 70.9215 66.7758 70.8162 67.1131C70.8006 67.1595 70.7735 67.2012 70.7375 67.2344C70.7085 67.2642 70.6778 67.2923 70.6455 67.3184C70.5918 67.3622 70.5342 67.401 70.4735 67.4344C70.3695 67.4918 70.2962 67.5051 70.2922 67.4958C70.2882 67.4864 70.3535 67.4558 70.4455 67.3891C70.4994 67.3507 70.551 67.3093 70.6002 67.2651C70.6282 67.2398 70.6575 67.2131 70.6842 67.1838C70.7115 67.1577 70.7325 67.1258 70.7455 67.0904C70.7975 66.9184 70.8508 66.7678 70.8895 66.6571C70.9061 66.5961 70.9303 66.5374 70.9615 66.4824Z" fill="#896360"/>
<path d="M71.8938 48.8594C71.8938 48.8594 72.9378 50.1127 72.9605 51.1487C72.9831 52.1847 73.3125 58.882 73.3125 58.882L71.9791 64.482L69.6885 63.9487L70.4005 58.0487L70.2351 52.946L71.8938 48.8594Z" fill="#32C075"/>
<path d="M71.9778 64.4794C71.9655 64.4735 71.9525 64.469 71.9392 64.4661L71.8205 64.4354L71.3645 64.3208L69.6925 63.9208L69.7112 63.9488L70.2845 59.4941C70.3352 59.0874 70.3858 58.6941 70.4338 58.3074C70.3792 56.7074 70.3312 55.2941 70.3005 54.2794C70.2805 53.7794 70.2645 53.3754 70.2538 53.0914C70.2472 52.9581 70.2418 52.8501 70.2378 52.7728C70.2378 52.7394 70.2378 52.7114 70.2378 52.6901C70.2395 52.6809 70.2395 52.6714 70.2378 52.6621C70.2367 52.6714 70.2367 52.6808 70.2378 52.6901V52.7728C70.2378 52.8501 70.2378 52.9568 70.2378 53.0928C70.2445 53.3768 70.2552 53.7794 70.2658 54.2808C70.2952 55.2968 70.3365 56.7061 70.3818 58.3088C70.3325 58.6914 70.2818 59.0901 70.2298 59.4968C70.0165 61.2088 69.8218 62.7728 69.6738 63.9528V63.9754H69.6952L71.3738 64.3594L71.8312 64.4594L71.9512 64.4848C71.9601 64.4835 71.969 64.4817 71.9778 64.4794Z" fill="#263238"/>
<g opacity="0.3">
<path d="M66.5338 58.5664C65.6515 58.948 64.7042 59.1571 63.7432 59.1824C63.8925 59.3997 64.1698 59.4491 64.4325 59.4624C64.6921 59.4807 64.9528 59.4513 65.2018 59.3757C65.6832 59.2197 66.2485 58.9757 66.5352 58.5664" fill="black"/>
</g>
<g opacity="0.3">
<path d="M61.7643 52.1074C61.8886 52.7248 61.9133 53.3582 61.8376 53.9834C61.8352 54.0617 61.8092 54.1375 61.7629 54.2008C61.7515 54.2163 61.7369 54.2293 61.7199 54.2386C61.703 54.248 61.6843 54.2536 61.665 54.255C61.6457 54.2563 61.6264 54.2535 61.6083 54.2467C61.5902 54.2399 61.5738 54.2292 61.5603 54.2154C61.5447 54.1867 61.536 54.1548 61.5348 54.1222C61.5336 54.0896 61.5401 54.0571 61.5536 54.0274C61.7353 53.4046 61.8066 52.7548 61.7643 52.1074Z" fill="black"/>
</g>
<path d="M63.151 41.8513C63.271 41.5633 63.6084 41.346 63.6297 41.2553C63.687 41.0167 63.4764 40.7633 63.5484 40.53C63.719 39.9807 64.1657 40.0447 64.1657 40.0447C64.3644 39.7953 64.6337 39.466 65.0764 39.3433C65.5577 39.21 66.267 39.106 66.7004 39.3513C67.1337 39.5967 67.4537 39.7607 67.6004 40.238L64.647 45.642C64.2964 45.486 64.0724 45.1327 63.9377 44.7727C63.803 44.4127 63.7377 44.03 63.5897 43.6753C63.479 43.4087 63.5897 42.986 63.347 42.8327C63.0457 42.6393 63.0404 42.1153 63.151 41.8513Z" fill="#263238"/>
<path d="M64.151 42.3141C64.1782 41.7246 64.4266 41.167 64.8468 40.7526C65.2669 40.3381 65.8278 40.0973 66.4177 40.0781H66.539C67.851 40.1101 68.5577 41.2421 68.4883 42.5528L68.675 46.8501L66.4857 48.3768C65.7457 48.9515 65.439 48.5101 65.4297 47.9568L65.4083 46.7288C65.4083 46.7288 64.143 46.5755 64.0843 45.3181C64.0537 44.7061 64.0977 43.4501 64.151 42.3141Z" fill="#BD8C83"/>
<path d="M64.5576 43.3889C64.559 43.4358 64.5785 43.4804 64.6121 43.5132C64.6457 43.546 64.6907 43.5646 64.7376 43.5649C64.7605 43.5658 64.7834 43.5621 64.8049 43.554C64.8263 43.5459 64.846 43.5336 64.8626 43.5179C64.8793 43.5021 64.8926 43.4831 64.9018 43.4621C64.911 43.4411 64.9159 43.4185 64.9163 43.3956C64.9152 43.3489 64.896 43.3044 64.8626 43.2718C64.8292 43.2392 64.7843 43.2209 64.7376 43.2209C64.7147 43.2198 64.6918 43.2233 64.6703 43.2313C64.6487 43.2392 64.629 43.2513 64.6122 43.267C64.5954 43.2826 64.582 43.3015 64.5726 43.3224C64.5632 43.3433 64.5581 43.366 64.5576 43.3889Z" fill="#263238"/>
<path d="M64.4233 42.9876C64.4473 43.0103 64.5793 42.905 64.7726 42.8996C64.9659 42.8943 65.1113 42.985 65.1313 42.961C65.1513 42.937 65.1166 42.909 65.0539 42.865C64.9683 42.8099 64.8676 42.7829 64.7659 42.7876C64.6651 42.7903 64.5679 42.8254 64.4886 42.8876C64.4313 42.9343 64.4126 42.9783 64.4233 42.9876Z" fill="#263238"/>
<path d="M66.2979 43.3889C66.2992 43.4358 66.3188 43.4804 66.3523 43.5132C66.3859 43.546 66.4309 43.5646 66.4778 43.5649C66.5008 43.5658 66.5236 43.5621 66.5451 43.554C66.5666 43.5459 66.5862 43.5336 66.6029 43.5179C66.6195 43.5021 66.6328 43.4831 66.642 43.4621C66.6513 43.4411 66.6562 43.4185 66.6565 43.3956C66.6558 43.3488 66.6366 43.3041 66.6032 43.2714C66.5697 43.2387 66.5247 43.2205 66.4778 43.2209C66.4549 43.2198 66.432 43.2233 66.4105 43.2313C66.389 43.2392 66.3692 43.2513 66.3524 43.267C66.3357 43.2826 66.3222 43.3015 66.3128 43.3224C66.3035 43.3433 66.2984 43.366 66.2979 43.3889Z" fill="#263238"/>
<path d="M66.2962 42.9851C66.3189 43.0077 66.4549 42.9064 66.6482 42.9051C66.8415 42.9037 66.9842 42.9997 67.0055 42.9757C67.0269 42.9517 66.9922 42.9237 66.9309 42.8797C66.8468 42.8215 66.7465 42.7912 66.6442 42.7931C66.5433 42.7934 66.4452 42.8261 66.3642 42.8864C66.3055 42.9317 66.2855 42.9744 66.2962 42.9851Z" fill="#263238"/>
<path d="M65.6909 44.3511C65.588 44.3226 65.4818 44.3074 65.3749 44.3058C65.3256 44.3058 65.2789 44.2938 65.2696 44.2604C65.2631 44.2094 65.2729 44.1576 65.2976 44.1124C65.3389 43.9911 65.3843 43.8644 65.4309 43.7311C65.6149 43.1898 65.7469 42.7444 65.7256 42.7364C65.7043 42.7284 65.5363 43.1631 65.3509 43.7058L65.2243 44.0884C65.1952 44.149 65.1881 44.2179 65.2043 44.2831C65.2118 44.3005 65.2234 44.3158 65.238 44.3278C65.2526 44.3399 65.2698 44.3483 65.2883 44.3524C65.3157 44.3597 65.344 44.3629 65.3723 44.3618C65.4785 44.3717 65.5856 44.3682 65.6909 44.3511Z" fill="#263238"/>
<path d="M66.2842 42.3046C66.3109 42.354 66.4989 42.3046 66.7269 42.294C66.9549 42.2833 67.1469 42.3206 67.1695 42.27C67.1789 42.2446 67.1402 42.2006 67.0602 42.162C66.9538 42.1132 66.8371 42.0907 66.7202 42.0966C66.6029 42.1003 66.4882 42.1319 66.3855 42.1886C66.3082 42.234 66.2669 42.2806 66.2842 42.3046Z" fill="#263238"/>
<path d="M64.4006 42.3413C64.4406 42.384 64.5899 42.3333 64.7712 42.324C64.9526 42.3146 65.1072 42.3426 65.1406 42.296C65.1552 42.2733 65.1299 42.2293 65.0619 42.1906C64.968 42.1433 64.8633 42.1217 64.7584 42.128C64.6535 42.1344 64.5521 42.1684 64.4646 42.2266C64.4006 42.2746 64.3792 42.32 64.4006 42.3413Z" fill="#263238"/>
<path d="M67.5044 40.1479C67.5077 40.2879 67.48 40.4269 67.4233 40.555C67.3666 40.6831 67.2824 40.7971 67.1765 40.8888C67.0706 40.9806 66.9458 41.0478 66.8109 41.0856C66.6761 41.1235 66.5345 41.1311 66.3964 41.1079C66.183 41.0732 65.947 40.9745 65.7657 41.0865C65.5844 41.1985 65.5697 41.5012 65.4004 41.6532C65.159 41.8705 64.7644 41.6772 64.455 41.7745C64.215 41.8505 64.0684 42.0825 63.911 42.2799C63.7537 42.4772 63.5177 42.6639 63.2764 42.5959C63.2803 42.3787 63.3084 42.1627 63.3604 41.9519C63.4142 41.7381 63.5405 41.5496 63.7177 41.4185C63.815 41.3519 63.931 41.3105 64.0217 41.2345C64.219 41.0692 64.2604 40.7879 64.3804 40.5599C64.4592 40.4138 64.5717 40.2885 64.7085 40.1944C64.8452 40.1003 65.0024 40.04 65.167 40.0185C65.4417 39.9865 65.7244 40.0639 65.991 39.9919C66.187 39.9385 66.3577 39.8079 66.5577 39.7665C66.9457 39.6852 67.3124 39.9585 67.6004 40.2332" fill="#263238"/>
<path d="M66.2668 40.7243C66.4401 40.6709 66.8001 40.5523 66.8868 40.3989C66.9781 40.2344 67.1112 40.0968 67.2728 40.0004C67.4344 39.9039 67.6186 39.8519 67.8068 39.8496C67.9959 39.8621 68.1759 39.9353 68.32 40.0583C68.4641 40.1813 68.5647 40.3475 68.6068 40.5323C68.8348 40.5367 69.0573 40.6024 69.2511 40.7225C69.4449 40.8426 69.6028 41.0127 69.7081 41.2149C69.8169 41.4271 69.8722 41.6626 69.8694 41.9009C69.8666 42.1393 69.8058 42.3734 69.6921 42.5829C69.6195 42.6826 69.5736 42.7992 69.5588 42.9216C69.5588 43.0763 69.6761 43.1976 69.7601 43.3216C69.9868 43.6683 69.9775 44.1483 69.8135 44.5323C69.6495 44.9163 69.5308 45.0523 69.2895 45.1323C68.8175 45.2896 68.7641 45.9536 68.5828 46.1403L68.3068 43.4203C68.2842 43.4339 68.2594 43.4434 68.2335 43.4483C67.7668 43.5629 67.6908 42.6483 67.7908 42.3816C67.6111 42.241 67.4503 42.0779 67.3121 41.8963C67.1578 41.6062 67.0781 41.2822 67.0801 40.9536C66.9135 40.9723 66.1908 40.7469 66.2668 40.7243Z" fill="#263238"/>
<path d="M68.2431 43.4425C68.2645 43.4318 69.0991 43.1572 69.1018 44.0185C69.1045 44.8798 68.2378 44.7038 68.2365 44.6852C68.2351 44.6665 68.2431 43.4425 68.2431 43.4425Z" fill="#BD8C83"/>
<path d="M68.4992 44.3521C68.4992 44.3521 68.5139 44.3628 68.5392 44.3748C68.5752 44.3891 68.6153 44.3891 68.6512 44.3748C68.707 44.3396 68.7523 44.2901 68.7825 44.2315C68.8128 44.1729 68.8268 44.1073 68.8232 44.0415C68.8247 43.9677 68.8101 43.8944 68.7806 43.8268C68.7723 43.8 68.7577 43.7756 68.7379 43.7556C68.7182 43.7357 68.694 43.7208 68.6672 43.7121C68.6501 43.7074 68.6317 43.7089 68.6156 43.7165C68.5995 43.7241 68.5866 43.7372 68.5792 43.7535C68.5672 43.7775 68.5792 43.7948 68.5686 43.7961C68.5579 43.7975 68.5499 43.7815 68.5566 43.7468C68.5615 43.7255 68.5732 43.7063 68.5899 43.6921C68.612 43.6751 68.6394 43.6666 68.6672 43.6681C68.7026 43.6754 68.7355 43.6914 68.763 43.7147C68.7905 43.738 68.8117 43.7678 68.8246 43.8015C68.8614 43.876 68.8797 43.9584 68.8779 44.0415C68.8823 44.1183 68.8639 44.1948 68.825 44.2612C68.7861 44.3276 68.7284 44.3811 68.6592 44.4148C68.6367 44.4208 68.6131 44.4219 68.5901 44.418C68.5671 44.4141 68.5452 44.4053 68.5259 44.3921C68.5006 44.3735 68.4966 44.3535 68.4992 44.3521Z" fill="#896360"/>
<path d="M65.4058 46.7258C65.4058 46.7258 66.5498 46.5311 67.2098 46.0098C67.2098 46.0098 66.8751 47.0658 65.4138 47.1204L65.4058 46.7258Z" fill="#896360"/>
<path d="M66.1936 44.4688C66.1616 44.4688 66.1683 44.6808 65.9923 44.8381C65.8163 44.9954 65.5923 44.9794 65.5923 45.0101C65.5923 45.0407 65.6443 45.0488 65.7403 45.0488C65.8653 45.0454 65.9852 44.9982 66.079 44.9154C66.1686 44.8362 66.224 44.7253 66.2336 44.6061C66.2336 44.5141 66.2083 44.4688 66.1936 44.4688Z" fill="#263238"/>
<path d="M65.3258 43.2407C65.3192 43.2407 65.3258 43.1727 65.2885 43.0567C65.2422 42.8963 65.1443 42.7556 65.0098 42.6567C64.9007 42.5749 64.7709 42.5251 64.635 42.5129C64.4992 42.5008 64.3626 42.5266 64.2406 42.5877C64.1186 42.6487 64.0161 42.7425 63.9444 42.8585C63.8727 42.9746 63.8347 43.1083 63.8347 43.2447C63.8347 43.3811 63.8727 43.5148 63.9444 43.6308C64.0161 43.7468 64.1186 43.8406 64.2406 43.9017C64.3626 43.9627 64.4992 43.9886 64.635 43.9764C64.7709 43.9642 64.9007 43.9144 65.0098 43.8327C65.1444 43.7338 65.2424 43.5932 65.2885 43.4327C65.3205 43.318 65.3192 43.25 65.3258 43.25C65.3325 43.25 65.3258 43.266 65.3258 43.2993C65.3263 43.3465 65.3209 43.3935 65.3098 43.4393C65.272 43.613 65.1743 43.7678 65.0338 43.8767C64.9507 43.9414 64.8554 43.9888 64.7536 44.016C64.6518 44.0433 64.5456 44.05 64.4412 44.0355C64.3368 44.0211 64.2364 43.986 64.1458 43.9321C64.0552 43.8783 63.9764 43.8068 63.9138 43.722C63.8125 43.5855 63.7578 43.42 63.7578 43.25C63.7578 43.08 63.8125 42.9145 63.9138 42.778C63.9764 42.6932 64.0552 42.6217 64.1458 42.5679C64.2364 42.514 64.3368 42.4789 64.4412 42.4645C64.5456 42.45 64.6518 42.4567 64.7536 42.484C64.8554 42.5112 64.9507 42.5586 65.0338 42.6233C65.1739 42.732 65.2716 42.8862 65.3098 43.0593C65.3209 43.1056 65.3263 43.1531 65.3258 43.2007C65.3338 43.2233 65.3338 43.2407 65.3258 43.2407Z" fill="#455A64"/>
<path d="M67.3228 43.2551C67.3148 43.2551 67.3228 43.1831 67.2842 43.0631C67.237 42.8934 67.1341 42.7446 66.9922 42.6404C66.8781 42.5547 66.7424 42.5025 66.6003 42.4896C66.4582 42.4766 66.3153 42.5036 66.1877 42.5673C66.06 42.6311 65.9526 42.7291 65.8776 42.8505C65.8026 42.9719 65.7628 43.1117 65.7628 43.2544C65.7628 43.3971 65.8026 43.5369 65.8776 43.6583C65.9526 43.7797 66.06 43.8777 66.1877 43.9415C66.3153 44.0052 66.4582 44.0322 66.6003 44.0193C66.7424 44.0063 66.8781 43.9541 66.9922 43.8684C67.1341 43.7642 67.237 43.6154 67.2842 43.4457C67.3175 43.3257 67.3148 43.2537 67.3228 43.2551C67.3308 43.2564 67.3228 43.2724 67.3228 43.3057C67.3233 43.3551 67.3179 43.4043 67.3068 43.4524C67.2665 43.6332 67.1647 43.7943 67.0188 43.9084C66.8966 44.0029 66.7502 44.0613 66.5965 44.0769C66.4427 44.0924 66.2877 44.0646 66.1489 43.9965C66.0102 43.9284 65.8933 43.8227 65.8116 43.6916C65.7298 43.5604 65.6865 43.409 65.6865 43.2544C65.6865 43.0999 65.7298 42.9484 65.8116 42.8172C65.8933 42.6861 66.0102 42.5804 66.1489 42.5123C66.2877 42.4442 66.4427 42.4164 66.5965 42.4319C66.7502 42.4475 66.8966 42.5059 67.0188 42.6004C67.1647 42.7145 67.2665 42.8756 67.3068 43.0564C67.3179 43.1045 67.3233 43.1537 67.3228 43.2031C67.3335 43.2364 67.3255 43.2551 67.3228 43.2551Z" fill="#455A64"/>
<path d="M65.7241 43.2837C65.7108 43.2984 65.6308 43.2424 65.5174 43.2464C65.4041 43.2504 65.3254 43.3037 65.3121 43.2904C65.2988 43.277 65.3121 43.2584 65.3534 43.2304C65.4018 43.1974 65.4589 43.1797 65.5174 43.1797C65.576 43.1797 65.6331 43.1974 65.6814 43.2304C65.7174 43.2517 65.7334 43.277 65.7241 43.2837Z" fill="#455A64"/>
<path d="M68.1886 43.4528C68.0386 43.4578 67.889 43.4352 67.7472 43.3862C67.6011 43.359 67.4587 43.3142 67.3232 43.2528C67.4731 43.2471 67.6228 43.2693 67.7646 43.3182C67.911 43.3452 68.0534 43.3905 68.1886 43.4528Z" fill="#455A64"/>
<path d="M69.9352 52.4872C69.9352 52.5059 68.4459 52.6126 66.6019 52.7232C64.7579 52.8339 63.2686 52.9086 63.2686 52.8899C63.2686 52.8712 64.7592 52.7646 66.6019 52.6539C68.4446 52.5432 69.9339 52.4686 69.9352 52.4872Z" fill="white"/>
<path d="M72.8924 51.823C72.4465 51.8879 71.9974 51.9293 71.5471 51.947C70.8031 51.995 70.1991 52.019 70.1978 52.0003C70.6438 51.9363 71.0928 51.8954 71.5431 51.8776C71.9916 51.8366 72.442 51.8183 72.8924 51.823Z" fill="white"/>
<path d="M63.2685 52.1383C62.8532 52.0587 62.448 51.933 62.0605 51.7637C62.2704 51.793 62.4765 51.8448 62.6752 51.9183C62.8805 51.9695 63.0795 52.0433 63.2685 52.1383Z" fill="white"/>
<path d="M33.6003 68.7157C32.3336 66.7784 32.3816 63.9464 33.895 62.1944C34.3643 61.6517 35.0203 61.1784 35.7363 61.2397C36.4523 61.3011 37.059 61.9304 37.283 62.6317C37.507 63.3331 37.4283 64.0917 37.2976 64.8157C37.1136 65.8291 36.807 66.8664 36.0976 67.6157C35.3883 68.3651 34.4976 69.2051 33.595 68.7117" fill="#32C075"/>
<path d="M34.1671 77.9752C33.9397 77.4118 33.8952 76.7912 34.04 76.2011C34.1847 75.611 34.5114 75.0814 34.9738 74.6872C35.2658 74.4499 35.6405 74.2659 36.0098 74.3619C36.3791 74.4579 36.6285 74.8379 36.6765 75.2192C36.705 75.6047 36.6396 75.9913 36.4858 76.3459C36.2991 76.8526 36.0471 77.3579 35.6165 77.6792C35.1858 78.0006 34.5845 78.3086 34.1631 77.9726" fill="#32C075"/>
<path d="M31.1122 77.3109C31.4602 75.5936 30.5562 73.6989 29.0016 72.8896C28.5189 72.6389 27.9242 72.4896 27.4376 72.7336C26.9509 72.9776 26.7016 73.5909 26.7402 74.1469C26.7789 74.7029 27.0469 75.2136 27.3416 75.6869C27.7549 76.3536 28.2616 76.9923 28.9669 77.3243C29.6722 77.6563 30.6149 77.9123 31.1122 77.3109Z" fill="#32C075"/>
<path d="M31.3337 72.6658C31.9403 70.7098 30.9123 68.3365 29.2003 67.2138C28.667 66.8658 28.0003 66.6232 27.4017 66.8498C26.803 67.0765 26.443 67.7592 26.4243 68.4112C26.4057 69.0632 26.655 69.6885 26.943 70.2778C27.343 71.0965 27.859 71.9032 28.6417 72.3738C29.4243 72.8445 30.687 73.3072 31.3363 72.6712" fill="#32C075"/>
<path d="M32.5496 82.2307C32.5399 82.1999 32.5332 82.1682 32.5296 82.1361L32.4896 81.8694C32.4816 81.8094 32.4723 81.7361 32.4616 81.6721C32.4509 81.6081 32.4336 81.5214 32.4176 81.4387C32.3856 81.2721 32.3523 81.0814 32.2976 80.8747C32.2723 80.7707 32.2456 80.6614 32.2189 80.5481C32.1923 80.4347 32.1523 80.3201 32.1163 80.1987C32.0509 79.9561 31.9549 79.7054 31.8643 79.4374C31.4396 78.2836 30.8571 77.1941 30.1336 76.2001C29.9603 75.9774 29.8043 75.7574 29.6376 75.5694L29.4029 75.2907L29.1749 75.0441C29.0323 74.8841 28.8923 74.7521 28.7749 74.6334L28.5989 74.4667L28.4496 74.3334L28.2443 74.1494C28.2192 74.1288 28.1964 74.1056 28.1763 74.0801C28.2049 74.0952 28.2313 74.114 28.2549 74.1361L28.4709 74.3094L28.6256 74.4361C28.6789 74.4867 28.7376 74.5401 28.8003 74.5974C28.9243 74.7134 29.0669 74.8441 29.2149 74.9974L29.4483 75.2414L29.6869 75.5174C29.8576 75.7054 30.0163 75.9241 30.1923 76.1481C30.9274 77.1423 31.5149 78.2376 31.9363 79.4001C32.0256 79.6667 32.1189 79.9241 32.1829 80.1694C32.2163 80.2907 32.2496 80.4081 32.2803 80.5214C32.3109 80.6347 32.3309 80.7454 32.3549 80.8507C32.4056 81.0601 32.4349 81.2507 32.4629 81.4201C32.4763 81.5041 32.4896 81.5827 32.5016 81.6547C32.5136 81.7267 32.5149 81.7881 32.5216 81.8547C32.5323 81.9667 32.5403 82.0574 32.5469 82.1294C32.5513 82.163 32.5522 82.197 32.5496 82.2307Z" fill="#263238"/>
<path d="M32.5059 82.5816C32.5041 82.5688 32.5041 82.5558 32.5059 82.543C32.5059 82.5123 32.5059 82.475 32.5139 82.4297C32.5232 82.323 32.5366 82.1776 32.5539 81.995C32.5632 81.9003 32.5739 81.795 32.5846 81.6816C32.5952 81.5683 32.5966 81.4403 32.6032 81.307C32.6139 81.0403 32.6392 80.7323 32.6299 80.3937C32.6299 80.2243 32.6299 80.047 32.6299 79.8603C32.6299 79.6737 32.6112 79.4843 32.6019 79.2857C32.5886 78.8857 32.5339 78.4656 32.4859 78.0203C32.2372 76.0926 31.6799 74.2175 30.8352 72.467C30.6326 72.067 30.4486 71.6843 30.2419 71.343C30.1419 71.171 30.0512 71.0016 29.9526 70.8456L29.6646 70.3977C29.4886 70.1083 29.3006 69.8643 29.1446 69.647C29.0659 69.5377 28.9952 69.435 28.9246 69.343L28.7286 69.0963L28.4619 68.755L28.3926 68.6643C28.3779 68.643 28.3699 68.6323 28.3712 68.631C28.3726 68.6297 28.3819 68.639 28.3992 68.6576L28.4739 68.743L28.7579 69.0763C28.8192 69.1497 28.8912 69.231 28.9606 69.319C29.0299 69.407 29.1046 69.511 29.1859 69.619C29.3459 69.8377 29.5379 70.0776 29.7192 70.3656L30.0126 70.811C30.1126 70.967 30.2046 71.1376 30.3072 71.3083C30.5166 71.6496 30.7072 72.0337 30.9086 72.4337C31.3305 73.313 31.6849 74.2232 31.9686 75.1563C32.2389 76.0933 32.4382 77.0493 32.5646 78.0163C32.6112 78.463 32.6619 78.887 32.6726 79.287C32.6806 79.487 32.6966 79.679 32.6966 79.8643C32.6966 80.0497 32.6966 80.227 32.6966 80.3977C32.6966 80.7377 32.6726 81.0443 32.6579 81.3137C32.6486 81.447 32.6432 81.5737 32.6326 81.6883C32.6219 81.803 32.6059 81.907 32.5939 82.0017C32.5712 82.1857 32.5526 82.3296 32.5379 82.4363C32.5312 82.4816 32.5259 82.5176 32.5219 82.5483C32.5183 82.5602 32.5129 82.5714 32.5059 82.5816Z" fill="#263238"/>
<path d="M35.803 63.5802C35.7982 63.5926 35.7924 63.6047 35.7856 63.6162L35.7323 63.7175L35.515 64.1042C35.4683 64.1882 35.4123 64.2789 35.359 64.3829L35.1896 64.7242C35.1283 64.8469 35.063 64.9762 34.995 65.1149C34.927 65.2535 34.8616 65.4069 34.7963 65.5629C34.731 65.7189 34.6523 65.8842 34.5816 66.0575C34.511 66.2309 34.4483 66.4149 34.371 66.6029L34.2603 66.8909C34.227 66.9895 34.1936 67.0909 34.159 67.1922C34.0896 67.3957 34.019 67.6055 33.947 67.8215C33.6803 68.6895 33.4243 69.6562 33.2096 70.6829C32.995 71.7095 32.855 72.7002 32.747 73.6029C32.639 74.5055 32.587 75.3229 32.5683 76.0109C32.551 76.3549 32.547 76.6655 32.5456 76.9442C32.5443 77.2229 32.5456 77.4522 32.5456 77.6442C32.5456 77.8362 32.5456 77.9789 32.5523 78.0869C32.5523 78.1335 32.5523 78.1722 32.5523 78.2029C32.5543 78.2161 32.5543 78.2296 32.5523 78.2429C32.5509 78.2296 32.5509 78.2162 32.5523 78.2029C32.5523 78.1722 32.5523 78.1349 32.5443 78.0882C32.5443 77.9802 32.5323 77.8322 32.523 77.6455C32.5136 77.4589 32.5083 77.2175 32.5083 76.9442C32.5083 76.6709 32.5083 76.3589 32.5176 76.0109C32.5283 75.3215 32.591 74.5029 32.679 73.5962C32.767 72.6895 32.927 71.6989 33.1363 70.6629C33.3456 69.6269 33.6083 68.6629 33.8816 67.7949C33.9563 67.5802 34.0283 67.3695 34.0976 67.1655C34.1336 67.0642 34.1683 66.9629 34.2016 66.8642L34.315 66.5762L34.531 66.0309C34.603 65.8575 34.6803 65.6935 34.7496 65.5362C34.819 65.3789 34.883 65.2295 34.955 65.0895L35.1563 64.7002L35.3323 64.3615C35.3883 64.2589 35.447 64.1682 35.495 64.0855L35.7256 63.7055L35.787 63.6082C35.7936 63.5895 35.8016 63.5789 35.803 63.5802Z" fill="#263238"/>
<path d="M35.3726 75.4668C35.3336 75.5484 35.289 75.6273 35.2392 75.7028C35.1459 75.8508 35.0192 76.0695 34.8699 76.3441C34.7206 76.6188 34.5566 76.9508 34.3899 77.3281C34.2232 77.7055 34.0672 78.1281 33.9246 78.5841C33.7819 79.0401 33.6806 79.4815 33.6006 79.8855C33.5206 80.2895 33.4672 80.6588 33.4406 80.9695C33.4139 81.2801 33.3912 81.5321 33.3846 81.7055C33.3836 81.7948 33.376 81.8839 33.3619 81.9721C33.3516 81.8836 33.348 81.7945 33.3512 81.7055C33.3512 81.5295 33.3512 81.2761 33.3832 80.9641C33.4121 80.5976 33.4592 80.2327 33.5246 79.8708C33.608 79.4284 33.7153 78.9909 33.8459 78.5601C33.9807 78.1308 34.1392 77.7093 34.3206 77.2975C34.4701 76.9617 34.6366 76.6337 34.8192 76.3148C34.9752 76.0481 35.1112 75.8281 35.2112 75.6855C35.2585 75.608 35.3125 75.5348 35.3726 75.4668Z" fill="#263238"/>
<path d="M30.063 81.3594H35.6257L34.9523 87.0407H30.755L30.063 81.3594Z" fill="#455A64"/>
<path d="M30.2656 86.4277L30.7376 87.0411H34.9523L35.439 86.4477L30.2656 86.4277Z" fill="#263238"/>
<path d="M35.4098 83.0296C35.4098 83.0523 34.2551 83.0709 32.8311 83.0709C31.4071 83.0709 30.2524 83.0523 30.2524 83.0296C30.2524 83.0069 31.4071 82.9883 32.8311 82.9883C34.2551 82.9883 35.4098 83.0069 35.4098 83.0296Z" fill="#FAFAFA"/>
<path d="M35.4098 83.4085C35.4098 83.4312 34.2551 83.4499 32.8311 83.4499C31.4071 83.4499 30.2524 83.4312 30.2524 83.4085C30.2524 83.3859 31.4071 83.3672 32.8311 83.3672C34.2551 83.3672 35.4098 83.3859 35.4098 83.4085Z" fill="#FAFAFA"/>
<path d="M35.3401 83.7738C35.3401 83.7978 34.2255 83.8164 32.8508 83.8164C31.4761 83.8164 30.3628 83.7978 30.3628 83.7738C30.3628 83.7498 31.4775 83.7324 32.8508 83.7324C34.2241 83.7324 35.3401 83.7511 35.3401 83.7738Z" fill="#FAFAFA"/>
<path d="M30.9125 69.1133C30.9152 69.131 30.9152 69.1489 30.9125 69.1666C30.9125 69.2093 30.9045 69.2599 30.8992 69.3213C30.8845 69.4639 30.8659 69.6546 30.8419 69.8879C30.7912 70.3653 30.7179 71.0253 30.6325 71.7546C30.6325 71.7826 30.6259 71.8106 30.6232 71.8359V71.8599H30.5992C29.8845 71.8719 29.2405 71.8786 28.7765 71.8813H28.2272H28.0779C28.0606 71.883 28.0432 71.883 28.0259 71.8813C28.0259 71.8813 28.0432 71.8813 28.0779 71.8813L28.2272 71.8733L28.7752 71.8559C29.2405 71.8439 29.8832 71.8306 30.5979 71.8186L30.5712 71.8439C30.5712 71.8186 30.5712 71.7906 30.5805 71.7626C30.6659 71.0346 30.7459 70.3759 30.8072 69.8959C30.8379 69.6653 30.8632 69.4746 30.8819 69.3319C30.8912 69.2706 30.8979 69.2213 30.9045 69.1786C30.9046 69.1566 30.9073 69.1347 30.9125 69.1133Z" fill="#263238"/>
<path d="M29.6471 67.4121C29.6501 67.4307 29.6501 67.4496 29.6471 67.4681C29.6471 67.5108 29.6471 67.5641 29.6471 67.6281C29.6471 67.7748 29.6471 67.9734 29.6471 68.2148C29.6391 68.7094 29.6258 69.3934 29.6071 70.1481C29.6071 70.1788 29.6071 70.2094 29.6071 70.2374V70.2668H29.5778C28.9567 70.2196 28.3336 70.2058 27.7111 70.2254C27.4724 70.2321 27.2804 70.2428 27.1471 70.2494H26.9938C26.976 70.2512 26.9582 70.2512 26.9404 70.2494C26.9404 70.2494 26.9578 70.2494 26.9924 70.2388L27.1458 70.2214C27.2791 70.2081 27.4711 70.1921 27.7098 70.1788C28.335 70.1479 28.9616 70.1563 29.5858 70.2041L29.5564 70.2321C29.5564 70.2041 29.5564 70.1734 29.5564 70.1428C29.5751 69.3881 29.5951 68.7041 29.6124 68.2094C29.6218 67.9681 29.6298 67.7708 29.6351 67.6228C29.6351 67.5601 29.6418 67.5068 29.6444 67.4641C29.6437 67.4467 29.6446 67.4293 29.6471 67.4121Z" fill="#263238"/>
<path d="M28.167 66.834C28.1835 66.8875 28.1951 66.9424 28.2017 66.998L28.2844 67.4446C28.3564 67.822 28.4684 68.3433 28.6284 68.9113L28.6444 68.9713L28.5884 68.9433L28.5217 68.9113C28.0542 68.6875 27.5534 68.5412 27.039 68.478C26.8417 68.454 26.6804 68.4446 26.5684 68.4406C26.5104 68.4414 26.4525 68.4383 26.395 68.4313C26.395 68.4313 26.411 68.4313 26.4404 68.4246C26.4697 68.418 26.5137 68.4246 26.5737 68.4246C26.7321 68.4218 26.8906 68.428 27.0484 68.4433C27.5683 68.4965 28.075 68.64 28.5457 68.8673L28.6137 68.9007L28.5737 68.9326C28.4387 68.4467 28.3293 67.954 28.2457 67.4567C28.2137 67.2673 28.1924 67.1127 28.1804 67.006C28.1707 66.9492 28.1663 66.8916 28.167 66.834Z" fill="#263238"/>
<path d="M36.0231 77.1935C36.0231 77.2015 35.8617 77.1855 35.6031 77.1748C35.2654 77.1619 34.9272 77.173 34.5911 77.2082C34.5111 77.2162 34.4324 77.2268 34.3577 77.2361H34.3311V77.2095C34.2711 76.8735 34.2204 76.5775 34.1871 76.3642C34.1635 76.2512 34.1488 76.1367 34.1431 76.0215C34.1776 76.1315 34.2044 76.2437 34.2231 76.3575C34.2657 76.5681 34.3231 76.8642 34.3857 77.2002L34.3537 77.1775C34.4297 77.1668 34.5084 77.1561 34.5884 77.1481C34.9246 77.1133 35.2633 77.1084 35.6004 77.1335C35.7337 77.1442 35.8364 77.1575 35.9084 77.1682C35.9477 77.1704 35.9865 77.1789 36.0231 77.1935Z" fill="#263238"/>
<path d="M36.5485 76.1484C36.5485 76.1577 36.3938 76.1217 36.1418 76.091C35.8139 76.0511 35.4825 76.0475 35.1538 76.0804L34.9791 76.103H34.9511V76.0737C34.9151 75.7284 34.8871 75.4217 34.8698 75.2017C34.8548 75.0837 34.8486 74.9647 34.8511 74.8457C34.8782 74.9615 34.8964 75.0792 34.9058 75.1977C34.9338 75.4164 34.9698 75.7217 35.0058 76.0684L34.9738 76.043L35.1511 76.0204C35.4838 75.9856 35.8195 75.9946 36.1498 76.047C36.2831 76.0684 36.3765 76.091 36.4458 76.1097C36.4815 76.1184 36.5159 76.1314 36.5485 76.1484Z" fill="#263238"/>
<path d="M36.9258 66.258C36.9085 66.2689 36.8902 66.2783 36.8711 66.286L36.7085 66.358L36.1058 66.6153L34.1138 67.4406L34.0058 67.4846L33.9805 67.4953L33.9698 67.47L33.1271 65.5686L32.8791 64.9926L32.8151 64.8366C32.8005 64.7993 32.7938 64.7806 32.7965 64.7793C32.8071 64.7959 32.8165 64.8133 32.8245 64.8313C32.8445 64.8713 32.8698 64.922 32.8991 64.9846L33.1658 65.5526C33.3871 66.0406 33.6885 66.706 34.0231 67.4473L33.9871 67.4326L34.0951 67.3886L36.0951 66.578L36.7031 66.338L36.8698 66.2753C36.8875 66.2668 36.9064 66.261 36.9258 66.258Z" fill="#263238"/>
<path d="M37.4136 63.8545C37.399 63.8688 37.3824 63.8809 37.3643 63.8905L37.2176 63.9852L36.675 64.3238L34.863 65.4292L34.8336 65.4465L34.8216 65.4145L34.7896 65.3265C34.4936 64.5265 34.227 63.8092 34.0296 63.2785C33.9376 63.0198 33.8616 62.8092 33.8056 62.6545L33.747 62.4838C33.7389 62.4646 33.7336 62.4445 33.731 62.4238C33.7418 62.4415 33.7508 62.4602 33.7576 62.4798C33.7763 62.5243 33.799 62.5803 33.8256 62.6478L34.067 63.2678C34.2683 63.8012 34.5403 64.5172 34.8416 65.3118L34.875 65.3985L34.8336 65.3852L36.655 64.2945L37.207 63.9705L37.359 63.8852C37.376 63.873 37.3943 63.8627 37.4136 63.8545Z" fill="#263238"/>
<path d="M37.2539 62.5729C37.2157 62.599 37.1756 62.6222 37.1339 62.6422C37.0566 62.6862 36.9432 62.7502 36.8059 62.8342C36.4419 63.0595 36.1039 63.3242 35.7979 63.6236L35.7273 63.6916L35.7513 63.5969C35.7753 63.4969 35.7979 63.3929 35.8153 63.2849C35.891 62.7899 35.8633 62.2846 35.7339 61.8009C35.6942 61.6544 35.6466 61.5102 35.5912 61.3689C35.5676 61.3184 35.5475 61.2663 35.5312 61.2129C35.5632 61.2592 35.59 61.3088 35.6113 61.3609C35.675 61.5001 35.7289 61.6435 35.7726 61.7902C35.9132 62.2778 35.946 62.7901 35.8686 63.2916C35.8499 63.4022 35.8272 63.5089 35.8019 63.6089L35.7553 63.5822C36.0655 63.2815 36.4111 63.0196 36.7846 62.8022C36.9179 62.7209 37.0406 62.6609 37.1219 62.6236C37.1637 62.6014 37.208 62.5844 37.2539 62.5729Z" fill="#263238"/>
<path d="M30.9056 75.0469C30.9004 75.0955 30.8915 75.1436 30.8789 75.1909C30.8603 75.2829 30.8323 75.4162 30.8016 75.5815C30.7218 76.0172 30.6719 76.4578 30.6523 76.9002V76.9255H30.6269L30.5029 76.9322C29.9509 76.9655 29.4509 76.9935 29.0896 77.0095L28.6616 77.0269C28.6088 77.0317 28.5557 77.0317 28.5029 77.0269C28.5547 77.0153 28.6073 77.0082 28.6603 77.0055L29.0869 76.9709C29.4483 76.9442 29.9469 76.9109 30.4989 76.8775L30.6243 76.8709L30.5976 76.8975C30.6167 76.4527 30.6728 76.0103 30.7656 75.5749C30.8003 75.4095 30.8349 75.2762 30.8603 75.1855C30.87 75.1377 30.8852 75.0912 30.9056 75.0469Z" fill="#263238"/>
<path d="M29.8122 73.4805C29.813 73.5291 29.8099 73.5777 29.8029 73.6258C29.7909 73.7285 29.7762 73.8605 29.7576 74.0258C29.7176 74.3605 29.6576 74.8258 29.5869 75.3471V75.3698H29.5629L29.3842 75.3818C28.8189 75.4191 28.3096 75.4778 27.9416 75.5258L27.5056 75.5845C27.4523 75.5944 27.3984 75.5997 27.3442 75.6005C27.3954 75.5831 27.4481 75.5706 27.5016 75.5631C27.6042 75.5418 27.7522 75.5151 27.9349 75.4858C28.3029 75.4285 28.8136 75.3631 29.3802 75.3245L29.5602 75.3138L29.5336 75.3378C29.6056 74.8165 29.6669 74.3525 29.7229 74.0191C29.7469 73.8605 29.7682 73.7285 29.7842 73.6191C29.7886 73.5721 29.798 73.5256 29.8122 73.4805Z" fill="#263238"/>
<path d="M28.5243 72.8047C28.5337 72.8047 28.499 72.9567 28.459 73.2047C28.4069 73.5307 28.377 73.8599 28.3697 74.19V74.2207H28.3377L28.2443 74.2087C27.8956 74.1675 27.5448 74.147 27.1937 74.1474H26.875C26.8356 74.1519 26.7958 74.1519 26.7563 74.1474C26.7945 74.1361 26.8339 74.1298 26.8737 74.1287C26.9483 74.1207 27.0577 74.1127 27.1937 74.1074C27.5472 74.0946 27.9012 74.1097 28.2523 74.1527L28.3457 74.166L28.3137 74.1927C28.321 73.86 28.3572 73.5285 28.4217 73.202C28.447 73.078 28.471 72.9794 28.4897 72.9114C28.4965 72.8744 28.5081 72.8386 28.5243 72.8047Z" fill="#263238"/>
<path d="M35.855 74.3711C35.7839 74.564 35.701 74.7523 35.607 74.9351C35.5298 75.1258 35.4407 75.3115 35.3403 75.4911C35.4557 75.0942 35.6296 74.7167 35.8563 74.3711H35.855Z" fill="#263238"/>
<path d="M36.5538 75.1133C36.3407 75.1452 36.1297 75.1898 35.9218 75.2466C35.719 75.3193 35.5205 75.4035 35.3271 75.4986C35.6731 75.221 36.1115 75.0852 36.5538 75.1186V75.1133Z" fill="#263238"/>
<path d="M100.169 87.0249C100.169 87.0436 81.2879 87.0596 58.0026 87.0596C34.7172 87.0596 15.8306 87.0436 15.8306 87.0249C15.8306 87.0062 34.7079 86.9902 58.0026 86.9902C81.2972 86.9902 100.169 86.9996 100.169 87.0249Z" fill="#263238"/>
</svg>
