<svg width="116" height="116" viewBox="0 0 116 116" fill="none" xmlns="http://www.w3.org/2000/svg">
<rect width="116" height="116" fill="white"/>
<g clip-path="url(#clip0_128_3631)">
<path d="M108 84.4785H8V84.5285H108V84.4785Z" fill="#EBEBEB"/>
<path d="M97.98 87.6973H91.356V87.7473H97.98V87.6973Z" fill="#EBEBEB"/>
<path d="M74.2439 88.2402H72.5059V88.2902H74.2439V88.2402Z" fill="#EBEBEB"/>
<path d="M91.1559 85.8418H87.3179V85.8918H91.1559V85.8418Z" fill="#EBEBEB"/>
<path d="M27.1302 86.1777H18.4922V86.2277H27.1302V86.1777Z" fill="#EBEBEB"/>
<path d="M30.1781 86.1777H28.9121V86.2277H30.1781V86.1777Z" fill="#EBEBEB"/>
<path d="M53.0299 87.0215H34.2939V87.0715H53.0299V87.0215Z" fill="#EBEBEB"/>
<path d="M55.4001 75.558H16.7821C16.4796 75.5575 16.1896 75.437 15.9759 75.2229C15.7621 75.0087 15.6421 74.7186 15.6421 74.416V20.13C15.6447 19.8293 15.7659 19.5416 15.9794 19.3297C16.1928 19.1177 16.4813 18.9986 16.7821 18.998H55.4001C55.703 18.998 55.9934 19.1184 56.2076 19.3325C56.4218 19.5467 56.5421 19.8372 56.5421 20.14V74.416C56.5421 74.7189 56.4218 75.0094 56.2076 75.2236C55.9934 75.4377 55.703 75.558 55.4001 75.558ZM16.7821 19.038C16.4928 19.0386 16.2156 19.1539 16.0112 19.3586C15.8069 19.5633 15.6921 19.8408 15.6921 20.13V74.416C15.6921 74.7053 15.8069 74.9828 16.0112 75.1875C16.2156 75.3922 16.4928 75.5075 16.7821 75.508H55.4001C55.6895 75.5075 55.967 75.3923 56.1717 75.1876C56.3763 74.9829 56.4916 74.7055 56.4921 74.416V20.13C56.4916 19.8406 56.3763 19.5631 56.1717 19.3585C55.967 19.1538 55.6895 19.0386 55.4001 19.038H16.7821Z" fill="#EBEBEB"/>
<path d="M98.6619 75.558H60.0419C59.7392 75.5575 59.449 75.437 59.235 75.223C59.0209 75.0089 58.9004 74.7188 58.8999 74.416V20.13C58.9031 19.8291 59.0247 19.5415 59.2385 19.3296C59.4522 19.1177 59.7409 18.9986 60.0419 18.998H98.6619C98.9624 18.9991 99.2503 19.1185 99.4633 19.3304C99.6763 19.5423 99.7973 19.8296 99.7999 20.13V74.416C99.7999 74.7182 99.6801 75.0081 99.4668 75.2222C99.2535 75.4362 98.9641 75.557 98.6619 75.558ZM60.0419 19.038C59.7524 19.0386 59.475 19.1538 59.2703 19.3585C59.0656 19.5631 58.9504 19.8406 58.9499 20.13V74.416C58.9504 74.7055 59.0656 74.9829 59.2703 75.1876C59.475 75.3923 59.7524 75.5075 60.0419 75.508H98.6619C98.9514 75.5075 99.2288 75.3923 99.4335 75.1876C99.6382 74.9829 99.7534 74.7055 99.7539 74.416V20.13C99.7534 19.8406 99.6382 19.5631 99.4335 19.3585C99.2288 19.1538 98.9514 19.0386 98.6619 19.038H60.0419Z" fill="#EBEBEB"/>
<path d="M63.5461 40.1363L63.4561 37.5083L65.0701 36.9823C65.1375 36.0916 65.2814 35.2083 65.5001 34.3423L64.1321 33.3423L65.0601 30.8723L66.7521 31.0103C67.1528 30.2149 67.6212 29.4554 68.1521 28.7403L67.2761 27.2763L69.0761 25.3543L70.6001 26.1203C71.2798 25.5412 72.0047 25.0176 72.7681 24.5543L72.5241 22.8763L74.9241 21.7863L76.0241 23.0743C76.8729 22.8038 77.7425 22.6031 78.6241 22.4743L79.0241 20.8303L81.6601 20.7383L82.1801 22.3523C83.0696 22.4242 83.9518 22.568 84.8181 22.7823L85.8341 21.4223L88.3041 22.3443L88.1661 24.0363C88.9606 24.4438 89.7199 24.9168 90.4361 25.4503L91.8921 24.5743L93.8221 26.3743L93.0481 27.8923C93.6289 28.5691 94.1508 29.2945 94.6081 30.0603L96.2861 29.8083L97.4001 32.1983L96.1041 33.2983C96.3777 34.1463 96.5784 35.0161 96.7041 35.8983L98.3561 36.3123L98.4461 38.9403L96.8261 39.4683C96.7592 40.359 96.6153 41.2423 96.3961 42.1083L97.7641 43.1083L96.8341 45.5763L95.1441 45.4403C94.7404 46.2362 94.2686 46.9957 93.7341 47.7103L94.6121 49.1723L92.8121 51.0963L91.3001 50.3203C90.622 50.902 89.8968 51.4264 89.1321 51.8883L89.3841 53.5663L86.9841 54.6543L85.8781 53.3663C85.0297 53.6411 84.1601 53.8452 83.2781 53.9763L82.8781 55.6223L80.2421 55.7123L79.7221 54.0983C78.8316 54.0285 77.9486 53.8847 77.0821 53.6683L76.0821 55.0283L73.6001 54.1143L73.7301 52.4243C72.9358 52.0154 72.1766 51.5418 71.4601 51.0083L70.0001 51.8843L68.0701 50.0843L68.8441 48.5643C68.2614 47.8886 67.7382 47.1639 67.2801 46.3983L65.6001 46.6543L64.5041 44.2543L65.8001 43.1543C65.5224 42.3067 65.3183 41.4369 65.1901 40.5543L63.5461 40.1363ZM81.3041 48.6503C83.3665 48.5806 85.362 47.9007 87.0381 46.6967C88.7141 45.4927 89.9954 43.8187 90.7199 41.8864C91.4443 39.954 91.5794 37.8502 91.1079 35.8411C90.6365 33.832 89.5798 32.0079 88.0714 30.5995C86.5631 29.191 84.6709 28.2616 82.6342 27.9288C80.5976 27.596 78.508 27.8747 76.6298 28.7297C74.7515 29.5847 73.1691 30.9775 72.0826 32.732C70.9961 34.4865 70.4544 36.5239 70.5261 38.5863C70.621 41.35 71.8098 43.9629 73.831 45.8502C75.8522 47.7375 78.5403 48.7447 81.3041 48.6503Z" fill="#EBEBEB"/>
<path d="M31.9541 71.285L31.9141 70.101L32.6421 69.863C32.675 69.4614 32.7419 69.0633 32.8421 68.673L32.2261 68.219L32.6441 67.105L33.4061 67.167C33.5882 66.808 33.801 66.4654 34.0421 66.143L33.6421 65.483L34.4561 64.617L35.1361 64.967C35.4427 64.7053 35.7697 64.4685 36.1141 64.259L36.0041 63.503L37.0861 63.011L37.5801 63.599C37.9633 63.4756 38.3559 63.3833 38.7541 63.323L38.9381 62.581L40.1261 62.541L40.3601 63.269C40.7616 63.3025 41.1597 63.3694 41.5501 63.469L42.0081 62.855L43.1221 63.271L43.0601 64.033C43.4178 64.2181 43.7603 64.4314 44.0841 64.671L44.7401 64.271L45.6101 65.071L45.2601 65.757C45.5231 66.0616 45.7587 66.3889 45.9641 66.735L46.7221 66.621L47.2161 67.703L46.6321 68.199C46.7562 68.582 46.8479 68.9747 46.9061 69.373L47.6521 69.559L47.6921 70.745L46.9621 70.983C46.9294 71.3847 46.8625 71.7828 46.7621 72.173L47.3781 72.627L46.9601 73.741L46.1961 73.679C46.0138 74.0375 45.8018 74.3801 45.5621 74.703L45.9621 75.361L45.1501 76.229L44.4681 75.879C44.1626 76.1421 43.8354 76.379 43.4901 76.587L43.6041 77.343L42.5221 77.833L42.0241 77.253C41.6407 77.3762 41.2481 77.4685 40.8501 77.529L40.6661 78.271L39.4781 78.311L39.2421 77.583C38.8372 77.55 38.4358 77.4831 38.0421 77.383L37.6001 77.999L36.4841 77.599L36.5441 76.837C36.1863 76.6519 35.8439 76.4386 35.5201 76.199L34.8641 76.599L33.9941 75.799L34.3421 75.113C34.0796 74.8079 33.8441 74.4807 33.6381 74.135L32.8821 74.249L32.3881 73.167L32.9721 72.671C32.8468 72.2883 32.7544 71.8955 32.6961 71.497L31.9541 71.285ZM39.9541 75.125C40.8841 75.0936 41.7839 74.787 42.5397 74.2441C43.2954 73.7012 43.8732 72.9464 44.1999 72.075C44.5265 71.2037 44.5874 70.255 44.3748 69.3491C44.1623 68.4431 43.6858 67.6206 43.0056 66.9855C42.3255 66.3504 41.4722 65.9313 40.5539 65.7813C39.6355 65.6312 38.6932 65.7569 37.8463 66.1424C36.9994 66.528 36.2858 67.156 35.7959 67.9472C35.306 68.7383 35.0618 69.657 35.0941 70.587C35.1155 71.2047 35.2584 71.8121 35.5147 72.3745C35.771 72.9369 36.1356 73.4433 36.5877 73.8648C37.0398 74.2862 37.5705 74.6144 38.1495 74.8307C38.7285 75.0469 39.3444 75.1469 39.9621 75.125H39.9541Z" fill="#F5F5F5"/>
<path d="M31.538 27.1988L30.876 26.5988L31.14 26.0768C30.9385 25.8395 30.7578 25.5852 30.6 25.3168L30.02 25.4048L29.646 24.5768L30.09 24.1968C29.9978 23.9045 29.9308 23.6047 29.89 23.3008L29.32 23.1568L29.292 22.2488L29.848 22.0688C29.8724 21.762 29.9219 21.4576 29.996 21.1588L29.526 20.8088L29.846 19.9588L30.428 20.0048C30.5684 19.7307 30.7309 19.4685 30.914 19.2208L30.6 18.7208L31.22 18.0548L31.742 18.3228C31.9762 18.1228 32.2264 17.9422 32.49 17.7828L32.41 17.1988L33.236 16.8208L33.616 17.2668C33.9093 17.1755 34.2097 17.1086 34.514 17.0668L34.656 16.4988L35.564 16.4648L35.746 17.0248C36.0524 17.0473 36.3563 17.0968 36.654 17.1728L37 16.7008L37.852 17.0168L37.8 17.5988C38.0805 17.7376 38.3482 17.9009 38.6 18.0868L39.104 17.7868L39.758 18.3988L39.49 18.9228C39.6918 19.1557 39.8725 19.406 40.03 19.6708L40.6 19.5988L40.976 20.4288L40.538 20.7988C40.6336 21.0916 40.7039 21.392 40.748 21.6968L41.32 21.8388L41.348 22.7468L40.79 22.9268C40.7671 23.2344 40.7182 23.5395 40.644 23.8388L41.116 24.1848L40.8 25.0348L40.212 24.9988C40.0716 25.2723 39.9091 25.5339 39.726 25.7808L40.028 26.2828L39.4 26.9388L38.88 26.6728C38.6457 26.8722 38.3956 27.0522 38.132 27.2108L38.218 27.7888L37.4 28.1668L37.02 27.7228C36.7264 27.8132 36.4262 27.8801 36.122 27.9228L35.98 28.4908L35.072 28.5228L34.89 27.9648C34.5836 27.9416 34.2799 27.892 33.982 27.8168L33.634 28.2868L32.782 27.9688L32.828 27.3848C32.5538 27.2457 32.2922 27.0831 32.046 26.8988L31.538 27.1988ZM36.262 23.3728C36.4366 23.1858 36.5518 22.9512 36.5931 22.6987C36.6344 22.4462 36.5999 22.1871 36.4939 21.9542C36.388 21.7213 36.2154 21.525 35.9979 21.3902C35.7805 21.2553 35.5279 21.188 35.2722 21.1966C35.0165 21.2053 34.7691 21.2896 34.5613 21.4388C34.3534 21.5881 34.1945 21.7956 34.1046 22.0351C34.0147 22.2747 33.9978 22.5355 34.056 22.7846C34.1143 23.0338 34.2451 23.26 34.432 23.4348C34.5555 23.5518 34.7009 23.6431 34.8599 23.7037C35.0188 23.7643 35.1882 23.7929 35.3582 23.7879C35.5282 23.7829 35.6956 23.7444 35.8507 23.6745C36.0058 23.6046 36.1456 23.5049 36.262 23.3808V23.3728Z" fill="#EBEBEB"/>
<path d="M49.876 70.1979L51.388 69.1539C51.5335 68.6101 51.7346 68.0826 51.988 67.5799L51.6 66.0579L53.8 63.7079L55.344 63.9919C55.8276 63.7024 56.3396 63.4631 56.872 63.2779L57.812 61.6979L61.024 61.5879L62.068 63.0999C62.6119 63.2451 63.1394 63.4462 63.642 63.6999L65.162 63.3139L67.512 65.5139L67.23 67.0539C67.5212 67.5387 67.7605 68.0529 67.944 68.5879L69.526 69.5259L69.636 72.7399L68.122 73.7839C67.9774 74.3312 67.7763 74.8621 67.522 75.3679L67.908 76.8839L65.708 79.2339L64.172 78.9519C63.6833 79.2417 63.1667 79.4816 62.63 79.6679L61.692 81.2459L58.48 81.3559L57.436 79.8459C56.8879 79.6995 56.3559 79.4985 55.848 79.2459L54.336 79.6299L51.986 77.4299L52.268 75.8879C51.9767 75.4024 51.7374 74.8875 51.554 74.3519L49.972 73.4139L49.876 70.1979ZM59.888 75.0819C60.6025 75.0573 61.2937 74.8214 61.874 74.4039C62.4544 73.9864 62.898 73.4062 63.1485 72.7366C63.3991 72.067 63.4454 71.3381 63.2816 70.6422C63.1179 69.9463 62.7514 69.3146 62.2285 68.827C61.7056 68.3394 61.0499 68.0178 60.3443 67.903C59.6386 67.7881 58.9147 67.8851 58.2643 68.1818C57.6138 68.4784 57.0659 68.9613 56.6899 69.5694C56.3139 70.1775 56.1267 70.8834 56.152 71.5979C56.1854 72.5557 56.5976 73.4611 57.2981 74.1151C57.9986 74.7691 58.9301 75.1183 59.888 75.0859V75.0819Z" fill="#EBEBEB"/>
<path d="M22.8199 32.1997C22.7832 32.1998 22.7471 32.1909 22.7147 32.1739C22.6823 32.1568 22.6545 32.132 22.6339 32.1017L22.0759 31.3017C21.8012 31.2212 21.5337 31.1181 21.2759 30.9937L20.4759 31.1937C20.4389 31.2037 20.3999 31.2041 20.3628 31.1946C20.3256 31.1851 20.2916 31.1662 20.2639 31.1397L18.9039 29.8697C18.8765 29.8448 18.8557 29.8135 18.8435 29.7786C18.8313 29.7436 18.828 29.7062 18.8339 29.6697L18.9839 28.8697C18.8405 28.6216 18.7193 28.3612 18.6219 28.0917L17.7759 27.5877C17.7434 27.5683 17.7161 27.5412 17.6966 27.5087C17.677 27.4763 17.6658 27.4395 17.6639 27.4017L17.5999 25.5077C17.598 25.4688 17.6059 25.43 17.6231 25.395C17.6402 25.36 17.666 25.33 17.6979 25.3077L18.4979 24.7497C18.5764 24.4743 18.6794 24.2066 18.8059 23.9497L18.6059 23.1497C18.5969 23.1126 18.5972 23.0739 18.6066 23.037C18.616 23 18.6343 22.9659 18.6599 22.9377L19.9319 21.5777C19.9572 21.5509 19.9886 21.5307 20.0235 21.5189C20.0583 21.507 20.0955 21.5039 20.1319 21.5097L20.9439 21.6577C21.1919 21.5153 21.4515 21.3942 21.7199 21.2957L22.2219 20.4497C22.2414 20.417 22.2689 20.3898 22.3018 20.3705C22.3346 20.3513 22.3718 20.3407 22.4099 20.3397L24.2699 20.2757C24.3088 20.2737 24.3476 20.2817 24.3825 20.2989C24.4175 20.316 24.4476 20.3417 24.4699 20.3737L25.0279 21.1737C25.3028 21.2536 25.5704 21.3567 25.8279 21.4817L26.6279 21.2817C26.6631 21.2744 26.6996 21.2755 26.7343 21.2849C26.7691 21.2943 26.8011 21.3117 26.8279 21.3357L28.1999 22.6177C28.2267 22.643 28.2468 22.6744 28.2587 22.7092C28.2706 22.7441 28.2737 22.7813 28.2679 22.8177L28.1199 23.6177C28.2622 23.8671 28.3833 24.128 28.4819 24.3977L29.3279 24.8997C29.3604 24.9189 29.3876 24.946 29.4068 24.9785C29.426 25.0111 29.4367 25.0479 29.4379 25.0857L29.5019 26.9477C29.504 26.9866 29.4961 27.0254 29.479 27.0605C29.4618 27.0955 29.436 27.1255 29.4039 27.1477L28.6039 27.7077C28.525 27.9826 28.4226 28.2503 28.2979 28.5077L28.4979 29.3077C28.5074 29.3447 28.5074 29.3835 28.498 29.4206C28.4885 29.4576 28.4699 29.4917 28.4439 29.5197L27.1739 30.8797C27.1483 30.906 27.1169 30.9259 27.0821 30.9378C27.0473 30.9496 27.0102 30.953 26.9739 30.9477L26.1739 30.7997C25.9244 30.9436 25.6627 31.0654 25.3919 31.1637L24.8899 32.0077C24.8704 32.0404 24.8429 32.0676 24.81 32.0868C24.7772 32.106 24.74 32.1167 24.7019 32.1177L22.8419 32.1817L22.8199 32.1997ZM21.2959 30.5177C21.3313 30.5178 21.3662 30.526 21.3979 30.5417C21.6773 30.6841 21.9709 30.7968 22.2739 30.8777C22.3259 30.8915 22.3713 30.9234 22.4019 30.9677L22.9359 31.7417L24.5499 31.6877L25.0279 30.8877C25.0572 30.8396 25.1025 30.8035 25.1559 30.7857C25.4507 30.6814 25.7342 30.5473 26.0019 30.3857C26.0495 30.3577 26.1056 30.3477 26.1599 30.3577L26.9259 30.4977L28.0279 29.3177L27.8279 28.5597C27.8148 28.5059 27.8212 28.4492 27.8459 28.3997C27.9877 28.1216 28.0996 27.8293 28.1799 27.5277C28.1937 27.4751 28.2265 27.4295 28.2719 27.3997L29.0459 26.8657L28.9999 25.2417L28.1999 24.7617C28.1534 24.7344 28.1185 24.691 28.1019 24.6397C27.998 24.3466 27.864 24.065 27.7019 23.7997C27.6716 23.7507 27.6602 23.6924 27.6699 23.6357L27.7999 22.8637L26.6199 21.7637L25.8599 21.9637C25.8061 21.9758 25.7497 21.9695 25.6999 21.9457C25.4257 21.8016 25.1375 21.6856 24.8399 21.5997C24.7874 21.5858 24.7414 21.554 24.7099 21.5097L24.1739 20.7397L22.5619 20.7997L22.0799 21.5997C22.0595 21.6357 22.0289 21.665 21.9919 21.6837L21.9459 21.7037C21.6556 21.8039 21.3767 21.9347 21.1139 22.0937C21.0664 22.1218 21.0102 22.1318 20.9559 22.1217L20.1839 21.9797L19.0819 23.1597L19.2819 23.9197C19.2958 23.9732 19.2901 24.03 19.2659 24.0797C19.1242 24.3566 19.0116 24.6475 18.9299 24.9477C18.9154 25.0004 18.8828 25.0464 18.8379 25.0777L18.0639 25.6117L18.1199 27.2257L18.9199 27.7057C18.9659 27.7335 19.0006 27.7767 19.0179 27.8277C19.1214 28.1228 19.2554 28.4064 19.4179 28.6737C19.4459 28.7213 19.4558 28.7774 19.4459 28.8317L19.3059 29.6017L20.4859 30.7037L21.2419 30.5037C21.26 30.5021 21.2782 30.5035 21.2959 30.5077V30.5177ZM23.5519 29.6377C22.6555 29.6219 21.8016 29.2526 21.1761 28.6103C20.5506 27.9681 20.2041 27.1047 20.212 26.2082C20.2199 25.3117 20.5816 24.4546 21.2184 23.8235C21.8551 23.1923 22.7154 22.8382 23.6119 22.8382C24.5084 22.8382 25.3687 23.1923 26.0054 23.8235C26.6422 24.4546 27.0039 25.3117 27.0118 26.2082C27.0197 27.1047 26.6732 27.9681 26.0477 28.6103C25.4222 29.2526 24.5683 29.6219 23.6719 29.6377H23.5519ZM23.5519 23.2877H23.4479C22.6663 23.3142 21.9273 23.6501 21.3933 24.2215C20.8594 24.793 20.5744 25.5531 20.6009 26.3347C20.6274 27.1163 20.9633 27.8553 21.5348 28.3892C22.1062 28.9231 22.8663 29.2082 23.6479 29.1817C24.4298 29.1687 25.1744 28.8456 25.7181 28.2836C26.2618 27.7215 26.5599 26.9665 26.5469 26.1847C26.5339 25.4028 26.2108 24.6581 25.6488 24.1145C25.0868 23.5708 24.3318 23.2727 23.5499 23.2857L23.5519 23.2877Z" fill="#EBEBEB"/>
<path d="M57.9997 93.5124C79.4162 93.5124 96.7777 92.4987 96.7777 91.2484C96.7777 89.998 79.4162 88.9844 57.9997 88.9844C36.5832 88.9844 19.2217 89.998 19.2217 91.2484C19.2217 92.4987 36.5832 93.5124 57.9997 93.5124Z" fill="#F5F5F5"/>
<path d="M91.2819 24.4902H24.7179C23.082 24.4902 21.7559 25.8164 21.7559 27.4522V70.0102C21.7559 71.6461 23.082 72.9722 24.7179 72.9722H91.2819C92.9177 72.9722 94.2439 71.6461 94.2439 70.0102V27.4522C94.2439 25.8164 92.9177 24.4902 91.2819 24.4902Z" fill="white"/>
<path d="M95.0521 57.5282H94.8521V55.7282H95.0521V57.5282ZM95.0521 54.3082H94.8521V50.5762H95.0521V54.3082Z" fill="#32C075"/>
<path d="M91.282 73.0808H24.7179C23.9041 73.0798 23.1238 72.756 22.5483 72.1805C21.9728 71.605 21.649 70.8247 21.6479 70.0108V27.4528C21.6485 26.6388 21.9721 25.8582 22.5477 25.2826C23.1233 24.707 23.9039 24.3833 24.7179 24.3828H91.282C92.096 24.3833 92.8766 24.707 93.4522 25.2826C94.0278 25.8582 94.3514 26.6388 94.352 27.4528V70.0108C94.3509 70.8247 94.0271 71.605 93.4516 72.1805C92.8761 72.756 92.0958 73.0798 91.282 73.0808ZM24.7179 24.5988C23.9612 24.5993 23.2356 24.9002 22.7005 25.4353C22.1653 25.9704 21.8645 26.696 21.8639 27.4528V70.0108C21.8645 70.7676 22.1653 71.4932 22.7005 72.0283C23.2356 72.5634 23.9612 72.8643 24.7179 72.8648H91.282C92.0387 72.8643 92.7643 72.5634 93.2995 72.0283C93.8346 71.4932 94.1354 70.7676 94.136 70.0108V27.4528C94.1354 26.696 93.8346 25.9704 93.2995 25.4353C92.7643 24.9002 92.0387 24.5993 91.282 24.5988H24.7179Z" fill="#32C075"/>
<path opacity="0.5" d="M45.96 62.948H44.96V62.732H45.96L45.978 62.948H45.96ZM43.944 62.948H42.934V62.732H43.944V62.948ZM41.926 62.948H40.926V62.732H41.926V62.948ZM39.91 62.948H38.9V62.732H39.91V62.948ZM37.892 62.948H36.892V62.732H37.892V62.948ZM35.874 62.948H34.874V62.732H35.874V62.948ZM33.858 62.948H32.858V62.732H33.858V62.948ZM31.84 62.948H30.84V62.732H31.84V62.948ZM29.824 62.948H28.824V62.732H29.824V62.948ZM27.806 62.948H27.43C27.2014 62.9486 26.976 62.8952 26.772 62.792L26.868 62.592C27.0422 62.6801 27.2348 62.726 27.43 62.726H27.8L27.806 62.948ZM46.964 62.548L46.818 62.39C47.0493 62.1772 47.1921 61.8852 47.218 61.572L47.434 61.59C47.4036 61.9583 47.2359 62.3017 46.964 62.552V62.548ZM26.056 61.998C25.9916 61.8287 25.9584 61.6491 25.958 61.468V60.96H26.174V61.468C26.1736 61.6226 26.2021 61.7758 26.258 61.92L26.056 61.998ZM47.432 60.568H47.216V59.568H47.432V60.568ZM26.174 59.96H25.958V58.96H26.174V59.96ZM47.432 58.56H47.216V57.56H47.432V58.56ZM26.174 57.944H25.958V56.944H26.174V57.944ZM47.432 56.544H47.216V55.544H47.432V56.544ZM26.174 55.926H25.958V54.926H26.174V55.926ZM47.432 54.526H47.216V53.526H47.432V54.526ZM26.174 53.91H25.958V52.9H26.174V53.91ZM47.432 52.51H47.216V51.51H47.432V52.51ZM26.174 51.892H25.958V50.892H26.174V51.892ZM47.432 50.492H47.216V49.482H47.432V50.492ZM26.174 49.874H25.958V48.874H26.174V49.874ZM47.432 48.474H47.216V47.474H47.432V48.474ZM26.174 47.858H25.958V46.858H26.174V47.858ZM47.432 46.458H47.216V45.448H47.432V46.458ZM26.174 45.84H25.958V44.84H26.174V45.84ZM47.432 44.44H47.216V43.44H47.432V44.44ZM26.174 43.824H25.958V42.824H26.174V43.824ZM47.432 42.424H47.216V41.424H47.432V42.424ZM26.174 41.798H25.958V40.798H26.174V41.798ZM47.432 40.398H47.216V39.398H47.432V40.398ZM26.174 39.798H25.958V38.788H26.174V39.798ZM47.432 38.398H47.216V37.9C47.2167 37.7432 47.1875 37.5878 47.13 37.442L47.33 37.362C47.3978 37.5332 47.4324 37.7158 47.432 37.9V38.398ZM26.18 37.798L25.964 37.78C25.9957 37.4142 26.1625 37.0733 26.432 36.824L26.58 36.984C26.3522 37.1911 26.2097 37.4755 26.18 37.782V37.798ZM46.516 36.78C46.3433 36.694 46.1529 36.6495 45.96 36.65H45.576V36.418H45.96C46.1861 36.4179 46.4092 36.4699 46.612 36.57L46.516 36.78ZM44.568 36.65H43.568V36.418H44.568V36.65ZM42.55 36.65H41.55V36.418H42.55V36.65ZM40.534 36.65H39.534V36.418H40.534V36.65ZM38.516 36.65H37.516V36.418H38.516V36.65ZM36.5 36.65H35.49V36.418H36.5V36.65ZM34.482 36.65H33.482V36.418H34.482V36.65ZM32.466 36.65H31.466V36.418H32.466V36.65ZM30.448 36.65H29.448V36.418H30.448V36.65ZM28.43 36.65H27.43V36.434H28.43V36.65Z" fill="#32C075"/>
<path d="M27.4838 27.6103C27.4838 27.7995 27.4277 27.9844 27.3225 28.1416C27.2174 28.2989 27.068 28.4214 26.8932 28.4937C26.7184 28.566 26.526 28.5848 26.3405 28.5478C26.155 28.5107 25.9847 28.4195 25.8511 28.2856C25.7175 28.1517 25.6266 27.9812 25.5899 27.7956C25.5532 27.61 25.5725 27.4177 25.6451 27.2431C25.7178 27.0684 25.8406 26.9192 25.9981 26.8144C26.1556 26.7096 26.3406 26.6539 26.5298 26.6543C26.783 26.6548 27.0256 26.7558 27.2045 26.935C27.3833 27.1142 27.4838 27.3571 27.4838 27.6103Z" fill="#32C075"/>
<path opacity="0.2" d="M33.7518 28.1688H29.0698C28.9218 28.1683 28.7799 28.1094 28.6751 28.0049C28.5702 27.9004 28.5108 27.7588 28.5098 27.6108C28.5103 27.4624 28.5695 27.3203 28.6744 27.2154C28.7793 27.1105 28.9214 27.0513 29.0698 27.0508H33.7518C33.9001 27.0513 34.0423 27.1105 34.1472 27.2154C34.2521 27.3203 34.3112 27.4624 34.3118 27.6108C34.3107 27.7588 34.2513 27.9004 34.1465 28.0049C34.0416 28.1094 33.8998 28.1683 33.7518 28.1688Z" fill="#32C075"/>
<path opacity="0.2" d="M56.3318 27.9167H53.0458C52.9646 27.9167 52.8868 27.8845 52.8294 27.8271C52.772 27.7697 52.7398 27.6919 52.7398 27.6107C52.7395 27.5704 52.7472 27.5305 52.7625 27.4933C52.7778 27.456 52.8003 27.4222 52.8288 27.3937C52.8573 27.3653 52.8911 27.3427 52.9283 27.3274C52.9656 27.3122 53.0055 27.3044 53.0458 27.3047H56.3318C56.372 27.3044 56.4119 27.3122 56.4492 27.3274C56.4864 27.3427 56.5203 27.3653 56.5487 27.3937C56.5772 27.4222 56.5997 27.456 56.615 27.4933C56.6303 27.5305 56.638 27.5704 56.6378 27.6107C56.6378 27.6919 56.6055 27.7697 56.5481 27.8271C56.4907 27.8845 56.4129 27.9167 56.3318 27.9167Z" fill="#32C075"/>
<path opacity="0.2" d="M63.7058 27.9167H60.4198C60.3388 27.9162 60.2612 27.8838 60.204 27.8265C60.1467 27.7692 60.1143 27.6917 60.1138 27.6107C60.1138 27.5295 60.146 27.4517 60.2034 27.3943C60.2608 27.3369 60.3386 27.3047 60.4198 27.3047H63.7058C63.746 27.3044 63.7859 27.3122 63.8232 27.3274C63.8604 27.3427 63.8943 27.3653 63.9227 27.3937C63.9512 27.4222 63.9737 27.456 63.989 27.4933C64.0043 27.5305 64.012 27.5704 64.0118 27.6107C64.0118 27.6919 63.9795 27.7697 63.9221 27.8271C63.8648 27.8845 63.7869 27.9167 63.7058 27.9167Z" fill="#32C075"/>
<path opacity="0.2" d="M71.0801 27.9167H67.8001C67.7191 27.9162 67.6416 27.8838 67.5843 27.8265C67.5271 27.7692 67.4947 27.6917 67.4941 27.6107C67.4941 27.5295 67.5264 27.4517 67.5838 27.3943C67.6412 27.3369 67.719 27.3047 67.8001 27.3047H71.0801C71.1205 27.3044 71.1605 27.3122 71.1979 27.3274C71.2352 27.3427 71.2692 27.3652 71.2978 27.3936C71.3264 27.4221 71.3492 27.4559 71.3647 27.4931C71.3802 27.5304 71.3881 27.5703 71.3881 27.6107C71.3876 27.692 71.3549 27.7699 71.2972 27.8272C71.2395 27.8845 71.1615 27.9167 71.0801 27.9167Z" fill="#32C075"/>
<path opacity="0.2" d="M78.4558 27.9167H75.1678C75.0868 27.9162 75.0093 27.8838 74.952 27.8265C74.8947 27.7692 74.8623 27.6917 74.8618 27.6107C74.8618 27.5295 74.8941 27.4517 74.9514 27.3943C75.0088 27.3369 75.0867 27.3047 75.1678 27.3047H78.4558C78.537 27.3047 78.6148 27.3369 78.6722 27.3943C78.7296 27.4517 78.7618 27.5295 78.7618 27.6107C78.7613 27.6917 78.7289 27.7692 78.6716 27.8265C78.6143 27.8838 78.5368 27.9162 78.4558 27.9167Z" fill="#32C075"/>
<path opacity="0.7" d="M87.8919 28.1504H82.9199C82.7767 28.1504 82.6393 28.0935 82.5381 27.9922C82.4368 27.8909 82.3799 27.7536 82.3799 27.6104C82.3796 27.5393 82.3934 27.4688 82.4204 27.4031C82.4474 27.3373 82.4872 27.2776 82.5373 27.2272C82.5875 27.1769 82.6471 27.1369 82.7128 27.1097C82.7784 27.0824 82.8488 27.0684 82.9199 27.0684H87.8919C87.963 27.0684 88.0334 27.0824 88.099 27.1097C88.1646 27.1369 88.2243 27.1769 88.2744 27.2272C88.3246 27.2776 88.3643 27.3373 88.3914 27.4031C88.4184 27.4688 88.4322 27.5393 88.4319 27.6104C88.4319 27.7536 88.375 27.8909 88.2737 27.9922C88.1725 28.0935 88.0351 28.1504 87.8919 28.1504Z" fill="#32C075"/>
<path opacity="0.7" d="M63.2037 62.1465H53.8917C53.2555 62.1465 52.7397 62.6623 52.7397 63.2985V63.5485C52.7397 64.1847 53.2555 64.7005 53.8917 64.7005H63.2037C63.84 64.7005 64.3557 64.1847 64.3557 63.5485V63.2985C64.3557 62.6623 63.84 62.1465 63.2037 62.1465Z" fill="#32C075"/>
<path opacity="0.2" d="M87.8198 50.737V41.013C87.8196 40.9728 87.8273 40.9329 87.8426 40.8956C87.8579 40.8584 87.8804 40.8245 87.9089 40.7961C87.9373 40.7676 87.9712 40.7451 88.0084 40.7298C88.0457 40.7145 88.0856 40.7068 88.1258 40.707C88.207 40.707 88.2848 40.7393 88.3422 40.7967C88.3996 40.8541 88.4318 40.9319 88.4318 41.013V50.737C88.4318 50.8182 88.3996 50.896 88.3422 50.9534C88.2848 51.0108 88.207 51.043 88.1258 51.043C88.0856 51.0433 88.0457 51.0356 88.0084 51.0203C87.9712 51.005 87.9373 50.9825 87.9089 50.954C87.8804 50.9255 87.8579 50.8917 87.8426 50.8545C87.8273 50.8172 87.8196 50.7773 87.8198 50.737Z" fill="#32C075"/>
<path opacity="0.2" d="M88.1258 53.8171C88.2948 53.8171 88.4318 53.6801 88.4318 53.5111C88.4318 53.3421 88.2948 53.2051 88.1258 53.2051C87.9568 53.2051 87.8198 53.3421 87.8198 53.5111C87.8198 53.6801 87.9568 53.8171 88.1258 53.8171Z" fill="#32C075"/>
<path opacity="0.2" d="M88.1258 58.1413C88.2948 58.1413 88.4318 58.0043 88.4318 57.8353C88.4318 57.6663 88.2948 57.5293 88.1258 57.5293C87.9568 57.5293 87.8198 57.6663 87.8198 57.8353C87.8198 58.0043 87.9568 58.1413 88.1258 58.1413Z" fill="#32C075"/>
<path opacity="0.2" d="M88.1258 62.4655C88.2948 62.4655 88.4318 62.3285 88.4318 62.1595C88.4318 61.9905 88.2948 61.8535 88.1258 61.8535C87.9568 61.8535 87.8198 61.9905 87.8198 62.1595C87.8198 62.3285 87.9568 62.4655 88.1258 62.4655Z" fill="#32C075"/>
<path opacity="0.2" d="M78.8877 36.5273H55.1957C53.8393 36.5273 52.7397 37.6265 52.7397 38.9823C52.7397 40.3382 53.8393 41.4373 55.1957 41.4373H78.8877C80.2442 41.4373 81.3437 40.3382 81.3437 38.9823C81.3437 37.6265 80.2442 36.5273 78.8877 36.5273Z" fill="#32C075"/>
<path opacity="0.2" d="M70.2001 48.5663H55.2001C54.5493 48.5647 53.9255 48.3054 53.4652 47.8452C53.005 47.385 52.7457 46.7612 52.7441 46.1103C52.7457 45.4594 53.005 44.8356 53.4652 44.3754C53.9255 43.9151 54.5493 43.6559 55.2001 43.6543H70.2001C70.8507 43.6564 71.4739 43.9159 71.9338 44.3761C72.3936 44.8363 72.6526 45.4598 72.6541 46.1103C72.6526 46.7608 72.3936 47.3843 71.9338 47.8445C71.4739 48.3047 70.8507 48.5642 70.2001 48.5663Z" fill="#32C075"/>
<path d="M74.5997 54.3082H53.3137C53.1617 54.3076 53.016 54.247 52.9085 54.1395C52.8009 54.0319 52.7403 53.8862 52.7397 53.7342C52.7403 53.5821 52.8009 53.4364 52.9085 53.3289C53.016 53.2213 53.1617 53.1607 53.3137 53.1602H74.5997C74.7518 53.1607 74.8975 53.2213 75.005 53.3289C75.1126 53.4364 75.1732 53.5821 75.1737 53.7342C75.1732 53.8862 75.1126 54.0319 75.005 54.1395C74.8975 54.247 74.7518 54.3076 74.5997 54.3082Z" fill="#EBEBEB"/>
<path d="M79.6099 54.3082H77.4319C77.2798 54.3076 77.1341 54.247 77.0266 54.1395C76.9191 54.0319 76.8584 53.8862 76.8579 53.7342C76.8584 53.5821 76.9191 53.4364 77.0266 53.3289C77.1341 53.2213 77.2798 53.1607 77.4319 53.1602H79.6099C79.762 53.1607 79.9077 53.2213 80.0152 53.3289C80.1227 53.4364 80.1834 53.5821 80.1839 53.7342C80.1834 53.8862 80.1227 54.0319 80.0152 54.1395C79.9077 54.247 79.762 54.3076 79.6099 54.3082Z" fill="#EBEBEB"/>
<path d="M62.6941 55.5371H71.8481C72.0002 55.5376 72.1459 55.5983 72.2534 55.7058C72.3609 55.8133 72.4216 55.959 72.4221 56.1111C72.4216 56.2632 72.3609 56.4089 72.2534 56.5164C72.1459 56.6239 72.0002 56.6846 71.8481 56.6851H62.6941C62.542 56.6846 62.3964 56.6239 62.2888 56.5164C62.1813 56.4089 62.1206 56.2632 62.1201 56.1111C62.1206 55.959 62.1813 55.8133 62.2888 55.7058C62.3964 55.5983 62.542 55.5376 62.6941 55.5371Z" fill="#EBEBEB"/>
<path d="M53.3137 55.5371H59.8677C60.0198 55.5376 60.1655 55.5983 60.273 55.7058C60.3806 55.8133 60.4412 55.959 60.4417 56.1111C60.4412 56.2632 60.3806 56.4089 60.273 56.5164C60.1655 56.6239 60.0198 56.6846 59.8677 56.6851H53.3137C53.1617 56.6846 53.016 56.6239 52.9085 56.5164C52.8009 56.4089 52.7403 56.2632 52.7397 56.1111C52.7403 55.959 52.8009 55.8133 52.9085 55.7058C53.016 55.5983 53.1617 55.5376 53.3137 55.5371Z" fill="#EBEBEB"/>
<path d="M66.2117 59.0601H53.3137C53.1617 59.0596 53.016 58.9989 52.9085 58.8914C52.8009 58.7839 52.7403 58.6382 52.7397 58.4861C52.7403 58.334 52.8009 58.1883 52.9085 58.0808C53.016 57.9733 53.1617 57.9126 53.3137 57.9121H66.2117C66.3638 57.9126 66.5095 57.9733 66.617 58.0808C66.7246 58.1883 66.7852 58.334 66.7857 58.4861C66.7852 58.6382 66.7246 58.7839 66.617 58.8914C66.5095 58.9989 66.3638 59.0596 66.2117 59.0601Z" fill="#EBEBEB"/>
<path d="M75.5999 59.0601H69.0359C68.8838 59.0596 68.7381 58.9989 68.6306 58.8914C68.5231 58.7839 68.4624 58.6382 68.4619 58.4861C68.4624 58.334 68.5231 58.1883 68.6306 58.0808C68.7381 57.9733 68.8838 57.9126 69.0359 57.9121H75.5999C75.752 57.9126 75.8977 57.9733 76.0052 58.0808C76.1127 58.1883 76.1734 58.334 76.1739 58.4861C76.1734 58.6382 76.1127 58.7839 76.0052 58.8914C75.8977 58.9989 75.752 59.0596 75.5999 59.0601Z" fill="#EBEBEB"/>
<path d="M47.0528 33.3781L28.8027 36.8529C28.0757 36.9913 27.5985 37.6929 27.737 38.4199L32.1571 61.6348C32.2955 62.3618 32.997 62.839 33.724 62.7005L51.9742 59.2257C52.7012 59.0873 53.1783 58.3858 53.0399 57.6588L48.6198 34.4438C48.4814 33.7168 47.7798 33.2397 47.0528 33.3781Z" fill="#32C075"/>
<g opacity="0.2">
<path d="M33.0239 61.8979C33.0072 61.8977 32.9908 61.8936 32.9759 61.8859C32.9529 61.8728 32.9359 61.8513 32.9285 61.826C32.921 61.8006 32.9237 61.7733 32.9359 61.7499L47.6599 34.2339C47.6663 34.2223 47.6748 34.2121 47.685 34.2039C47.6953 34.1956 47.707 34.1894 47.7197 34.1857C47.7323 34.182 47.7455 34.1808 47.7586 34.1822C47.7717 34.1836 47.7844 34.1876 47.7959 34.1939C47.8075 34.2002 47.8177 34.2087 47.826 34.2189C47.8342 34.2292 47.8404 34.241 47.8441 34.2536C47.8478 34.2662 47.849 34.2795 47.8476 34.2926C47.8462 34.3056 47.8422 34.3183 47.8359 34.3299L33.1119 61.8439C33.1034 61.8599 33.0908 61.8733 33.0753 61.8828C33.0598 61.8923 33.0421 61.8975 33.0239 61.8979Z" fill="white"/>
<path d="M52.2881 58.2308C52.2647 58.2304 52.242 58.222 52.2241 58.2068L28.4241 38.0268C28.414 38.0185 28.4056 38.0083 28.3995 37.9967C28.3934 37.9851 28.3897 37.9724 28.3885 37.9594C28.3874 37.9463 28.3889 37.9332 28.393 37.9207C28.397 37.9083 28.4035 37.8967 28.4121 37.8868C28.4295 37.8667 28.4541 37.8542 28.4807 37.8519C28.5072 37.8497 28.5336 37.8579 28.5541 37.8748L52.3541 58.0528C52.3738 58.0705 52.386 58.0951 52.3883 58.1215C52.3905 58.1478 52.3826 58.1741 52.3661 58.1948C52.3566 58.2063 52.3447 58.2154 52.3312 58.2216C52.3177 58.2279 52.303 58.231 52.2881 58.2308Z" fill="white"/>
</g>
<path d="M49.9541 60.8145C49.9541 60.8145 52.5541 69.8805 53.6221 74.3325C54.7341 79.0085 58.0401 86.0765 58.3161 89.1765C58.6021 89.2905 59.5281 89.1624 60.0221 88.9224C60.0221 88.9224 59.5701 79.0405 56.8821 74.5405C57.4821 63.4625 54.4821 60.8145 54.4821 60.8145H49.9541Z" fill="#32C075"/>
<path opacity="0.1" d="M53.3342 65.3691L51.8662 67.6231C52.3322 69.3231 52.8082 71.0951 53.1962 72.6231C53.6002 69.9811 53.3342 65.3691 53.3342 65.3691Z" fill="black"/>
<path d="M55.3383 53.0018C55.3803 53.1258 55.4103 53.2138 55.4403 53.3178C55.4703 53.4218 55.4963 53.5178 55.5243 53.6138C55.5783 53.8138 55.6203 54.0138 55.6623 54.2138C55.7432 54.6104 55.8033 55.011 55.8423 55.4138C55.8857 55.8216 55.9031 56.2318 55.8943 56.6418C55.8898 57.0583 55.8564 57.474 55.7943 57.8858V57.9538C55.7873 58.0001 55.7759 58.0457 55.7603 58.0898C55.669 58.3321 55.5333 58.5552 55.3603 58.7478C55.2162 58.9065 55.0538 59.0475 54.8763 59.1678C54.577 59.3633 54.2519 59.5161 53.9103 59.6218C53.6044 59.7144 53.2914 59.7813 52.9743 59.8218C52.6642 59.8642 52.3513 59.8823 52.0383 59.8758C51.9158 59.8718 51.7981 59.8266 51.7044 59.7476C51.6106 59.6686 51.5462 59.5603 51.5215 59.4402C51.4967 59.3201 51.5132 59.1951 51.5681 59.0855C51.6231 58.9759 51.7133 58.8879 51.8243 58.8358L51.8703 58.8138C52.0983 58.7098 52.3563 58.5998 52.5883 58.4858C52.8164 58.3759 53.0387 58.2544 53.2543 58.1218C53.4378 58.0093 53.607 57.875 53.7583 57.7218C53.8823 57.5938 53.9163 57.4778 53.8963 57.4698L53.8523 57.6698C53.8523 57.3378 53.8523 57.0078 53.8323 56.6698C53.8123 56.3318 53.7703 55.9978 53.7163 55.6698C53.6623 55.3418 53.6043 54.9918 53.5283 54.6578C53.4923 54.4898 53.4503 54.3218 53.4103 54.1558L53.3483 53.9118L53.2883 53.6898L53.2723 53.6318C53.2159 53.3665 53.261 53.0896 53.3987 52.8558C53.5365 52.6221 53.7569 52.4485 54.0164 52.3694C54.2759 52.2903 54.5557 52.3113 54.8004 52.4284C55.0452 52.5455 55.2371 52.7501 55.3383 53.0018Z" fill="#FF8B7B"/>
<path d="M52.7163 58.8493L51.4103 58.4773C51.2232 58.4227 51.0227 58.4384 50.8463 58.5213L50.3583 58.7433C50.3014 58.7692 50.2502 58.8063 50.2078 58.8524C50.1654 58.8984 50.1326 58.9524 50.1114 59.0113C50.0901 59.0702 50.0809 59.1327 50.0841 59.1952C50.0874 59.2577 50.1031 59.3189 50.1303 59.3753L50.3583 59.8473C50.4037 59.9425 50.48 60.0197 50.5747 60.0661C50.6695 60.1126 50.7772 60.1257 50.8803 60.1033L51.7563 59.9133C51.7563 59.9133 52.7403 59.9773 53.0883 59.3933L52.7163 58.8493Z" fill="#FF8B7B"/>
<path d="M53.8981 51.1699C53.1981 51.8959 52.8241 52.9899 53.3921 55.0799C54.1401 55.4499 55.9521 54.9699 55.9521 54.9699C55.9521 54.9699 55.9781 51.8299 53.8981 51.1699Z" fill="#32C075"/>
<path opacity="0.7" d="M53.8981 51.1699C53.1981 51.8959 52.8241 52.9899 53.3921 55.0799C54.1401 55.4499 55.9521 54.9699 55.9521 54.9699C55.9521 54.9699 55.9781 51.8299 53.8981 51.1699Z" fill="white"/>
<path d="M55.1681 52.6272C55.1594 52.6272 55.1507 52.6289 55.1427 52.6324C55.1346 52.6359 55.1274 52.641 55.1214 52.6473C55.1154 52.6537 55.1108 52.6612 55.1078 52.6695C55.1048 52.6777 55.1036 52.6865 55.1041 52.6952C55.1051 52.712 55.1125 52.7278 55.1248 52.7393C55.1371 52.7508 55.1533 52.7572 55.1701 52.7572L55.4961 52.7452C55.4781 52.7032 55.4581 52.6592 55.4381 52.6172L55.1681 52.6272Z" fill="#263238"/>
<path d="M55.0921 53.9191C55.0798 53.9071 55.0633 53.9004 55.0461 53.9004C55.029 53.9004 55.0125 53.9071 55.0001 53.9191C54.9939 53.9252 54.989 53.9325 54.9856 53.9406C54.9822 53.9487 54.9805 53.9573 54.9805 53.9661C54.9805 53.9748 54.9822 53.9835 54.9856 53.9915C54.989 53.9996 54.9939 54.0069 55.0001 54.0131L55.9401 54.8131C55.9401 54.7631 55.9401 54.7031 55.9301 54.6331L55.0921 53.9191Z" fill="#263238"/>
<path d="M53.2005 54.1513L54.2585 53.4873C54.2734 53.478 54.2839 53.4632 54.2879 53.4461C54.2918 53.4291 54.2888 53.4111 54.2795 53.3963C54.2702 53.3814 54.2554 53.3709 54.2384 53.3669C54.2213 53.363 54.2034 53.366 54.1885 53.3753L53.1765 54.0113C53.1745 54.0573 53.1845 54.1053 53.2005 54.1513Z" fill="#32C075"/>
<path d="M52.1062 48.0391C51.9742 48.9571 51.8802 50.6231 52.5302 51.1451C52.5302 51.1451 51.6723 51.1231 50.0203 52.4491C49.4203 51.7691 49.7662 51.4851 49.7662 51.4851C50.7462 51.1251 50.6862 50.3851 50.4802 49.7091L52.1062 48.0391Z" fill="#FF8B7B"/>
<path d="M49.5121 46.9178C49.4821 47.0378 49.3941 47.1178 49.3121 47.1178C49.2301 47.1178 49.1961 46.9958 49.2261 46.8758C49.2561 46.7558 49.3421 46.6758 49.4261 46.6758C49.5101 46.6758 49.5421 46.8018 49.5121 46.9178Z" fill="#263238"/>
<path d="M49.4583 46.6887L49.1963 46.5547C49.1963 46.5547 49.2843 46.8007 49.4583 46.6887Z" fill="#263238"/>
<path d="M49.4602 47.1445C49.2858 47.3998 49.0794 47.6316 48.8462 47.8345C48.8967 47.8891 48.959 47.9314 49.0283 47.9585C49.0976 47.9855 49.1721 47.9964 49.2462 47.9905L49.4602 47.1445Z" fill="#FF5652"/>
<path d="M49.4101 45.9276C49.4066 45.9194 49.4048 45.9106 49.4048 45.9016C49.4048 45.8927 49.4066 45.8838 49.4101 45.8756C49.4176 45.8582 49.4317 45.8444 49.4493 45.8373C49.4669 45.8302 49.4866 45.8303 49.5041 45.8376C49.6143 45.8747 49.7145 45.9368 49.7967 46.0191C49.8789 46.1013 49.941 46.2014 49.9781 46.3116C49.9805 46.3206 49.9809 46.3299 49.9794 46.3391C49.9779 46.3482 49.9745 46.3569 49.9694 46.3647C49.9643 46.3724 49.9576 46.379 49.9498 46.384C49.942 46.389 49.9333 46.3923 49.9241 46.3936C49.9052 46.3964 49.8859 46.3922 49.8697 46.3819C49.8536 46.3717 49.8417 46.3559 49.8361 46.3376C49.8056 46.2506 49.7555 46.1718 49.6896 46.1072C49.6237 46.0427 49.5438 45.9943 49.4561 45.9656C49.446 45.9634 49.4366 45.9587 49.4286 45.9521C49.4206 45.9455 49.4143 45.9371 49.4101 45.9276Z" fill="#263238"/>
<path d="M53.5264 47.1812C53.1064 48.5812 52.9584 49.1972 52.0664 49.8012C50.7224 50.7112 49.0844 49.9852 49.0664 48.5012C49.0664 47.1652 49.7464 45.0832 51.2784 44.7612C51.6057 44.6795 51.9489 44.6871 52.2723 44.7832C52.5956 44.8793 52.8873 45.0603 53.1169 45.3075C53.3465 45.5546 53.5056 45.8588 53.5776 46.1884C53.6496 46.518 53.632 46.8608 53.5264 47.1812Z" fill="#FF8B7B"/>
<path d="M50.2624 47.2682C49.4264 46.6682 49.8344 45.5843 50.6004 45.5503C49.6004 44.8503 50.1224 43.5843 51.3444 43.6343C52.5664 43.6843 52.7444 44.4343 52.7444 44.4343C52.7444 44.4343 54.7164 44.5343 54.9924 45.9663C55.3184 47.6543 54.2884 48.7343 53.0204 49.2343C53.8824 49.9403 51.8504 50.4343 50.8384 49.8663C49.8264 49.2983 49.4404 48.0202 50.2624 47.2682Z" fill="#263238"/>
<path d="M54.9004 45.3757C53.8264 45.1757 53.2864 46.6637 53.9864 47.5317C54.0891 47.6621 54.2104 47.7766 54.3464 47.8717C54.4483 47.9376 54.5655 47.9758 54.6866 47.9827C54.8077 47.9897 54.9285 47.965 55.0372 47.9111C55.1459 47.8573 55.2387 47.7761 55.3066 47.6756C55.3745 47.5751 55.4151 47.4586 55.4244 47.3377C55.4824 46.6237 55.4804 45.4817 54.9004 45.3757Z" fill="white"/>
<path d="M57.8182 46.1347C57.8567 46.109 57.8893 46.0753 57.9138 46.036C57.9382 45.9967 57.9541 45.9526 57.9602 45.9067C58.0062 45.4867 57.6882 45.2127 57.3062 45.1527C57.0762 44.4227 56.1062 44.4087 55.5602 44.9327C55.1122 44.7047 54.6162 45.2067 54.6762 45.7327C54.2062 45.9327 54.0762 46.7327 54.5122 47.1767C54.5883 47.2561 54.676 47.3235 54.7722 47.3767C54.7926 47.3874 54.8141 47.3961 54.8362 47.4027C54.8595 47.5668 54.9326 47.7198 55.0456 47.8411C55.1586 47.9623 55.3061 48.0459 55.4682 48.0807C55.5569 48.0993 55.6479 48.1047 55.7382 48.0967C55.8034 48.0898 55.8657 48.0656 55.9184 48.0266C55.9712 47.9875 56.0125 47.9351 56.0382 47.8747C56.3502 48.1307 56.6842 48.2987 56.9222 48.1327C57.0334 48.0586 57.1234 47.9566 57.183 47.837C57.2427 47.7174 57.27 47.5842 57.2622 47.4507C57.332 47.4865 57.4098 47.5038 57.4883 47.501C57.5667 47.4982 57.6431 47.4754 57.7102 47.4347C58.1702 47.1207 58.1302 46.5487 57.8182 46.1347Z" fill="#263238"/>
<path d="M50.7204 47.4802C50.6503 47.6022 50.5553 47.7079 50.4416 47.7906C50.3279 47.8733 50.198 47.9311 50.0604 47.9602C49.7164 48.0182 49.6064 47.6222 49.7524 47.2482C49.8844 46.9122 50.2224 46.4762 50.5524 46.5882C50.8824 46.7002 50.9204 47.1582 50.7204 47.4802Z" fill="#FF8B7B"/>
<path d="M50.2622 46.4341C50.5562 45.8721 52.1662 44.3381 53.2382 44.3941C53.458 44.455 53.6706 44.5395 53.8722 44.6461C53.8803 44.65 53.8868 44.6564 53.8907 44.6645C53.8947 44.6725 53.8958 44.6816 53.894 44.6903C53.8921 44.6991 53.8874 44.707 53.8806 44.7127C53.8737 44.7185 53.8651 44.7218 53.8562 44.7221C53.4362 44.7721 52.0722 45.0881 50.7922 47.1001C50.5709 46.9176 50.3904 46.6907 50.2622 46.4341Z" fill="#32C075"/>
<path d="M50.9041 47.5776C50.6461 48.1516 50.1281 48.4796 49.7461 48.3076C49.3641 48.1356 49.2641 47.5316 49.5221 46.9556C49.7801 46.3796 50.3001 46.0536 50.6821 46.2256C51.0641 46.3976 51.1621 47.0016 50.9041 47.5776Z" fill="white"/>
<path d="M50.5885 47.4342C50.3565 47.9522 49.9085 48.2582 49.5885 48.1142C49.2685 47.9702 49.2005 47.4342 49.4345 46.9142C49.6685 46.3942 50.1145 46.0902 50.4345 46.2322C50.7545 46.3742 50.8225 46.9142 50.5885 47.4342Z" fill="#32C075"/>
<path d="M57.4544 91.2438C58.5764 91.0758 58.5984 90.8898 59.2004 90.6778C59.7164 90.4958 59.8624 90.5238 60.2784 90.3818C60.6264 90.2658 60.5084 89.9338 60.2784 89.5818C60.173 89.3706 60.0867 89.1504 60.0204 88.9238L58.3144 89.1778C58.1484 89.6538 58.0884 90.2638 57.1144 90.6118C56.5364 90.8198 57.0004 91.3098 57.4544 91.2438Z" fill="#263238"/>
<path d="M47.0463 91.2471C48.1623 91.2471 48.3763 91.1731 49.0043 91.1511C49.5423 91.1331 49.6303 91.2471 50.1763 91.2471C50.5363 91.2471 50.5863 90.8471 50.4543 90.5351C50.3676 90.2636 50.3007 89.9862 50.2543 89.7051H48.7163C48.4383 90.1931 47.6803 90.5531 46.8343 90.6151C46.2363 90.6591 46.6003 91.2471 47.0463 91.2471Z" fill="#263238"/>
<path d="M48.3505 60.8145C48.3505 60.8145 48.1285 68.8464 48.6045 73.9484C48.5745 78.7365 48.7225 89.7044 48.7225 89.7044C48.7585 89.9484 50.0445 89.8504 50.2605 89.7044C50.2605 89.7044 52.6605 81.7165 51.5985 73.9484C54.2725 65.8465 53.6965 60.8145 53.6965 60.8145H48.3505Z" fill="#32C075"/>
<path d="M58.0924 88.5552C58.1193 88.7674 58.1306 88.9813 58.1264 89.1952C58.1256 89.2133 58.1285 89.2313 58.1349 89.2483C58.1412 89.2653 58.151 89.2807 58.1635 89.2938C58.176 89.3069 58.1911 89.3173 58.2077 89.3244C58.2244 89.3315 58.2423 89.3352 58.2604 89.3352C58.9004 89.3352 59.7824 89.0632 60.0604 88.9692C60.0861 88.9601 60.1083 88.9433 60.1241 88.9211C60.1398 88.8989 60.1483 88.8724 60.1484 88.8452V88.2452C60.1487 88.2258 60.1447 88.2067 60.1368 88.189C60.1288 88.1714 60.117 88.1557 60.1024 88.1431C60.0877 88.1305 60.0704 88.1213 60.0517 88.1161C60.0331 88.111 60.0135 88.1099 59.9944 88.1132L58.1944 88.4152C58.1632 88.4219 58.1355 88.4399 58.1167 88.4657C58.0979 88.4915 58.0893 88.5234 58.0924 88.5552Z" fill="#32C075"/>
<path opacity="0.5" d="M58.0924 88.5552C58.1193 88.7674 58.1306 88.9813 58.1264 89.1952C58.1256 89.2133 58.1285 89.2313 58.1349 89.2483C58.1412 89.2653 58.151 89.2807 58.1635 89.2938C58.176 89.3069 58.1911 89.3173 58.2077 89.3244C58.2244 89.3315 58.2423 89.3352 58.2604 89.3352C58.9004 89.3352 59.7824 89.0632 60.0604 88.9692C60.0861 88.9601 60.1083 88.9433 60.1241 88.9211C60.1398 88.8989 60.1483 88.8724 60.1484 88.8452V88.2452C60.1487 88.2258 60.1447 88.2067 60.1368 88.189C60.1288 88.1714 60.117 88.1557 60.1024 88.1431C60.0877 88.1305 60.0704 88.1213 60.0517 88.1161C60.0331 88.111 60.0135 88.1099 59.9944 88.1132L58.1944 88.4152C58.1632 88.4219 58.1355 88.4399 58.1167 88.4657C58.0979 88.4915 58.0893 88.5234 58.0924 88.5552Z" fill="white"/>
<path d="M48.5464 89.0286C48.5464 89.1966 48.5304 89.4926 48.5164 89.7106C48.5141 89.7459 48.5255 89.7808 48.5482 89.8079C48.5709 89.8351 48.6032 89.8525 48.6384 89.8566C49.2037 89.9036 49.7722 89.8976 50.3364 89.8386C50.3635 89.8357 50.389 89.8242 50.4091 89.8059C50.4293 89.7876 50.443 89.7633 50.4484 89.7366L50.5624 89.1366C50.5658 89.1169 50.565 89.0968 50.5601 89.0775C50.5551 89.0582 50.5461 89.0402 50.5336 89.0247C50.5211 89.0091 50.5054 88.9964 50.4876 88.9875C50.4698 88.9785 50.4503 88.9734 50.4304 88.9726L48.6784 88.9046C48.6615 88.9035 48.6445 88.9059 48.6285 88.9116C48.6125 88.9173 48.5979 88.9263 48.5855 88.9379C48.5731 88.9495 48.5633 88.9636 48.5565 88.9792C48.5498 88.9948 48.5464 89.0116 48.5464 89.0286Z" fill="#32C075"/>
<path opacity="0.5" d="M48.5464 89.0286C48.5464 89.1966 48.5304 89.4926 48.5164 89.7106C48.5141 89.7459 48.5255 89.7808 48.5482 89.8079C48.5709 89.8351 48.6032 89.8525 48.6384 89.8566C49.2037 89.9036 49.7722 89.8976 50.3364 89.8386C50.3635 89.8357 50.389 89.8242 50.4091 89.8059C50.4293 89.7876 50.443 89.7633 50.4484 89.7366L50.5624 89.1366C50.5658 89.1169 50.565 89.0968 50.5601 89.0775C50.5551 89.0582 50.5461 89.0402 50.5336 89.0247C50.5211 89.0091 50.5054 88.9964 50.4876 88.9875C50.4698 88.9785 50.4503 88.9734 50.4304 88.9726L48.6784 88.9046C48.6615 88.9035 48.6445 88.9059 48.6285 88.9116C48.6125 88.9173 48.5979 88.9263 48.5855 88.9379C48.5731 88.9495 48.5633 88.9636 48.5565 88.9792C48.5498 88.9948 48.5464 89.0116 48.5464 89.0286Z" fill="white"/>
<path d="M47.3342 54.0821C47.4142 55.014 47.5417 55.9412 47.7162 56.8601C47.9162 58.0601 48.0562 59.2381 48.3402 61.2221C51.0982 61.5121 54.3402 61.2781 54.4822 60.8221C54.2662 59.1041 54.2822 56.7841 54.8822 52.7941C54.9216 52.5844 54.9136 52.3685 54.8589 52.1623C54.8042 51.956 54.704 51.7646 54.5658 51.6021C54.4276 51.4395 54.2548 51.3099 54.06 51.2227C53.8653 51.1355 53.6535 51.0929 53.4402 51.0981C53.1962 51.0981 52.9382 51.1141 52.6742 51.1341C51.7459 51.1813 50.8222 51.295 49.9102 51.4741C49.6142 51.5381 49.3102 51.6141 49.0142 51.6921C48.5015 51.8355 48.0541 52.1519 47.7479 52.5874C47.4418 53.023 47.2956 53.5511 47.3342 54.0821Z" fill="#32C075"/>
<path opacity="0.8" d="M47.3342 54.0821C47.4142 55.014 47.5417 55.9412 47.7162 56.8601C47.9162 58.0601 48.0562 59.2381 48.3402 61.2221C51.0982 61.5121 54.3402 61.2781 54.4822 60.8221C54.2662 59.1041 54.2822 56.7841 54.8822 52.7941C54.9216 52.5844 54.9136 52.3685 54.8589 52.1623C54.8042 51.956 54.704 51.7646 54.5658 51.6021C54.4276 51.4395 54.2548 51.3099 54.06 51.2227C53.8653 51.1355 53.6535 51.0929 53.4402 51.0981C53.1962 51.0981 52.9382 51.1141 52.6742 51.1341C51.7459 51.1813 50.8222 51.295 49.9102 51.4741C49.6142 51.5381 49.3102 51.6141 49.0142 51.6921C48.5015 51.8355 48.0541 52.1519 47.7479 52.5874C47.4418 53.023 47.2956 53.5511 47.3342 54.0821Z" fill="white"/>
<path d="M47.8262 52.479L48.1482 52.879C48.1542 52.8865 48.1618 52.8925 48.1704 52.8967C48.1791 52.9009 48.1886 52.903 48.1982 52.903C48.2134 52.9037 48.2284 52.8987 48.2402 52.889C48.2536 52.878 48.2621 52.8623 48.264 52.845C48.2659 52.8278 48.2609 52.8106 48.2502 52.797L47.9142 52.375C47.8842 52.401 47.8542 52.443 47.8262 52.479Z" fill="#263238"/>
<path d="M49.2942 52.2421C49.3108 52.2417 49.3268 52.2351 49.339 52.2237C49.3511 52.2122 49.3587 52.1967 49.3602 52.1801L49.3962 51.5801L49.2622 51.6141L49.2282 52.1641C49.2264 52.1737 49.2268 52.1836 49.2293 52.193C49.2318 52.2025 49.2364 52.2113 49.2427 52.2187C49.249 52.2262 49.2569 52.2322 49.2658 52.2362C49.2747 52.2402 49.2844 52.2422 49.2942 52.2421Z" fill="#32C075"/>
<path d="M52.1682 52.7739C52.1806 52.7777 52.1938 52.7777 52.2062 52.7739C52.22 52.7735 52.2334 52.7687 52.2444 52.7603C52.2554 52.7518 52.2635 52.7401 52.2675 52.7268C52.2715 52.7136 52.2712 52.6994 52.2666 52.6863C52.2621 52.6732 52.2535 52.6618 52.2422 52.6539L50.5602 51.5439C50.5455 51.5345 50.5277 51.5311 50.5106 51.5345C50.4935 51.5378 50.4783 51.5476 50.4682 51.5619C50.4634 51.569 50.4602 51.5771 50.4586 51.5855C50.457 51.594 50.4572 51.6027 50.459 51.6111C50.4609 51.6195 50.4645 51.6274 50.4695 51.6345C50.4745 51.6415 50.4808 51.6474 50.4882 51.6519L52.1682 52.7739Z" fill="#32C075"/>
<path d="M49.3005 53.1451C49.2973 53.1533 49.2957 53.162 49.2959 53.1707C49.2961 53.1794 49.298 53.1881 49.3015 53.1961C49.3051 53.2041 49.3102 53.2113 49.3165 53.2173C49.3229 53.2233 49.3303 53.228 49.3385 53.2311L51.2145 53.9651H51.2385C51.2518 53.965 51.2648 53.9609 51.2758 53.9534C51.2868 53.946 51.2954 53.9354 51.3005 53.9231C51.3064 53.9069 51.3057 53.8891 51.2986 53.8734C51.2915 53.8577 51.2786 53.8454 51.2625 53.8391L49.3845 53.1031C49.3763 53.1003 49.3675 53.0992 49.3588 53.0998C49.3501 53.1004 49.3416 53.1027 49.3337 53.1066C49.3259 53.1105 49.319 53.1159 49.3133 53.1225C49.3076 53.1291 49.3032 53.1368 49.3005 53.1451Z" fill="#263238"/>
<path d="M48.2162 56.4865C48.2309 56.4956 48.2485 56.4986 48.2653 56.4949C48.2821 56.4911 48.2968 56.481 48.3062 56.4665L49.4002 54.7725C49.4093 54.7579 49.4123 54.7403 49.4085 54.7235C49.4048 54.7066 49.3946 54.692 49.3802 54.6825C49.373 54.6778 49.365 54.6745 49.3565 54.6729C49.3481 54.6714 49.3394 54.6715 49.331 54.6734C49.3226 54.6753 49.3146 54.6788 49.3076 54.6838C49.3006 54.6888 49.2947 54.6952 49.2902 54.7025L48.2002 56.4005C48.1923 56.4145 48.1896 56.4307 48.1926 56.4464C48.1955 56.4622 48.2039 56.4764 48.2162 56.4865Z" fill="#32C075"/>
<path d="M47.6801 55.0011C47.6928 55.0125 47.7091 55.0189 47.7261 55.0191C47.7392 55.0189 47.752 55.0147 47.7627 55.0072C47.7734 54.9997 47.7817 54.9891 47.7864 54.9769C47.7911 54.9647 47.7921 54.9513 47.7892 54.9385C47.7863 54.9257 47.7797 54.9141 47.7701 54.9051L47.3701 54.5371C47.3701 54.6011 47.3821 54.6691 47.3901 54.7371L47.6801 55.0011Z" fill="#32C075"/>
<path d="M53.6141 56.1266C53.5976 56.1329 53.5841 56.1455 53.5767 56.1615C53.5692 56.1776 53.5683 56.1959 53.5741 56.2126C53.579 56.2251 53.5875 56.2358 53.5986 56.2433C53.6097 56.2508 53.6228 56.2547 53.6361 56.2546C53.6433 56.2565 53.6509 56.2565 53.6581 56.2546L54.4901 55.9506C54.4901 55.9026 54.5001 55.8546 54.5041 55.8066L53.6141 56.1266Z" fill="#32C075"/>
<path d="M53.2583 54.7735C53.2703 54.7732 53.282 54.7698 53.2923 54.7635L54.7343 53.8575L54.7583 53.6875L53.2223 54.6515C53.2079 54.6609 53.1977 54.6756 53.194 54.6924C53.1902 54.7092 53.1932 54.7269 53.2023 54.7415C53.2081 54.7512 53.2163 54.7592 53.2261 54.7648C53.2359 54.7704 53.247 54.7734 53.2583 54.7735Z" fill="#32C075"/>
<path d="M52.2743 55.0242C52.2645 55.0096 52.2495 54.9994 52.2324 54.9957C52.2152 54.992 52.1973 54.995 52.1823 55.0042L50.4763 56.0762C50.4618 56.086 50.4516 56.101 50.4478 56.1182C50.4441 56.1353 50.4472 56.1532 50.4563 56.1682C50.4626 56.1773 50.471 56.1847 50.4807 56.1899C50.4905 56.1951 50.5013 56.198 50.5123 56.1982C50.5244 56.1979 50.5361 56.1945 50.5463 56.1882L52.2523 55.1162C52.2672 55.1067 52.2779 55.0918 52.282 55.0746C52.2861 55.0575 52.2833 55.0394 52.2743 55.0242Z" fill="#32C075"/>
<path d="M53.7121 52.7555H53.7361C53.7523 52.7488 53.7653 52.7362 53.7724 52.7201C53.7795 52.7041 53.7801 52.686 53.7741 52.6695L53.1741 51.1035H53.0361L53.6361 52.7035C53.6395 52.7204 53.6494 52.7352 53.6636 52.745C53.6778 52.7547 53.6952 52.7585 53.7121 52.7555Z" fill="#263238"/>
<path d="M52.0181 60.9488C52.0111 60.9439 52.0031 60.9405 51.9947 60.9388C51.9864 60.9371 51.9777 60.9371 51.9693 60.9387C51.9609 60.9404 51.953 60.9438 51.9459 60.9486C51.9388 60.9534 51.9328 60.9596 51.9281 60.9668C51.9188 60.9815 51.9154 60.9992 51.9187 61.0164C51.9221 61.0335 51.9319 61.0487 51.9461 61.0588L52.3201 61.3048L52.5361 61.2908L52.0181 60.9488Z" fill="#32C075"/>
<path d="M54.4301 60.3278L52.9741 59.7578C52.9659 59.7534 52.9568 59.7508 52.9475 59.7502C52.9383 59.7495 52.9289 59.7508 52.9202 59.7541C52.9114 59.7573 52.9035 59.7623 52.8968 59.7688C52.8902 59.7753 52.8849 59.7832 52.8815 59.7918C52.8781 59.8005 52.8766 59.8098 52.877 59.8191C52.8775 59.8284 52.8799 59.8375 52.8841 59.8458C52.8883 59.8541 52.8942 59.8615 52.9014 59.8673C52.9087 59.8732 52.9171 59.8774 52.9261 59.8798L54.4441 60.4798C54.4381 60.4258 54.4341 60.3758 54.4301 60.3278Z" fill="#32C075"/>
<path d="M48.2764 60.7617C48.2764 60.8017 48.2864 60.8417 48.2924 60.8837C48.3042 60.8791 48.3145 60.8712 48.3219 60.8609C48.3294 60.8506 48.3337 60.8384 48.3344 60.8257C48.334 60.8099 48.3279 60.7947 48.3173 60.7829C48.3066 60.7712 48.2921 60.7636 48.2764 60.7617Z" fill="#263238"/>
<path d="M48.2585 58.7482C48.2719 58.748 48.2849 58.7437 48.2958 58.7359C48.3067 58.7281 48.315 58.7172 48.3195 58.7046C48.3241 58.6921 48.3247 58.6784 48.3213 58.6655C48.3179 58.6525 48.3107 58.6409 48.3005 58.6322L47.9365 58.3262C47.9365 58.3902 47.9545 58.4542 47.9645 58.5262L48.2145 58.7382C48.2278 58.746 48.2432 58.7495 48.2585 58.7482Z" fill="#32C075"/>
<path d="M51.3302 58.0912C51.3436 58.0911 51.3565 58.087 51.3675 58.0795C51.3786 58.0721 51.3872 58.0615 51.3922 58.0492C51.3981 58.033 51.3974 58.0152 51.3903 57.9995C51.3832 57.9838 51.3703 57.9715 51.3542 57.9652L49.4782 57.2292C49.4701 57.226 49.4614 57.2244 49.4527 57.2246C49.4439 57.2248 49.4353 57.2267 49.4273 57.2302C49.4193 57.2338 49.4121 57.2389 49.4061 57.2452C49.4 57.2516 49.3953 57.2591 49.3922 57.2672C49.3891 57.2752 49.3875 57.2838 49.3877 57.2924C49.3879 57.301 49.3898 57.3095 49.3934 57.3173C49.3969 57.3252 49.402 57.3322 49.4084 57.338C49.4147 57.3439 49.4221 57.3484 49.4302 57.3512L51.3062 58.0872L51.3302 58.0912Z" fill="#263238"/>
<path d="M50.8963 58.9591L49.1883 60.0311C49.1737 60.0409 49.1635 60.0559 49.1598 60.0731C49.156 60.0902 49.1591 60.1082 49.1683 60.1231C49.1742 60.1326 49.1824 60.1403 49.1923 60.1456C49.2021 60.1508 49.2131 60.1534 49.2243 60.1531C49.2363 60.1528 49.248 60.1494 49.2583 60.1431L50.9663 59.0711C50.9808 59.0613 50.991 59.0463 50.9948 59.0291C50.9985 59.012 50.9954 58.9941 50.9863 58.9791C50.9768 58.9647 50.9621 58.9545 50.9453 58.9508C50.9285 58.9471 50.9109 58.95 50.8963 58.9591Z" fill="#32C075"/>
<path d="M52.4703 58.4487C52.4762 58.4583 52.4845 58.4662 52.4942 58.4718C52.504 58.4774 52.515 58.4804 52.5263 58.4807C52.5392 58.4805 52.5518 58.4763 52.5623 58.4687L54.2683 57.3967C54.2801 57.3863 54.2877 57.3721 54.2899 57.3565C54.2921 57.3409 54.2887 57.3251 54.2803 57.3118C54.2718 57.2986 54.2589 57.2887 54.2439 57.2841C54.2289 57.2795 54.2127 57.2805 54.1983 57.2867L52.4923 58.3587C52.4775 58.3678 52.4669 58.3824 52.4628 58.3992C52.4587 58.4161 52.4614 58.4338 52.4703 58.4487Z" fill="#263238"/>
<path d="M50.5382 61.0015C50.535 60.9933 50.5303 60.9859 50.5242 60.9796C50.5182 60.9732 50.511 60.9682 50.503 60.9647C50.495 60.9611 50.4864 60.9592 50.4777 60.959C50.469 60.9588 50.4603 60.9603 50.4522 60.9635C50.444 60.9666 50.4366 60.9713 50.4303 60.9774C50.4239 60.9834 50.4189 60.9906 50.4153 60.9986C50.4118 61.0066 50.4099 61.0152 50.4097 61.0239C50.4095 61.0326 50.411 61.0413 50.4142 61.0495L50.5242 61.3395H50.6642L50.5382 61.0015Z" fill="#263238"/>
<path d="M49.1481 54.1203C49.1321 54.2523 49.1201 54.3443 49.1041 54.4503C49.0881 54.5563 49.0681 54.6503 49.0501 54.7543C49.0121 54.9543 48.9681 55.1543 48.9201 55.3543C48.8237 55.7479 48.7055 56.1358 48.5661 56.5163C48.4284 56.9024 48.2674 57.2797 48.0841 57.6463C47.8999 58.02 47.6908 58.3808 47.4581 58.7263L47.4161 58.7903C47.3919 58.8267 47.3637 58.8602 47.3321 58.8903C47.0066 59.1903 46.6582 59.4645 46.2901 59.7103C45.9521 59.9463 45.6061 60.1643 45.2621 60.3763C44.9181 60.5883 44.5661 60.7883 44.2121 60.9763C43.8581 61.1643 43.5041 61.3563 43.1341 61.5283C43.0176 61.5794 42.8869 61.5881 42.7647 61.5528C42.6425 61.5175 42.5365 61.4405 42.4651 61.3352C42.3938 61.2298 42.3617 61.1028 42.3743 60.9763C42.3869 60.8497 42.4434 60.7315 42.5341 60.6423C42.8201 60.3723 43.1201 60.1103 43.4121 59.8423L44.2961 59.0583C44.5901 58.8023 44.8781 58.5403 45.1621 58.2863C45.3021 58.1583 45.4381 58.0283 45.5621 57.9003L45.7481 57.7143C45.8081 57.6523 45.8521 57.5983 45.9061 57.5403L45.7801 57.7043C45.9281 57.4103 46.0681 57.1043 46.1801 56.7963C46.2921 56.4883 46.4141 56.1603 46.5121 55.8323C46.6101 55.5043 46.7121 55.1743 46.7801 54.8323C46.8201 54.6663 46.8581 54.4983 46.8901 54.3303L46.9801 53.8563L47.0001 53.8003C47.0527 53.5251 47.2099 53.2809 47.4386 53.1191C47.6673 52.9572 47.9499 52.8902 48.2269 52.9321C48.504 52.974 48.754 53.1216 48.9247 53.3439C49.0953 53.5661 49.1732 53.8458 49.1421 54.1243L49.1481 54.1203Z" fill="#FF8B7B"/>
<path d="M43.0562 60.6014L41.9342 60.2694C41.7477 60.2147 41.5477 60.2282 41.3702 60.3074L40.8802 60.5254C40.8228 60.5507 40.7711 60.5872 40.7281 60.6328C40.6851 60.6784 40.6517 60.7322 40.6299 60.7909C40.608 60.8497 40.5982 60.9122 40.6011 60.9748C40.6039 61.0375 40.6192 61.0989 40.6462 61.1554L40.8702 61.6294C40.9149 61.7251 40.9906 61.8028 41.085 61.85C41.1794 61.8972 41.2869 61.9111 41.3902 61.8894L42.2662 61.7074C42.5484 61.7229 42.831 61.6835 43.0982 61.5914C43.1715 61.5632 43.2375 61.5187 43.2912 61.4613C43.3449 61.404 43.385 61.3353 43.4084 61.2603C43.4319 61.1853 43.4381 61.106 43.4266 61.0283C43.4152 60.9506 43.3863 60.8765 43.3422 60.8114C43.2738 60.7107 43.1729 60.6365 43.0562 60.6014Z" fill="#FF8B7B"/>
<path d="M48.6401 51.8477C47.6941 52.2017 46.8861 53.0277 46.4961 55.1577C47.0121 55.8137 48.8541 56.1577 48.8541 56.1577C48.8541 56.1577 50.2301 53.3377 48.6401 51.8477Z" fill="#32C075"/>
<path opacity="0.8" d="M48.6401 51.8477C47.6941 52.2017 46.8861 53.0277 46.4961 55.1577C47.0121 55.8137 48.8541 56.1577 48.8541 56.1577C48.8541 56.1577 50.2301 53.3377 48.6401 51.8477Z" fill="white"/>
<path d="M48.1485 52.8808C48.1545 52.8883 48.1621 52.8943 48.1708 52.8985C48.1794 52.9026 48.1889 52.9048 48.1985 52.9048C48.2137 52.9054 48.2287 52.9005 48.2405 52.8908C48.2539 52.8798 48.2624 52.864 48.2643 52.8468C48.2662 52.8296 48.2612 52.8124 48.2505 52.7988L47.8505 52.3008C47.8165 52.3288 47.7825 52.3568 47.7505 52.3868L48.1485 52.8808Z" fill="#263238"/>
<path d="M49.3005 53.1456C49.2973 53.1537 49.2957 53.1624 49.2959 53.1711C49.2961 53.1799 49.298 53.1885 49.3015 53.1965C49.3051 53.2045 49.3102 53.2117 49.3165 53.2178C49.3229 53.2238 49.3303 53.2285 49.3385 53.2316H49.3605C49.3605 53.1876 49.3445 53.1436 49.3345 53.1016C49.3257 53.1056 49.318 53.1117 49.3121 53.1194C49.3062 53.127 49.3022 53.136 49.3005 53.1456Z" fill="#263238"/>
<path d="M48.5481 56.0937L49.2541 54.9997C49.2801 54.8957 49.3021 54.7897 49.3221 54.6797C49.3091 54.6839 49.2978 54.6924 49.2901 54.7037L48.4121 56.0617L48.5481 56.0937Z" fill="#32C075"/>
<path d="M47.6804 55.002C47.693 55.0133 47.7094 55.0197 47.7264 55.02C47.7395 55.0197 47.7522 55.0155 47.763 55.008C47.7737 55.0005 47.782 54.99 47.7867 54.9777C47.7914 54.9655 47.7924 54.9521 47.7895 54.9394C47.7866 54.9266 47.7799 54.9149 47.7704 54.906L46.8004 54.002C46.7844 54.046 46.7684 54.092 46.7544 54.138L47.6804 55.002Z" fill="#32C075"/>
<path d="M74.7999 73.5644C74.5219 72.4804 74.8579 72.0684 75.2519 71.6364C75.6459 71.2044 75.6019 70.4824 75.6019 70.4824C75.98 71.3155 76.1292 72.2345 76.0339 73.1444C75.8559 74.5884 74.9999 74.3564 74.7999 73.5644Z" fill="#263238"/>
<path d="M76.518 82.3032C76.104 81.6092 74.34 80.1452 73.002 80.7212C74.072 81.1652 75.2519 83.8712 76.8359 83.7572L76.518 82.3032Z" fill="#263238"/>
<path d="M77.7622 88.3116C77.7207 88.3095 77.6809 88.2945 77.6482 88.2687C77.6156 88.2428 77.5918 88.2075 77.5802 88.1676C77.3222 87.1096 75.0363 77.6296 74.1403 70.8996C74.1364 70.8505 74.1508 70.8017 74.1807 70.7626C74.2106 70.7235 74.2539 70.6968 74.3023 70.6876C74.3269 70.6839 74.3519 70.6852 74.376 70.6914C74.4001 70.6977 74.4227 70.7087 74.4425 70.7238C74.4623 70.7389 74.4788 70.7578 74.4911 70.7794C74.5034 70.801 74.5113 70.8249 74.5143 70.8496C75.4063 77.5596 77.6883 87.0236 77.9463 88.0796C77.9553 88.1279 77.9462 88.1778 77.9208 88.2199C77.8953 88.262 77.8553 88.2932 77.8083 88.3076L77.7622 88.3116Z" fill="#32C075"/>
<path d="M74.5998 71.3075C74.6238 70.5075 74.2538 70.0255 73.3238 69.9395C72.3938 69.8535 72.0998 69.4655 71.9238 69.1035C72.2378 70.9315 74.4298 71.3895 74.6418 72.2915C74.5998 71.6155 74.5998 71.3075 74.5998 71.3075Z" fill="#32C075"/>
<path d="M75.0218 74.3237C74.9458 73.4917 74.2738 73.3777 73.5078 73.2777C72.7418 73.1777 72.4898 72.6777 72.4898 72.6777C72.3977 73.0194 72.4007 73.3797 72.4983 73.7198C72.5959 74.0599 72.7845 74.3669 73.0438 74.6077C73.9458 75.4717 75.0778 74.9317 75.0218 74.3237Z" fill="#32C075"/>
<path d="M76.2939 81.6702C76.1619 80.7402 76.7999 80.3562 76.6939 78.9902C78.5279 82.1122 76.5019 83.1282 76.2939 81.6702Z" fill="#32C075"/>
<path d="M75.4403 77.8787C74.9243 77.0927 74.1923 77.2267 73.3643 76.1367C74.0563 79.6867 76.2483 79.1087 75.4403 77.8787Z" fill="#32C075"/>
<path d="M79.2898 78.0646C79.3358 76.8086 78.1718 76.1466 77.2798 74.8926C77.8218 77.3886 79.2178 80.0326 79.2898 78.0646Z" fill="#263238"/>
<path d="M78.7178 87.1816H78.6998C78.6418 87.1765 78.5881 87.1486 78.5506 87.104C78.5131 87.0593 78.4948 87.0017 78.4998 86.9436C78.6998 84.3056 79.4438 72.9436 79.2378 65.5076C79.237 65.4787 79.2419 65.4499 79.2523 65.4229C79.2626 65.3959 79.2781 65.3712 79.298 65.3502C79.3179 65.3293 79.3417 65.3124 79.3681 65.3006C79.3945 65.2888 79.4229 65.2824 79.4518 65.2816C79.4809 65.28 79.5101 65.2843 79.5374 65.2943C79.5648 65.3043 79.5898 65.3198 79.611 65.3399C79.6321 65.3599 79.649 65.384 79.6605 65.4108C79.672 65.4376 79.6779 65.4664 79.6778 65.4956C79.8778 72.9476 79.1478 84.3356 78.9398 86.9776C78.9353 87.0333 78.9099 87.0852 78.8688 87.1231C78.8276 87.1609 78.7737 87.1818 78.7178 87.1816Z" fill="#32C075"/>
<path d="M79.2879 66.1058C79.0079 64.5838 79.5779 63.5358 81.3439 63.1058C83.1099 62.6758 83.5619 61.8378 83.7899 61.0898C83.7219 64.6898 79.6379 66.2198 79.4919 68.0198C79.3779 66.6978 79.2879 66.1058 79.2879 66.1058Z" fill="#32C075"/>
<path d="M79.4242 69.1805C79.7062 67.3565 78.3302 66.7525 76.7462 66.1265C75.1622 65.5005 74.8822 64.3145 74.8822 64.3145C74.5035 64.9969 74.3176 65.7695 74.3443 66.5495C74.3711 67.3295 74.6096 68.0876 75.0342 68.7425C76.5062 71.0585 79.2182 70.5105 79.4242 69.1805Z" fill="#32C075"/>
<path d="M79.416 73.8366C79.718 72.3906 80.922 72.3266 82.286 72.3066C83.65 72.2866 84.196 71.4746 84.196 71.4746C84.2869 72.0932 84.2079 72.7249 83.9672 73.302C83.7266 73.8791 83.3335 74.3799 82.83 74.7506C81.072 76.0706 79.2 74.8926 79.416 73.8366Z" fill="#32C075"/>
<path d="M79.1601 80.8624C79.4921 79.9724 81.2181 77.9064 82.8861 78.2864C81.7441 79.0264 80.9541 82.4024 79.1001 82.6084C79.1521 81.1164 79.1601 80.8624 79.1601 80.8624Z" fill="#32C075"/>
<path d="M80.7559 85.2305H75.1999C75.1273 85.2303 75.0557 85.2472 74.9909 85.2799C74.9261 85.3126 74.8699 85.36 74.8268 85.4185C74.7838 85.4769 74.7551 85.5446 74.7432 85.6162C74.7312 85.6878 74.7362 85.7612 74.7579 85.8305L76.2639 90.9205C76.2917 91.0162 76.3498 91.1004 76.4295 91.1603C76.5092 91.2202 76.6062 91.2525 76.7059 91.2525H79.2599C79.3596 91.2525 79.4566 91.2202 79.5363 91.1603C79.6161 91.1004 79.6742 91.0162 79.7019 90.9205L81.1999 85.8245C81.2205 85.7554 81.2246 85.6825 81.212 85.6115C81.1994 85.5406 81.1704 85.4736 81.1272 85.4159C81.0841 85.3582 81.028 85.3113 80.9635 85.2791C80.8991 85.2469 80.828 85.2303 80.7559 85.2305Z" fill="#32C075"/>
<path opacity="0.2" d="M80.7559 85.2305H75.1999C75.1273 85.2303 75.0557 85.2472 74.9909 85.2799C74.9261 85.3126 74.8699 85.36 74.8268 85.4185C74.7838 85.4769 74.7551 85.5446 74.7432 85.6162C74.7312 85.6878 74.7362 85.7612 74.7579 85.8305L76.2639 90.9205C76.2917 91.0162 76.3498 91.1004 76.4295 91.1603C76.5092 91.2202 76.6062 91.2525 76.7059 91.2525H79.2599C79.3596 91.2525 79.4566 91.2202 79.5363 91.1603C79.6161 91.1004 79.6742 91.0162 79.7019 90.9205L81.1999 85.8245C81.2205 85.7554 81.2246 85.6825 81.212 85.6115C81.1994 85.5406 81.1704 85.4736 81.1272 85.4159C81.0841 85.3582 81.028 85.3113 80.9635 85.2791C80.8991 85.2469 80.828 85.2303 80.7559 85.2305Z" fill="#32C075"/>
<path opacity="0.7" d="M80.7559 85.2305H75.1999C75.1273 85.2303 75.0557 85.2472 74.9909 85.2799C74.9261 85.3126 74.8699 85.36 74.8268 85.4185C74.7838 85.4769 74.7551 85.5446 74.7432 85.6162C74.7312 85.6878 74.7362 85.7612 74.7579 85.8305L76.2639 90.9205C76.2917 91.0162 76.3498 91.1004 76.4295 91.1603C76.5092 91.2202 76.6062 91.2525 76.7059 91.2525H79.2599C79.3596 91.2525 79.4566 91.2202 79.5363 91.1603C79.6161 91.1004 79.6742 91.0162 79.7019 90.9205L81.1999 85.8245C81.2205 85.7554 81.2246 85.6825 81.212 85.6115C81.1994 85.5406 81.1704 85.4736 81.1272 85.4159C81.0841 85.3582 81.028 85.3113 80.9635 85.2791C80.8991 85.2469 80.828 85.2303 80.7559 85.2305Z" fill="white"/>
</g>
<defs>
<clipPath id="clip0_128_3631">
<rect width="100" height="100" fill="white" transform="translate(8 8)"/>
</clipPath>
</defs>
</svg>
