<svg width="140" height="140" viewBox="0 0 140 140" fill="none" xmlns="http://www.w3.org/2000/svg">
<rect width="140" height="140" rx="70" fill="white"/>
<path d="M30 38.8889C30 33.98 33.98 30 38.8889 30H101.111C106.02 30 110 33.98 110 38.8889V101.111C110 106.02 106.02 110 101.111 110H38.8889C33.98 110 30 106.02 30 101.111V38.8889Z" fill="#FF5722"/>
<path d="M36.6665 36.6665V103.333H103.333V36.6665H36.6665ZM69.3132 85.5554L67.6198 79.0887H58.9176L57.2265 85.5554H50.4776L60.3509 53.9576H66.1887L76.1287 85.5554H69.3132ZM85.2221 85.5554H79.0598V62.0754H85.2221V85.5554ZM84.5598 58.3421C83.9576 58.9643 83.1465 59.2754 82.1176 59.2754C81.0887 59.2754 80.2776 58.9643 79.6754 58.3421C79.0732 57.7198 78.7754 56.9376 78.7754 55.9976C78.7754 55.0421 79.0798 54.2621 79.6865 53.6532C80.2932 53.0443 81.1065 52.7421 82.1176 52.7421C83.1287 52.7421 83.9398 53.0465 84.5487 53.6532C85.1576 54.2598 85.4598 55.0421 85.4598 55.9976C85.4598 56.9376 85.1598 57.7198 84.5598 58.3421Z" fill="#1C0802"/>
<path d="M60.3091 73.771H66.2113L63.2602 62.5088L60.3091 73.771Z" fill="#1C0802"/>
</svg>
