<svg width="140" height="140" viewBox="0 0 140 140" fill="none" xmlns="http://www.w3.org/2000/svg">
<circle cx="70" cy="70" r="70" fill="white"/>
<path d="M96.1818 102H43.8182C42.2751 102 40.7952 101.387 39.7041 100.296C38.613 99.2048 38 97.7249 38 96.1818V43.8182C38 42.2751 38.613 40.7952 39.7041 39.7041C40.7952 38.613 42.2751 38 43.8182 38H96.1818C97.7249 38 99.2048 38.613 100.296 39.7041C101.387 40.7952 102 42.2751 102 43.8182V96.1818C102 97.7249 101.387 99.2048 100.296 100.296C99.2048 101.387 97.7249 102 96.1818 102Z" fill="#50205D"/>
<path opacity="0.2" d="M96.1818 38H43.8182C42.2751 38 40.7952 38.613 39.7041 39.7041C38.613 40.7952 38 42.2751 38 43.8182V44.5455C38 43.0024 38.613 41.5225 39.7041 40.4314C40.7952 39.3403 42.2751 38.7273 43.8182 38.7273H96.1818C97.7249 38.7273 99.2048 39.3403 100.296 40.4314C101.387 41.5225 102 43.0024 102 44.5455V43.8182C102 42.2751 101.387 40.7952 100.296 39.7041C99.2048 38.613 97.7249 38 96.1818 38Z" fill="white"/>
<path opacity="0.1" d="M96.1818 101.272H43.8182C42.2751 101.272 40.7952 100.659 39.7041 99.5682C38.613 98.4771 38 96.9972 38 95.4541V96.1814C38 97.7245 38.613 99.2043 39.7041 100.295C40.7952 101.387 42.2751 102 43.8182 102H96.1818C97.7249 102 99.2048 101.387 100.296 100.295C101.387 99.2043 102 97.7245 102 96.1814V95.4541C102 96.9972 101.387 98.4771 100.296 99.5682C99.2048 100.659 97.7249 101.272 96.1818 101.272Z" fill="#010101"/>
<path d="M78.7273 60.5457C78.7273 57.7384 76.4437 55.4548 73.6364 55.4548H61.2728V65.6366H73.6364C76.4437 65.6366 78.7273 63.353 78.7273 60.5457ZM81.4531 52.5166C82.4293 53.4661 83.2058 54.6012 83.7368 55.8552C84.2679 57.1091 84.5428 58.4566 84.5455 59.8184C84.5454 61.4169 84.1687 62.9929 83.446 64.4187C82.7232 65.8445 81.6747 67.0799 80.3855 68.025C82.4815 68.9219 84.2684 70.4139 85.5249 72.3162C86.7814 74.2186 87.4523 76.4477 87.4546 78.7275C87.4546 85.145 82.2357 90.3639 75.8182 90.3639H55.4546L67.091 102H96.1819C97.7249 102 99.2048 101.387 100.296 100.296C101.387 99.205 102 97.7251 102 96.1821V72.9093L81.4531 52.5166ZM81.6364 78.0002C81.6364 74.393 78.6982 71.4548 75.091 71.4548H61.2728V84.5457H75.091C78.6982 84.5457 81.6364 81.6075 81.6364 78.0002Z" fill="url(#paint0_linear_1607_2043)"/>
<path d="M80.3855 68.0251C82.1183 66.7572 83.4057 64.9737 84.0634 62.9298C84.7211 60.8859 84.7154 58.6863 84.0472 56.6458C83.3789 54.6053 82.0824 52.8284 80.3431 51.5695C78.6038 50.3105 76.5108 49.634 74.3637 49.6367H55.4546V90.364H75.8182C82.2357 90.364 87.4546 85.1451 87.4546 78.7276C87.4523 76.4478 86.7814 74.2187 85.5249 72.3163C84.2684 70.414 82.4815 68.922 80.3855 68.0251ZM73.6364 65.6367H61.2728V55.4549H73.6364C76.4437 55.4549 78.7273 57.7385 78.7273 60.5458C78.7273 63.3531 76.4437 65.6367 73.6364 65.6367ZM75.091 84.5458H61.2728V71.4549H75.091C78.6982 71.4549 81.6364 74.3931 81.6364 78.0004C81.6364 81.6076 78.6982 84.5458 75.091 84.5458Z" fill="white"/>
<path d="M96.1818 102H43.8182C42.2751 102 40.7952 101.387 39.7041 100.296C38.613 99.2048 38 97.7249 38 96.1818V43.8182C38 42.2751 38.613 40.7952 39.7041 39.7041C40.7952 38.613 42.2751 38 43.8182 38H96.1818C97.7249 38 99.2048 38.613 100.296 39.7041C101.387 40.7952 102 42.2751 102 43.8182V96.1818C102 97.7249 101.387 99.2048 100.296 100.296C99.2048 101.387 97.7249 102 96.1818 102Z" fill="url(#paint1_linear_1607_2043)"/>
<defs>
<linearGradient id="paint0_linear_1607_2043" x1="56.9091" y1="59.8184" x2="98.8408" y2="101.75" gradientUnits="userSpaceOnUse">
<stop stop-color="#010101" stop-opacity="0.1"/>
<stop offset="1" stop-color="#010101" stop-opacity="0"/>
</linearGradient>
<linearGradient id="paint1_linear_1607_2043" x1="33.1913" y1="52.8364" x2="106.809" y2="87.1636" gradientUnits="userSpaceOnUse">
<stop stop-color="white" stop-opacity="0.2"/>
<stop offset="1" stop-color="white" stop-opacity="0"/>
</linearGradient>
</defs>
</svg>
