<svg width="140" height="140" viewBox="0 0 140 140" fill="none" xmlns="http://www.w3.org/2000/svg">
<rect width="140" height="140" rx="70" fill="white"/>
<path fill-rule="evenodd" clip-rule="evenodd" d="M109 70C109 92.09 91.09 110 69 110C46.91 110 29 92.09 29 70C29 47.91 46.91 30 69 30C91.09 30 109 47.91 109 70Z" fill="url(#paint0_linear_337_136)"/>
<path fill-rule="evenodd" clip-rule="evenodd" d="M79.3881 75.9236C77.7181 77.7536 75.3741 78.6796 74.2761 78.6796C73.0061 78.6796 72.3121 77.9016 72.1701 76.7316C72.1221 76.2836 72.1381 75.8316 72.2181 75.3856C72.6381 72.7656 73.6021 71.1376 73.5421 70.6416C73.5241 70.4996 73.4441 70.4296 73.3401 70.4296C72.5281 70.4296 69.6801 73.3696 69.2481 75.3156L68.9121 76.8736C68.6921 77.9716 67.6161 78.6776 66.8761 78.6776C66.5221 78.6776 66.2541 78.5016 66.2081 78.1116C66.1941 77.9336 66.2081 77.7556 66.2501 77.5796L66.4081 76.7596C64.8721 77.9076 63.2161 78.6836 62.4401 78.6836C61.3801 78.6836 60.7861 78.1176 60.5741 77.2656C59.8741 78.1876 58.9481 78.6836 57.9621 78.6836C56.7021 78.6836 55.4881 77.8496 54.9061 76.6156C54.0761 77.5476 53.0921 78.4596 51.9141 79.2136C50.1761 80.3136 48.2421 81.1976 45.9501 81.1976C43.8341 81.1976 42.0381 80.0656 41.0441 79.1456C39.5701 77.7656 38.7921 75.7096 38.5621 73.8336C37.8381 67.9196 41.4381 60.1656 47.0161 56.7676C48.2961 55.9876 49.7301 55.5996 51.0321 55.5996C53.7121 55.5996 55.7121 57.5156 55.9921 59.8076C56.2441 61.8716 55.4201 63.6556 53.1301 64.8096C51.9621 65.4016 51.3821 65.3736 51.2001 65.0916C51.0781 64.9036 51.1481 64.5836 51.3821 64.3896C53.5341 62.5916 53.5741 61.1156 53.3221 59.0356C53.1581 57.6976 52.2781 56.8396 51.2901 56.8396C47.0601 56.8396 40.9921 66.3296 41.8361 73.2336C42.1661 75.9256 43.8161 79.0416 47.2001 79.0416C48.3281 79.0416 49.5241 78.7236 50.5881 78.1916C52.4441 77.2436 53.4941 76.4916 54.5481 75.2636C54.2881 72.0716 57.0281 68.0636 61.1041 68.0636C62.8681 68.0636 64.3281 68.7716 64.5001 70.1876C64.7161 71.9576 63.2081 72.3116 62.6441 72.3116C62.1501 72.3116 61.3581 72.1696 61.3021 71.7096C61.2421 71.2136 62.3701 71.4976 62.2301 70.3636C62.1441 69.6556 61.4081 69.4076 60.7041 69.4076C58.1661 69.4076 56.7641 72.9476 57.0341 75.1456C57.1561 76.1376 57.6641 77.1276 58.5821 77.1276C59.3221 77.1276 60.3901 76.0656 60.8001 74.5076C61.0601 73.4456 62.0641 72.7376 62.8061 72.7376C63.1941 72.7376 63.4621 72.9136 63.5101 73.3036C63.5261 73.4456 63.5141 73.6236 63.4681 73.8356C63.3841 74.2956 63.0301 75.8276 63.0481 76.1436C63.0601 76.4196 63.2201 76.7996 63.7001 76.7996C64.0801 76.7996 65.4801 76.0436 66.7761 74.8836C67.1821 72.7816 67.6841 70.1816 67.7241 69.9756C67.8821 69.1236 68.1881 68.2456 69.9161 68.2456C70.2701 68.2456 70.5381 68.4216 70.5901 68.8476C70.6061 68.9876 70.5941 69.1676 70.5481 69.3796L70.0641 71.5656C71.5801 69.5456 73.9361 68.0616 75.3481 68.0616C75.9481 68.0616 76.4101 68.3776 76.4881 69.0176C76.5321 69.3736 76.4281 69.9736 76.1941 70.6456C75.6921 72.0256 75.1281 74.0996 74.7541 75.8856C74.6741 76.2656 74.8061 76.8376 75.5001 76.8376C76.0541 76.8376 77.8321 76.1596 79.2701 74.2616C79.2601 73.9936 79.2561 73.7216 79.2561 73.4456C79.2561 71.9576 79.3621 70.7536 79.6441 69.8716C79.9261 68.9496 81.0901 68.0676 81.8641 68.0676C82.2521 68.0676 82.5341 68.2796 82.5341 68.7036C82.5341 68.8456 82.4981 69.0236 82.4281 69.1996C81.9001 70.7576 81.6181 72.2116 81.6181 73.6616C81.6181 74.4756 81.7941 75.7856 81.9721 76.4576C82.0081 76.5996 82.0401 76.7416 82.1821 76.7416C82.4281 76.7416 84.0861 75.1136 85.2841 73.1296C84.2241 72.4556 83.6261 71.2176 83.6261 69.6936C83.6261 67.1456 85.1421 65.8336 86.6221 65.8336C87.7861 65.8336 88.8421 66.6836 88.8421 68.3816C88.8421 69.4456 88.4181 70.6496 87.8221 71.8176C87.8221 71.8176 88.0681 71.8536 88.1741 71.8536C89.0901 71.8536 89.7961 71.4276 90.1861 70.9676C90.3621 70.7676 90.5261 70.6116 90.6821 70.5196C91.8621 69.0936 93.5921 68.0636 95.6221 68.0636C97.3501 68.0636 98.8421 68.7376 99.0141 70.1536C99.2341 71.9576 97.6921 72.3136 97.1621 72.3136C96.6341 72.3136 95.8401 72.1716 95.7841 71.7116C95.7281 71.2516 96.8861 71.4996 96.7521 70.4036C96.6661 69.6956 95.9261 69.4116 95.2201 69.4116C92.8561 69.4116 91.2321 72.5636 91.5441 75.1116C91.6681 76.1396 92.1421 77.1316 93.0601 77.1316C93.8001 77.1316 94.9061 76.0676 95.3141 74.5116C95.5761 73.4836 96.5781 72.7416 97.3181 72.7416C97.6701 72.7416 97.9741 72.9176 98.0261 73.3436C98.0521 73.5556 97.9661 74.0176 97.5721 75.6796C97.4101 76.3876 97.3781 76.9896 97.4401 77.4856C97.5661 78.5136 98.0361 79.1856 98.4721 79.5756C98.6301 79.7156 98.7241 79.8916 98.7361 80.0016C98.7701 80.2856 98.5541 80.5336 98.2021 80.5336C98.0961 80.5336 97.9561 80.5336 97.8401 80.4636C96.0241 79.7196 95.2701 78.4816 95.0581 77.3116C94.3581 78.1956 93.4301 78.6916 92.4781 78.6916C90.8561 78.6916 89.2721 77.2736 89.0481 75.4336C88.9561 74.6776 89.0461 73.8636 89.2941 73.0656C88.6361 73.4716 87.9281 73.6976 87.2921 73.6976C87.0801 73.6976 86.9041 73.6976 86.6941 73.6616C85.1081 75.9616 83.4501 77.5556 82.1801 78.2656C81.6521 78.5496 81.1601 78.6916 80.8061 78.6916C80.5221 78.6916 80.2061 78.6216 80.0661 78.3736C79.7341 77.8196 79.5161 76.9476 79.3881 75.9236ZM85.1341 68.3816C85.1341 69.3736 85.6261 70.4016 86.2621 71.0736C86.5101 70.3996 86.6501 69.7276 86.6501 69.0536C86.6501 67.7776 86.1561 67.2116 85.7681 67.2116C85.3101 67.2116 85.1341 67.8516 85.1341 68.3816Z" fill="white"/>
<defs>
<linearGradient id="paint0_linear_337_136" x1="97.526" y1="101.46" x2="41.3" y2="39.45" gradientUnits="userSpaceOnUse">
<stop stop-color="#823AF3"/>
<stop offset="0.36" stop-color="#4B66E1"/>
<stop offset="0.906" stop-color="#01F1C4"/>
</linearGradient>
</defs>
</svg>
