<svg width="140" height="140" viewBox="0 0 140 140" fill="none" xmlns="http://www.w3.org/2000/svg">
<rect width="140" height="140" rx="70" fill="white"/>
<path d="M105.579 30H34L40.3158 101.579L69.7895 110L99.2632 101.579L105.579 30Z" fill="#0277BD"/>
<path d="M69.7891 36.3159V103.474L93.368 96.737L98.6312 36.3159H69.7891Z" fill="#039BE5"/>
<path d="M88.947 46.8423H69.7891V55.2633H80.1049L79.4733 63.6844H69.7891V72.1054H79.0522L78.4206 81.5791L69.7891 84.5265V93.3686L86.4206 87.8949L87.8943 63.6844L88.947 46.8423Z" fill="white"/>
<path d="M69.7893 46.8423V55.2633H51.0525L50.4209 46.8423H69.7893ZM60.1051 63.6844L60.5262 72.1054H69.7893V63.6844H60.1051ZM60.9472 76.316H52.5262L53.1577 87.8949L69.7893 93.3686V84.5265L61.1577 81.5791L60.9472 76.316Z" fill="#EEEEEE"/>
</svg>
