<svg width="140" height="140" viewBox="0 0 140 140" fill="none" xmlns="http://www.w3.org/2000/svg">
<rect width="140" height="140" rx="70" fill="white"/>
<path d="M74.1665 55.4167H57.4998C49.4457 55.4167 42.9165 48.8875 42.9165 40.8333C42.9165 32.7792 49.4457 26.25 57.4998 26.25H74.1665V55.4167Z" fill="url(#paint0_linear_336_2)"/>
<path d="M72.0832 84.5832H57.4998C49.4457 84.5832 42.9165 78.054 42.9165 69.9998C42.9165 61.9457 49.4457 55.4165 57.4998 55.4165H72.0832V84.5832Z" fill="url(#paint1_linear_336_2)"/>
<path d="M57.4998 113.75C49.4457 113.75 42.9165 107.221 42.9165 99.1668C42.9165 91.1127 49.4457 84.5835 57.4998 84.5835H72.0832V99.1668C72.0832 107.221 65.554 113.75 57.4998 113.75Z" fill="url(#paint2_linear_336_2)"/>
<path d="M86.6668 55.4167H72.0835V26.25H86.6668C94.721 26.25 101.25 32.7792 101.25 40.8333C101.25 48.8875 94.721 55.4167 86.6668 55.4167Z" fill="url(#paint3_linear_336_2)"/>
<path d="M86.6668 84.5832C94.721 84.5832 101.25 78.054 101.25 69.9998C101.25 61.9457 94.721 55.4165 86.6668 55.4165C78.6127 55.4165 72.0835 61.9457 72.0835 69.9998C72.0835 78.054 78.6127 84.5832 86.6668 84.5832Z" fill="url(#paint4_linear_336_2)"/>
<defs>
<linearGradient id="paint0_linear_336_2" x1="53.9769" y1="22.2938" x2="67.9644" y2="60.7208" gradientUnits="userSpaceOnUse">
<stop stop-color="#F44F5A"/>
<stop offset="0.443" stop-color="#EE3D4A"/>
<stop offset="1" stop-color="#E52030"/>
</linearGradient>
<linearGradient id="paint1_linear_336_2" x1="52.5832" y1="50.4915" x2="66.4873" y2="88.6894" gradientUnits="userSpaceOnUse">
<stop stop-color="#AE4CD5"/>
<stop offset="1" stop-color="#9331BF"/>
</linearGradient>
<linearGradient id="paint2_linear_336_2" x1="50.854" y1="74.9106" x2="65.4603" y2="115.036" gradientUnits="userSpaceOnUse">
<stop stop-color="#33C481"/>
<stop offset="1" stop-color="#21A366"/>
</linearGradient>
<linearGradient id="paint3_linear_336_2" x1="77.2877" y1="21.0667" x2="91.0814" y2="58.9625" gradientUnits="userSpaceOnUse">
<stop stop-color="#F09CA2"/>
<stop offset="1" stop-color="#EB6773"/>
</linearGradient>
<linearGradient id="paint4_linear_336_2" x1="79.821" y1="51.1915" x2="92.6189" y2="86.354" gradientUnits="userSpaceOnUse">
<stop stop-color="#32BDEF"/>
<stop offset="1" stop-color="#1EA2E4"/>
</linearGradient>
</defs>
</svg>
