<svg width="140" height="140" viewBox="0 0 140 140" fill="none" xmlns="http://www.w3.org/2000/svg">
<circle cx="70" cy="70" r="70" fill="white"/>
<path d="M73.4821 38C71.9098 38 70.5624 38.5127 69.4447 39.5401C68.3317 40.5655 67.7776 41.8046 67.7776 43.2511C67.7776 44.6509 68.3365 45.8655 69.4471 46.8929C70.5624 47.9183 71.9074 48.433 73.4845 48.433C75.0048 48.433 76.3238 47.9203 77.4391 46.8929C78.5298 45.914 79.1293 44.6061 79.1085 43.2511C79.1085 41.8046 78.552 40.5676 77.4391 39.5401C76.3214 38.5127 75.0024 38 73.4821 38ZM97.4534 78.2632C95.0618 78.2632 93.8825 76.6987 93.8825 73.5716V61.222H101.403V53.501H93.873C93.8446 52.4838 93.7783 50.142 93.7309 49.0434H84.948V53.501H80.096V61.22H84.948V73.2176C84.948 77.1402 85.5211 80.0129 86.6696 81.8297C88.1922 84.259 90.8609 85.4715 94.8226 85.4715C97.6476 85.4715 100.136 85.0056 102 84.0718V77.071C100.515 77.8685 99.1371 78.2632 97.4534 78.2632ZM68.2868 53.6129C65.0947 54.6831 62.1228 55.2263 59.5701 55.2263C57.356 54.1121 54.8331 53.5315 52.2672 53.5458C48.5708 53.5458 45.3976 54.5956 42.7336 56.6952C39.9631 58.9373 38.5731 61.7388 38.5731 65.0978C38.5731 67.3399 39.3261 69.4375 40.8534 71.3987C42.2103 73.2196 43.6311 74.3874 45.49 74.9001V75.0405C43.6311 75.6936 42.8047 77.3273 42.8047 79.9437C42.8047 81.9518 43.6311 83.4451 45.49 84.4238V84.5662C40.3514 86.0086 38 88.6942 38 92.6168C38 96.0266 39.7263 98.521 43.0983 100.108C45.7576 101.367 49.177 102 53.3068 102C63.3566 102 68.3933 98.3846 68.3933 91.1458C68.3933 86.617 64.5145 83.8398 56.7451 82.8104C54.9478 82.5784 53.598 82.0189 52.6721 81.1319C51.9641 80.5215 51.6184 79.9173 51.6184 79.309C51.6184 77.5796 52.7029 76.5766 54.8791 76.2999C58.1896 75.8788 60.8915 74.5624 62.9895 72.3448C65.0781 70.1272 66.1248 67.523 66.1248 64.5363C66.1248 63.6045 65.7956 62.5994 65.3646 61.5272C66.6457 61.2709 67.5692 61.0389 68.2868 60.8212V85.443H78.1258V52.146H68.2868V53.6129ZM53.1647 88.4847C57.7302 88.4847 60.0106 89.6769 60.0106 92.0532C60.0106 94.576 57.9196 95.8354 53.7354 95.8354C48.9544 95.8354 46.5674 94.6208 46.5674 92.1956C46.5627 89.7237 48.7649 88.4847 53.1647 88.4847ZM52.594 70.001C49.1722 70.001 47.4602 68.3897 47.4602 65.169C47.4602 61.7144 49.1722 59.9871 52.594 59.9871C54.2256 59.9871 55.5043 60.5242 56.4231 61.5984C57.1832 62.577 57.5621 63.7449 57.5621 65.0998C57.5644 68.3673 55.9092 70.001 52.594 70.001Z" fill="black"/>
</svg>
