<svg width="140" height="140" viewBox="0 0 140 140" fill="none" xmlns="http://www.w3.org/2000/svg">
<rect width="140" height="140" rx="70" fill="white"/>
<path d="M105.579 30H34L40.3158 101.579L69.7895 110L99.2632 101.579L105.579 30Z" fill="#E65100"/>
<path d="M69.7896 36.3159V103.474L93.3685 96.737L98.6317 36.3159H69.7896Z" fill="#FF6D00"/>
<path d="M69.7896 72.1054V63.6844H87.8948L86.4211 87.8949L69.7896 93.3686V84.5265L78.4211 81.5791L79.0527 72.1054H69.7896ZM88.5264 55.2633L89.158 46.8423H69.7896V55.2633H88.5264Z" fill="white"/>
<path d="M69.7892 84.5265V93.3686L53.1577 87.8949L52.3156 76.316H60.7366L61.1577 81.5791L69.7892 84.5265ZM59.4735 55.2633H69.7892V46.8423H50.6313L52.105 72.1054H69.7892V63.6844H60.105L59.4735 55.2633Z" fill="#EEEEEE"/>
</svg>
