<svg width="140" height="140" viewBox="0 0 140 140" fill="none" xmlns="http://www.w3.org/2000/svg">
<circle cx="70" cy="70" r="70" fill="white"/>
<path d="M38 38L42.4987 94.0127L70.0001 102L97.5013 94.0127L102 38H38Z" fill="#FF7816"/>
<path d="M102 38L97.5013 94.0127L70 102V38H102Z" fill="#FF4B00"/>
<path d="M89.9896 55H58.5412L59.3049 64.375H89.226L87.4006 87.0747L70 92.2124L52.5994 87.0747L52.0054 79.5H60.4935L60.6632 81.5625L70.0001 84.2998L79.3371 81.5625L80.1007 71.875H51.3688L49.4165 47.5H90.5838L89.9896 55Z" fill="#ECECF1"/>
<path d="M89.226 64.375L87.4006 87.0747L70 92.2124V84.2999L79.3369 81.5625L80.1007 71.875H70V64.375H89.226ZM90.5838 47.5L89.9896 55H70.0001V47.5H90.5838Z" fill="#E2E2E7"/>
</svg>
