<svg width="140" height="140" viewBox="0 0 140 140" fill="none" xmlns="http://www.w3.org/2000/svg">
<circle cx="70" cy="70" r="70" fill="white"/>
<path d="M67.9042 38.0172C67.7666 38.0297 67.3286 38.0735 66.9345 38.1048C57.8444 38.9242 49.3298 43.8283 43.937 51.3658C40.9341 55.5568 39.0135 60.3107 38.2878 65.3461C38.0313 67.1039 38 67.623 38 70.0063C38 72.3895 38.0313 72.9087 38.2878 74.6664C40.027 86.6826 48.5791 96.7785 60.1779 100.519C62.2549 101.188 64.4446 101.645 66.9345 101.92C67.9042 102.027 72.0958 102.027 73.0655 101.92C77.3634 101.445 81.0045 100.381 84.5955 98.5487C85.146 98.2672 85.2524 98.1922 85.1773 98.1296C85.1273 98.0921 82.7812 94.9457 79.966 91.1426L74.8485 84.2306L68.436 74.7414C64.9075 69.5246 62.0047 65.2586 61.9797 65.2586C61.9546 65.2523 61.9296 69.4683 61.9171 74.6163C61.8983 83.6301 61.8921 83.9929 61.7795 84.2055C61.6168 84.5121 61.4917 84.6372 61.2289 84.7748C61.0287 84.8749 60.8536 84.8936 59.9089 84.8936H58.8266L58.5388 84.7122C58.3511 84.5934 58.2135 84.437 58.1196 84.2556L57.9883 83.9741L58.0008 71.4324L58.0196 58.8845L58.2135 58.6406C58.3136 58.5092 58.5263 58.3403 58.6764 58.259C58.9329 58.1339 59.033 58.1214 60.1153 58.1214C61.3916 58.1214 61.6043 58.1714 61.9359 58.5342C62.0297 58.6343 65.5019 63.8637 69.6559 70.1626C73.81 76.4616 79.4905 85.0625 82.2807 89.2848L87.3482 96.9599L87.6047 96.791C89.8757 95.3148 92.278 93.213 94.1799 91.0237C98.2276 86.3761 100.836 80.7089 101.712 74.6664C101.969 72.9087 102 72.3895 102 70.0063C102 67.623 101.969 67.1039 101.712 65.3461C99.973 53.3299 91.4209 43.2341 79.8221 39.4934C77.7763 38.8304 75.5992 38.3738 73.1593 38.0985C72.5587 38.036 68.4235 37.9672 67.9042 38.0172ZM81.0045 57.3708C81.3048 57.5209 81.5488 57.8086 81.6364 58.1089C81.6864 58.2715 81.6989 61.7494 81.6864 69.5872L81.6676 80.834L79.6845 77.794L77.695 74.754V66.5784C77.695 61.2928 77.72 58.3216 77.7576 58.1777C77.8577 57.8274 78.0766 57.5522 78.3769 57.3895C78.6334 57.2582 78.7273 57.2457 79.7095 57.2457C80.6354 57.2457 80.798 57.2582 81.0045 57.3708Z" fill="black"/>
</svg>
