<svg width="140" height="140" viewBox="0 0 140 140" fill="none" xmlns="http://www.w3.org/2000/svg">
<rect width="140" height="140" rx="70" fill="white"/>
<path d="M30 38.8889C30 33.98 33.98 30 38.8889 30H101.111C106.02 30 110 33.98 110 38.8889V101.111C110 106.02 106.02 110 101.111 110H38.8889C33.98 110 30 106.02 30 101.111V38.8889Z" fill="#03A9F4"/>
<path d="M61.1466 59.2754H56.6978V69.1287H61.0822C62.2978 69.1287 63.2378 68.7309 63.9044 67.9354C64.5711 67.1398 64.9022 65.9821 64.9022 64.4621C64.9022 62.8843 64.5622 61.6309 63.8822 60.6976C63.2022 59.7643 62.2889 59.2909 61.1466 59.2754Z" fill="#020F16"/>
<path d="M36.6665 36.6665V103.333H103.333V36.6665H36.6665ZM68.5887 71.7532C66.7532 73.5487 64.2065 74.4443 60.9509 74.4443H56.6976V85.5554H50.3176V53.9576H61.0821C64.2065 53.9576 66.6998 54.9287 68.5576 56.8665C70.4154 58.8043 71.3465 61.3221 71.3465 64.4176C71.3465 67.5132 70.4265 69.9576 68.5887 71.7532ZM89.2932 84.0798C87.7176 85.3532 85.6465 85.9887 83.0865 85.9887C81.3643 85.9887 79.8443 85.6532 78.5287 84.9798C77.2132 84.3065 76.1798 83.3687 75.4354 82.1687C74.6909 80.9687 74.3176 79.6732 74.3176 78.2843H80.1554C80.1865 79.3532 80.4332 80.1576 80.9043 80.6932C81.3754 81.2287 82.1443 81.4954 83.2154 81.4954C84.8643 81.4954 85.6887 80.7509 85.6887 79.2598C85.6887 78.7398 85.4398 78.2576 84.9398 77.8176C84.4398 77.3776 83.3332 76.7821 81.6109 76.0287C79.0798 75.0021 77.3398 73.9398 76.3909 72.8376C75.4421 71.7354 74.9687 70.3709 74.9687 68.7354C74.9687 66.6798 75.7109 64.9843 77.1932 63.6465C78.6754 62.3087 80.6421 61.6398 83.0843 61.6398C85.6576 61.6398 87.7198 62.3065 89.2687 63.6354C90.8176 64.9643 91.5909 66.7532 91.5909 68.9954H85.4487C85.4487 67.0865 84.6554 66.1309 83.0621 66.1309C82.4109 66.1309 81.8776 66.3332 81.4554 66.7376C81.0332 67.1421 80.8265 67.7087 80.8265 68.4309C80.8265 68.9509 81.0576 69.4109 81.5221 69.8087C81.9865 70.2065 83.0754 70.7754 84.7998 71.5132C87.3043 72.4398 89.0709 73.4709 90.1065 74.6065C91.1421 75.7421 91.6576 77.2154 91.6576 79.0221C91.6576 81.1221 90.8687 82.8065 89.2932 84.0798Z" fill="#020F16"/>
</svg>
