<svg width="140" height="140" viewBox="0 0 140 140" fill="none" xmlns="http://www.w3.org/2000/svg">
<rect width="140" height="140" rx="70" fill="white"/>
<g filter="url(#filter0_dd_337_161)">
<g filter="url(#filter1_ii_337_161)">
<path fill-rule="evenodd" clip-rule="evenodd" d="M69.1267 97.7967V110C67.1106 110 65.2817 109.197 63.9367 107.898L63.9318 107.894L62.9242 106.69L29.9269 67.4148C29.9053 67.4046 29.8897 67.383 29.8785 67.3611L29.7453 67.2068C29.7349 67.1954 29.7289 67.1848 29.7193 67.1738C29.5585 66.9553 29.4201 66.7197 29.3293 66.4629C29.2065 66.1581 29.1373 65.8272 29.127 65.4845V65.2819C29.127 65.2176 29.1321 65.1525 29.1434 65.0886C29.2013 64.4154 29.4893 63.8152 29.9269 63.3451C30.4657 62.7623 31.244 62.394 32.1019 62.394H39.3725L69.1214 97.802L69.1267 97.7967Z" fill="url(#paint0_linear_337_161)"/>
<path fill-rule="evenodd" clip-rule="evenodd" d="M69.1267 97.7967V110C67.1106 110 65.2817 109.197 63.9367 107.898L63.9318 107.894L62.9242 106.69L29.9269 67.4148C29.9053 67.4046 29.8897 67.383 29.8785 67.3611L29.7453 67.2068C29.7349 67.1954 29.7289 67.1848 29.7193 67.1738C29.5585 66.9553 29.4201 66.7197 29.3293 66.4629C29.2065 66.1581 29.1373 65.8272 29.127 65.4845V65.2819C29.127 65.2176 29.1321 65.1525 29.1434 65.0886C29.2013 64.4154 29.4893 63.8152 29.9269 63.3451C30.4657 62.7623 31.244 62.394 32.1019 62.394H39.3725L69.1214 97.802L69.1267 97.7967Z" fill="url(#paint1_linear_337_161)"/>
</g>
<g filter="url(#filter2_ii_337_161)">
<path fill-rule="evenodd" clip-rule="evenodd" d="M69.1267 97.7967V110C67.1106 110 65.2817 109.197 63.9367 107.898L63.9318 107.894L62.9242 106.69L38.3053 77.3891L29.9269 67.4148C29.9053 67.4046 29.8897 67.383 29.8785 67.3611L29.7453 67.2068C29.7349 67.1954 29.7289 67.1848 29.7193 67.1738C29.5585 66.9553 29.4201 66.7197 29.3293 66.4629C29.2065 66.1581 29.1373 65.8272 29.127 65.4845V65.2819C29.127 65.2176 29.1321 65.1525 29.1434 65.0886C29.2013 64.4154 29.4893 63.8152 29.9269 63.3451C30.4657 62.7623 31.244 62.394 32.1019 62.394H39.3725L42.7911 66.4629L51.9695 77.3891L67.0191 95.2996L69.1214 97.802L69.1267 97.7967Z" fill="url(#paint2_linear_337_161)" fill-opacity="0.4"/>
</g>
<g filter="url(#filter3_ii_337_161)">
<path fill-rule="evenodd" clip-rule="evenodd" d="M69.1267 81.5879V97.8808L69.1214 97.8861L29.8715 51.2971C29.8318 51.2528 29.792 51.2027 29.7522 51.1518C29.5775 50.928 29.4322 50.6777 29.3267 50.4018C29.2074 50.0974 29.1373 49.7669 29.127 49.4174V49.2167C29.1468 48.472 29.4469 47.8017 29.9269 47.2922C30.4622 46.7014 31.2414 46.3364 32.1019 46.3364H39.4321L69.1267 81.5879Z" fill="url(#paint3_linear_337_161)"/>
<path fill-rule="evenodd" clip-rule="evenodd" d="M69.1267 81.5879V97.8808L69.1214 97.8861L29.8715 51.2971C29.8318 51.2528 29.792 51.2027 29.7522 51.1518C29.5775 50.928 29.4322 50.6777 29.3267 50.4018C29.2074 50.0974 29.1373 49.7669 29.127 49.4174V49.2167C29.1468 48.472 29.4469 47.8017 29.9269 47.2922C30.4622 46.7014 31.2414 46.3364 32.1019 46.3364H39.4321L69.1267 81.5879Z" fill="url(#paint4_linear_337_161)"/>
</g>
<g filter="url(#filter4_ii_337_161)">
<path fill-rule="evenodd" clip-rule="evenodd" d="M69.1267 81.5879V97.8808L69.1214 97.8861L67.0219 95.3902L51.9719 77.5276L42.792 66.6303L39.3725 62.5697L29.8715 51.2971C29.8318 51.2528 29.792 51.2027 29.7522 51.1518C29.5775 50.928 29.4322 50.6777 29.3267 50.4018C29.2074 50.0974 29.1373 49.7669 29.127 49.4174V49.2167C29.1468 48.472 29.4469 47.8017 29.9269 47.2922C30.4622 46.7014 31.2414 46.3364 32.1019 46.3364H39.4321L42.8569 50.4018L53.1074 62.5697L56.5267 66.6303L65.707 77.5276L69.1267 81.5879Z" fill="url(#paint5_linear_337_161)" fill-opacity="0.3"/>
</g>
<g filter="url(#filter5_ii_337_161)">
<path fill-rule="evenodd" clip-rule="evenodd" d="M31.975 30C31.118 30 30.3327 30.3615 29.8 30.9539C29.32 31.4556 29.0217 32.1379 29 32.8799V33.0771C29.0095 33.4291 29.0787 33.7595 29.2023 34.063C29.2076 34.0898 29.2188 34.1114 29.2283 34.1383C29.3252 34.3675 29.4471 34.5802 29.6019 34.7783C29.6547 34.8535 29.7143 34.9227 29.7784 34.9858C29.7887 35.0023 29.8043 35.0178 29.8207 35.0342L68.9992 81.5361V110C69.1868 110 69.3687 109.995 69.5494 109.98C71.3465 109.852 72.9679 109.084 74.1892 107.905L74.1949 107.898L75.2029 106.699L108.249 67.4717C108.291 67.4294 108.328 67.381 108.367 67.3334C108.547 67.1096 108.691 66.8576 108.797 66.5813C108.931 66.2509 109 65.8882 109 65.5033V32.9759C109 32.1915 108.696 31.4711 108.195 30.9488C107.656 30.3615 106.882 30 106.018 30H31.975Z" fill="url(#paint6_linear_337_161)"/>
<path fill-rule="evenodd" clip-rule="evenodd" d="M31.975 30C31.118 30 30.3327 30.3615 29.8 30.9539C29.32 31.4556 29.0217 32.1379 29 32.8799V33.0771C29.0095 33.4291 29.0787 33.7595 29.2023 34.063C29.2076 34.0898 29.2188 34.1114 29.2283 34.1383C29.3252 34.3675 29.4471 34.5802 29.6019 34.7783C29.6547 34.8535 29.7143 34.9227 29.7784 34.9858C29.7887 35.0023 29.8043 35.0178 29.8207 35.0342L68.9992 81.5361V110C69.1868 110 69.3687 109.995 69.5494 109.98C71.3465 109.852 72.9679 109.084 74.1892 107.905L74.1949 107.898L75.2029 106.699L108.249 67.4717C108.291 67.4294 108.328 67.381 108.367 67.3334C108.547 67.1096 108.691 66.8576 108.797 66.5813C108.931 66.2509 109 65.8882 109 65.5033V32.9759C109 32.1915 108.696 31.4711 108.195 30.9488C107.656 30.3615 106.882 30 106.018 30H31.975Z" fill="url(#paint7_linear_337_161)"/>
<path fill-rule="evenodd" clip-rule="evenodd" d="M31.975 30C31.118 30 30.3327 30.3615 29.8 30.9539C29.32 31.4556 29.0217 32.1379 29 32.8799V33.0771C29.0095 33.4291 29.0787 33.7595 29.2023 34.063C29.2076 34.0898 29.2188 34.1114 29.2283 34.1383C29.3252 34.3675 29.4471 34.5802 29.6019 34.7783C29.6547 34.8535 29.7143 34.9227 29.7784 34.9858C29.7887 35.0023 29.8043 35.0178 29.8207 35.0342L68.9992 81.5361V110C69.1868 110 69.3687 109.995 69.5494 109.98C71.3465 109.852 72.9679 109.084 74.1892 107.905L74.1949 107.898L75.2029 106.699L108.249 67.4717C108.291 67.4294 108.328 67.381 108.367 67.3334C108.547 67.1096 108.691 66.8576 108.797 66.5813C108.931 66.2509 109 65.8882 109 65.5033V32.9759C109 32.1915 108.696 31.4711 108.195 30.9488C107.656 30.3615 106.882 30 106.018 30H31.975Z" fill="url(#paint8_linear_337_161)"/>
<path fill-rule="evenodd" clip-rule="evenodd" d="M31.975 30C31.118 30 30.3327 30.3615 29.8 30.9539C29.32 31.4556 29.0217 32.1379 29 32.8799V33.0771C29.0095 33.4291 29.0787 33.7595 29.2023 34.063C29.2076 34.0898 29.2188 34.1114 29.2283 34.1383C29.3252 34.3675 29.4471 34.5802 29.6019 34.7783C29.6547 34.8535 29.7143 34.9227 29.7784 34.9858C29.7887 35.0023 29.8043 35.0178 29.8207 35.0342L68.9992 81.5361V110C69.1868 110 69.3687 109.995 69.5494 109.98C71.3465 109.852 72.9679 109.084 74.1892 107.905L74.1949 107.898L75.2029 106.699L108.249 67.4717C108.291 67.4294 108.328 67.381 108.367 67.3334C108.547 67.1096 108.691 66.8576 108.797 66.5813C108.931 66.2509 109 65.8882 109 65.5033V32.9759C109 32.1915 108.696 31.4711 108.195 30.9488C107.656 30.3615 106.882 30 106.018 30H31.975Z" fill="url(#paint9_linear_337_161)"/>
<path fill-rule="evenodd" clip-rule="evenodd" d="M31.975 30C31.118 30 30.3327 30.3615 29.8 30.9539C29.32 31.4556 29.0217 32.1379 29 32.8799V33.0771C29.0095 33.4291 29.0787 33.7595 29.2023 34.063C29.2076 34.0898 29.2188 34.1114 29.2283 34.1383C29.3252 34.3675 29.4471 34.5802 29.6019 34.7783C29.6547 34.8535 29.7143 34.9227 29.7784 34.9858C29.7887 35.0023 29.8043 35.0178 29.8207 35.0342L68.9992 81.5361V110C69.1868 110 69.3687 109.995 69.5494 109.98C71.3465 109.852 72.9679 109.084 74.1892 107.905L74.1949 107.898L75.2029 106.699L108.249 67.4717C108.291 67.4294 108.328 67.381 108.367 67.3334C108.547 67.1096 108.691 66.8576 108.797 66.5813C108.931 66.2509 109 65.8882 109 65.5033V32.9759C109 32.1915 108.696 31.4711 108.195 30.9488C107.656 30.3615 106.882 30 106.018 30H31.975Z" fill="url(#paint10_linear_337_161)"/>
<path fill-rule="evenodd" clip-rule="evenodd" d="M31.975 30C31.118 30 30.3327 30.3615 29.8 30.9539C29.32 31.4556 29.0217 32.1379 29 32.8799V33.0771C29.0095 33.4291 29.0787 33.7595 29.2023 34.063C29.2076 34.0898 29.2188 34.1114 29.2283 34.1383C29.3252 34.3675 29.4471 34.5802 29.6019 34.7783C29.6547 34.8535 29.7143 34.9227 29.7784 34.9858C29.7887 35.0023 29.8043 35.0178 29.8207 35.0342L68.9992 81.5361V110C69.1868 110 69.3687 109.995 69.5494 109.98C71.3465 109.852 72.9679 109.084 74.1892 107.905L74.1949 107.898L75.2029 106.699L108.249 67.4717C108.291 67.4294 108.328 67.381 108.367 67.3334C108.547 67.1096 108.691 66.8576 108.797 66.5813C108.931 66.2509 109 65.8882 109 65.5033V32.9759C109 32.1915 108.696 31.4711 108.195 30.9488C107.656 30.3615 106.882 30 106.018 30H31.975Z" fill="url(#paint11_linear_337_161)"/>
</g>
</g>
<defs>
<filter id="filter0_dd_337_161" x="27.4664" y="28.8315" width="84.0897" height="84.0897" filterUnits="userSpaceOnUse" color-interpolation-filters="sRGB">
<feFlood flood-opacity="0" result="BackgroundImageFix"/>
<feColorMatrix in="SourceAlpha" type="matrix" values="0 0 0 0 0 0 0 0 0 0 0 0 0 0 0 0 0 0 127 0" result="hardAlpha"/>
<feOffset dx="0.511209" dy="0.876358"/>
<feGaussianBlur stdDeviation="1.02242"/>
<feColorMatrix type="matrix" values="0 0 0 0 1 0 0 0 0 0.875 0 0 0 0 0.843 0 0 0 0.63 0"/>
<feBlend mode="normal" in2="BackgroundImageFix" result="effect1_dropShadow_337_161"/>
<feColorMatrix in="SourceAlpha" type="matrix" values="0 0 0 0 0 0 0 0 0 0 0 0 0 0 0 0 0 0 127 0" result="hardAlpha"/>
<feOffset dx="0.219089" dy="0.438179"/>
<feGaussianBlur stdDeviation="0.730298"/>
<feColorMatrix type="matrix" values="0 0 0 0 0.771137 0 0 0 0 0.469437 0 0 0 0 0.40806 0 0 0 0.3 0"/>
<feBlend mode="normal" in2="effect1_dropShadow_337_161" result="effect2_dropShadow_337_161"/>
<feBlend mode="normal" in="SourceGraphic" in2="effect2_dropShadow_337_161" result="shape"/>
</filter>
<filter id="filter1_ii_337_161" x="27.7825" y="62.394" width="43.0241" height="50.0885" filterUnits="userSpaceOnUse" color-interpolation-filters="sRGB">
<feFlood flood-opacity="0" result="BackgroundImageFix"/>
<feBlend mode="normal" in="SourceGraphic" in2="BackgroundImageFix" result="shape"/>
<feColorMatrix in="SourceAlpha" type="matrix" values="0 0 0 0 0 0 0 0 0 0 0 0 0 0 0 0 0 0 127 0" result="hardAlpha"/>
<feOffset dx="1.67968" dy="4.1627"/>
<feGaussianBlur stdDeviation="1.24151"/>
<feComposite in2="hardAlpha" operator="arithmetic" k2="-1" k3="1"/>
<feColorMatrix type="matrix" values="0 0 0 0 1 0 0 0 0 0.651 0 0 0 0 0.58 0 0 0 1 0"/>
<feBlend mode="normal" in2="shape" result="effect1_innerShadow_337_161"/>
<feColorMatrix in="SourceAlpha" type="matrix" values="0 0 0 0 0 0 0 0 0 0 0 0 0 0 0 0 0 0 127 0" result="hardAlpha"/>
<feOffset dx="-1.34441" dy="8.87312"/>
<feGaussianBlur stdDeviation="1.20998"/>
<feComposite in2="hardAlpha" operator="arithmetic" k2="-1" k3="1"/>
<feColorMatrix type="matrix" values="0 0 0 0 1 0 0 0 0 0.875 0 0 0 0 0.843 0 0 0 0.48 0"/>
<feBlend mode="normal" in2="effect1_innerShadow_337_161" result="effect2_innerShadow_337_161"/>
</filter>
<filter id="filter2_ii_337_161" x="29.127" y="61.5907" width="40.9494" height="48.4088" filterUnits="userSpaceOnUse" color-interpolation-filters="sRGB">
<feFlood flood-opacity="0" result="BackgroundImageFix"/>
<feBlend mode="normal" in="SourceGraphic" in2="BackgroundImageFix" result="shape"/>
<feColorMatrix in="SourceAlpha" type="matrix" values="0 0 0 0 0 0 0 0 0 0 0 0 0 0 0 0 0 0 127 0" result="hardAlpha"/>
<feOffset dx="0.0730298" dy="-0.876358"/>
<feGaussianBlur stdDeviation="0.328634"/>
<feComposite in2="hardAlpha" operator="arithmetic" k2="-1" k3="1"/>
<feColorMatrix type="matrix" values="0 0 0 0 1 0 0 0 0 0.604589 0 0 0 0 0.591667 0 0 0 0.2 0"/>
<feBlend mode="multiply" in2="shape" result="effect1_innerShadow_337_161"/>
<feColorMatrix in="SourceAlpha" type="matrix" values="0 0 0 0 0 0 0 0 0 0 0 0 0 0 0 0 0 0 127 0" result="hardAlpha"/>
<feOffset dx="0.949388" dy="-0.803328"/>
<feGaussianBlur stdDeviation="0.474694"/>
<feComposite in2="hardAlpha" operator="arithmetic" k2="-1" k3="1"/>
<feColorMatrix type="matrix" values="0 0 0 0 1 0 0 0 0 1 0 0 0 0 1 0 0 0 0.3 0"/>
<feBlend mode="normal" in2="effect1_innerShadow_337_161" result="effect2_innerShadow_337_161"/>
</filter>
<filter id="filter3_ii_337_161" x="27.7825" y="46.3364" width="43.0241" height="54.0328" filterUnits="userSpaceOnUse" color-interpolation-filters="sRGB">
<feFlood flood-opacity="0" result="BackgroundImageFix"/>
<feBlend mode="normal" in="SourceGraphic" in2="BackgroundImageFix" result="shape"/>
<feColorMatrix in="SourceAlpha" type="matrix" values="0 0 0 0 0 0 0 0 0 0 0 0 0 0 0 0 0 0 127 0" result="hardAlpha"/>
<feOffset dx="1.67968" dy="4.1627"/>
<feGaussianBlur stdDeviation="1.24151"/>
<feComposite in2="hardAlpha" operator="arithmetic" k2="-1" k3="1"/>
<feColorMatrix type="matrix" values="0 0 0 0 1 0 0 0 0 0.651 0 0 0 0 0.58 0 0 0 1 0"/>
<feBlend mode="normal" in2="shape" result="effect1_innerShadow_337_161"/>
<feColorMatrix in="SourceAlpha" type="matrix" values="0 0 0 0 0 0 0 0 0 0 0 0 0 0 0 0 0 0 127 0" result="hardAlpha"/>
<feOffset dx="-1.34441" dy="8.87312"/>
<feGaussianBlur stdDeviation="1.20998"/>
<feComposite in2="hardAlpha" operator="arithmetic" k2="-1" k3="1"/>
<feColorMatrix type="matrix" values="0 0 0 0 1 0 0 0 0 0.875 0 0 0 0 0.843 0 0 0 0.48 0"/>
<feBlend mode="normal" in2="effect1_innerShadow_337_161" result="effect2_innerShadow_337_161"/>
</filter>
<filter id="filter4_ii_337_161" x="29.127" y="46.1904" width="40.5112" height="51.915" filterUnits="userSpaceOnUse" color-interpolation-filters="sRGB">
<feFlood flood-opacity="0" result="BackgroundImageFix"/>
<feBlend mode="normal" in="SourceGraphic" in2="BackgroundImageFix" result="shape"/>
<feColorMatrix in="SourceAlpha" type="matrix" values="0 0 0 0 0 0 0 0 0 0 0 0 0 0 0 0 0 0 127 0" result="hardAlpha"/>
<feOffset dx="0.21909" dy="-0.14606"/>
<feGaussianBlur stdDeviation="0.547724"/>
<feComposite in2="hardAlpha" operator="arithmetic" k2="-1" k3="1"/>
<feColorMatrix type="matrix" values="0 0 0 0 0.996078 0 0 0 0 0.458823 0 0 0 0 0.411765 0 0 0 0.5 0"/>
<feBlend mode="normal" in2="shape" result="effect1_innerShadow_337_161"/>
<feColorMatrix in="SourceAlpha" type="matrix" values="0 0 0 0 0 0 0 0 0 0 0 0 0 0 0 0 0 0 127 0" result="hardAlpha"/>
<feOffset dx="1.16847" dy="0.21909"/>
<feGaussianBlur stdDeviation="0.255604"/>
<feComposite in2="hardAlpha" operator="arithmetic" k2="-1" k3="1"/>
<feColorMatrix type="matrix" values="0 0 0 0 1 0 0 0 0 1 0 0 0 0 1 0 0 0 0.08 0"/>
<feBlend mode="normal" in2="effect1_innerShadow_337_161" result="effect2_innerShadow_337_161"/>
</filter>
<filter id="filter5_ii_337_161" x="27.5397" y="28.905" width="81.4603" height="82.044" filterUnits="userSpaceOnUse" color-interpolation-filters="sRGB">
<feFlood flood-opacity="0" result="BackgroundImageFix"/>
<feBlend mode="normal" in="SourceGraphic" in2="BackgroundImageFix" result="shape"/>
<feColorMatrix in="SourceAlpha" type="matrix" values="0 0 0 0 0 0 0 0 0 0 0 0 0 0 0 0 0 0 127 0" result="hardAlpha"/>
<feOffset dx="-1.46031" dy="-1.09498"/>
<feGaussianBlur stdDeviation="1.05875"/>
<feComposite in2="hardAlpha" operator="arithmetic" k2="-1" k3="1"/>
<feColorMatrix type="matrix" values="0 0 0 0 0 0 0 0 0 0 0 0 0 0 0 0 0 0 0.1 0"/>
<feBlend mode="hard-light" in2="shape" result="effect1_innerShadow_337_161"/>
<feColorMatrix in="SourceAlpha" type="matrix" values="0 0 0 0 0 0 0 0 0 0 0 0 0 0 0 0 0 0 127 0" result="hardAlpha"/>
<feOffset dx="-0.145929" dy="0.949049"/>
<feGaussianBlur stdDeviation="0.912822"/>
<feComposite in2="hardAlpha" operator="arithmetic" k2="-1" k3="1"/>
<feColorMatrix type="matrix" values="0 0 0 0 1 0 0 0 0 0.87451 0 0 0 0 0.843137 0 0 0 0.7 0"/>
<feBlend mode="soft-light" in2="effect1_innerShadow_337_161" result="effect2_innerShadow_337_161"/>
</filter>
<linearGradient id="paint0_linear_337_161" x1="53.1489" y1="76.1735" x2="46.1909" y2="81.6333" gradientUnits="userSpaceOnUse">
<stop stop-color="#FFA794" stop-opacity="0.3"/>
<stop offset="1" stop-color="#FF9794"/>
</linearGradient>
<linearGradient id="paint1_linear_337_161" x1="53.1489" y1="76.1735" x2="46.1909" y2="81.6333" gradientUnits="userSpaceOnUse">
<stop stop-color="#FFA794" stop-opacity="0.3"/>
<stop offset="1" stop-color="#FF9794"/>
</linearGradient>
<linearGradient id="paint2_linear_337_161" x1="52.5563" y1="93.8512" x2="60.0189" y2="87.1827" gradientUnits="userSpaceOnUse">
<stop stop-color="#FFDFD7"/>
<stop offset="1" stop-color="#FFDFD7"/>
</linearGradient>
<linearGradient id="paint3_linear_337_161" x1="53.1489" y1="61.2576" x2="45.4333" y2="68.9635" gradientUnits="userSpaceOnUse">
<stop stop-color="#FFA794" stop-opacity="0.3"/>
<stop offset="1" stop-color="#FF9794"/>
</linearGradient>
<linearGradient id="paint4_linear_337_161" x1="53.1489" y1="61.2576" x2="45.4333" y2="68.9635" gradientUnits="userSpaceOnUse">
<stop stop-color="#FFA794" stop-opacity="0.3"/>
<stop offset="1" stop-color="#FF9794"/>
</linearGradient>
<linearGradient id="paint5_linear_337_161" x1="54.7784" y1="80.0724" x2="62.6303" y2="72.0723" gradientUnits="userSpaceOnUse">
<stop stop-color="#FFA694"/>
<stop offset="1" stop-color="#FFB7A9"/>
</linearGradient>
<linearGradient id="paint6_linear_337_161" x1="95.0742" y1="83.4817" x2="41.0012" y2="46.2947" gradientUnits="userSpaceOnUse">
<stop stop-color="#FF6661"/>
<stop offset="1" stop-color="#FF7D73"/>
</linearGradient>
<linearGradient id="paint7_linear_337_161" x1="95.0742" y1="83.4817" x2="41.0012" y2="46.2947" gradientUnits="userSpaceOnUse">
<stop stop-color="#FF6661"/>
<stop offset="1" stop-color="#FF7D73"/>
</linearGradient>
<linearGradient id="paint8_linear_337_161" x1="95.0742" y1="83.4817" x2="41.0012" y2="46.2947" gradientUnits="userSpaceOnUse">
<stop stop-color="#FF6661"/>
<stop offset="1" stop-color="#FF7D73"/>
</linearGradient>
<linearGradient id="paint9_linear_337_161" x1="95.0742" y1="83.4817" x2="41.0012" y2="46.2947" gradientUnits="userSpaceOnUse">
<stop stop-color="#FF6661"/>
<stop offset="1" stop-color="#FF7D73"/>
</linearGradient>
<linearGradient id="paint10_linear_337_161" x1="95.0742" y1="83.4817" x2="41.0012" y2="46.2947" gradientUnits="userSpaceOnUse">
<stop stop-color="#FF6661"/>
<stop offset="1" stop-color="#FF7D73"/>
</linearGradient>
<linearGradient id="paint11_linear_337_161" x1="95.0742" y1="83.4817" x2="41.0012" y2="46.2947" gradientUnits="userSpaceOnUse">
<stop stop-color="#FF6661"/>
<stop offset="1" stop-color="#FF7D73"/>
</linearGradient>
</defs>
</svg>
