<svg width="140" height="140" viewBox="0 0 140 140" fill="none" xmlns="http://www.w3.org/2000/svg">
<circle cx="70" cy="70" r="70" fill="white"/>
<path d="M87.1089 44.9114C87.4002 45.512 87.6397 46.1205 87.8581 46.7568C88.0252 47.2381 88.2097 47.7112 88.3922 48.1857C88.6807 48.9363 88.9665 49.6846 89.2103 50.4543C89.3789 50.9827 89.5812 51.4827 89.8002 51.9881C90.1094 52.7234 90.3747 53.4807 90.622 54.2432C90.7323 54.5818 90.8568 54.9059 90.9963 55.2314C91.1608 55.6169 91.297 56.0045 91.4241 56.4066C91.5931 56.9369 91.7932 57.4372 92.0133 57.944C92.2886 58.593 92.5185 59.2648 92.7579 59.9303C92.8435 60.167 92.9303 60.4031 93.0172 60.6391C93.1628 61.0365 93.3 61.4366 93.4346 61.8385C93.6097 62.3555 93.7979 62.8602 94.0155 63.358C94.1439 63.6689 94.2585 63.9845 94.3735 64.3016C94.53 64.7312 94.6911 65.1587 94.8517 65.5864C95.0406 66.09 95.2292 66.5937 95.4135 67.0994C95.5395 67.445 95.6689 67.789 95.8002 68.1323C96.0543 68.7975 96.2892 69.464 96.4996 70.1475C96.5804 70.379 96.6653 70.5874 96.768 70.8067C96.9649 71.2276 97.126 71.6605 97.2847 72.1C97.3144 72.1817 97.3442 72.2634 97.3748 72.3475C97.5853 72.9294 97.7785 73.5157 97.9664 74.1066C98.0498 74.3505 98.1429 74.5765 98.2525 74.8072C98.3837 75.0889 98.44 75.291 98.4878 75.5965C99.572 75.7708 100.644 75.9143 101.739 75.9708C101.739 76.8352 101.739 77.6996 101.739 78.5902C96.9957 78.5902 92.2525 78.5902 87.3655 78.5902C87.173 77.4325 87.173 77.4325 87.1944 76.9063C87.5382 76.709 87.8823 76.5123 88.2264 76.3157C88.3719 76.2322 88.3719 76.2322 88.5204 76.1471C88.9853 75.8818 89.4465 75.6256 89.9322 75.4094C90.1289 75.3124 90.3252 75.2147 90.5214 75.1164C90.6946 75.0386 90.8619 74.9858 91.0444 74.9417C90.7495 74.0978 90.7495 74.0978 90.4455 73.2577C90.2761 72.7974 90.1139 72.3342 89.9516 71.8709C89.8578 71.6054 89.762 71.3409 89.6648 71.0768C89.2478 69.9385 89.2478 69.9385 89.2478 69.6092C85.6621 69.6092 82.0765 69.6092 78.3822 69.6092C78.2096 70.1737 78.2096 70.1737 78.0406 70.7395C77.8759 71.2966 77.687 71.8335 77.4771 72.3719C77.2176 73.0643 76.9901 73.7706 76.7566 74.4739C76.7189 74.587 76.6812 74.7002 76.6423 74.8167C76.5661 75.0454 76.4901 75.2741 76.4144 75.503C76.4662 75.5008 76.518 75.4986 76.5714 75.4964C77.0356 75.4855 77.4478 75.532 77.8999 75.643C78.1485 75.6949 78.3917 75.7176 78.6442 75.7369C79.0181 75.7662 79.3683 75.8226 79.7313 75.924C79.9916 75.9878 80.257 76.0231 80.5211 76.0643C80.5211 76.8979 80.5211 77.7314 80.5211 78.5902C76.4554 78.5902 72.3898 78.5902 68.201 78.5902C68.0324 78.0372 67.9827 77.5725 67.9443 76.9998C68.5009 76.5668 69.0748 76.2281 69.6929 75.9123C69.7761 75.8689 69.8593 75.8255 69.945 75.7807C70.4136 75.5384 70.8854 75.3139 71.3686 75.1085C71.5402 75.0372 71.5402 75.0372 71.7088 74.9417C71.7957 74.7125 71.8744 74.4855 71.9494 74.2517C72.0979 73.8029 72.2494 73.3622 72.436 72.9303C72.6933 72.3306 72.8958 71.7099 73.1054 71.089C73.2883 70.5509 73.4867 70.0241 73.7087 69.5039C73.9143 69.0162 74.0863 68.519 74.2561 68.0156C74.4115 67.5559 74.5786 67.1034 74.7534 66.6521C74.912 66.2363 75.0642 65.8178 75.2166 65.3993C75.8388 63.6935 75.8388 63.6935 76.0566 63.1743C76.3741 62.4136 76.6386 61.6297 76.9098 60.8484C77.1472 60.1657 77.3924 59.5011 77.6977 58.8507C77.7881 58.6096 77.8689 58.3652 77.949 58.1198C78.0943 57.6849 78.2445 57.2586 78.4249 56.8393C78.5878 56.46 78.726 56.0768 78.8577 55.6834C79.1754 54.7458 79.5186 53.8196 79.8619 52.8929C79.9707 52.5992 80.079 52.3052 80.1874 52.0113C80.2577 51.8211 80.328 51.6309 80.3984 51.4407C80.4301 51.3545 80.4619 51.2683 80.4946 51.1795C80.7173 50.5795 80.958 49.9901 81.2055 49.4019C81.4656 48.7584 81.6416 48.2283 81.4622 47.5308C81.3806 47.3416 81.2957 47.154 81.2055 46.9695C81.2055 46.846 81.2055 46.7225 81.2055 46.5953C82.6645 46.0442 84.1623 45.6206 85.6544 45.192C85.7472 45.1649 85.84 45.1378 85.9356 45.1099C86.0258 45.0842 86.1159 45.0584 86.2088 45.032C86.3296 44.9972 86.3296 44.9972 86.4529 44.9617C86.6782 44.912 86.8797 44.902 87.1089 44.9114Z" fill="#010101"/>
<path d="M83.6865 54.2666C83.743 54.2666 83.7995 54.2666 83.8577 54.2666C84.1327 54.9994 84.396 55.734 84.633 56.4826C84.8054 57.0267 84.9945 57.5571 85.2022 58.0865C85.3631 58.5203 85.5004 58.9624 85.6403 59.4047C85.7721 59.818 85.9184 60.2159 86.0881 60.6125C86.2225 60.9551 86.3195 61.3115 86.4243 61.666C86.4996 61.905 86.5838 62.1298 86.681 62.3589C86.8149 62.675 86.92 62.9921 87.0179 63.3236C87.1608 63.8071 87.3297 64.2712 87.5155 64.7368C87.6524 65.107 87.7633 65.4882 87.8788 65.8671C85.1966 65.8671 82.5144 65.8671 79.751 65.8671C79.846 65.1397 79.846 65.1397 80.029 64.7445C80.2099 64.3302 80.3548 63.9121 80.4835 63.4757C80.6733 62.8344 80.8898 62.2131 81.1326 61.5937C81.3746 60.9715 81.5878 60.3434 81.7908 59.7052C81.9244 59.286 82.0668 58.8733 82.2211 58.4626C82.3596 58.08 82.4878 57.6935 82.6171 57.3071C82.7965 56.7713 82.9782 56.2377 83.1752 55.7094C83.3516 55.231 83.5181 54.7483 83.6865 54.2666Z" fill="#F3F3F3"/>
<path d="M91.0449 87.5703C98.2269 87.5703 98.2269 87.5703 99.6861 88.88C100.468 89.7585 100.661 90.6025 100.652 91.7929C100.625 93.0717 100.259 93.9161 99.4571 94.8513C99.1829 95.1315 98.9028 95.3261 98.5738 95.5223C98.6278 95.8922 98.795 96.1415 98.9872 96.4468C99.0204 96.4999 99.0536 96.553 99.0878 96.6077C99.1959 96.7802 99.3046 96.9523 99.4134 97.1244C99.488 97.2433 99.5625 97.3623 99.637 97.4814C99.7486 97.6597 99.8603 97.838 99.9721 98.0162C100.312 98.5583 100.647 99.104 100.979 99.6524C101.158 99.949 101.339 100.244 101.526 100.535C101.589 100.635 101.653 100.734 101.718 100.837C101.772 100.921 101.827 101.004 101.882 101.09C102.01 101.351 102.005 101.5 101.996 101.79C101.474 101.825 100.953 101.851 100.43 101.867C100.253 101.874 100.075 101.884 99.8981 101.896C98.4756 101.992 98.4756 101.992 98.0831 101.668C97.8265 101.344 97.6778 100.971 97.5339 100.576C97.4239 100.288 97.2768 100.028 97.1298 99.7606C97.0246 99.5602 96.9196 99.3597 96.8146 99.1591C96.4214 98.4096 96.0244 97.6651 95.5984 96.9372C95.4938 96.7384 95.4938 96.7384 95.4938 96.5513C95.1833 96.5513 94.8727 96.5513 94.5527 96.5513C94.5527 98.2802 94.5527 100.009 94.5527 101.79C93.3951 101.79 92.2376 101.79 91.0449 101.79C91.0449 97.0977 91.0449 92.4051 91.0449 87.5703Z" fill="#020202"/>
<path d="M63.8909 87.3485C63.9878 87.3495 64.0848 87.3504 64.1846 87.3514C65.577 87.3792 66.9427 87.6313 68.2008 88.3191C68.1361 88.7478 68.012 89.1447 67.8799 89.5529C67.8573 89.623 67.8347 89.6932 67.8114 89.7655C67.6345 90.3026 67.4278 90.8132 67.1741 91.3128C66.7678 91.1845 66.3644 91.0563 65.971 90.886C65.3357 90.6203 64.7073 90.5288 64.0299 90.5235C63.9594 90.5204 63.889 90.5173 63.8164 90.5141C63.4396 90.5105 63.2858 90.5249 62.9772 90.7829C62.7754 91.0851 62.768 91.2271 62.8107 91.5935C62.8178 91.6629 62.8249 91.7324 62.8321 91.804C62.9211 92.031 63.0363 92.0521 63.2385 92.1548C63.3513 92.2199 63.464 92.2855 63.5764 92.3514C64.1934 92.7109 64.8077 93.0679 65.4459 93.3806C66.6291 93.9615 67.5973 94.6878 68.1276 96.0266C68.2628 96.4783 68.2662 96.9276 68.2649 97.3996C68.2645 97.5537 68.2645 97.5537 68.2641 97.7109C68.233 98.8475 67.8886 99.6992 67.1848 100.539C66.5497 101.154 65.8344 101.506 65.0352 101.791C64.9565 101.823 64.8778 101.855 64.7967 101.888C64.5167 101.979 64.2966 102.001 64.0055 101.999C63.908 101.999 63.8104 101.999 63.7099 101.999C63.6091 101.998 63.5082 101.997 63.4043 101.995C63.3057 101.995 63.2072 101.995 63.1057 101.995C62.1168 101.99 61.1797 101.964 60.2387 101.609C60.1691 101.585 60.0994 101.56 60.0277 101.534C59.7122 101.42 59.4308 101.299 59.1318 101.136C59.1318 100.024 59.1318 98.913 59.1318 97.7679C59.452 97.838 59.7011 97.9175 59.9967 98.0551C61.0307 98.5365 61.9434 98.7284 63.0674 98.7444C63.1615 98.7465 63.2555 98.7486 63.3524 98.7507C63.8856 98.752 63.8856 98.752 64.3668 98.5255C64.6044 98.2248 64.6553 97.9891 64.6449 97.5868C64.5725 97.2137 64.2841 97.0302 64.0085 96.8324C63.4874 96.5308 62.952 96.2634 62.4166 95.9937C61.6885 95.6252 61.0192 95.2712 60.4152 94.6807C60.3587 94.6277 60.3022 94.5747 60.244 94.5201C59.8033 94.0978 59.594 93.5883 59.3885 92.9968C59.3572 92.9122 59.3259 92.8277 59.2936 92.7406C59.0517 91.7719 59.1022 90.5708 59.5125 89.6735C59.7236 89.3049 59.9579 88.9947 60.2441 88.6933C60.3126 88.6172 60.3126 88.6172 60.3824 88.5395C61.3146 87.5762 62.6557 87.3308 63.8909 87.3485Z" fill="#020202"/>
<path d="M81.0342 87.5703C83.6034 87.5703 86.1727 87.5703 88.8198 87.5703C88.8198 88.5891 88.8198 89.6079 88.8198 90.6575C87.4081 90.6575 85.9964 90.6575 84.542 90.6575C84.542 91.3985 84.542 92.1394 84.542 92.9028C85.8407 92.9028 87.1394 92.9028 88.4775 92.9028C88.4775 93.9216 88.4775 94.9404 88.4775 95.99C87.1788 95.99 85.8801 95.99 84.542 95.99C84.542 96.8853 84.542 97.7806 84.542 98.703C85.9254 98.703 87.3088 98.703 88.7342 98.703C88.7342 99.7218 88.7342 100.741 88.7342 101.79C86.1932 101.79 83.6522 101.79 81.0342 101.79C81.0342 97.0977 81.0342 92.4051 81.0342 87.5703Z" fill="#020202"/>
<path d="M49.7207 87.5703C52.2899 87.5703 54.8592 87.5703 57.5063 87.5703C57.5063 88.5891 57.5063 89.6079 57.5063 90.6575C56.0946 90.6575 54.6829 90.6575 53.2285 90.6575C53.2285 91.3985 53.2285 92.1394 53.2285 92.9028C54.5272 92.9028 55.826 92.9028 57.1641 92.9028C57.1641 93.9216 57.1641 94.9404 57.1641 95.99C55.8653 95.99 54.5666 95.99 53.2285 95.99C53.2285 96.8853 53.2285 97.7806 53.2285 98.703C54.6119 98.703 55.9954 98.703 57.4207 98.703C57.4207 99.7218 57.4207 100.741 57.4207 101.79C54.8797 101.79 52.3387 101.79 49.7207 101.79C49.7207 97.0977 49.7207 92.4051 49.7207 87.5703Z" fill="#020202"/>
<path d="M69.3135 87.5703C72.5603 87.5703 75.8072 87.5703 79.1524 87.5703C79.1524 88.5891 79.1524 89.6079 79.1524 90.6575C78.1078 90.6575 77.0631 90.6575 75.9868 90.6575C75.9868 94.3313 75.9868 98.0051 75.9868 101.79C74.8293 101.79 73.6717 101.79 72.479 101.79C72.479 98.1165 72.479 94.4427 72.479 90.6575C71.4344 90.6575 70.3898 90.6575 69.3135 90.6575C69.3135 89.6388 69.3135 88.62 69.3135 87.5703Z" fill="#010101"/>
<path d="M38 87.5703C41.2468 87.5703 44.4937 87.5703 47.8389 87.5703C47.8389 88.5891 47.8389 89.6079 47.8389 90.6575C46.7943 90.6575 45.7497 90.6575 44.6734 90.6575C44.6734 94.3313 44.6734 98.0051 44.6734 101.79C43.5158 101.79 42.3582 101.79 41.1656 101.79C41.1656 98.1165 41.1656 94.4427 41.1656 90.6575C40.1209 90.6575 39.0763 90.6575 38 90.6575C38 89.6388 38 88.62 38 87.5703Z" fill="#010101"/>
<path d="M94.5527 90.4707C96.2768 90.4707 96.2768 90.4707 96.9055 91.0379C97.1818 91.428 97.1589 91.8709 97.1194 92.3418C96.9433 92.9498 96.6795 93.2958 96.189 93.6339C95.8361 93.745 95.8361 93.745 94.5527 93.745C94.5527 92.6645 94.5527 91.584 94.5527 90.4707Z" fill="#EFEFEF"/>
<path d="M56.3092 38.5499C56.3787 38.5689 56.4482 38.5878 56.5198 38.6074C58.4518 39.1387 60.1854 40.2358 61.6992 41.6371C61.8122 41.7408 61.8122 41.7408 61.9275 41.8465C63.6993 43.5313 64.9796 45.6596 65.7203 48.0922C65.7987 48.3203 65.8771 48.5483 65.9556 48.7763C66.0944 49.1994 66.197 49.5831 66.2133 50.0327C66.2305 50.2671 66.2305 50.2671 66.3187 50.577C66.4184 51.008 66.4324 51.4195 66.4335 51.8625C66.4341 51.9444 66.4347 52.0263 66.4353 52.1108C66.4361 52.2838 66.4365 52.4569 66.4365 52.6299C66.4369 52.8884 66.44 53.1467 66.4432 53.4052C66.4498 54.5474 66.3218 55.5936 66.0626 56.699C66.0408 56.7942 66.0408 56.7942 66.0186 56.8912C65.8288 57.7188 65.5529 58.4616 65.207 59.225C65.1542 59.3469 65.1015 59.469 65.0489 59.5911C64.6813 60.4341 64.2641 61.1892 63.7526 61.938C63.7022 62.0141 63.6518 62.0902 63.5998 62.1686C62.9951 63.042 62.2439 63.9196 61.4436 64.5819C61.3868 64.6356 61.33 64.6893 61.2714 64.7445C61.2714 65.2052 61.3885 65.4884 61.6137 65.8672C61.6752 66.0216 61.7365 66.1761 61.7963 66.3313C61.9332 66.684 62.0791 67.0324 62.2232 67.3816C62.2731 67.5024 62.2731 67.5024 62.3239 67.6257C62.4293 67.8815 62.5348 68.1373 62.6403 68.3931C62.7794 68.7302 62.9184 69.0674 63.0574 69.4046C63.089 69.481 63.1205 69.5575 63.153 69.6362C63.3285 70.062 63.499 70.4896 63.667 70.919C63.8996 71.4969 64.1367 72.0727 64.3735 72.6486C64.4068 72.7296 64.4401 72.8106 64.4744 72.894C64.5441 73.0636 64.6139 73.2332 64.6836 73.4027C64.7548 73.5759 64.826 73.7491 64.8972 73.9223C65.0006 74.1741 65.1041 74.4258 65.2077 74.6775C65.2394 74.7548 65.2711 74.8321 65.3038 74.9117C65.3335 74.9839 65.3633 75.0561 65.3939 75.1304C65.4198 75.1935 65.4458 75.2567 65.4725 75.3217C65.5261 75.4484 65.5828 75.5736 65.6418 75.6974C65.7622 75.9731 65.7631 76.1347 65.7203 76.4386C65.2451 77.3939 64.3234 77.9784 63.4127 78.3301C63.2362 78.4045 63.0746 78.4933 62.9077 78.5903C62.2141 78.9739 61.4532 79.2114 60.6725 79.0581C60.2005 78.7722 60.0582 78.3032 59.8598 77.7834C59.7928 77.614 59.7258 77.4447 59.6586 77.2755C59.6269 77.1949 59.5952 77.1144 59.5626 77.0314C59.4594 76.7744 59.3467 76.5242 59.2288 76.2749C59.0847 75.9677 58.9681 75.6613 58.8625 75.3362C58.7834 75.109 58.6935 74.89 58.6005 74.6691C58.3464 74.0621 58.0974 73.4526 57.8492 72.8427C57.8058 72.7363 57.7623 72.6298 57.7175 72.5202C57.4703 71.9125 57.2304 71.3026 57.0014 70.6865C56.9198 70.4807 56.8312 70.2927 56.7263 70.1004C56.5817 69.8265 56.4837 69.5622 56.3884 69.2647C56.2514 68.8898 56.0725 68.5372 55.8991 68.1811C55.7959 67.9253 55.7959 67.9253 55.7959 67.5511C55.7091 67.5798 55.6223 67.6085 55.5328 67.6381C52.3511 68.6257 48.7597 67.6377 45.9409 65.9315C42.8313 63.998 40.5979 60.6125 39.6258 56.8861C39.5805 56.7262 39.5805 56.7262 39.5342 56.5631C39.446 56.195 39.4008 55.837 39.3638 55.4595C39.3141 54.9497 39.3141 54.9497 39.198 54.4538C39.1802 54.0278 39.1821 53.6016 39.1822 53.1753C39.182 52.9665 39.1804 52.7577 39.1788 52.5489C39.1653 48.8083 40.6988 45.232 43.048 42.5726C43.1218 42.486 43.1956 42.3995 43.2716 42.3102C44.8946 40.4541 47.0942 39.1324 49.3641 38.5079C49.4876 38.4737 49.6107 38.438 49.7335 38.4007C51.8599 37.7624 54.1993 37.9421 56.3092 38.5499Z" fill="#010101"/>
<path d="M58.3463 45.0273C58.7088 45.3471 59.0543 45.6802 59.389 46.0344C59.484 46.1346 59.484 46.1346 59.5809 46.2369C60.5071 47.2857 61.1454 48.5759 61.5279 49.9636C61.5775 50.1197 61.6274 50.2756 61.6776 50.4314C61.9173 51.187 61.8908 51.9688 61.8915 52.7585C61.8916 52.8237 61.8917 52.8889 61.8918 52.9561C61.8909 53.9207 61.8524 54.8297 61.6135 55.7639C61.5926 55.8559 61.5718 55.9479 61.5503 56.0427C61.2188 57.3157 60.5226 58.5179 59.7313 59.506C59.675 59.5846 59.6188 59.6632 59.5608 59.7442C59.3074 60.0828 59.0122 60.3506 58.7046 60.6286C58.6536 60.6749 58.6027 60.7212 58.5502 60.7689C58.0982 61.1592 57.6037 61.4611 57.1021 61.7669C56.936 61.8687 56.7715 61.974 56.6111 62.0863C54.8895 63.1409 52.4663 63.2551 50.5975 62.7109C49.0317 62.2164 47.7599 61.4576 46.5556 60.2544C46.4915 60.1919 46.4273 60.1294 46.3611 60.0651C45.3482 59.0275 44.5444 57.4975 44.1601 56.0445C44.0712 55.7665 43.9819 55.4886 43.892 55.211C43.4792 53.6024 43.5612 51.5312 44.0745 49.9636C44.1033 49.8749 44.1033 49.8749 44.1326 49.7843C44.5229 48.6075 45.0554 47.5607 45.7856 46.5957C45.841 46.521 45.8964 46.4462 45.9534 46.3692C46.9577 45.0693 48.3455 44.076 49.8068 43.5085C49.8907 43.4744 49.8907 43.4744 49.9764 43.4397C52.7915 42.3363 55.9913 43.1138 58.3463 45.0273Z" fill="#F5F5F5"/>
<path d="M51.5176 51.1797C51.7742 51.2732 51.7742 51.2732 51.8586 51.4324C51.8833 51.5007 51.9081 51.569 51.9336 51.6394C52.1219 52.134 52.3389 52.6081 52.5603 53.0858C52.8781 53.7767 53.1918 54.4693 53.496 55.1674C53.5284 55.241 53.5607 55.3146 53.594 55.3904C53.6237 55.4589 53.6533 55.5273 53.6839 55.5978C53.7226 55.687 53.7226 55.687 53.7621 55.7779C53.983 56.3616 53.9997 57.0037 53.8008 57.5939C53.6565 57.8219 53.6565 57.8219 53.3998 57.9155C53.3998 57.9772 53.3998 58.0389 53.3998 58.1026C52.8025 58.0078 52.4386 57.8065 51.9594 57.4064C51.5428 57.0783 51.318 57.167 50.7476 57.167C50.7476 57.7845 50.7476 58.4019 50.7476 59.0381C50.5358 59.0844 50.5358 59.0844 50.3198 59.1316C50.0999 58.8912 50.1267 58.7959 50.1259 58.4622C50.1256 58.3187 50.1256 58.3187 50.1253 58.1724C50.1259 58.0721 50.1266 57.9719 50.1273 57.8687C50.1266 57.7685 50.126 57.6683 50.1253 57.565C50.1255 57.4694 50.1257 57.3737 50.1259 57.2752C50.1261 57.1872 50.1263 57.0993 50.1265 57.0086C50.1487 56.7928 50.1487 56.7928 50.3198 56.6057C50.5236 56.567 50.5236 56.567 50.7583 56.5473C50.8361 56.5403 50.914 56.5333 50.9942 56.5261C51.054 56.5215 51.1138 56.5169 51.1753 56.5122C51.1383 56.4333 51.1012 56.3544 51.063 56.2732C51.0154 56.1707 50.9678 56.0682 50.9187 55.9626C50.871 55.8605 50.8234 55.7585 50.7743 55.6534C50.662 55.3895 50.662 55.3895 50.662 55.2024C50.4079 55.1407 50.1538 55.079 49.892 55.0153C49.8774 55.0788 49.8629 55.1422 49.8479 55.2076C49.7384 55.6673 49.6205 56.1228 49.4749 56.5706C49.4504 56.6471 49.4259 56.7236 49.4007 56.8023C49.2931 56.9799 49.2931 56.9799 49.0732 57.0581C49.0046 57.0632 48.936 57.0683 48.8653 57.0735C48.7798 56.9799 48.7798 56.9799 48.7477 56.7227C48.7521 56.2522 48.9354 55.8422 49.0953 55.4126C49.2347 55.0355 49.3502 54.654 49.4642 54.2669C49.8034 54.2598 50.074 54.2699 50.4053 54.3605C50.4053 54.0209 50.4053 53.6813 50.4053 53.3314C50.3295 53.3044 50.2536 53.2774 50.1754 53.2495C49.9344 53.16 49.7 53.0617 49.4642 52.9572C49.4409 53.0605 49.4409 53.0605 49.4171 53.1658C49.183 54.1596 49.183 54.1596 48.9509 54.454C48.838 54.454 48.725 54.454 48.6087 54.454C48.4175 53.7627 48.7009 53.22 48.9509 52.583C49.0083 52.4272 49.0655 52.2714 49.122 52.1152C49.6944 52.1569 50.1511 52.4027 50.662 52.6765C50.673 52.6051 50.6841 52.5337 50.6954 52.4602C50.8076 51.9194 51.1587 51.5503 51.5176 51.1797Z" fill="#080808"/>
<path d="M54.2561 49.4023C54.8601 49.445 55.3299 49.6054 55.8816 49.8701C56.0241 49.933 56.1666 49.9955 56.3094 50.0572C56.3131 50.2131 56.3129 50.3691 56.3094 50.525C56.2239 50.6185 56.2239 50.6185 55.9959 50.6361C55.6898 50.6172 55.4534 50.5435 55.1651 50.4314C55.0745 50.3967 54.9838 50.362 54.8904 50.3262C54.8222 50.2992 54.7541 50.2721 54.6839 50.2443C54.6856 50.335 54.6874 50.4257 54.6892 50.5191C54.6839 50.8056 54.6839 50.8056 54.5983 50.8992C54.5626 51.1239 54.5626 51.1239 54.5983 51.3669C54.7452 51.5439 54.7452 51.5439 54.9405 51.6768C55.0358 51.7487 55.0358 51.7487 55.133 51.8219C55.1824 51.857 55.2319 51.8921 55.2828 51.9283C55.2916 51.8607 55.3004 51.7932 55.3095 51.7236C55.3734 51.4376 55.4779 51.2375 55.625 50.9927C56.1294 51.0303 56.5361 51.2154 56.9979 51.4349C57.2141 51.5369 57.4304 51.6299 57.6516 51.7178C57.935 51.8347 57.935 51.8347 58.0205 51.9283C58.024 52.0841 58.0242 52.2402 58.0205 52.396C57.5915 52.5558 57.3007 52.4 56.903 52.2206C56.401 51.999 56.401 51.999 55.8816 51.8347C55.7782 52.4346 55.7627 52.8318 56.0604 53.3604C56.1383 53.5186 56.1383 53.5186 56.1383 53.7993C56.1828 53.7509 56.2272 53.7026 56.273 53.6528C56.3327 53.5911 56.3923 53.5295 56.4538 53.466C56.5124 53.4042 56.5709 53.3423 56.6313 53.2786C56.8228 53.1444 56.8228 53.1444 57.0276 53.1459C57.315 53.2646 57.5217 53.4351 57.7639 53.6414C57.8503 53.7144 57.9368 53.7874 58.0259 53.8625C58.2529 54.0589 58.4793 54.256 58.705 54.4542C58.6768 54.6085 58.6485 54.7629 58.6194 54.9219C58.0493 54.9219 57.7779 54.6427 57.3645 54.2313C57.1799 54.058 57.1799 54.058 56.9795 54.092C56.77 54.2009 56.6407 54.3667 56.4805 54.5477C56.4241 54.5477 56.3676 54.5477 56.3094 54.5477C56.3114 54.6279 56.3134 54.7081 56.3154 54.7907C56.3343 56.0973 56.3343 56.0973 55.9672 56.6994C55.5948 56.7865 55.2022 56.787 54.852 56.6128C54.2422 56.0979 53.9133 55.2498 53.6291 54.4893C53.4039 53.8895 53.145 53.3129 52.8765 52.7351C52.8316 52.6378 52.7867 52.5405 52.7405 52.4402C52.5147 51.9499 52.5147 51.9499 52.2854 51.4615C52.1172 51.1055 52.1172 51.1055 52.1172 50.8992C52.3728 50.7594 52.6339 50.7884 52.9139 50.7881C53.0265 50.7868 53.1391 50.7854 53.2551 50.7841C53.5478 50.804 53.7387 50.8532 53.9994 50.9927C54.0036 50.9328 54.0078 50.8729 54.0121 50.8111C54.0511 50.318 54.1158 49.8729 54.2561 49.4023Z" fill="#070707"/>
<path d="M52.6139 47.4548C52.6756 47.4799 52.7374 47.505 52.801 47.5308C52.6878 47.8015 52.5612 48.0066 52.3786 48.2266C52.1749 48.4793 52.0081 48.7306 51.8599 49.0276C51.9446 49.0161 52.0293 49.0045 52.1166 48.9926C52.5523 48.9906 52.8388 49.2734 53.1432 49.589C53.3999 49.9151 53.3999 49.9151 53.3999 50.2438C53.2929 50.2491 53.2929 50.2491 53.1837 50.2544C52.2545 50.3138 51.5259 50.4616 50.8332 51.1793C50.68 51.3912 50.5445 51.6106 50.4055 51.8342C50.349 51.8342 50.2925 51.8342 50.2343 51.8342C49.9712 51.2947 49.9965 50.6336 50.1488 50.0567C50.2053 50.0567 50.2617 50.0567 50.3199 50.0567C50.3199 49.9641 50.3199 49.8715 50.3199 49.7761C49.8117 49.7761 49.3035 49.7761 48.7799 49.7761C48.7517 49.6526 48.7234 49.5291 48.6943 49.4019C48.8657 49.2145 49.1981 49.291 49.4323 49.2908C49.5221 49.289 49.5221 49.289 49.6137 49.2873C50.0233 49.286 50.3588 49.3542 50.7477 49.4954C50.7477 49.4337 50.7477 49.3719 50.7477 49.3083C50.8341 49.2851 50.9206 49.262 51.0097 49.2381C51.4452 49.04 51.5913 48.6098 51.8064 48.1765C52.1917 47.424 52.1917 47.424 52.6139 47.4548Z" fill="#0A0A0A"/>
<path d="M54.4272 56.9795C54.4995 57.0084 54.5719 57.0374 54.6464 57.0672C54.9448 57.168 55.2299 57.2195 55.5394 57.2601C55.3849 57.6807 55.1528 57.8061 54.7978 58.0111C54.5504 58.124 54.3499 58.1393 54.085 58.1021C54.1255 58.0037 54.1661 57.9053 54.2079 57.8039C54.3154 57.5313 54.3863 57.2744 54.4272 56.9795Z" fill="#101010"/>
</svg>
