<svg width="140" height="140" viewBox="0 0 140 140" fill="none" xmlns="http://www.w3.org/2000/svg">
<circle cx="70" cy="70" r="70" fill="white"/>
<path d="M94.2134 70C95.1296 69.1584 95.9816 68.3148 96.7596 67.4739C101.682 62.1535 103.202 57.3905 101.042 54.0625C98.8812 50.7344 93.4825 49.5241 85.84 50.6546C84.6365 50.8326 83.3937 51.066 82.1207 51.3492C81.7558 50.2032 81.356 49.1066 80.921 48.0693C78.1985 41.576 74.3201 38 70 38C65.6799 38 61.8014 41.576 59.079 48.0693C58.6441 49.1066 58.2443 50.2032 57.8794 51.3492C56.6066 51.0659 55.3637 50.8326 54.1602 50.6546C46.518 49.5244 41.1191 50.7344 38.9585 54.0625C36.7977 57.3906 38.3185 62.1535 43.2406 67.4739C44.0185 68.3148 44.8706 69.1584 45.7868 70C44.8706 70.8416 44.0187 71.6853 43.2406 72.5261C38.3183 77.8465 36.7976 82.6094 38.9583 85.9375C41.686 90.1388 48.7943 90.1391 54.1601 89.3454C55.3636 89.1674 56.6065 88.934 57.8793 88.6507C58.2442 89.7967 58.6439 90.8934 59.0788 91.9308C61.8014 98.424 65.6799 102 70 102C74.3201 102 78.1985 98.424 80.921 91.9308C81.3559 90.8934 81.7558 89.7967 82.1207 88.6507C83.3937 88.9341 84.6365 89.1674 85.84 89.3454C91.2055 90.139 98.3143 90.1388 101.042 85.9375C103.202 82.6095 101.682 77.8465 96.7596 72.5261C95.9817 71.6853 95.1296 70.8416 94.2134 70ZM53.4681 85.6461C47.8524 86.4769 43.7933 85.8848 42.6102 84.0625C41.4271 82.2401 42.8801 78.8181 46.4968 74.9086C47.2081 74.1399 47.988 73.3675 48.8278 72.5959C50.88 74.2306 53.1591 75.8385 55.6158 77.3838C55.8911 80.0474 56.3155 82.6076 56.8787 85.009C55.7099 85.2691 54.5702 85.4831 53.4681 85.6461ZM55.2836 72.5021C54.0901 71.6784 52.9552 70.8426 51.8863 70C52.9552 69.1575 54.0901 68.3216 55.2836 67.4979C55.2556 68.3264 55.2407 69.1606 55.2407 70C55.2407 70.8394 55.2556 71.6736 55.2836 72.5021ZM55.6159 62.6162C53.1593 64.1615 50.8802 65.7694 48.8279 67.4041C47.9882 66.6325 47.2081 65.8601 46.4969 65.0914C42.8802 61.1819 41.4272 57.7599 42.6103 55.9375C43.7935 54.1152 47.8524 53.5231 53.4682 54.3539C54.5702 54.5169 55.7101 54.7309 56.879 54.991C56.3156 57.3924 55.8913 59.9527 55.6159 62.6162ZM79.798 59.9194C78.9992 59.4799 78.193 59.0512 77.3796 58.6334C76.5671 58.2165 75.7477 57.8105 74.9214 57.4155C76.3227 56.9074 77.7064 56.4505 79.0636 56.0481C79.3482 57.2945 79.5935 58.5879 79.798 59.9194ZM63.0301 49.3794C65.0331 44.6021 67.6386 41.75 70 41.75C72.3613 41.75 74.9668 44.6021 76.9699 49.3794C77.3688 50.331 77.7359 51.3385 78.0716 52.3927C75.4488 53.1567 72.7383 54.1095 70 55.231C67.2617 54.1095 64.551 53.1566 61.9284 52.3927C62.264 51.3385 62.6312 50.3309 63.0301 49.3794ZM60.9365 56.0481C62.2937 56.4505 63.6774 56.9074 65.0787 57.4155C64.2524 57.8105 63.4329 58.2165 62.6204 58.6334C61.807 59.0512 61.0008 59.4799 60.202 59.9194C60.4065 58.5879 60.6518 57.2945 60.9365 56.0481ZM60.202 80.0806C61.0008 80.5201 61.807 80.9488 62.6204 81.3666C63.4329 81.7836 64.2524 82.1896 65.0787 82.5845C63.6774 83.0926 62.2937 83.5495 60.9365 83.9519C60.6518 82.7055 60.4065 81.4121 60.202 80.0806ZM76.9699 90.6206C74.9668 95.3979 72.3613 98.25 70 98.25C67.6386 98.25 65.0331 95.3979 63.0301 90.6206C62.6312 89.669 62.264 88.6615 61.9284 87.6073C64.5512 86.8434 67.2617 85.8905 70 84.769C72.7383 85.8905 75.449 86.8433 78.0716 87.6073C77.7359 88.6615 77.3688 89.6691 76.9699 90.6206ZM79.0634 83.9519C77.7063 83.5495 76.3226 83.0927 74.9213 82.5845C75.7475 82.1896 76.567 81.7836 77.3795 81.3666C78.1929 80.9489 78.9991 80.5202 79.7979 80.0806C79.5935 81.4121 79.3482 82.7055 79.0634 83.9519ZM80.3416 75.309C78.6877 76.2965 76.9966 77.2337 75.2711 78.119C73.5464 79.005 71.7883 79.8387 70 80.6186C68.2116 79.8388 66.4535 79.0051 64.7288 78.119C63.0034 77.2337 61.3123 76.2965 59.6584 75.309C59.5261 73.5757 59.4577 71.8009 59.4577 70C59.4577 68.1991 59.5261 66.4243 59.6584 64.691C61.3123 63.7035 63.0034 62.7663 64.7288 61.881C66.4536 60.995 68.2116 60.1613 70 59.3814C71.7884 60.1612 73.5464 60.9949 75.2711 61.881C76.9966 62.7663 78.6877 63.7035 80.3416 64.691C80.4738 66.4243 80.5423 68.1991 80.5423 70C80.5423 71.8009 80.4738 73.5757 80.3416 75.309ZM86.5317 54.3539C92.1474 53.5231 96.2065 54.1152 97.3896 55.9375C98.5728 57.7599 97.1199 61.1819 93.503 65.0914C92.7918 65.8601 92.0118 66.6325 91.1721 67.4041C89.1198 65.7694 86.8407 64.1615 84.3841 62.6162C84.1087 59.9526 83.6843 57.3924 83.1211 54.991C84.29 54.7309 85.4297 54.5169 86.5317 54.3539ZM84.7164 67.4979C85.9099 68.3216 87.0448 69.1574 88.1137 70C87.0448 70.8425 85.9099 71.6784 84.7164 72.5021C84.7443 71.6736 84.7592 70.8394 84.7592 70C84.7592 69.1606 84.7443 68.3264 84.7164 67.4979ZM97.3896 84.0625C96.2065 85.8849 92.1474 86.4769 86.5317 85.6461C85.4297 85.4831 84.29 85.2691 83.1211 85.009C83.6843 82.6076 84.1087 80.0474 84.3841 77.3838C86.8407 75.8385 89.1198 74.2305 91.1721 72.5959C92.0118 73.3676 92.7918 74.1399 93.503 74.9086C97.12 78.8181 98.5728 82.2401 97.3896 84.0625ZM70 64.375C66.5122 64.375 63.6746 66.8984 63.6746 70C63.6746 73.1016 66.5122 75.625 70 75.625C73.4878 75.625 76.3254 73.1016 76.3254 70C76.3254 66.8984 73.4879 64.375 70 64.375ZM70 71.875C68.8374 71.875 67.8915 71.0339 67.8915 70C67.8915 68.9661 68.8374 68.125 70 68.125C71.1626 68.125 72.1084 68.9661 72.1084 70C72.1084 71.0339 71.1626 71.875 70 71.875Z" fill="url(#paint0_linear_1607_2041)"/>
<defs>
<linearGradient id="paint0_linear_1607_2041" x1="70" y1="102" x2="70" y2="38" gradientUnits="userSpaceOnUse">
<stop stop-color="#5558FF"/>
<stop offset="1" stop-color="#00C0FF"/>
</linearGradient>
</defs>
</svg>
