<svg width="140" height="140" viewBox="0 0 140 140" fill="none" xmlns="http://www.w3.org/2000/svg">
<circle cx="70" cy="70" r="70" fill="white"/>
<path fill-rule="evenodd" clip-rule="evenodd" d="M84.7115 85.597L85.5979 84.7108L82.4762 81.5899C82.3323 81.74 82.1871 81.89 82.0386 82.0386C81.8901 82.1873 81.7413 82.3329 81.5898 82.4762L84.7113 85.5969L84.7115 85.597ZM63.7926 87.5848C60.6668 87.5903 57.5708 86.9782 54.6822 85.7836C51.7937 84.5891 49.1696 82.8356 46.9607 80.6239C37.6796 71.3421 37.6796 56.241 46.9607 46.96C56.2419 37.6789 71.3435 37.6782 80.6246 46.96C89.9058 56.2417 89.9064 71.3421 80.6246 80.6239C78.4161 82.8361 75.7921 84.5898 72.9034 85.7844C70.0148 86.9789 66.9185 87.5907 63.7926 87.5845V87.5848ZM100.219 91.6021C101.36 92.745 102.001 94.2943 102 95.9093C101.999 97.5244 101.358 99.0731 100.216 100.215C99.0737 101.357 97.525 101.999 95.9099 102C94.2949 102.001 92.7456 101.36 91.6025 100.219L81.5535 90.1687C81.4605 90.0761 81.3866 89.9659 81.3362 89.8446C81.2858 89.7233 81.2599 89.5933 81.2599 89.4619C81.2599 89.3306 81.2858 89.2005 81.3362 89.0793C81.3866 88.958 81.4605 88.8478 81.5535 88.7551L83.2962 87.0108L80.0869 83.8014C75.1293 87.8277 68.8564 89.8756 62.4781 89.5501C56.0998 89.2245 50.068 86.5487 45.546 82.0386C35.4847 71.9774 35.4847 55.6059 45.546 45.5456C55.6074 35.4854 71.9776 35.4842 82.039 45.5456C91.4728 54.9794 92.062 69.9609 83.8029 80.0871L87.0121 83.2953L88.7565 81.5527C88.8491 81.4596 88.9593 81.3857 89.0806 81.3352C89.2019 81.2848 89.3319 81.2589 89.4633 81.2589C89.5946 81.2589 89.7247 81.2848 89.846 81.3352C89.9673 81.3857 90.0774 81.4596 90.1701 81.5527L100.219 91.6016L100.219 91.6021ZM77.9579 77.9571C74.2011 81.7137 69.106 83.8241 63.7933 83.8241C58.4805 83.8241 53.3854 81.7137 49.6286 77.9571C41.8177 70.1457 41.8177 57.4377 49.6286 49.6266C57.4396 41.8156 70.1476 41.8163 77.9585 49.6266C85.7694 57.4369 85.7689 70.1457 77.9585 77.9571H77.9579ZM70.6535 62.2298V65.3552C70.6624 66.5348 71.1371 67.6631 71.9743 68.4941C72.8116 69.325 73.9433 69.7914 75.1229 69.7914C76.3025 69.7914 77.4343 69.325 78.2715 68.4941C79.1088 67.6631 79.5835 66.5348 79.5924 65.3552V62.2298C79.5835 61.0502 79.1088 59.9219 78.2715 59.0909C77.4343 58.26 76.3025 57.7936 75.1229 57.7936C73.9433 57.7936 72.8116 58.26 71.9743 59.0909C71.1371 59.9219 70.6624 61.0502 70.6535 62.2298ZM72.6538 65.3552C72.6604 66.0058 72.9234 66.6275 73.3857 67.0852C73.8481 67.5429 74.4724 67.7996 75.1229 67.7996C75.7735 67.7996 76.3978 67.5429 76.8602 67.0852C77.3225 66.6275 77.5855 66.0058 77.5921 65.3552V62.2298C77.5953 61.9034 77.5339 61.5797 77.4113 61.2772C77.2887 60.9748 77.1073 60.6996 76.8777 60.4677C76.6481 60.2358 76.3748 60.0517 76.0736 59.926C75.7724 59.8004 75.4493 59.7357 75.1229 59.7357C74.7966 59.7357 74.4735 59.8004 74.1723 59.926C73.8711 60.0517 73.5978 60.2358 73.3682 60.4677C73.1386 60.6996 72.9572 60.9748 72.8346 61.2772C72.712 61.5797 72.6505 61.9034 72.6538 62.2298V65.3552ZM59.3391 58.7609V68.8249C59.3391 69.0901 59.4445 69.3445 59.632 69.5321C59.8196 69.7197 60.074 69.825 60.3392 69.825H67.2778C67.543 69.825 67.7974 69.7197 67.985 69.5321C68.1726 69.3445 68.2779 69.0901 68.2779 68.8249C68.2779 68.5596 68.1726 68.3052 67.985 68.1177C67.7974 67.9301 67.543 67.8247 67.2778 67.8247H61.3394V64.7898C61.3497 64.7916 61.3602 64.7926 61.3706 64.7927H67.278C67.5433 64.7927 67.7977 64.6873 67.9852 64.4997C68.1728 64.3122 68.2782 64.0578 68.2782 63.7925C68.2782 63.5272 68.1728 63.2729 67.9852 63.0853C67.7977 62.8977 67.5433 62.7923 67.278 62.7923H61.3706C61.36 62.7923 61.35 62.7935 61.3394 62.7935V59.761H67.2778C67.543 59.761 67.7974 59.6556 67.985 59.4681C68.1726 59.2805 68.2779 59.0261 68.2779 58.7609C68.2779 58.4956 68.1726 58.2412 67.985 58.0537C67.7974 57.8661 67.543 57.7607 67.2778 57.7607H60.3392C60.074 57.7607 59.8196 57.8661 59.632 58.0537C59.4445 58.2412 59.3391 58.4956 59.3391 58.7609ZM52.4947 59.7923C53.9678 59.7923 54.9951 60.5825 54.9951 61.2925C54.9951 61.5578 55.1004 61.8121 55.288 61.9997C55.4756 62.1873 55.73 62.2926 55.9952 62.2926C56.2605 62.2926 56.5149 62.1873 56.7024 61.9997C56.89 61.8121 56.9954 61.5578 56.9954 61.2925C56.9954 59.3281 55.0187 57.792 52.4947 57.792C49.9707 57.792 47.9933 59.3282 47.9933 61.2925C47.9933 62.5149 48.5559 63.4615 49.6174 64.0275C50.4165 64.4526 51.3878 64.6179 52.3265 64.7776C54.3936 65.1291 54.9946 65.3715 54.9946 66.2933C54.9946 67.0021 53.9678 67.7935 52.4942 67.7935C51.0206 67.7935 49.9938 67.0021 49.9938 66.2933C49.9938 66.0279 49.8884 65.7734 49.7008 65.5858C49.5132 65.3982 49.2587 65.2928 48.9934 65.2928C48.728 65.2928 48.4735 65.3982 48.2859 65.5858C48.0983 65.7734 47.9929 66.0279 47.9929 66.2933C47.9929 68.256 49.9703 69.7938 52.4943 69.7938C55.0183 69.7938 56.995 68.256 56.995 66.2933C56.995 65.0689 56.4337 64.1224 55.3715 63.5562C54.5714 63.1312 53.6011 62.966 52.6617 62.8061C50.5947 62.4553 49.9943 62.2135 49.9943 61.2924C49.9942 60.582 51.0215 59.7918 52.4947 59.7918V59.7923Z" fill="url(#paint0_linear_1607_2040)"/>
<defs>
<linearGradient id="paint0_linear_1607_2040" x1="56.2894" y1="90.6861" x2="90.7775" y2="53.6638" gradientUnits="userSpaceOnUse">
<stop stop-color="#667ABC"/>
<stop offset="0.206" stop-color="#5E82C2"/>
<stop offset="0.528" stop-color="#4998D3"/>
<stop offset="0.924" stop-color="#27BCEE"/>
<stop offset="1" stop-color="#20C4F4"/>
</linearGradient>
</defs>
</svg>
