<svg width="140" height="140" viewBox="0 0 140 140" fill="none" xmlns="http://www.w3.org/2000/svg">
<rect width="140" height="140" rx="70" fill="white"/>
<path d="M47.4545 36.3765L70 34L92.5454 36.3765L110 59.7389L70 106.182L30 59.7389L47.4545 36.3765Z" fill="#FDB300"/>
<path d="M46.202 59.7388L70 106.182L30 59.7388H46.202Z" fill="#EA6C00"/>
<path d="M93.798 59.7388L70 106.182L110 59.7388H93.798Z" fill="#EA6C00"/>
<path d="M46.2021 59.7388H93.7982L70.0002 106.182L46.2021 59.7388Z" fill="#FDAD00"/>
<path d="M70.0002 34L47.4546 36.3765L46.2021 59.7389L70.0002 34Z" fill="#FDD231"/>
<path d="M69.9998 34L92.5454 36.3765L93.7979 59.7389L69.9998 34Z" fill="#FDD231"/>
<path d="M110 59.7389L92.5453 36.3765L93.798 59.7389H110Z" fill="#FDAD00"/>
<path d="M30 59.7389L47.4545 36.3765L46.202 59.7389H30Z" fill="#FDAD00"/>
<path d="M70.0002 34L46.2021 59.7389H93.7982L70.0002 34Z" fill="#FEEEB7"/>
</svg>
