<svg width="140" height="140" viewBox="0 0 140 140" fill="none" xmlns="http://www.w3.org/2000/svg">
<g clip-path="url(#clip0_1703_96)">
<path d="M70 140C108.66 140 140 108.66 140 70C140 31.3401 108.66 0 70 0C31.3401 0 0 31.3401 0 70C0 108.66 31.3401 140 70 140Z" fill="white"/>
<path fill-rule="evenodd" clip-rule="evenodd" d="M70 51C61.4656 51 56.1344 55.2212 54 63.6667C57.2 59.4455 60.9344 57.8622 65.2 58.9167C67.6352 59.5188 69.376 61.2678 71.2992 63.2015C74.4384 66.3523 78.0704 70 86 70C94.5344 70 99.8656 65.7788 102 57.3333C98.8 61.5545 95.0688 63.1378 90.8 62.0833C88.3648 61.4812 86.624 59.7322 84.6976 57.7985C81.5616 54.6445 77.9328 51 70 51ZM54 70C45.4656 70 40.1344 74.2212 38 82.6667C41.2 78.4423 44.9344 76.8622 49.2 77.9167C51.6352 78.5188 53.376 80.2678 55.3024 82.2015C58.4384 85.3523 62.0704 89 70.0032 89C78.5376 89 83.8688 84.7788 86.0032 76.3333C82.8032 80.5545 79.0688 82.1378 74.8032 81.0833C72.368 80.4812 70.6272 78.7322 68.704 76.7985C65.5616 73.6477 61.9296 70 54 70Z" fill="#38BDF8"/>
</g>
<defs>
<clipPath id="clip0_1703_96">
<rect width="140" height="140" fill="white"/>
</clipPath>
</defs>
</svg>
