<svg width="140" height="140" viewBox="0 0 140 140" fill="none" xmlns="http://www.w3.org/2000/svg">
<circle cx="70" cy="70" r="70" fill="white"/>
<path d="M57.1983 57.7512H53.664L63.2994 84.9884L68.6936 69.5736L64.5114 57.7512H60.7824V55.1559H77.2956V57.7512H73.4286L83.0639 84.9884L86.5275 75.0906C91.0709 62.4096 82.8036 58.4594 82.8036 55.6294C82.8036 52.7993 85.0979 50.5052 87.9278 50.5052C88.0809 50.5052 88.2296 50.5135 88.3752 50.5271C83.5802 46.0005 77.1145 43.2246 69.9999 43.2246C60.7035 43.2246 52.5149 47.9632 47.7145 55.1559H57.198V57.7512H57.1983ZM43.2251 69.9997C43.2251 80.2506 48.9867 89.1546 57.4473 93.6538L45.3642 59.4976C43.9878 62.7223 43.2251 66.2719 43.2251 69.9997ZM93.3023 56.8058C93.6852 59.0609 93.5693 61.5954 92.9816 64.1399H93.0881L92.6832 65.2967C92.4433 66.132 92.1413 66.9865 91.7982 67.8261L82.5852 93.6365C91.028 89.1318 96.7749 80.2375 96.7749 69.9996C96.7749 65.2022 95.512 60.7002 93.3023 56.8058Z" fill="#00769D"/>
<path d="M61.7422 95.4752C64.3434 96.3179 67.118 96.7749 69.9999 96.7749C72.7488 96.7749 75.4006 96.36 77.8969 95.5905L70.065 73.4512L61.7422 95.4752Z" fill="#00769D"/>
<path d="M92.6273 47.3726C86.5834 41.3286 78.5474 38 69.9999 38C61.4524 38 53.4165 41.3286 47.3725 47.3726C41.3286 53.4165 38 61.4524 38 70.0001C38 78.5476 41.3286 86.5835 47.3725 92.6274C53.4165 98.6714 61.4525 102 70 102C78.5475 102 86.5834 98.6714 92.6275 92.6274C98.6714 86.5835 102 78.5475 102 70.0001C102 61.4524 98.6713 53.4165 92.6273 47.3726ZM69.9999 99.7426C53.5998 99.7426 40.2574 86.4002 40.2574 70.0001C40.2574 53.6 53.5998 40.2574 69.9999 40.2574C86.3999 40.2574 99.7424 53.6 99.7424 70.0001C99.7424 86.4002 86.4001 99.7426 69.9999 99.7426Z" fill="#00769D"/>
</svg>
