<svg width="140" height="140" viewBox="0 0 140 140" fill="none" xmlns="http://www.w3.org/2000/svg">
<rect width="140" height="140" rx="70" fill="white"/>
<path d="M30 38.8889C30 33.98 33.98 30 38.8889 30H101.111C106.02 30 110 33.98 110 38.8889V101.111C110 106.02 106.02 110 101.111 110H38.8889C33.98 110 30 106.02 30 101.111V38.8889Z" fill="#FF41C8"/>
<path d="M36.6665 36.6665V103.333H103.333V36.6665H36.6665ZM59.0954 64.8776L63.3487 54.0265H70.6621L63.2398 69.6954L70.8354 85.6243H63.4354L59.0954 74.5776L54.7776 85.6243H47.3776L54.9732 69.6954L47.5287 54.0265H54.8421L59.0954 64.8776ZM72.3754 73.1687C72.3754 69.3198 73.0265 66.4487 74.3287 64.5532C75.6309 62.6576 77.5243 61.7109 80.0154 61.7109C81.8221 61.7109 83.3287 62.4932 84.5287 64.0554V52.2932H90.7132V85.6265H85.1354L84.8532 83.2398C83.5954 85.1221 81.9732 86.0621 79.9909 86.0621C77.5332 86.0621 75.6554 85.1221 74.3598 83.2398C73.0643 81.3576 72.4021 78.5954 72.3732 74.9509L72.3754 73.1687ZM78.5398 74.7087C78.5398 77.0243 78.7843 78.6421 79.2776 79.5598C79.7709 80.4776 80.6021 80.9376 81.7732 80.9376C82.9887 80.9376 83.9065 80.3954 84.5287 79.3109V68.5909C83.9221 67.4332 83.0087 66.8554 81.7954 66.8554C80.6665 66.8554 79.8421 67.3109 79.3221 68.2221C78.8021 69.1332 78.5398 70.7554 78.5398 73.0843V74.7087Z" fill="#16020B"/>
</svg>
